<?xml version="1.0" encoding="utf-8"?>
<!-- Generator: Adobe Illustrator 18.0.0, SVG Export Plug-In . SVG Version: 6.00 Build 0)  -->
<svg version="1.2" baseProfile="tiny" id="Layer_1" xmlns:sketch="http://www.bohemiancoding.com/sketch/ns"
	 xmlns="http://www.w3.org/2000/svg" xmlns:xlink="http://www.w3.org/1999/xlink" x="0px" y="0px" viewBox="0 0 360 60"
	 xml:space="preserve">
<title>calendar-thin</title>
<desc>Created with Sketch.</desc>
<g id="Page-1" sketch:type="MSPage">
	<g id="calendar-thin" sketch:type="MSLayerGroup">
		<rect id="Button" sketch:type="MSShapeGroup" fill="none" stroke="#B8C8D2" width="360" height="60">
		</rect>
		<g>
			<path fill="#B8C8D2" d="M102.6,34.7h-6.3L94.5,41h-2.4l6.8-22.8h1.3L107,41h-2.5L102.6,34.7z M97,32.6h5.1l-1.9-7l-0.6-3.4h-0.1
				l-0.6,3.4L97,32.6z"/>
			<path fill="#B8C8D2" d="M119.1,35.5c0,1.1,0,2.1,0,3c0,0.9,0.1,1.8,0.2,2.6h-1.6l-0.5-1.9h-0.1c-0.3,0.6-0.8,1.2-1.4,1.6
				s-1.4,0.6-2.3,0.6c-1.7,0-3-0.7-3.9-2c-0.8-1.3-1.3-3.5-1.3-6.3c0-2.7,0.5-4.8,1.6-6.2s2.5-2.1,4.3-2.1c0.6,0,1.1,0,1.5,0.1
				c0.4,0.1,0.8,0.2,1.2,0.4v-6.6h2.3V35.5z M116.8,27.5c-0.3-0.3-0.6-0.4-1-0.6c-0.4-0.1-0.9-0.2-1.5-0.2c-1.1,0-2,0.5-2.6,1.5
				c-0.6,1-0.9,2.6-0.9,4.7c0,0.9,0.1,1.8,0.2,2.5c0.1,0.8,0.3,1.4,0.5,2c0.2,0.6,0.6,1,1,1.3c0.4,0.3,0.9,0.4,1.5,0.4
				c1.5,0,2.5-0.9,2.9-2.7V27.5z"/>
			<path fill="#B8C8D2" d="M133,35.5c0,1.1,0,2.1,0,3c0,0.9,0.1,1.8,0.2,2.6h-1.6l-0.5-1.9H131c-0.3,0.6-0.8,1.2-1.4,1.6
				s-1.4,0.6-2.3,0.6c-1.7,0-3-0.7-3.9-2c-0.8-1.3-1.3-3.5-1.3-6.3c0-2.7,0.5-4.8,1.6-6.2s2.5-2.1,4.3-2.1c0.6,0,1.1,0,1.5,0.1
				c0.4,0.1,0.8,0.2,1.2,0.4v-6.6h2.3V35.5z M130.7,27.5c-0.3-0.3-0.6-0.4-1-0.6c-0.4-0.1-0.9-0.2-1.5-0.2c-1.1,0-2,0.5-2.6,1.5
				c-0.6,1-0.9,2.6-0.9,4.7c0,0.9,0.1,1.8,0.2,2.5c0.1,0.8,0.3,1.4,0.5,2c0.2,0.6,0.6,1,1,1.3c0.4,0.3,0.9,0.4,1.5,0.4
				c1.5,0,2.5-0.9,2.9-2.7V27.5z"/>
			<path fill="#B8C8D2" d="M141.9,25h2v-3.2l2.3-0.7V25h3.5v2.1h-3.5v9.5c0,0.9,0.1,1.6,0.3,2s0.6,0.6,1.1,0.6c0.4,0,0.8,0,1.1-0.1
				c0.3-0.1,0.6-0.2,1-0.4l0.4,1.8c-0.5,0.2-1,0.4-1.6,0.6c-0.6,0.1-1.2,0.2-1.8,0.2c-1.1,0-1.8-0.3-2.3-1c-0.5-0.7-0.7-1.8-0.7-3.4
				v-9.9h-2V25z"/>
			<path fill="#B8C8D2" d="M151.4,33c0-2.9,0.5-5,1.5-6.4c1-1.4,2.4-2,4.2-2c2,0,3.4,0.7,4.3,2.1c0.9,1.4,1.4,3.5,1.4,6.3
				c0,2.9-0.5,5-1.5,6.4c-1,1.3-2.4,2-4.2,2c-2,0-3.4-0.7-4.3-2.1C151.8,37.9,151.4,35.8,151.4,33z M153.8,33c0,0.9,0.1,1.8,0.2,2.6
				c0.1,0.8,0.3,1.4,0.6,2c0.3,0.6,0.6,1,1,1.3c0.4,0.3,0.9,0.5,1.5,0.5c1.1,0,1.9-0.5,2.5-1.5c0.6-1,0.8-2.6,0.8-4.8
				c0-0.9-0.1-1.8-0.2-2.5c-0.1-0.8-0.3-1.4-0.6-2s-0.6-1-1-1.3c-0.4-0.3-0.9-0.5-1.5-0.5c-1.1,0-1.9,0.5-2.5,1.5
				C154,29.2,153.8,30.8,153.8,33z"/>
			<path fill="#B8C8D2" d="M184.5,40.1c-0.5,0.4-1.2,0.8-2,1c-0.8,0.2-1.7,0.3-2.6,0.3c-1.1,0-2.2-0.2-3.1-0.6s-1.8-1.1-2.5-2
				s-1.2-2.1-1.6-3.6c-0.4-1.5-0.6-3.2-0.6-5.3c0-2.1,0.2-3.9,0.7-5.4c0.4-1.5,1-2.7,1.7-3.6c0.7-0.9,1.6-1.6,2.5-2
				c0.9-0.4,1.9-0.6,2.9-0.6c1,0,1.9,0.1,2.5,0.2s1.3,0.3,1.7,0.5l-0.6,2.2c-0.4-0.2-0.9-0.4-1.5-0.5s-1.2-0.2-2-0.2
				c-0.7,0-1.5,0.2-2.1,0.5c-0.7,0.3-1.2,0.9-1.8,1.6c-0.5,0.7-0.9,1.7-1.2,2.9c-0.3,1.2-0.4,2.7-0.4,4.4c0,3.1,0.5,5.5,1.6,7
				c1.1,1.6,2.5,2.4,4.3,2.4c0.7,0,1.4-0.1,2-0.3c0.6-0.2,1.1-0.4,1.5-0.7L184.5,40.1z"/>
			<path fill="#B8C8D2" d="M186.8,26c0.6-0.4,1.4-0.7,2.3-0.9c0.9-0.2,1.8-0.3,2.8-0.3c0.9,0,1.6,0.1,2.2,0.4c0.5,0.3,1,0.6,1.3,1.1
				s0.5,1,0.6,1.6c0.1,0.6,0.1,1.2,0.1,1.8c0,1.3,0,2.5-0.1,3.7c-0.1,1.2-0.1,2.4-0.1,3.5c0,0.8,0,1.6,0.1,2.3
				c0.1,0.7,0.2,1.3,0.3,2h-1.8l-0.6-1.9h-0.1c-0.3,0.6-0.8,1-1.4,1.4s-1.4,0.6-2.5,0.6c-1.1,0-2.1-0.4-2.8-1.2
				c-0.7-0.8-1.1-1.9-1.1-3.3c0-0.9,0.2-1.7,0.5-2.3c0.3-0.6,0.7-1.1,1.3-1.5c0.6-0.4,1.2-0.7,2-0.8s1.6-0.2,2.6-0.2
				c0.2,0,0.4,0,0.6,0c0.2,0,0.4,0,0.7,0c0.1-0.7,0.1-1.2,0.1-1.8c0-1.2-0.2-2.1-0.5-2.6c-0.4-0.5-1-0.7-2-0.7
				c-0.6,0-1.2,0.1-1.9,0.3c-0.7,0.2-1.3,0.4-1.7,0.7L186.8,26z M193.6,33.7c-0.2,0-0.4,0-0.6,0s-0.4,0-0.6,0c-0.5,0-1,0-1.5,0.1
				c-0.5,0.1-0.9,0.2-1.3,0.4c-0.4,0.2-0.7,0.5-0.9,0.9c-0.2,0.4-0.3,0.8-0.3,1.4c0,0.9,0.2,1.5,0.6,2c0.4,0.5,0.9,0.7,1.6,0.7
				c0.9,0,1.6-0.2,2.1-0.6c0.5-0.4,0.8-0.9,1-1.4V33.7z"/>
			<path fill="#B8C8D2" d="M202.2,37.2c0,0.7,0.1,1.3,0.3,1.6s0.5,0.5,0.8,0.5c0.4,0,1-0.1,1.6-0.4l0.2,1.9
				c-0.3,0.2-0.7,0.3-1.2,0.4c-0.5,0.1-1,0.2-1.4,0.2c-0.8,0-1.5-0.3-2-0.8c-0.5-0.5-0.8-1.4-0.8-2.6V18.6h2.3V37.2z"/>
			<path fill="#B8C8D2" d="M216.7,39.9c-0.5,0.5-1.2,0.8-2,1.1c-0.8,0.3-1.6,0.4-2.5,0.4c-1,0-1.9-0.2-2.6-0.6
				c-0.7-0.4-1.3-1-1.8-1.7c-0.5-0.7-0.8-1.6-1.1-2.6c-0.2-1-0.3-2.2-0.3-3.5c0-2.7,0.5-4.8,1.5-6.2c1-1.4,2.4-2.1,4.3-2.1
				c0.6,0,1.2,0.1,1.8,0.2c0.6,0.1,1.1,0.4,1.6,0.9c0.5,0.4,0.8,1.1,1.1,1.9c0.3,0.8,0.4,1.9,0.4,3.2c0,0.4,0,0.8,0,1.2
				s-0.1,0.8-0.1,1.3h-8.1c0,0.9,0.1,1.8,0.2,2.5c0.1,0.7,0.4,1.4,0.7,1.9c0.3,0.5,0.7,0.9,1.2,1.2s1.1,0.4,1.9,0.4
				c0.6,0,1.1-0.1,1.7-0.3s1-0.5,1.3-0.8L216.7,39.9z M214.9,31.3c0-1.6-0.2-2.8-0.7-3.5c-0.5-0.7-1.2-1.1-2-1.1
				c-1,0-1.8,0.4-2.3,1.1s-0.9,1.9-1,3.5H214.9z"/>
			<path fill="#B8C8D2" d="M228.6,41v-9.8c0-1.6-0.2-2.8-0.6-3.5c-0.4-0.7-1-1.1-2-1.1c-0.9,0-1.6,0.3-2.1,0.8s-1,1.1-1.2,1.9V41
				h-2.3V25h1.7l0.4,1.7h0.1c0.4-0.6,1-1.1,1.6-1.5c0.7-0.4,1.5-0.6,2.5-0.6c0.7,0,1.3,0.1,1.8,0.3c0.5,0.2,1,0.5,1.3,1
				c0.4,0.5,0.6,1.1,0.8,1.8c0.2,0.8,0.3,1.7,0.3,2.9V41H228.6z"/>
			<path fill="#B8C8D2" d="M244.5,35.5c0,1.1,0,2.1,0,3c0,0.9,0.1,1.8,0.2,2.6h-1.6l-0.5-1.9h-0.1c-0.3,0.6-0.8,1.2-1.4,1.6
				c-0.6,0.4-1.4,0.6-2.3,0.6c-1.7,0-3-0.7-3.9-2c-0.8-1.3-1.3-3.5-1.3-6.3c0-2.7,0.5-4.8,1.6-6.2c1-1.4,2.5-2.1,4.3-2.1
				c0.6,0,1.1,0,1.5,0.1c0.4,0.1,0.8,0.2,1.2,0.4v-6.6h2.3V35.5z M242.2,27.5c-0.3-0.3-0.6-0.4-1-0.6c-0.4-0.1-0.9-0.2-1.5-0.2
				c-1.1,0-2,0.5-2.6,1.5c-0.6,1-0.9,2.6-0.9,4.7c0,0.9,0.1,1.8,0.2,2.5c0.1,0.8,0.3,1.4,0.5,2s0.6,1,1,1.3c0.4,0.3,0.9,0.4,1.5,0.4
				c1.5,0,2.5-0.9,2.9-2.7V27.5z"/>
			<path fill="#B8C8D2" d="M248.1,26c0.6-0.4,1.4-0.7,2.3-0.9c0.9-0.2,1.8-0.3,2.8-0.3c0.9,0,1.6,0.1,2.2,0.4c0.5,0.3,1,0.6,1.3,1.1
				s0.5,1,0.6,1.6c0.1,0.6,0.1,1.2,0.1,1.8c0,1.3,0,2.5-0.1,3.7c-0.1,1.2-0.1,2.4-0.1,3.5c0,0.8,0,1.6,0.1,2.3
				c0.1,0.7,0.2,1.3,0.3,2h-1.8l-0.6-1.9h-0.1c-0.3,0.6-0.8,1-1.4,1.4s-1.4,0.6-2.5,0.6c-1.1,0-2.1-0.4-2.8-1.2
				c-0.7-0.8-1.1-1.9-1.1-3.3c0-0.9,0.2-1.7,0.5-2.3c0.3-0.6,0.7-1.1,1.3-1.5c0.6-0.4,1.2-0.7,2-0.8s1.6-0.2,2.6-0.2
				c0.2,0,0.4,0,0.6,0c0.2,0,0.4,0,0.7,0c0.1-0.7,0.1-1.2,0.1-1.8c0-1.2-0.2-2.1-0.5-2.6c-0.4-0.5-1-0.7-2-0.7
				c-0.6,0-1.2,0.1-1.9,0.3c-0.7,0.2-1.3,0.4-1.7,0.7L248.1,26z M255,33.7c-0.2,0-0.4,0-0.6,0s-0.4,0-0.6,0c-0.5,0-1,0-1.5,0.1
				c-0.5,0.1-0.9,0.2-1.3,0.4c-0.4,0.2-0.7,0.5-0.9,0.9c-0.2,0.4-0.3,0.8-0.3,1.4c0,0.9,0.2,1.5,0.6,2c0.4,0.5,0.9,0.7,1.6,0.7
				c0.9,0,1.6-0.2,2.1-0.6c0.5-0.4,0.8-0.9,1-1.4V33.7z"/>
			<path fill="#B8C8D2" d="M261.1,25h1.6l0.4,1.7h0.1c0.3-0.6,0.7-1.1,1.2-1.5c0.5-0.4,1.1-0.5,1.7-0.5c0.5,0,1,0.1,1.7,0.3
				l-0.4,2.3c-0.6-0.2-1-0.3-1.5-0.3c-0.7,0-1.2,0.2-1.7,0.6c-0.4,0.4-0.7,0.9-0.8,1.6V41h-2.3V25z"/>
		</g>
		<g id="date-icon" transform="translate(304.000000, 17.000000)" sketch:type="MSShapeGroup">
			<path id="Shape" fill="#B8C8D2" d="M0.2,0.2v25.6h25.6V0.2H0.2L0.2,0.2z M24.7,1.3v4.8H1.3V1.3H24.7L24.7,1.3z M1.3,24.7V7.1
				h23.5v17.6H1.3L1.3,24.7z"/>
			<path id="Shape_1_" fill="#B8C8D2" d="M8.2,2.9h1.6v1.6H8.2V2.9L8.2,2.9z"/>
			<path id="Shape_2_" fill="#B8C8D2" d="M16.2,2.9h1.6v1.6h-1.6V2.9L16.2,2.9z"/>
			<path id="Shape_3_" fill="#B8C8D2" d="M9.3,10.9c-0.2,1.3-0.8,1.3-2,1.4l-0.2,0v0.9h2.1v5.9h1.1v-8.4h-1L9.3,10.9L9.3,10.9z"/>
			<path id="Shape_4_" fill="#B8C8D2" d="M15.6,13.4c-0.5,0-1,0.2-1.4,0.4l0.4-2h3.5v-1.1h-4.3l-0.8,4.5h1l0.1-0.1
				c0.3-0.5,1-0.9,1.6-0.9c1.1,0,1.8,0.8,1.8,1.9c0,1-0.6,2-1.8,2c-1,0-1.7-0.7-1.8-1.6l0-0.2h-1.1l0,0.2c0,1.6,1.2,2.6,2.8,2.6
				c1.7,0,3-1.3,3-2.9C18.5,14.6,17.4,13.4,15.6,13.4L15.6,13.4z"/>
		</g>
	</g>
</g>
</svg>
