<?xml version="1.0" encoding="utf-8"?>
<!-- Generator: Adobe Illustrator 18.0.0, SVG Export Plug-In . SVG Version: 6.00 Build 0)  -->
<svg version="1.2" baseProfile="tiny" id="Layer_1" xmlns:sketch="http://www.bohemiancoding.com/sketch/ns"
	 xmlns="http://www.w3.org/2000/svg" xmlns:xlink="http://www.w3.org/1999/xlink" x="0px" y="0px" viewBox="0 0 360 60"
	 xml:space="preserve">
<title>contact-fill</title>
<desc>Created with Sketch.</desc>
<g id="Page-1" sketch:type="MSPage">
	<g id="contact-fill" sketch:type="MSLayerGroup">
		<rect id="Button" sketch:type="MSShapeGroup" fill="#B8C8D2" width="360" height="60">
		</rect>
		<g>
			<path fill="#FFFFFF" d="M88.8,40.1c-0.5,0.4-1.2,0.8-2,1c-0.8,0.2-1.7,0.3-2.6,0.3c-1.1,0-2.2-0.2-3.1-0.6s-1.8-1.1-2.5-2
				s-1.2-2.1-1.6-3.6c-0.4-1.5-0.6-3.2-0.6-5.3c0-2.1,0.2-3.9,0.7-5.4c0.4-1.5,1-2.7,1.7-3.6c0.7-0.9,1.6-1.6,2.5-2
				c0.9-0.4,1.9-0.6,2.9-0.6c1,0,1.9,0.1,2.5,0.2c0.7,0.1,1.3,0.3,1.7,0.5l-0.6,2.2c-0.4-0.2-0.9-0.4-1.5-0.5
				c-0.6-0.1-1.2-0.2-2-0.2c-0.7,0-1.5,0.2-2.1,0.5c-0.7,0.3-1.2,0.9-1.8,1.6c-0.5,0.7-0.9,1.7-1.2,2.9c-0.3,1.2-0.4,2.7-0.4,4.4
				c0,3.1,0.5,5.5,1.6,7c1.1,1.6,2.5,2.4,4.3,2.4c0.7,0,1.4-0.1,2-0.3c0.6-0.2,1.1-0.4,1.5-0.7L88.8,40.1z"/>
			<path fill="#FFFFFF" d="M89.9,33c0-2.9,0.5-5,1.5-6.4c1-1.4,2.4-2,4.2-2c2,0,3.4,0.7,4.3,2.1c0.9,1.4,1.4,3.5,1.4,6.3
				c0,2.9-0.5,5-1.5,6.4c-1,1.3-2.4,2-4.2,2c-2,0-3.4-0.7-4.3-2.1C90.4,37.9,89.9,35.8,89.9,33z M92.3,33c0,0.9,0.1,1.8,0.2,2.6
				c0.1,0.8,0.3,1.4,0.6,2c0.3,0.6,0.6,1,1,1.3c0.4,0.3,0.9,0.5,1.5,0.5c1.1,0,1.9-0.5,2.5-1.5c0.6-1,0.8-2.6,0.8-4.8
				c0-0.9-0.1-1.8-0.2-2.5c-0.1-0.8-0.3-1.4-0.6-2s-0.6-1-1-1.3c-0.4-0.3-0.9-0.5-1.5-0.5c-1.1,0-1.9,0.5-2.5,1.5
				C92.6,29.2,92.3,30.8,92.3,33z"/>
			<path fill="#FFFFFF" d="M112.7,41v-9.8c0-1.6-0.2-2.8-0.6-3.5c-0.4-0.7-1-1.1-2-1.1c-0.9,0-1.6,0.3-2.1,0.8
				c-0.6,0.5-1,1.1-1.2,1.9V41h-2.3V25h1.7l0.4,1.7h0.1c0.4-0.6,1-1.1,1.6-1.5c0.7-0.4,1.5-0.6,2.5-0.6c0.7,0,1.3,0.1,1.8,0.3
				c0.5,0.2,1,0.5,1.3,1c0.4,0.5,0.6,1.1,0.8,1.8c0.2,0.8,0.3,1.7,0.3,2.9V41H112.7z"/>
			<path fill="#FFFFFF" d="M116.9,25h2v-3.2l2.3-0.7V25h3.5v2.1h-3.5v9.5c0,0.9,0.1,1.6,0.3,2s0.6,0.6,1.1,0.6c0.4,0,0.8,0,1.1-0.1
				c0.3-0.1,0.6-0.2,1-0.4l0.4,1.8c-0.5,0.2-1,0.4-1.6,0.6c-0.6,0.1-1.2,0.2-1.8,0.2c-1.1,0-1.8-0.3-2.3-1c-0.5-0.7-0.7-1.8-0.7-3.4
				v-9.9h-2V25z"/>
			<path fill="#FFFFFF" d="M127.2,26c0.6-0.4,1.4-0.7,2.3-0.9c0.9-0.2,1.8-0.3,2.8-0.3c0.9,0,1.6,0.1,2.2,0.4c0.5,0.3,1,0.6,1.3,1.1
				c0.3,0.5,0.5,1,0.6,1.6c0.1,0.6,0.1,1.2,0.1,1.8c0,1.3,0,2.5-0.1,3.7s-0.1,2.4-0.1,3.5c0,0.8,0,1.6,0.1,2.3
				c0.1,0.7,0.2,1.3,0.3,2h-1.8l-0.6-1.9h-0.1c-0.3,0.6-0.8,1-1.4,1.4s-1.4,0.6-2.5,0.6c-1.1,0-2.1-0.4-2.8-1.2
				c-0.7-0.8-1.1-1.9-1.1-3.3c0-0.9,0.2-1.7,0.5-2.3c0.3-0.6,0.7-1.1,1.3-1.5c0.6-0.4,1.2-0.7,2-0.8c0.8-0.2,1.6-0.2,2.6-0.2
				c0.2,0,0.4,0,0.6,0s0.4,0,0.7,0c0.1-0.7,0.1-1.2,0.1-1.8c0-1.2-0.2-2.1-0.5-2.6c-0.4-0.5-1-0.7-2-0.7c-0.6,0-1.2,0.1-1.9,0.3
				c-0.7,0.2-1.3,0.4-1.7,0.7L127.2,26z M134,33.7c-0.2,0-0.4,0-0.6,0s-0.4,0-0.6,0c-0.5,0-1,0-1.5,0.1c-0.5,0.1-0.9,0.2-1.3,0.4
				c-0.4,0.2-0.7,0.5-0.9,0.9c-0.2,0.4-0.3,0.8-0.3,1.4c0,0.9,0.2,1.5,0.6,2c0.4,0.5,0.9,0.7,1.6,0.7c0.9,0,1.6-0.2,2.1-0.6
				c0.5-0.4,0.8-0.9,1-1.4V33.7z"/>
			<path fill="#FFFFFF" d="M149,40.2c-0.5,0.4-1.1,0.7-1.8,0.9c-0.7,0.2-1.4,0.3-2.1,0.3c-1,0-1.9-0.2-2.6-0.6
				c-0.7-0.4-1.3-1-1.7-1.7c-0.4-0.7-0.8-1.6-1-2.7c-0.2-1-0.3-2.2-0.3-3.4c0-2.7,0.5-4.8,1.5-6.2c1-1.4,2.4-2.1,4.2-2.1
				c0.8,0,1.5,0.1,2.1,0.2c0.6,0.1,1.1,0.3,1.5,0.6l-0.6,2c-0.9-0.5-1.8-0.7-2.8-0.7c-1.2,0-2,0.5-2.6,1.5c-0.6,1-0.9,2.6-0.9,4.8
				c0,0.9,0.1,1.7,0.2,2.5c0.1,0.8,0.3,1.4,0.6,2c0.3,0.6,0.7,1,1.2,1.3c0.5,0.3,1.1,0.5,1.8,0.5c0.6,0,1.1-0.1,1.6-0.3
				c0.5-0.2,0.9-0.4,1.2-0.7L149,40.2z"/>
			<path fill="#FFFFFF" d="M149.9,25h2v-3.2l2.3-0.7V25h3.5v2.1h-3.5v9.5c0,0.9,0.1,1.6,0.3,2s0.6,0.6,1.1,0.6c0.4,0,0.8,0,1.1-0.1
				c0.3-0.1,0.6-0.2,1-0.4l0.4,1.8c-0.5,0.2-1,0.4-1.6,0.6c-0.6,0.1-1.2,0.2-1.8,0.2c-1.1,0-1.8-0.3-2.3-1c-0.5-0.7-0.7-1.8-0.7-3.4
				v-9.9h-2V25z"/>
			<path fill="#FFFFFF" d="M166.6,29.8c0-3.8,0.6-6.7,1.8-8.6c1.2-2,3.1-2.9,5.6-2.9c1.3,0,2.5,0.3,3.4,0.8c0.9,0.5,1.7,1.3,2.3,2.3
				c0.6,1,1,2.2,1.3,3.6c0.3,1.4,0.4,3,0.4,4.8c0,3.8-0.6,6.7-1.8,8.6c-1.2,2-3.1,2.9-5.6,2.9c-1.3,0-2.5-0.3-3.4-0.8
				c-0.9-0.5-1.7-1.3-2.3-2.3s-1-2.2-1.3-3.6C166.7,33.2,166.6,31.6,166.6,29.8z M169.1,29.8c0,1.3,0.1,2.5,0.3,3.6
				c0.2,1.1,0.5,2.1,0.8,3c0.4,0.9,0.9,1.5,1.5,2s1.4,0.8,2.2,0.8c1.6,0,2.8-0.8,3.6-2.3s1.2-3.9,1.2-7.1c0-1.2-0.1-2.4-0.3-3.6
				c-0.2-1.1-0.5-2.1-0.8-3c-0.4-0.9-0.9-1.6-1.5-2.1c-0.6-0.5-1.4-0.8-2.3-0.8c-1.6,0-2.8,0.8-3.6,2.3
				C169.5,24.3,169.1,26.6,169.1,29.8z"/>
			<path fill="#FFFFFF" d="M184.7,25h1.6l0.4,1.7h0.1c0.3-0.6,0.7-1.1,1.2-1.5c0.5-0.4,1.1-0.5,1.7-0.5c0.5,0,1,0.1,1.7,0.3
				l-0.4,2.3c-0.6-0.2-1-0.3-1.5-0.3c-0.7,0-1.2,0.2-1.7,0.6c-0.4,0.4-0.7,0.9-0.8,1.6V41h-2.3V25z"/>
			<path fill="#FFFFFF" d="M203.5,41.7c0,2.1-0.5,3.6-1.4,4.6c-0.9,1-2.2,1.5-4,1.5c-1.1,0-1.9-0.1-2.6-0.3
				c-0.7-0.2-1.2-0.4-1.7-0.6l0.7-2c0.4,0.2,0.9,0.4,1.4,0.5c0.5,0.2,1.1,0.3,1.9,0.3c1.3,0,2.2-0.4,2.7-1.1
				c0.5-0.7,0.7-1.9,0.7-3.6v-1.2h-0.1c-0.3,0.5-0.8,0.9-1.3,1.2c-0.5,0.3-1.2,0.4-2,0.4c-1.7,0-3-0.7-3.8-2
				c-0.8-1.3-1.2-3.4-1.2-6.3c0-2.8,0.5-4.8,1.6-6.2s2.6-2.1,4.7-2.1c1,0,1.9,0.1,2.6,0.3c0.7,0.2,1.4,0.4,1.9,0.7V41.7z
				 M201.2,27.3c-0.6-0.3-1.5-0.5-2.5-0.5c-1.1,0-2,0.5-2.6,1.5s-1,2.6-1,4.8c0,0.9,0.1,1.7,0.2,2.5c0.1,0.8,0.3,1.4,0.5,2
				s0.6,1,1,1.3c0.4,0.3,0.9,0.5,1.5,0.5c0.8,0,1.5-0.2,1.9-0.6c0.5-0.4,0.8-1.1,1-1.9V27.3z"/>
			<path fill="#FFFFFF" d="M207.1,26c0.6-0.4,1.4-0.7,2.3-0.9c0.9-0.2,1.8-0.3,2.8-0.3c0.9,0,1.6,0.1,2.2,0.4c0.5,0.3,1,0.6,1.3,1.1
				c0.3,0.5,0.5,1,0.6,1.6c0.1,0.6,0.1,1.2,0.1,1.8c0,1.3,0,2.5-0.1,3.7s-0.1,2.4-0.1,3.5c0,0.8,0,1.6,0.1,2.3
				c0.1,0.7,0.2,1.3,0.3,2h-1.8l-0.6-1.9h-0.1c-0.3,0.6-0.8,1-1.4,1.4c-0.6,0.4-1.4,0.6-2.5,0.6c-1.1,0-2.1-0.4-2.8-1.2
				c-0.7-0.8-1.1-1.9-1.1-3.3c0-0.9,0.2-1.7,0.5-2.3c0.3-0.6,0.7-1.1,1.3-1.5c0.6-0.4,1.2-0.7,2-0.8c0.8-0.2,1.6-0.2,2.6-0.2
				c0.2,0,0.4,0,0.6,0s0.4,0,0.7,0c0.1-0.7,0.1-1.2,0.1-1.8c0-1.2-0.2-2.1-0.5-2.6c-0.4-0.5-1-0.7-2-0.7c-0.6,0-1.2,0.1-1.9,0.3
				c-0.7,0.2-1.3,0.4-1.7,0.7L207.1,26z M214,33.7c-0.2,0-0.4,0-0.6,0s-0.4,0-0.6,0c-0.5,0-1,0-1.5,0.1c-0.5,0.1-0.9,0.2-1.3,0.4
				c-0.4,0.2-0.7,0.5-0.9,0.9c-0.2,0.4-0.3,0.8-0.3,1.4c0,0.9,0.2,1.5,0.6,2c0.4,0.5,0.9,0.7,1.6,0.7c0.9,0,1.6-0.2,2.1-0.6
				c0.5-0.4,0.8-0.9,1-1.4V33.7z"/>
			<path fill="#FFFFFF" d="M228.2,41v-9.8c0-1.6-0.2-2.8-0.6-3.5c-0.4-0.7-1-1.1-2-1.1c-0.9,0-1.6,0.3-2.1,0.8
				c-0.6,0.5-1,1.1-1.2,1.9V41h-2.3V25h1.7l0.4,1.7h0.1c0.4-0.6,1-1.1,1.6-1.5c0.7-0.4,1.5-0.6,2.5-0.6c0.7,0,1.3,0.1,1.8,0.3
				c0.5,0.2,1,0.5,1.3,1c0.4,0.5,0.6,1.1,0.8,1.8c0.2,0.8,0.3,1.7,0.3,2.9V41H228.2z"/>
			<path fill="#FFFFFF" d="M234.1,20.1c0-0.5,0.1-0.9,0.4-1.2c0.3-0.3,0.7-0.5,1.1-0.5s0.9,0.2,1.2,0.5c0.3,0.3,0.5,0.7,0.5,1.3
				c0,0.5-0.2,0.9-0.5,1.2s-0.7,0.4-1.2,0.4s-0.8-0.1-1.1-0.4S234.1,20.6,234.1,20.1z M234.5,25h2.3v16h-2.3V25z"/>
			<path fill="#FFFFFF" d="M240.2,38.9l5.9-10.5l1.1-1.4h-7V25h9.3v2.1l-6,10.6l-1.1,1.3h7V41h-9.3V38.9z"/>
			<path fill="#FFFFFF" d="M261.7,39.9c-0.5,0.5-1.2,0.8-2,1.1c-0.8,0.3-1.6,0.4-2.5,0.4c-1,0-1.9-0.2-2.6-0.6
				c-0.7-0.4-1.3-1-1.8-1.7c-0.5-0.7-0.8-1.6-1.1-2.6s-0.3-2.2-0.3-3.5c0-2.7,0.5-4.8,1.5-6.2c1-1.4,2.4-2.1,4.3-2.1
				c0.6,0,1.2,0.1,1.8,0.2c0.6,0.1,1.1,0.4,1.6,0.9c0.5,0.4,0.8,1.1,1.1,1.9s0.4,1.9,0.4,3.2c0,0.4,0,0.8,0,1.2
				c0,0.4-0.1,0.8-0.1,1.3h-8.1c0,0.9,0.1,1.8,0.2,2.5c0.1,0.7,0.4,1.4,0.7,1.9s0.7,0.9,1.2,1.2c0.5,0.3,1.1,0.4,1.9,0.4
				c0.6,0,1.1-0.1,1.7-0.3c0.6-0.2,1-0.5,1.3-0.8L261.7,39.9z M260,31.3c0-1.6-0.2-2.8-0.7-3.5c-0.5-0.7-1.2-1.1-2-1.1
				c-1,0-1.8,0.4-2.3,1.1c-0.6,0.7-0.9,1.9-1,3.5H260z"/>
			<path fill="#FFFFFF" d="M265.4,25h1.6l0.4,1.7h0.1c0.3-0.6,0.7-1.1,1.2-1.5c0.5-0.4,1.1-0.5,1.7-0.5c0.5,0,1,0.1,1.7,0.3
				l-0.4,2.3c-0.6-0.2-1-0.3-1.5-0.3c-0.7,0-1.2,0.2-1.7,0.6c-0.4,0.4-0.7,0.9-0.8,1.6V41h-2.3V25z"/>
			<path fill="#FFFFFF" d="M273.9,38.4c0.4,0.3,0.9,0.5,1.5,0.7c0.6,0.2,1.2,0.3,1.8,0.3c0.7,0,1.3-0.2,1.8-0.5
				c0.5-0.4,0.7-0.9,0.7-1.7c0-0.7-0.1-1.2-0.4-1.6c-0.3-0.4-0.7-0.8-1.1-1.2c-0.5-0.3-1-0.7-1.5-0.9s-1-0.6-1.5-1
				c-0.5-0.4-0.8-0.9-1.1-1.4c-0.3-0.6-0.4-1.3-0.4-2.1c0-1.4,0.4-2.4,1.1-3.1c0.7-0.7,1.8-1,3.1-1c0.9,0,1.6,0.1,2.3,0.2
				c0.6,0.2,1.2,0.4,1.7,0.7l-0.6,1.9c-0.4-0.2-0.9-0.4-1.4-0.5s-1.1-0.2-1.6-0.2c-0.8,0-1.3,0.2-1.7,0.5c-0.4,0.3-0.5,0.8-0.5,1.5
				c0,0.5,0.1,1,0.4,1.4c0.3,0.4,0.7,0.7,1.1,1c0.5,0.3,1,0.6,1.5,0.9c0.5,0.3,1,0.7,1.5,1.1c0.5,0.4,0.8,1,1.1,1.6
				c0.3,0.6,0.4,1.4,0.4,2.3c0,0.6-0.1,1.2-0.3,1.7c-0.2,0.5-0.5,1-0.9,1.4c-0.4,0.4-0.9,0.7-1.5,0.9c-0.6,0.2-1.3,0.4-2.1,0.4
				c-0.9,0-1.7-0.1-2.4-0.3c-0.7-0.2-1.3-0.4-1.7-0.7L273.9,38.4z"/>
		</g>
		<g id="mail" transform="translate(305.000000, 23.000000)" sketch:type="MSShapeGroup">
			<path id="Shape" fill="#FFFFFF" d="M25.2,0.5H-0.3v17.1h26.7V0.5H25.2L25.2,0.5z M24.2,1.5L13.9,11.8c-0.5,0.5-1.3,0.5-1.8,0
				L1.8,1.5H24.2L24.2,1.5z M0.7,2l6.9,6.9l-6.9,6.9V2L0.7,2z M1.6,16.5l6.8-6.8l3,3c0.4,0.4,1,0.7,1.6,0.7s1.2-0.2,1.6-0.7l3-3
				l6.8,6.8L1.6,16.5L1.6,16.5z M25.3,15.8l-6.9-6.9L25.3,2V15.8L25.3,15.8z"/>
		</g>
	</g>
</g>
</svg>
