<?xml version="1.0" encoding="utf-8"?>
<!-- Generator: Adobe Illustrator 18.0.0, SVG Export Plug-In . SVG Version: 6.00 Build 0)  -->
<svg version="1.2" baseProfile="tiny" id="Layer_1" xmlns:sketch="http://www.bohemiancoding.com/sketch/ns"
	 xmlns="http://www.w3.org/2000/svg" xmlns:xlink="http://www.w3.org/1999/xlink" x="0px" y="0px" viewBox="0 0 360 60"
	 xml:space="preserve">
<title>Contact Organizers [solid]</title>
<desc>Created with Sketch.</desc>
<g id="Page-1" sketch:type="MSPage">
	<g id="Contact-Organizers-_x5B_solid_x5D_" sketch:type="MSLayerGroup">
		<rect id="Button" sketch:type="MSShapeGroup" fill="#B8C8D2" width="360" height="60">
		</rect>
		<g>
			<path fill="#FFFFFF" d="M89.3,42.1c-0.5,0.4-1.2,0.8-2,1c-0.8,0.2-1.7,0.3-2.6,0.3c-1.1,0-2.2-0.2-3.1-0.6s-1.8-1.1-2.5-2
				s-1.2-2.1-1.6-3.6c-0.4-1.5-0.6-3.2-0.6-5.3c0-2.1,0.2-3.9,0.7-5.4c0.4-1.5,1-2.7,1.7-3.6c0.7-0.9,1.6-1.6,2.5-2
				c0.9-0.4,1.9-0.6,2.9-0.6c1,0,1.9,0.1,2.5,0.2c0.7,0.1,1.3,0.3,1.7,0.5l-0.6,2.2c-0.4-0.2-0.9-0.4-1.5-0.5
				c-0.6-0.1-1.2-0.2-2-0.2c-0.7,0-1.5,0.2-2.1,0.5c-0.7,0.3-1.2,0.9-1.8,1.6c-0.5,0.7-0.9,1.7-1.2,2.9c-0.3,1.2-0.4,2.7-0.4,4.4
				c0,3.1,0.5,5.5,1.6,7c1.1,1.6,2.5,2.4,4.3,2.4c0.7,0,1.4-0.1,2-0.3c0.6-0.2,1.1-0.4,1.5-0.7L89.3,42.1z"/>
			<path fill="#FFFFFF" d="M90.4,35c0-2.9,0.5-5,1.5-6.4c1-1.4,2.4-2,4.2-2c2,0,3.4,0.7,4.3,2.1c0.9,1.4,1.4,3.5,1.4,6.3
				c0,2.9-0.5,5-1.5,6.4c-1,1.3-2.4,2-4.2,2c-2,0-3.4-0.7-4.3-2.1C90.9,39.9,90.4,37.8,90.4,35z M92.8,35c0,0.9,0.1,1.8,0.2,2.6
				c0.1,0.8,0.3,1.4,0.6,2c0.3,0.6,0.6,1,1,1.3c0.4,0.3,0.9,0.5,1.5,0.5c1.1,0,1.9-0.5,2.5-1.5c0.6-1,0.8-2.6,0.8-4.8
				c0-0.9-0.1-1.8-0.2-2.5c-0.1-0.8-0.3-1.4-0.6-2s-0.6-1-1-1.3c-0.4-0.3-0.9-0.5-1.5-0.5c-1.1,0-1.9,0.5-2.5,1.5
				C93.1,31.2,92.8,32.8,92.8,35z"/>
			<path fill="#FFFFFF" d="M113.2,43v-9.8c0-1.6-0.2-2.8-0.6-3.5c-0.4-0.7-1-1.1-2-1.1c-0.9,0-1.6,0.3-2.1,0.8
				c-0.6,0.5-1,1.1-1.2,1.9V43H105V27h1.7l0.4,1.7h0.1c0.4-0.6,1-1.1,1.6-1.5c0.7-0.4,1.5-0.6,2.5-0.6c0.7,0,1.3,0.1,1.8,0.3
				c0.5,0.2,1,0.5,1.3,1c0.4,0.5,0.6,1.1,0.8,1.8c0.2,0.8,0.3,1.7,0.3,2.9V43H113.2z"/>
			<path fill="#FFFFFF" d="M117.4,27h2v-3.2l2.3-0.7V27h3.5v2.1h-3.5v9.5c0,0.9,0.1,1.6,0.3,2s0.6,0.6,1.1,0.6c0.4,0,0.8,0,1.1-0.1
				c0.3-0.1,0.6-0.2,1-0.4l0.4,1.8c-0.5,0.2-1,0.4-1.6,0.6c-0.6,0.1-1.2,0.2-1.8,0.2c-1.1,0-1.8-0.3-2.3-1c-0.5-0.7-0.7-1.8-0.7-3.4
				v-9.9h-2V27z"/>
			<path fill="#FFFFFF" d="M127.7,28c0.6-0.4,1.4-0.7,2.3-0.9c0.9-0.2,1.8-0.3,2.8-0.3c0.9,0,1.6,0.1,2.2,0.4c0.5,0.3,1,0.6,1.3,1.1
				c0.3,0.5,0.5,1,0.6,1.6c0.1,0.6,0.1,1.2,0.1,1.8c0,1.3,0,2.5-0.1,3.7s-0.1,2.4-0.1,3.5c0,0.8,0,1.6,0.1,2.3
				c0.1,0.7,0.2,1.3,0.3,2h-1.8l-0.6-1.9h-0.1c-0.3,0.6-0.8,1-1.4,1.4s-1.4,0.6-2.5,0.6c-1.1,0-2.1-0.4-2.8-1.2
				c-0.7-0.8-1.1-1.9-1.1-3.3c0-0.9,0.2-1.7,0.5-2.3c0.3-0.6,0.7-1.1,1.3-1.5c0.6-0.4,1.2-0.7,2-0.8c0.8-0.2,1.6-0.2,2.6-0.2
				c0.2,0,0.4,0,0.6,0s0.4,0,0.7,0c0.1-0.7,0.1-1.2,0.1-1.8c0-1.2-0.2-2.1-0.5-2.6c-0.4-0.5-1-0.7-2-0.7c-0.6,0-1.2,0.1-1.9,0.3
				c-0.7,0.2-1.3,0.4-1.7,0.7L127.7,28z M134.5,35.7c-0.2,0-0.4,0-0.6,0s-0.4,0-0.6,0c-0.5,0-1,0-1.5,0.1c-0.5,0.1-0.9,0.2-1.3,0.4
				c-0.4,0.2-0.7,0.5-0.9,0.9c-0.2,0.4-0.3,0.8-0.3,1.4c0,0.9,0.2,1.5,0.6,2c0.4,0.5,0.9,0.7,1.6,0.7c0.9,0,1.6-0.2,2.1-0.6
				c0.5-0.4,0.8-0.9,1-1.4V35.7z"/>
			<path fill="#FFFFFF" d="M149.5,42.2c-0.5,0.4-1.1,0.7-1.8,0.9c-0.7,0.2-1.4,0.3-2.1,0.3c-1,0-1.9-0.2-2.6-0.6
				c-0.7-0.4-1.3-1-1.7-1.7c-0.4-0.7-0.8-1.6-1-2.7c-0.2-1-0.3-2.2-0.3-3.4c0-2.7,0.5-4.8,1.5-6.2c1-1.4,2.4-2.1,4.2-2.1
				c0.8,0,1.5,0.1,2.1,0.2c0.6,0.1,1.1,0.3,1.5,0.6l-0.6,2c-0.9-0.5-1.8-0.7-2.8-0.7c-1.2,0-2,0.5-2.6,1.5c-0.6,1-0.9,2.6-0.9,4.8
				c0,0.9,0.1,1.7,0.2,2.5c0.1,0.8,0.3,1.4,0.6,2c0.3,0.6,0.7,1,1.2,1.3c0.5,0.3,1.1,0.5,1.8,0.5c0.6,0,1.1-0.1,1.6-0.3
				c0.5-0.2,0.9-0.4,1.2-0.7L149.5,42.2z"/>
			<path fill="#FFFFFF" d="M150.4,27h2v-3.2l2.3-0.7V27h3.5v2.1h-3.5v9.5c0,0.9,0.1,1.6,0.3,2s0.6,0.6,1.1,0.6c0.4,0,0.8,0,1.1-0.1
				c0.3-0.1,0.6-0.2,1-0.4l0.4,1.8c-0.5,0.2-1,0.4-1.6,0.6c-0.6,0.1-1.2,0.2-1.8,0.2c-1.1,0-1.8-0.3-2.3-1c-0.5-0.7-0.7-1.8-0.7-3.4
				v-9.9h-2V27z"/>
			<path fill="#FFFFFF" d="M167.1,31.8c0-3.8,0.6-6.7,1.8-8.6c1.2-2,3.1-2.9,5.6-2.9c1.3,0,2.5,0.3,3.4,0.8c0.9,0.5,1.7,1.3,2.3,2.3
				c0.6,1,1,2.2,1.3,3.6c0.3,1.4,0.4,3,0.4,4.8c0,3.8-0.6,6.7-1.8,8.6s-3.1,2.9-5.6,2.9c-1.3,0-2.5-0.3-3.4-0.8
				c-0.9-0.5-1.7-1.3-2.3-2.3s-1-2.2-1.3-3.6C167.2,35.2,167.1,33.6,167.1,31.8z M169.6,31.8c0,1.3,0.1,2.5,0.3,3.6
				c0.2,1.1,0.5,2.1,0.8,3c0.4,0.9,0.9,1.5,1.5,2s1.4,0.8,2.2,0.8c1.6,0,2.8-0.8,3.6-2.3s1.2-3.9,1.2-7.1c0-1.2-0.1-2.4-0.3-3.6
				c-0.2-1.1-0.5-2.1-0.8-3c-0.4-0.9-0.9-1.6-1.5-2.1c-0.6-0.5-1.4-0.8-2.3-0.8c-1.6,0-2.8,0.8-3.6,2.3
				C170,26.3,169.6,28.6,169.6,31.8z"/>
			<path fill="#FFFFFF" d="M185.2,27h1.6l0.4,1.7h0.1c0.3-0.6,0.7-1.1,1.2-1.5c0.5-0.4,1.1-0.5,1.7-0.5c0.5,0,1,0.1,1.7,0.3
				l-0.4,2.3c-0.6-0.2-1-0.3-1.5-0.3c-0.7,0-1.2,0.2-1.7,0.6c-0.4,0.4-0.7,0.9-0.8,1.6V43h-2.3V27z"/>
			<path fill="#FFFFFF" d="M204,43.7c0,2.1-0.5,3.6-1.4,4.6c-0.9,1-2.2,1.5-4,1.5c-1.1,0-1.9-0.1-2.6-0.3c-0.7-0.2-1.2-0.4-1.7-0.6
				l0.7-2c0.4,0.2,0.9,0.4,1.4,0.5c0.5,0.2,1.1,0.3,1.9,0.3c1.3,0,2.2-0.4,2.7-1.1c0.5-0.7,0.7-1.9,0.7-3.6v-1.2h-0.1
				c-0.3,0.5-0.8,0.9-1.3,1.2c-0.5,0.3-1.2,0.4-2,0.4c-1.7,0-3-0.7-3.8-2c-0.8-1.3-1.2-3.4-1.2-6.3c0-2.8,0.5-4.8,1.6-6.2
				s2.6-2.1,4.7-2.1c1,0,1.9,0.1,2.6,0.3c0.7,0.2,1.4,0.4,1.9,0.7V43.7z M201.7,29.3c-0.6-0.3-1.5-0.5-2.5-0.5c-1.1,0-2,0.5-2.6,1.5
				s-1,2.6-1,4.8c0,0.9,0.1,1.7,0.2,2.5c0.1,0.8,0.3,1.4,0.5,2s0.6,1,1,1.3c0.4,0.3,0.9,0.5,1.5,0.5c0.8,0,1.5-0.2,1.9-0.6
				c0.5-0.4,0.8-1.1,1-1.9V29.3z"/>
			<path fill="#FFFFFF" d="M207.6,28c0.6-0.4,1.4-0.7,2.3-0.9c0.9-0.2,1.8-0.3,2.8-0.3c0.9,0,1.6,0.1,2.2,0.4c0.5,0.3,1,0.6,1.3,1.1
				c0.3,0.5,0.5,1,0.6,1.6c0.1,0.6,0.1,1.2,0.1,1.8c0,1.3,0,2.5-0.1,3.7s-0.1,2.4-0.1,3.5c0,0.8,0,1.6,0.1,2.3
				c0.1,0.7,0.2,1.3,0.3,2h-1.8l-0.6-1.9h-0.1c-0.3,0.6-0.8,1-1.4,1.4c-0.6,0.4-1.4,0.6-2.5,0.6c-1.1,0-2.1-0.4-2.8-1.2
				c-0.7-0.8-1.1-1.9-1.1-3.3c0-0.9,0.2-1.7,0.5-2.3c0.3-0.6,0.7-1.1,1.3-1.5c0.6-0.4,1.2-0.7,2-0.8c0.8-0.2,1.6-0.2,2.6-0.2
				c0.2,0,0.4,0,0.6,0s0.4,0,0.7,0c0.1-0.7,0.1-1.2,0.1-1.8c0-1.2-0.2-2.1-0.5-2.6c-0.4-0.5-1-0.7-2-0.7c-0.6,0-1.2,0.1-1.9,0.3
				c-0.7,0.2-1.3,0.4-1.7,0.7L207.6,28z M214.5,35.7c-0.2,0-0.4,0-0.6,0s-0.4,0-0.6,0c-0.5,0-1,0-1.5,0.1c-0.5,0.1-0.9,0.2-1.3,0.4
				c-0.4,0.2-0.7,0.5-0.9,0.9c-0.2,0.4-0.3,0.8-0.3,1.4c0,0.9,0.2,1.5,0.6,2c0.4,0.5,0.9,0.7,1.6,0.7c0.9,0,1.6-0.2,2.1-0.6
				c0.5-0.4,0.8-0.9,1-1.4V35.7z"/>
			<path fill="#FFFFFF" d="M228.7,43v-9.8c0-1.6-0.2-2.8-0.6-3.5c-0.4-0.7-1-1.1-2-1.1c-0.9,0-1.6,0.3-2.1,0.8
				c-0.6,0.5-1,1.1-1.2,1.9V43h-2.3V27h1.7l0.4,1.7h0.1c0.4-0.6,1-1.1,1.6-1.5c0.7-0.4,1.5-0.6,2.5-0.6c0.7,0,1.3,0.1,1.8,0.3
				c0.5,0.2,1,0.5,1.3,1c0.4,0.5,0.6,1.1,0.8,1.8c0.2,0.8,0.3,1.7,0.3,2.9V43H228.7z"/>
			<path fill="#FFFFFF" d="M234.6,22.1c0-0.5,0.1-0.9,0.4-1.2c0.3-0.3,0.7-0.5,1.1-0.5s0.9,0.2,1.2,0.5c0.3,0.3,0.5,0.7,0.5,1.3
				c0,0.5-0.2,0.9-0.5,1.2s-0.7,0.4-1.2,0.4s-0.8-0.1-1.1-0.4S234.6,22.6,234.6,22.1z M235,27h2.3v16H235V27z"/>
			<path fill="#FFFFFF" d="M240.7,40.9l5.9-10.5l1.1-1.4h-7V27h9.3v2.1l-6,10.6l-1.1,1.3h7V43h-9.3V40.9z"/>
			<path fill="#FFFFFF" d="M262.2,41.9c-0.5,0.5-1.2,0.8-2,1.1c-0.8,0.3-1.6,0.4-2.5,0.4c-1,0-1.9-0.2-2.6-0.6
				c-0.7-0.4-1.3-1-1.8-1.7c-0.5-0.7-0.8-1.6-1.1-2.6S252,36.3,252,35c0-2.7,0.5-4.8,1.5-6.2c1-1.4,2.4-2.1,4.3-2.1
				c0.6,0,1.2,0.1,1.8,0.2c0.6,0.1,1.1,0.4,1.6,0.9c0.5,0.4,0.8,1.1,1.1,1.9s0.4,1.9,0.4,3.2c0,0.4,0,0.8,0,1.2
				c0,0.4-0.1,0.8-0.1,1.3h-8.1c0,0.9,0.1,1.8,0.2,2.5c0.1,0.7,0.4,1.4,0.7,1.9s0.7,0.9,1.2,1.2c0.5,0.3,1.1,0.4,1.9,0.4
				c0.6,0,1.1-0.1,1.7-0.3c0.6-0.2,1-0.5,1.3-0.8L262.2,41.9z M260.5,33.3c0-1.6-0.2-2.8-0.7-3.5c-0.5-0.7-1.2-1.1-2-1.1
				c-1,0-1.8,0.4-2.3,1.1c-0.6,0.7-0.9,1.9-1,3.5H260.5z"/>
			<path fill="#FFFFFF" d="M265.9,27h1.6l0.4,1.7h0.1c0.3-0.6,0.7-1.1,1.2-1.5c0.5-0.4,1.1-0.5,1.7-0.5c0.5,0,1,0.1,1.7,0.3
				l-0.4,2.3c-0.6-0.2-1-0.3-1.5-0.3c-0.7,0-1.2,0.2-1.7,0.6c-0.4,0.4-0.7,0.9-0.8,1.6V43h-2.3V27z"/>
			<path fill="#FFFFFF" d="M274.4,40.4c0.4,0.3,0.9,0.5,1.5,0.7c0.6,0.2,1.2,0.3,1.8,0.3c0.7,0,1.3-0.2,1.8-0.5
				c0.5-0.4,0.7-0.9,0.7-1.7c0-0.7-0.1-1.2-0.4-1.6c-0.3-0.4-0.7-0.8-1.1-1.2c-0.5-0.3-1-0.7-1.5-0.9s-1-0.6-1.5-1
				c-0.5-0.4-0.8-0.9-1.1-1.4c-0.3-0.6-0.4-1.3-0.4-2.1c0-1.4,0.4-2.4,1.1-3.1c0.7-0.7,1.8-1,3.1-1c0.9,0,1.6,0.1,2.3,0.2
				c0.6,0.2,1.2,0.4,1.7,0.7l-0.6,1.9c-0.4-0.2-0.9-0.4-1.4-0.5s-1.1-0.2-1.6-0.2c-0.8,0-1.3,0.2-1.7,0.5c-0.4,0.3-0.5,0.8-0.5,1.5
				c0,0.5,0.1,1,0.4,1.4c0.3,0.4,0.7,0.7,1.1,1c0.5,0.3,1,0.6,1.5,0.9c0.5,0.3,1,0.7,1.5,1.1c0.5,0.4,0.8,1,1.1,1.6
				c0.3,0.6,0.4,1.4,0.4,2.3c0,0.6-0.1,1.2-0.3,1.7c-0.2,0.5-0.5,1-0.9,1.4c-0.4,0.4-0.9,0.7-1.5,0.9c-0.6,0.2-1.3,0.4-2.1,0.4
				c-0.9,0-1.7-0.1-2.4-0.3c-0.7-0.2-1.3-0.4-1.7-0.7L274.4,40.4z"/>
		</g>
		<g id="mail" transform="translate(305.000000, 23.000000)" sketch:type="MSShapeGroup">
			<path id="Shape" fill="#FFFFFF" d="M25.2,0.5H-0.3v17.1h26.7V0.5H25.2L25.2,0.5z M24.2,1.5L13.9,11.8c-0.5,0.5-1.3,0.5-1.8,0
				L1.8,1.5H24.2L24.2,1.5z M0.7,2l6.9,6.9l-6.9,6.9V2L0.7,2z M1.6,16.5l6.8-6.8l3,3c0.4,0.4,1,0.7,1.6,0.7s1.2-0.2,1.6-0.7l3-3
				l6.8,6.8L1.6,16.5L1.6,16.5z M25.3,15.8l-6.9-6.9L25.3,2V15.8L25.3,15.8z"/>
		</g>
	</g>
</g>
</svg>
