<?xml version="1.0" encoding="utf-8"?>
<!-- Generated by IcoMoon.io -->
<!DOCTYPE svg PUBLIC "-//W3C//DTD SVG 1.1//EN" "http://www.w3.org/Graphics/SVG/1.1/DTD/svg11.dtd">
<svg version="1.1" xmlns="http://www.w3.org/2000/svg" xmlns:xlink="http://www.w3.org/1999/xlink" width="48" height="48" viewBox="0 0 48 48">
<g>
	<line stroke-width="1" x1="" y1="" x2="" y2="" stroke="#449FDB" opacity=""></line>
</g>
	<path d="M4.808 4.808v38.385h38.385v-38.385h-38.385zM41.593 6.407v7.197h-35.186v-7.197h35.186zM6.407 41.593v-26.39h35.186v26.39h-35.186z" fill="#000000"></path>
	<path d="M16.802 8.806h2.4v2.399h-2.4v-2.399z" fill="#000000"></path>
	<path d="M28.798 8.806h2.399v2.399h-2.399v-2.399z" fill="#000000"></path>
	<path d="M18.522 20.893c-0.287 1.946-1.212 1.98-3.075 2.047l-0.289 0.011v1.356h3.156v8.871h1.674v-12.541h-1.429l-0.038 0.256z" fill="#000000"></path>
	<path d="M27.963 24.663c-0.743 0-1.507 0.243-2.112 0.65l0.569-2.932h5.272v-1.589h-6.52l-1.272 6.792h1.447l0.088-0.138c0.506-0.788 1.428-1.278 2.408-1.278 1.595 0 2.754 1.18 2.754 2.805 0 1.47-0.922 2.958-2.685 2.958-1.506 0-2.59-1.017-2.634-2.473l-0.009-0.291h-1.673l0.007 0.307c0.054 2.369 1.751 3.961 4.223 3.961 2.493 0 4.445-1.908 4.445-4.343-0-2.649-1.731-4.429-4.309-4.429z" fill="#000000"></path>
</svg>
