<?xml version="1.0" encoding="UTF-8" standalone="no"?>
<svg width="560px" height="560px" viewBox="0 0 560 560" version="1.1" xmlns="http://www.w3.org/2000/svg" xmlns:xlink="http://www.w3.org/1999/xlink" xmlns:sketch="http://www.bohemiancoding.com/sketch/ns">
    <!-- Generator: Sketch 3.0.4 (8053) - http://www.bohemiancoding.com/sketch -->
    <title>qr-url</title>
    <desc>Created with Sketch.</desc>
    <defs></defs>
    <g id="Page-1" stroke="none" stroke-width="1" fill="none" fill-rule="evenodd" sketch:type="MSPage">
        <g id="qr-url" sketch:type="MSLayerGroup">
            <g id="barcode" sketch:type="MSShapeGroup">
                <rect id="Rectangle-path" fill="#FFFFFF" x="0" y="0" width="560" height="560"></rect>
                <rect id="Rectangle-path" fill="#000000" x="16" y="16" width="112" height="16"></rect>
                <rect id="Rectangle-path" fill="#000000" x="144" y="16" width="32" height="16"></rect>
                <rect id="Rectangle-path" fill="#000000" x="208" y="16" width="80" height="16"></rect>
                <rect id="Rectangle-path" fill="#000000" x="368" y="16" width="32" height="16"></rect>
                <rect id="Rectangle-path" fill="#000000" x="432" y="16" width="112" height="16"></rect>
                <rect id="Rectangle-path" fill="#000000" x="16" y="32" width="16" height="16"></rect>
                <rect id="Rectangle-path" fill="#000000" x="112" y="32" width="16" height="16"></rect>
                <rect id="Rectangle-path" fill="#000000" x="160" y="32" width="32" height="16"></rect>
                <rect id="Rectangle-path" fill="#000000" x="208" y="32" width="48" height="16"></rect>
                <rect id="Rectangle-path" fill="#000000" x="272" y="32" width="16" height="16"></rect>
                <rect id="Rectangle-path" fill="#000000" x="304" y="32" width="32" height="16"></rect>
                <rect id="Rectangle-path" fill="#000000" x="352" y="32" width="16" height="16"></rect>
                <rect id="Rectangle-path" fill="#000000" x="400" y="32" width="16" height="16"></rect>
                <rect id="Rectangle-path" fill="#000000" x="432" y="32" width="16" height="16"></rect>
                <rect id="Rectangle-path" fill="#000000" x="528" y="32" width="16" height="16"></rect>
                <rect id="Rectangle-path" fill="#000000" x="16" y="48" width="16" height="16"></rect>
                <rect id="Rectangle-path" fill="#000000" x="48" y="48" width="48" height="16"></rect>
                <rect id="Rectangle-path" fill="#000000" x="112" y="48" width="16" height="16"></rect>
                <rect id="Rectangle-path" fill="#000000" x="160" y="48" width="48" height="16"></rect>
                <rect id="Rectangle-path" fill="#000000" x="240" y="48" width="16" height="16"></rect>
                <rect id="Rectangle-path" fill="#000000" x="272" y="48" width="48" height="16"></rect>
                <rect id="Rectangle-path" fill="#000000" x="352" y="48" width="32" height="16"></rect>
                <rect id="Rectangle-path" fill="#000000" x="400" y="48" width="16" height="16"></rect>
                <rect id="Rectangle-path" fill="#000000" x="432" y="48" width="16" height="16"></rect>
                <rect id="Rectangle-path" fill="#000000" x="464" y="48" width="48" height="16"></rect>
                <rect id="Rectangle-path" fill="#000000" x="528" y="48" width="16" height="16"></rect>
                <rect id="Rectangle-path" fill="#000000" x="16" y="64" width="16" height="16"></rect>
                <rect id="Rectangle-path" fill="#000000" x="48" y="64" width="48" height="16"></rect>
                <rect id="Rectangle-path" fill="#000000" x="112" y="64" width="16" height="16"></rect>
                <rect id="Rectangle-path" fill="#000000" x="144" y="64" width="16" height="16"></rect>
                <rect id="Rectangle-path" fill="#000000" x="192" y="64" width="16" height="16"></rect>
                <rect id="Rectangle-path" fill="#000000" x="256" y="64" width="32" height="16"></rect>
                <rect id="Rectangle-path" fill="#000000" x="320" y="64" width="32" height="16"></rect>
                <rect id="Rectangle-path" fill="#000000" x="384" y="64" width="32" height="16"></rect>
                <rect id="Rectangle-path" fill="#000000" x="432" y="64" width="16" height="16"></rect>
                <rect id="Rectangle-path" fill="#000000" x="464" y="64" width="48" height="16"></rect>
                <rect id="Rectangle-path" fill="#000000" x="528" y="64" width="16" height="16"></rect>
                <rect id="Rectangle-path" fill="#000000" x="16" y="80" width="16" height="16"></rect>
                <rect id="Rectangle-path" fill="#000000" x="48" y="80" width="48" height="16"></rect>
                <rect id="Rectangle-path" fill="#000000" x="112" y="80" width="16" height="16"></rect>
                <rect id="Rectangle-path" fill="#000000" x="144" y="80" width="32" height="16"></rect>
                <rect id="Rectangle-path" fill="#000000" x="272" y="80" width="16" height="16"></rect>
                <rect id="Rectangle-path" fill="#000000" x="336" y="80" width="16" height="16"></rect>
                <rect id="Rectangle-path" fill="#000000" x="384" y="80" width="16" height="16"></rect>
                <rect id="Rectangle-path" fill="#000000" x="432" y="80" width="16" height="16"></rect>
                <rect id="Rectangle-path" fill="#000000" x="464" y="80" width="48" height="16"></rect>
                <rect id="Rectangle-path" fill="#000000" x="528" y="80" width="16" height="16"></rect>
                <rect id="Rectangle-path" fill="#000000" x="16" y="96" width="16" height="16"></rect>
                <rect id="Rectangle-path" fill="#000000" x="112" y="96" width="16" height="16"></rect>
                <rect id="Rectangle-path" fill="#000000" x="144" y="96" width="16" height="16"></rect>
                <rect id="Rectangle-path" fill="#000000" x="176" y="96" width="16" height="16"></rect>
                <rect id="Rectangle-path" fill="#000000" x="224" y="96" width="16" height="16"></rect>
                <rect id="Rectangle-path" fill="#000000" x="256" y="96" width="16" height="16"></rect>
                <rect id="Rectangle-path" fill="#000000" x="288" y="96" width="64" height="16"></rect>
                <rect id="Rectangle-path" fill="#000000" x="368" y="96" width="16" height="16"></rect>
                <rect id="Rectangle-path" fill="#000000" x="432" y="96" width="16" height="16"></rect>
                <rect id="Rectangle-path" fill="#000000" x="528" y="96" width="16" height="16"></rect>
                <rect id="Rectangle-path" fill="#000000" x="16" y="112" width="112" height="16"></rect>
                <rect id="Rectangle-path" fill="#000000" x="144" y="112" width="16" height="16"></rect>
                <rect id="Rectangle-path" fill="#000000" x="176" y="112" width="16" height="16"></rect>
                <rect id="Rectangle-path" fill="#000000" x="208" y="112" width="16" height="16"></rect>
                <rect id="Rectangle-path" fill="#000000" x="240" y="112" width="16" height="16"></rect>
                <rect id="Rectangle-path" fill="#000000" x="272" y="112" width="16" height="16"></rect>
                <rect id="Rectangle-path" fill="#000000" x="304" y="112" width="16" height="16"></rect>
                <rect id="Rectangle-path" fill="#000000" x="336" y="112" width="16" height="16"></rect>
                <rect id="Rectangle-path" fill="#000000" x="368" y="112" width="16" height="16"></rect>
                <rect id="Rectangle-path" fill="#000000" x="400" y="112" width="16" height="16"></rect>
                <rect id="Rectangle-path" fill="#000000" x="432" y="112" width="112" height="16"></rect>
                <rect id="Rectangle-path" fill="#000000" x="144" y="128" width="16" height="16"></rect>
                <rect id="Rectangle-path" fill="#000000" x="176" y="128" width="16" height="16"></rect>
                <rect id="Rectangle-path" fill="#000000" x="208" y="128" width="16" height="16"></rect>
                <rect id="Rectangle-path" fill="#000000" x="240" y="128" width="16" height="16"></rect>
                <rect id="Rectangle-path" fill="#000000" x="288" y="128" width="32" height="16"></rect>
                <rect id="Rectangle-path" fill="#000000" x="352" y="128" width="16" height="16"></rect>
                <rect id="Rectangle-path" fill="#000000" x="400" y="128" width="16" height="16"></rect>
                <rect id="Rectangle-path" fill="#000000" x="16" y="144" width="16" height="16"></rect>
                <rect id="Rectangle-path" fill="#000000" x="80" y="144" width="16" height="16"></rect>
                <rect id="Rectangle-path" fill="#000000" x="112" y="144" width="64" height="16"></rect>
                <rect id="Rectangle-path" fill="#000000" x="208" y="144" width="16" height="16"></rect>
                <rect id="Rectangle-path" fill="#000000" x="256" y="144" width="48" height="16"></rect>
                <rect id="Rectangle-path" fill="#000000" x="320" y="144" width="16" height="16"></rect>
                <rect id="Rectangle-path" fill="#000000" x="352" y="144" width="16" height="16"></rect>
                <rect id="Rectangle-path" fill="#000000" x="400" y="144" width="96" height="16"></rect>
                <rect id="Rectangle-path" fill="#000000" x="528" y="144" width="16" height="16"></rect>
                <rect id="Rectangle-path" fill="#000000" x="32" y="160" width="16" height="16"></rect>
                <rect id="Rectangle-path" fill="#000000" x="144" y="160" width="16" height="16"></rect>
                <rect id="Rectangle-path" fill="#000000" x="176" y="160" width="48" height="16"></rect>
                <rect id="Rectangle-path" fill="#000000" x="240" y="160" width="48" height="16"></rect>
                <rect id="Rectangle-path" fill="#000000" x="304" y="160" width="16" height="16"></rect>
                <rect id="Rectangle-path" fill="#000000" x="384" y="160" width="16" height="16"></rect>
                <rect id="Rectangle-path" fill="#000000" x="448" y="160" width="16" height="16"></rect>
                <rect id="Rectangle-path" fill="#000000" x="480" y="160" width="48" height="16"></rect>
                <rect id="Rectangle-path" fill="#000000" x="32" y="176" width="48" height="16"></rect>
                <rect id="Rectangle-path" fill="#000000" x="112" y="176" width="16" height="16"></rect>
                <rect id="Rectangle-path" fill="#000000" x="144" y="176" width="16" height="16"></rect>
                <rect id="Rectangle-path" fill="#000000" x="176" y="176" width="16" height="16"></rect>
                <rect id="Rectangle-path" fill="#000000" x="208" y="176" width="64" height="16"></rect>
                <rect id="Rectangle-path" fill="#000000" x="288" y="176" width="32" height="16"></rect>
                <rect id="Rectangle-path" fill="#000000" x="352" y="176" width="64" height="16"></rect>
                <rect id="Rectangle-path" fill="#000000" x="480" y="176" width="16" height="16"></rect>
                <rect id="Rectangle-path" fill="#000000" x="512" y="176" width="16" height="16"></rect>
                <rect id="Rectangle-path" fill="#000000" x="32" y="192" width="48" height="16"></rect>
                <rect id="Rectangle-path" fill="#000000" x="128" y="192" width="16" height="16"></rect>
                <rect id="Rectangle-path" fill="#000000" x="160" y="192" width="16" height="16"></rect>
                <rect id="Rectangle-path" fill="#000000" x="208" y="192" width="32" height="16"></rect>
                <rect id="Rectangle-path" fill="#000000" x="288" y="192" width="32" height="16"></rect>
                <rect id="Rectangle-path" fill="#000000" x="352" y="192" width="16" height="16"></rect>
                <rect id="Rectangle-path" fill="#000000" x="416" y="192" width="32" height="16"></rect>
                <rect id="Rectangle-path" fill="#000000" x="512" y="192" width="32" height="16"></rect>
                <rect id="Rectangle-path" fill="#000000" x="16" y="208" width="16" height="16"></rect>
                <rect id="Rectangle-path" fill="#000000" x="48" y="208" width="16" height="16"></rect>
                <rect id="Rectangle-path" fill="#000000" x="80" y="208" width="16" height="16"></rect>
                <rect id="Rectangle-path" fill="#000000" x="112" y="208" width="32" height="16"></rect>
                <rect id="Rectangle-path" fill="#000000" x="192" y="208" width="48" height="16"></rect>
                <rect id="Rectangle-path" fill="#000000" x="256" y="208" width="64" height="16"></rect>
                <rect id="Rectangle-path" fill="#000000" x="352" y="208" width="32" height="16"></rect>
                <rect id="Rectangle-path" fill="#000000" x="400" y="208" width="16" height="16"></rect>
                <rect id="Rectangle-path" fill="#000000" x="432" y="208" width="64" height="16"></rect>
                <rect id="Rectangle-path" fill="#000000" x="80" y="224" width="32" height="16"></rect>
                <rect id="Rectangle-path" fill="#000000" x="128" y="224" width="32" height="16"></rect>
                <rect id="Rectangle-path" fill="#000000" x="192" y="224" width="32" height="16"></rect>
                <rect id="Rectangle-path" fill="#000000" x="240" y="224" width="16" height="16"></rect>
                <rect id="Rectangle-path" fill="#000000" x="288" y="224" width="32" height="16"></rect>
                <rect id="Rectangle-path" fill="#000000" x="336" y="224" width="48" height="16"></rect>
                <rect id="Rectangle-path" fill="#000000" x="448" y="224" width="16" height="16"></rect>
                <rect id="Rectangle-path" fill="#000000" x="480" y="224" width="32" height="16"></rect>
                <rect id="Rectangle-path" fill="#000000" x="16" y="240" width="16" height="16"></rect>
                <rect id="Rectangle-path" fill="#000000" x="64" y="240" width="16" height="16"></rect>
                <rect id="Rectangle-path" fill="#000000" x="96" y="240" width="80" height="16"></rect>
                <rect id="Rectangle-path" fill="#000000" x="192" y="240" width="16" height="16"></rect>
                <rect id="Rectangle-path" fill="#000000" x="224" y="240" width="16" height="16"></rect>
                <rect id="Rectangle-path" fill="#000000" x="256" y="240" width="16" height="16"></rect>
                <rect id="Rectangle-path" fill="#000000" x="288" y="240" width="16" height="16"></rect>
                <rect id="Rectangle-path" fill="#000000" x="384" y="240" width="48" height="16"></rect>
                <rect id="Rectangle-path" fill="#000000" x="464" y="240" width="16" height="16"></rect>
                <rect id="Rectangle-path" fill="#000000" x="496" y="240" width="32" height="16"></rect>
                <rect id="Rectangle-path" fill="#000000" x="128" y="256" width="64" height="16"></rect>
                <rect id="Rectangle-path" fill="#000000" x="256" y="256" width="80" height="16"></rect>
                <rect id="Rectangle-path" fill="#000000" x="352" y="256" width="32" height="16"></rect>
                <rect id="Rectangle-path" fill="#000000" x="400" y="256" width="48" height="16"></rect>
                <rect id="Rectangle-path" fill="#000000" x="464" y="256" width="16" height="16"></rect>
                <rect id="Rectangle-path" fill="#000000" x="32" y="272" width="16" height="16"></rect>
                <rect id="Rectangle-path" fill="#000000" x="64" y="272" width="16" height="16"></rect>
                <rect id="Rectangle-path" fill="#000000" x="112" y="272" width="16" height="16"></rect>
                <rect id="Rectangle-path" fill="#000000" x="144" y="272" width="112" height="16"></rect>
                <rect id="Rectangle-path" fill="#000000" x="288" y="272" width="16" height="16"></rect>
                <rect id="Rectangle-path" fill="#000000" x="320" y="272" width="64" height="16"></rect>
                <rect id="Rectangle-path" fill="#000000" x="432" y="272" width="16" height="16"></rect>
                <rect id="Rectangle-path" fill="#000000" x="464" y="272" width="32" height="16"></rect>
                <rect id="Rectangle-path" fill="#000000" x="512" y="272" width="16" height="16"></rect>
                <rect id="Rectangle-path" fill="#000000" x="32" y="288" width="64" height="16"></rect>
                <rect id="Rectangle-path" fill="#000000" x="144" y="288" width="80" height="16"></rect>
                <rect id="Rectangle-path" fill="#000000" x="256" y="288" width="64" height="16"></rect>
                <rect id="Rectangle-path" fill="#000000" x="384" y="288" width="16" height="16"></rect>
                <rect id="Rectangle-path" fill="#000000" x="480" y="288" width="48" height="16"></rect>
                <rect id="Rectangle-path" fill="#000000" x="32" y="304" width="96" height="16"></rect>
                <rect id="Rectangle-path" fill="#000000" x="208" y="304" width="16" height="16"></rect>
                <rect id="Rectangle-path" fill="#000000" x="256" y="304" width="16" height="16"></rect>
                <rect id="Rectangle-path" fill="#000000" x="304" y="304" width="16" height="16"></rect>
                <rect id="Rectangle-path" fill="#000000" x="384" y="304" width="16" height="16"></rect>
                <rect id="Rectangle-path" fill="#000000" x="416" y="304" width="16" height="16"></rect>
                <rect id="Rectangle-path" fill="#000000" x="480" y="304" width="16" height="16"></rect>
                <rect id="Rectangle-path" fill="#000000" x="512" y="304" width="16" height="16"></rect>
                <rect id="Rectangle-path" fill="#000000" x="16" y="320" width="96" height="16"></rect>
                <rect id="Rectangle-path" fill="#000000" x="160" y="320" width="32" height="16"></rect>
                <rect id="Rectangle-path" fill="#000000" x="208" y="320" width="16" height="16"></rect>
                <rect id="Rectangle-path" fill="#000000" x="240" y="320" width="16" height="16"></rect>
                <rect id="Rectangle-path" fill="#000000" x="272" y="320" width="48" height="16"></rect>
                <rect id="Rectangle-path" fill="#000000" x="352" y="320" width="32" height="16"></rect>
                <rect id="Rectangle-path" fill="#000000" x="400" y="320" width="16" height="16"></rect>
                <rect id="Rectangle-path" fill="#000000" x="16" y="336" width="16" height="16"></rect>
                <rect id="Rectangle-path" fill="#000000" x="48" y="336" width="48" height="16"></rect>
                <rect id="Rectangle-path" fill="#000000" x="112" y="336" width="16" height="16"></rect>
                <rect id="Rectangle-path" fill="#000000" x="144" y="336" width="16" height="16"></rect>
                <rect id="Rectangle-path" fill="#000000" x="208" y="336" width="32" height="16"></rect>
                <rect id="Rectangle-path" fill="#000000" x="304" y="336" width="32" height="16"></rect>
                <rect id="Rectangle-path" fill="#000000" x="352" y="336" width="64" height="16"></rect>
                <rect id="Rectangle-path" fill="#000000" x="432" y="336" width="16" height="16"></rect>
                <rect id="Rectangle-path" fill="#000000" x="464" y="336" width="32" height="16"></rect>
                <rect id="Rectangle-path" fill="#000000" x="16" y="352" width="16" height="16"></rect>
                <rect id="Rectangle-path" fill="#000000" x="64" y="352" width="16" height="16"></rect>
                <rect id="Rectangle-path" fill="#000000" x="96" y="352" width="16" height="16"></rect>
                <rect id="Rectangle-path" fill="#000000" x="144" y="352" width="16" height="16"></rect>
                <rect id="Rectangle-path" fill="#000000" x="176" y="352" width="16" height="16"></rect>
                <rect id="Rectangle-path" fill="#000000" x="208" y="352" width="48" height="16"></rect>
                <rect id="Rectangle-path" fill="#000000" x="272" y="352" width="16" height="16"></rect>
                <rect id="Rectangle-path" fill="#000000" x="304" y="352" width="16" height="16"></rect>
                <rect id="Rectangle-path" fill="#000000" x="336" y="352" width="16" height="16"></rect>
                <rect id="Rectangle-path" fill="#000000" x="384" y="352" width="16" height="16"></rect>
                <rect id="Rectangle-path" fill="#000000" x="416" y="352" width="16" height="16"></rect>
                <rect id="Rectangle-path" fill="#000000" x="448" y="352" width="16" height="16"></rect>
                <rect id="Rectangle-path" fill="#000000" x="512" y="352" width="16" height="16"></rect>
                <rect id="Rectangle-path" fill="#000000" x="48" y="368" width="32" height="16"></rect>
                <rect id="Rectangle-path" fill="#000000" x="112" y="368" width="48" height="16"></rect>
                <rect id="Rectangle-path" fill="#000000" x="240" y="368" width="16" height="16"></rect>
                <rect id="Rectangle-path" fill="#000000" x="272" y="368" width="16" height="16"></rect>
                <rect id="Rectangle-path" fill="#000000" x="336" y="368" width="16" height="16"></rect>
                <rect id="Rectangle-path" fill="#000000" x="368" y="368" width="32" height="16"></rect>
                <rect id="Rectangle-path" fill="#000000" x="416" y="368" width="16" height="16"></rect>
                <rect id="Rectangle-path" fill="#000000" x="448" y="368" width="32" height="16"></rect>
                <rect id="Rectangle-path" fill="#000000" x="512" y="368" width="16" height="16"></rect>
                <rect id="Rectangle-path" fill="#000000" x="96" y="384" width="16" height="16"></rect>
                <rect id="Rectangle-path" fill="#000000" x="128" y="384" width="16" height="16"></rect>
                <rect id="Rectangle-path" fill="#000000" x="160" y="384" width="32" height="16"></rect>
                <rect id="Rectangle-path" fill="#000000" x="208" y="384" width="16" height="16"></rect>
                <rect id="Rectangle-path" fill="#000000" x="240" y="384" width="16" height="16"></rect>
                <rect id="Rectangle-path" fill="#000000" x="288" y="384" width="32" height="16"></rect>
                <rect id="Rectangle-path" fill="#000000" x="352" y="384" width="16" height="16"></rect>
                <rect id="Rectangle-path" fill="#000000" x="400" y="384" width="48" height="16"></rect>
                <rect id="Rectangle-path" fill="#000000" x="464" y="384" width="32" height="16"></rect>
                <rect id="Rectangle-path" fill="#000000" x="512" y="384" width="32" height="16"></rect>
                <rect id="Rectangle-path" fill="#000000" x="16" y="400" width="32" height="16"></rect>
                <rect id="Rectangle-path" fill="#000000" x="112" y="400" width="64" height="16"></rect>
                <rect id="Rectangle-path" fill="#000000" x="208" y="400" width="16" height="16"></rect>
                <rect id="Rectangle-path" fill="#000000" x="240" y="400" width="32" height="16"></rect>
                <rect id="Rectangle-path" fill="#000000" x="288" y="400" width="16" height="16"></rect>
                <rect id="Rectangle-path" fill="#000000" x="352" y="400" width="128" height="16"></rect>
                <rect id="Rectangle-path" fill="#000000" x="528" y="400" width="16" height="16"></rect>
                <rect id="Rectangle-path" fill="#000000" x="144" y="416" width="16" height="16"></rect>
                <rect id="Rectangle-path" fill="#000000" x="208" y="416" width="16" height="16"></rect>
                <rect id="Rectangle-path" fill="#000000" x="256" y="416" width="48" height="16"></rect>
                <rect id="Rectangle-path" fill="#000000" x="352" y="416" width="16" height="16"></rect>
                <rect id="Rectangle-path" fill="#000000" x="400" y="416" width="16" height="16"></rect>
                <rect id="Rectangle-path" fill="#000000" x="464" y="416" width="16" height="16"></rect>
                <rect id="Rectangle-path" fill="#000000" x="496" y="416" width="32" height="16"></rect>
                <rect id="Rectangle-path" fill="#000000" x="16" y="432" width="112" height="16"></rect>
                <rect id="Rectangle-path" fill="#000000" x="144" y="432" width="32" height="16"></rect>
                <rect id="Rectangle-path" fill="#000000" x="192" y="432" width="80" height="16"></rect>
                <rect id="Rectangle-path" fill="#000000" x="304" y="432" width="16" height="16"></rect>
                <rect id="Rectangle-path" fill="#000000" x="336" y="432" width="48" height="16"></rect>
                <rect id="Rectangle-path" fill="#000000" x="400" y="432" width="16" height="16"></rect>
                <rect id="Rectangle-path" fill="#000000" x="432" y="432" width="16" height="16"></rect>
                <rect id="Rectangle-path" fill="#000000" x="464" y="432" width="32" height="16"></rect>
                <rect id="Rectangle-path" fill="#000000" x="512" y="432" width="16" height="16"></rect>
                <rect id="Rectangle-path" fill="#000000" x="16" y="448" width="16" height="16"></rect>
                <rect id="Rectangle-path" fill="#000000" x="112" y="448" width="16" height="16"></rect>
                <rect id="Rectangle-path" fill="#000000" x="224" y="448" width="16" height="16"></rect>
                <rect id="Rectangle-path" fill="#000000" x="320" y="448" width="48" height="16"></rect>
                <rect id="Rectangle-path" fill="#000000" x="384" y="448" width="32" height="16"></rect>
                <rect id="Rectangle-path" fill="#000000" x="464" y="448" width="32" height="16"></rect>
                <rect id="Rectangle-path" fill="#000000" x="512" y="448" width="32" height="16"></rect>
                <rect id="Rectangle-path" fill="#000000" x="16" y="464" width="16" height="16"></rect>
                <rect id="Rectangle-path" fill="#000000" x="48" y="464" width="48" height="16"></rect>
                <rect id="Rectangle-path" fill="#000000" x="112" y="464" width="16" height="16"></rect>
                <rect id="Rectangle-path" fill="#000000" x="144" y="464" width="32" height="16"></rect>
                <rect id="Rectangle-path" fill="#000000" x="208" y="464" width="16" height="16"></rect>
                <rect id="Rectangle-path" fill="#000000" x="240" y="464" width="48" height="16"></rect>
                <rect id="Rectangle-path" fill="#000000" x="352" y="464" width="32" height="16"></rect>
                <rect id="Rectangle-path" fill="#000000" x="400" y="464" width="96" height="16"></rect>
                <rect id="Rectangle-path" fill="#000000" x="16" y="480" width="16" height="16"></rect>
                <rect id="Rectangle-path" fill="#000000" x="48" y="480" width="48" height="16"></rect>
                <rect id="Rectangle-path" fill="#000000" x="112" y="480" width="16" height="16"></rect>
                <rect id="Rectangle-path" fill="#000000" x="192" y="480" width="32" height="16"></rect>
                <rect id="Rectangle-path" fill="#000000" x="240" y="480" width="16" height="16"></rect>
                <rect id="Rectangle-path" fill="#000000" x="304" y="480" width="16" height="16"></rect>
                <rect id="Rectangle-path" fill="#000000" x="368" y="480" width="32" height="16"></rect>
                <rect id="Rectangle-path" fill="#000000" x="432" y="480" width="16" height="16"></rect>
                <rect id="Rectangle-path" fill="#000000" x="464" y="480" width="32" height="16"></rect>
                <rect id="Rectangle-path" fill="#000000" x="16" y="496" width="16" height="16"></rect>
                <rect id="Rectangle-path" fill="#000000" x="48" y="496" width="48" height="16"></rect>
                <rect id="Rectangle-path" fill="#000000" x="112" y="496" width="16" height="16"></rect>
                <rect id="Rectangle-path" fill="#000000" x="176" y="496" width="32" height="16"></rect>
                <rect id="Rectangle-path" fill="#000000" x="256" y="496" width="16" height="16"></rect>
                <rect id="Rectangle-path" fill="#000000" x="352" y="496" width="32" height="16"></rect>
                <rect id="Rectangle-path" fill="#000000" x="416" y="496" width="64" height="16"></rect>
                <rect id="Rectangle-path" fill="#000000" x="496" y="496" width="16" height="16"></rect>
                <rect id="Rectangle-path" fill="#000000" x="16" y="512" width="16" height="16"></rect>
                <rect id="Rectangle-path" fill="#000000" x="112" y="512" width="16" height="16"></rect>
                <rect id="Rectangle-path" fill="#000000" x="160" y="512" width="160" height="16"></rect>
                <rect id="Rectangle-path" fill="#000000" x="336" y="512" width="32" height="16"></rect>
                <rect id="Rectangle-path" fill="#000000" x="384" y="512" width="32" height="16"></rect>
                <rect id="Rectangle-path" fill="#000000" x="432" y="512" width="32" height="16"></rect>
                <rect id="Rectangle-path" fill="#000000" x="16" y="528" width="112" height="16"></rect>
                <rect id="Rectangle-path" fill="#000000" x="144" y="528" width="32" height="16"></rect>
                <rect id="Rectangle-path" fill="#000000" x="192" y="528" width="32" height="16"></rect>
                <rect id="Rectangle-path" fill="#000000" x="240" y="528" width="16" height="16"></rect>
                <rect id="Rectangle-path" fill="#000000" x="288" y="528" width="80" height="16"></rect>
                <rect id="Rectangle-path" fill="#000000" x="384" y="528" width="32" height="16"></rect>
                <rect id="Rectangle-path" fill="#000000" x="432" y="528" width="16" height="16"></rect>
                <rect id="Rectangle-path" fill="#000000" x="464" y="528" width="48" height="16"></rect>
                <rect id="Rectangle-path" fill="#000000" x="528" y="528" width="16" height="16"></rect>
            </g>
        </g>
    </g>
</svg>