<?xml version="1.0" encoding="utf-8"?>
<!-- Generator: Adobe Illustrator 18.1.1, SVG Export Plug-In . SVG Version: 6.00 Build 0)  -->
<svg version="1.2" baseProfile="tiny" id="Layer_1" xmlns:sketch="http://www.bohemiancoding.com/sketch/ns"
	 xmlns="http://www.w3.org/2000/svg" xmlns:xlink="http://www.w3.org/1999/xlink" x="0px" y="0px" viewBox="-215 277 360 60"
	 xml:space="preserve">
<title>register-fill</title>
<desc>Created with Sketch.</desc>
<g id="Page-1" sketch:type="MSPage">
	<g id="register-fill" sketch:type="MSLayerGroup">
		<rect id="Button" x="-215" y="277" sketch:type="MSShapeGroup" fill="#D2D2D2" width="360" height="60">
		</rect>
		<g>
			<path fill="#FFFFFF" d="M-150,295.8c0.7-0.2,1.5-0.3,2.3-0.4c0.8-0.1,1.6-0.1,2.3-0.1c0.8,0,1.6,0.1,2.4,0.3c0.7,0.2,1.4,0.5,2,1
				c0.6,0.5,1,1.1,1.3,1.9c0.3,0.8,0.5,1.8,0.5,2.9c0,1.8-0.4,3.2-1.1,4.3s-1.7,1.8-2.9,2.1l1.2,1.2l4.4,8.9h-2.8l-4.8-9.8l-2.4-0.5
				V318h-2.4V295.8z M-147.6,306.2h1.9c1.2,0,2.2-0.4,2.9-1.1c0.7-0.7,1.1-1.9,1.1-3.4c0-1.2-0.3-2.1-0.9-2.9
				c-0.6-0.8-1.5-1.2-2.6-1.2c-0.4,0-0.9,0-1.3,0c-0.5,0-0.8,0.1-1,0.1V306.2z"/>
			<path fill="#FFFFFF" d="M-126.4,316.9c-0.5,0.5-1.2,0.8-2,1.1c-0.8,0.3-1.6,0.4-2.5,0.4c-1,0-1.9-0.2-2.6-0.6
				c-0.7-0.4-1.3-1-1.8-1.7c-0.5-0.7-0.8-1.6-1.1-2.6s-0.3-2.2-0.3-3.5c0-2.7,0.5-4.8,1.5-6.2c1-1.4,2.4-2.1,4.3-2.1
				c0.6,0,1.2,0.1,1.8,0.2c0.6,0.1,1.1,0.4,1.6,0.9c0.5,0.4,0.8,1.1,1.1,1.9s0.4,1.9,0.4,3.2c0,0.4,0,0.8,0,1.2
				c0,0.4-0.1,0.8-0.1,1.3h-8.1c0,0.9,0.1,1.8,0.2,2.5c0.1,0.7,0.4,1.4,0.7,1.9c0.3,0.5,0.7,0.9,1.2,1.2c0.5,0.3,1.1,0.4,1.9,0.4
				c0.6,0,1.1-0.1,1.7-0.3c0.6-0.2,1-0.5,1.3-0.8L-126.4,316.9z M-128.2,308.3c0-1.6-0.2-2.8-0.7-3.5c-0.5-0.7-1.2-1.1-2-1.1
				c-1,0-1.8,0.4-2.3,1.1c-0.6,0.7-0.9,1.9-1,3.5H-128.2z"/>
			<path fill="#FFFFFF" d="M-113,318.7c0,2.1-0.5,3.6-1.4,4.6c-0.9,1-2.3,1.5-4,1.5c-1.1,0-1.9-0.1-2.6-0.3s-1.2-0.4-1.7-0.6l0.7-2
				c0.4,0.2,0.9,0.4,1.4,0.5c0.5,0.2,1.1,0.3,1.9,0.3c1.3,0,2.2-0.4,2.7-1.1c0.5-0.7,0.7-1.9,0.7-3.6v-1.2h-0.1
				c-0.3,0.5-0.8,0.9-1.3,1.2c-0.5,0.3-1.2,0.4-2,0.4c-1.7,0-3-0.7-3.8-2c-0.8-1.3-1.2-3.4-1.2-6.3c0-2.8,0.5-4.8,1.6-6.2
				s2.6-2.1,4.7-2.1c1,0,1.9,0.1,2.6,0.3c0.7,0.2,1.4,0.4,1.9,0.7V318.7z M-115.3,304.3c-0.6-0.3-1.5-0.5-2.5-0.5
				c-1.1,0-2,0.5-2.6,1.5c-0.7,1-1,2.6-1,4.8c0,0.9,0.1,1.7,0.2,2.5c0.1,0.8,0.3,1.4,0.5,2s0.6,1,1,1.3c0.4,0.3,0.9,0.5,1.5,0.5
				c0.8,0,1.5-0.2,1.9-0.6c0.5-0.4,0.8-1.1,1-1.9V304.3z"/>
			<path fill="#FFFFFF" d="M-109.2,297.1c0-0.5,0.1-0.9,0.4-1.2c0.3-0.3,0.7-0.5,1.1-0.5s0.9,0.2,1.2,0.5c0.3,0.3,0.5,0.7,0.5,1.3
				c0,0.5-0.2,0.9-0.5,1.2s-0.7,0.4-1.2,0.4s-0.8-0.1-1.1-0.4S-109.2,297.6-109.2,297.1z M-108.8,302h2.3v16h-2.3V302z"/>
			<path fill="#FFFFFF" d="M-102.5,315.4c0.4,0.3,0.9,0.5,1.5,0.7c0.6,0.2,1.2,0.3,1.8,0.3c0.7,0,1.3-0.2,1.8-0.5
				c0.5-0.4,0.7-0.9,0.7-1.7c0-0.7-0.1-1.2-0.4-1.6c-0.3-0.4-0.7-0.8-1.1-1.2c-0.5-0.3-1-0.7-1.5-0.9c-0.5-0.3-1-0.6-1.5-1
				c-0.5-0.4-0.8-0.9-1.1-1.4c-0.3-0.6-0.4-1.3-0.4-2.1c0-1.4,0.4-2.4,1.1-3.1c0.7-0.7,1.8-1,3.1-1c0.9,0,1.6,0.1,2.3,0.2
				c0.6,0.2,1.2,0.4,1.7,0.7l-0.6,1.9c-0.4-0.2-0.9-0.4-1.4-0.5s-1.1-0.2-1.6-0.2c-0.8,0-1.3,0.2-1.7,0.5c-0.4,0.3-0.5,0.8-0.5,1.5
				c0,0.5,0.1,1,0.4,1.4c0.3,0.4,0.7,0.7,1.1,1c0.5,0.3,1,0.6,1.5,0.9c0.5,0.3,1,0.7,1.5,1.1c0.5,0.4,0.8,1,1.1,1.6
				c0.3,0.6,0.4,1.4,0.4,2.3c0,0.6-0.1,1.2-0.3,1.7s-0.5,1-0.9,1.4c-0.4,0.4-0.9,0.7-1.5,0.9c-0.6,0.2-1.3,0.4-2.1,0.4
				c-0.9,0-1.7-0.1-2.4-0.3c-0.7-0.2-1.3-0.4-1.7-0.7L-102.5,315.4z"/>
			<path fill="#FFFFFF" d="M-93.1,302h2v-3.2l2.3-0.7v3.9h3.5v2.1h-3.5v9.5c0,0.9,0.1,1.6,0.3,2s0.6,0.6,1.1,0.6
				c0.4,0,0.8,0,1.1-0.1c0.3-0.1,0.6-0.2,1-0.4l0.4,1.8c-0.5,0.2-1,0.4-1.6,0.6c-0.6,0.1-1.2,0.2-1.8,0.2c-1.1,0-1.8-0.3-2.3-1
				c-0.5-0.7-0.7-1.8-0.7-3.4v-9.9h-2V302z"/>
			<path fill="#FFFFFF" d="M-82.7,302h1.6l0.4,1.7h0.1c0.3-0.6,0.7-1.1,1.2-1.5c0.5-0.4,1.1-0.5,1.7-0.5c0.5,0,1,0.1,1.7,0.3
				l-0.4,2.3c-0.6-0.2-1-0.3-1.5-0.3c-0.7,0-1.2,0.2-1.7,0.6c-0.4,0.4-0.7,0.9-0.8,1.6V318h-2.3V302z"/>
			<path fill="#FFFFFF" d="M-74,303c0.6-0.4,1.4-0.7,2.3-0.9c0.9-0.2,1.8-0.3,2.8-0.3c0.9,0,1.6,0.1,2.2,0.4c0.5,0.3,1,0.6,1.3,1.1
				c0.3,0.5,0.5,1,0.6,1.6c0.1,0.6,0.1,1.2,0.1,1.8c0,1.3,0,2.5-0.1,3.7s-0.1,2.4-0.1,3.5c0,0.8,0,1.6,0.1,2.3
				c0.1,0.7,0.2,1.3,0.3,2h-1.8l-0.6-1.9h-0.1c-0.3,0.6-0.8,1-1.4,1.4s-1.4,0.6-2.5,0.6c-1.1,0-2.1-0.4-2.8-1.2
				c-0.7-0.8-1.1-1.9-1.1-3.3c0-0.9,0.2-1.7,0.5-2.3c0.3-0.6,0.7-1.1,1.3-1.5c0.6-0.4,1.2-0.7,2-0.8c0.8-0.2,1.6-0.2,2.6-0.2
				c0.2,0,0.4,0,0.6,0s0.4,0,0.7,0c0.1-0.7,0.1-1.2,0.1-1.8c0-1.2-0.2-2.1-0.5-2.6c-0.4-0.5-1-0.7-2-0.7c-0.6,0-1.2,0.1-1.9,0.3
				c-0.7,0.2-1.3,0.4-1.7,0.7L-74,303z M-67.2,310.7c-0.2,0-0.4,0-0.6,0s-0.4,0-0.6,0c-0.5,0-1,0-1.5,0.1c-0.5,0.1-0.9,0.2-1.3,0.4
				c-0.4,0.2-0.7,0.5-0.9,0.9c-0.2,0.4-0.3,0.8-0.3,1.4c0,0.9,0.2,1.5,0.6,2c0.4,0.5,0.9,0.7,1.6,0.7c0.9,0,1.6-0.2,2.1-0.6
				c0.5-0.4,0.8-0.9,1-1.4V310.7z"/>
			<path fill="#FFFFFF" d="M-62.7,302h2v-3.2l2.3-0.7v3.9h3.5v2.1h-3.5v9.5c0,0.9,0.1,1.6,0.3,2s0.6,0.6,1.1,0.6
				c0.4,0,0.8,0,1.1-0.1c0.3-0.1,0.6-0.2,1-0.4l0.4,1.8c-0.5,0.2-1,0.4-1.6,0.6c-0.6,0.1-1.2,0.2-1.8,0.2c-1.1,0-1.8-0.3-2.3-1
				c-0.5-0.7-0.7-1.8-0.7-3.4v-9.9h-2V302z"/>
			<path fill="#FFFFFF" d="M-52.3,297.1c0-0.5,0.1-0.9,0.4-1.2c0.3-0.3,0.7-0.5,1.1-0.5s0.9,0.2,1.2,0.5c0.3,0.3,0.5,0.7,0.5,1.3
				c0,0.5-0.2,0.9-0.5,1.2s-0.7,0.4-1.2,0.4s-0.8-0.1-1.1-0.4S-52.3,297.6-52.3,297.1z M-51.9,302h2.3v16h-2.3V302z"/>
			<path fill="#FFFFFF" d="M-46,310c0-2.9,0.5-5,1.5-6.4c1-1.4,2.4-2,4.2-2c2,0,3.4,0.7,4.3,2.1c0.9,1.4,1.4,3.5,1.4,6.3
				c0,2.9-0.5,5-1.5,6.4c-1,1.3-2.4,2-4.2,2c-2,0-3.4-0.7-4.3-2.1C-45.6,314.9-46,312.8-46,310z M-43.6,310c0,0.9,0.1,1.8,0.2,2.6
				c0.1,0.8,0.3,1.4,0.6,2c0.3,0.6,0.6,1,1,1.3c0.4,0.3,0.9,0.5,1.5,0.5c1.1,0,1.9-0.5,2.5-1.5c0.6-1,0.8-2.6,0.8-4.8
				c0-0.9-0.1-1.8-0.2-2.5c-0.1-0.8-0.3-1.4-0.6-2s-0.6-1-1-1.3c-0.4-0.3-0.9-0.5-1.5-0.5c-1.1,0-1.9,0.5-2.5,1.5
				C-43.4,306.2-43.6,307.8-43.6,310z"/>
			<path fill="#FFFFFF" d="M-23.3,318v-9.8c0-1.6-0.2-2.8-0.6-3.5c-0.4-0.7-1-1.1-2-1.1c-0.9,0-1.6,0.3-2.1,0.8s-1,1.1-1.2,1.9V318
				h-2.3v-16h1.7l0.4,1.7h0.1c0.4-0.6,1-1.1,1.6-1.5c0.7-0.4,1.5-0.6,2.5-0.6c0.7,0,1.3,0.1,1.8,0.3c0.5,0.2,1,0.5,1.3,1
				c0.4,0.5,0.6,1.1,0.8,1.8c0.2,0.8,0.3,1.7,0.3,2.9V318H-23.3z"/>
			<path fill="#FFFFFF" d="M1.2,317.1c-0.5,0.4-1.2,0.8-2,1c-0.8,0.2-1.7,0.3-2.6,0.3c-1.1,0-2.2-0.2-3.1-0.6s-1.8-1.1-2.5-2
				s-1.2-2.1-1.6-3.6c-0.4-1.5-0.6-3.2-0.6-5.3c0-2.1,0.2-3.9,0.7-5.4c0.4-1.5,1-2.7,1.7-3.6c0.7-0.9,1.6-1.6,2.5-2
				c0.9-0.4,1.9-0.6,2.9-0.6c1,0,1.9,0.1,2.5,0.2s1.3,0.3,1.7,0.5l-0.6,2.2c-0.4-0.2-0.9-0.4-1.5-0.5s-1.2-0.2-2-0.2
				c-0.7,0-1.5,0.2-2.1,0.5c-0.7,0.3-1.2,0.9-1.8,1.6c-0.5,0.7-0.9,1.7-1.2,2.9c-0.3,1.2-0.4,2.7-0.4,4.4c0,3.1,0.5,5.5,1.6,7
				c1.1,1.6,2.5,2.4,4.3,2.4c0.7,0,1.4-0.1,2-0.3c0.6-0.2,1.1-0.4,1.5-0.7L1.2,317.1z"/>
			<path fill="#FFFFFF" d="M6.4,314.2c0,0.7,0.1,1.3,0.3,1.6s0.5,0.5,0.8,0.5c0.4,0,1-0.1,1.6-0.4l0.2,1.9c-0.3,0.2-0.7,0.3-1.2,0.4
				c-0.5,0.1-1,0.2-1.4,0.2c-0.8,0-1.5-0.3-2-0.8c-0.5-0.5-0.8-1.4-0.8-2.6v-19.4h2.3V314.2z"/>
			<path fill="#FFFFFF" d="M10.7,310c0-2.9,0.5-5,1.5-6.4s2.4-2,4.2-2c2,0,3.4,0.7,4.3,2.1s1.4,3.5,1.4,6.3c0,2.9-0.5,5-1.5,6.4
				c-1,1.3-2.4,2-4.2,2c-2,0-3.4-0.7-4.3-2.1C11.2,314.9,10.7,312.8,10.7,310z M13.1,310c0,0.9,0.1,1.8,0.2,2.6
				c0.1,0.8,0.3,1.4,0.6,2c0.3,0.6,0.6,1,1,1.3c0.4,0.3,0.9,0.5,1.5,0.5c1.1,0,1.9-0.5,2.5-1.5c0.6-1,0.8-2.6,0.8-4.8
				c0-0.9-0.1-1.8-0.2-2.5c-0.1-0.8-0.3-1.4-0.6-2c-0.3-0.6-0.6-1-1-1.3s-0.9-0.5-1.5-0.5c-1.1,0-1.9,0.5-2.5,1.5
				C13.4,306.2,13.1,307.8,13.1,310z"/>
			<path fill="#FFFFFF" d="M25,315.4c0.4,0.3,0.9,0.5,1.5,0.7s1.2,0.3,1.8,0.3c0.7,0,1.3-0.2,1.8-0.5c0.5-0.4,0.7-0.9,0.7-1.7
				c0-0.7-0.1-1.2-0.4-1.6s-0.7-0.8-1.1-1.2c-0.5-0.3-1-0.7-1.5-0.9c-0.5-0.3-1-0.6-1.5-1s-0.8-0.9-1.1-1.4
				c-0.3-0.6-0.4-1.3-0.4-2.1c0-1.4,0.4-2.4,1.1-3.1c0.7-0.7,1.8-1,3.1-1c0.9,0,1.6,0.1,2.3,0.2c0.6,0.2,1.2,0.4,1.7,0.7l-0.6,1.9
				c-0.4-0.2-0.9-0.4-1.4-0.5s-1.1-0.2-1.6-0.2c-0.8,0-1.3,0.2-1.7,0.5c-0.4,0.3-0.5,0.8-0.5,1.5c0,0.5,0.1,1,0.4,1.4s0.7,0.7,1.1,1
				c0.5,0.3,1,0.6,1.5,0.9c0.5,0.3,1,0.7,1.5,1.1c0.5,0.4,0.8,1,1.1,1.6s0.4,1.4,0.4,2.3c0,0.6-0.1,1.2-0.3,1.7
				c-0.2,0.5-0.5,1-0.9,1.4c-0.4,0.4-0.9,0.7-1.5,0.9s-1.3,0.4-2.1,0.4c-0.9,0-1.8-0.1-2.4-0.3c-0.7-0.2-1.3-0.4-1.7-0.7L25,315.4z"
				/>
			<path fill="#FFFFFF" d="M45.6,316.9c-0.5,0.5-1.2,0.8-2,1.1c-0.8,0.3-1.6,0.4-2.5,0.4c-1,0-1.9-0.2-2.6-0.6
				c-0.7-0.4-1.3-1-1.8-1.7c-0.5-0.7-0.8-1.6-1.1-2.6c-0.2-1-0.3-2.2-0.3-3.5c0-2.7,0.5-4.8,1.5-6.2c1-1.4,2.4-2.1,4.3-2.1
				c0.6,0,1.2,0.1,1.8,0.2c0.6,0.1,1.1,0.4,1.6,0.9c0.5,0.4,0.8,1.1,1.1,1.9c0.3,0.8,0.4,1.9,0.4,3.2c0,0.4,0,0.8,0,1.2
				s-0.1,0.8-0.1,1.3h-8.1c0,0.9,0.1,1.8,0.2,2.5c0.1,0.7,0.4,1.4,0.7,1.9c0.3,0.5,0.7,0.9,1.2,1.2s1.1,0.4,1.9,0.4
				c0.6,0,1.1-0.1,1.7-0.3s1-0.5,1.3-0.8L45.6,316.9z M43.8,308.3c0-1.6-0.2-2.8-0.7-3.5c-0.5-0.7-1.2-1.1-2-1.1
				c-1,0-1.8,0.4-2.3,1.1s-0.9,1.9-1,3.5H43.8z"/>
			<path fill="#FFFFFF" d="M59.4,312.5c0,1.1,0,2.1,0,3c0,0.9,0.1,1.8,0.2,2.6H58l-0.5-1.9h-0.1c-0.3,0.6-0.8,1.2-1.4,1.6
				c-0.6,0.4-1.4,0.6-2.3,0.6c-1.7,0-3-0.7-3.9-2s-1.3-3.5-1.3-6.3c0-2.7,0.5-4.8,1.6-6.2c1-1.4,2.5-2.1,4.3-2.1
				c0.6,0,1.1,0,1.5,0.1c0.4,0.1,0.8,0.2,1.2,0.4v-6.6h2.3V312.5z M57.1,304.5c-0.3-0.3-0.6-0.4-1-0.6c-0.4-0.1-0.9-0.2-1.5-0.2
				c-1.1,0-2,0.5-2.6,1.5c-0.6,1-0.9,2.6-0.9,4.7c0,0.9,0.1,1.8,0.2,2.5c0.1,0.8,0.3,1.4,0.5,2c0.2,0.6,0.6,1,1,1.3s0.9,0.4,1.5,0.4
				c1.5,0,2.5-0.9,2.9-2.7V304.5z"/>
		</g>
		<g id="id-ion" transform="translate(303.000000, 16.000000)" sketch:type="MSShapeGroup">
			<path id="Shape" fill="#FFFFFF" d="M-198.2,286.3h7.3v1h-7.3V286.3L-198.2,286.3z"/>
			<path id="Shape_1_" fill="#FFFFFF" d="M-198.2,292.6h7.3v1h-7.3V292.6L-198.2,292.6z"/>
			<path id="Shape_2_" fill="#FFFFFF" d="M-198.2,289.5h5.2v1h-5.2V289.5L-198.2,289.5z"/>
			<path id="Shape_3_" fill="#FFFFFF" d="M-199.3,280v-3.1h-4.2v3.1H-215v23.1h27.3V280H-199.3L-199.3,280z M-188.8,281.1v2.1h-10.5
				v-2.1H-188.8L-188.8,281.1z M-202.4,277.9h2.1v5.2h-2.1V277.9L-202.4,277.9z M-214,281.1h10.5v2.1H-214V281.1L-214,281.1z
				 M-214,302.1v-17.8h25.2v17.8H-214L-214,302.1z"/>
			<path id="Shape_4_" fill="#FFFFFF" d="M-199.5,297.4c-0.8-0.3-2.5-0.9-3.7-1.3c-0.1,0-0.1,0-0.1-0.4c0-0.3,0.1-0.6,0.3-0.9
				c0.1-0.3,0.3-0.8,0.4-1.3c0.2-0.2,0.4-0.6,0.5-1.3c0.1-0.6,0.1-0.9,0-1.1c0,0,0,0,0-0.1c0-0.2,0-0.9,0.1-1.5c0.1-0.4,0-1.3-0.6-2
				c-0.4-0.5-1.1-1-2.3-1.1l-0.7,0c-1.3,0.1-1.9,0.7-2.3,1.1c-0.6,0.7-0.7,1.6-0.6,2c0.1,0.6,0.2,1.4,0.1,1.5c0,0,0,0,0,0.1
				c-0.1,0.2-0.1,0.5,0,1.1c0.1,0.7,0.4,1.1,0.5,1.3c0.1,0.5,0.2,1,0.4,1.3c0.1,0.2,0.2,0.5,0.2,0.9c0,0.4,0,0.4-0.1,0.4
				c-1.1,0.3-3,1-3.6,1.3c-0.5,0.2-0.7,0.6-0.7,1v0.5h1v-0.5c0,0,0,0,0,0c0,0,0,0,0,0c0.6-0.3,2.4-0.9,3.5-1.3
				c0.8-0.3,0.8-1,0.8-1.4c0-0.6-0.1-1-0.3-1.4c-0.1-0.2-0.2-0.6-0.3-0.9l0-0.3l-0.2-0.2c0,0-0.2-0.2-0.3-0.8
				c-0.1-0.4-0.1-0.5,0-0.5c0-0.1,0.1-0.1,0.1-0.2c0.1-0.4,0-1.5-0.1-2c0-0.2,0-0.7,0.4-1.2c0.3-0.4,0.8-0.7,1.5-0.7l0.6,0
				c0.7,0,1.2,0.3,1.5,0.7c0.4,0.5,0.4,1.1,0.4,1.2c-0.1,0.5-0.2,1.5-0.1,2l0,0l0,0c0,0,0,0.1,0.1,0.1c0,0,0,0.1,0,0.5
				c-0.1,0.6-0.3,0.8-0.3,0.8l-0.2,0.2l0,0.3c0,0.3-0.2,0.7-0.3,0.9c-0.2,0.4-0.4,0.8-0.4,1.4c0,0.4,0,1.2,0.9,1.4
				c1,0.3,2.8,0.9,3.5,1.2c0.1,0,0.2,0.1,0.2,0.1v0.4h1v-0.5C-198.7,298.1-199,297.6-199.5,297.4L-199.5,297.4z"/>
		</g>
	</g>
</g>
</svg>
