<?xml version="1.0" encoding="utf-8"?>
<!-- Generator: Adobe Illustrator 18.0.0, SVG Export Plug-In . SVG Version: 6.00 Build 0)  -->
<svg version="1.2" baseProfile="tiny" id="Layer_1" xmlns:sketch="http://www.bohemiancoding.com/sketch/ns"
	 xmlns="http://www.w3.org/2000/svg" xmlns:xlink="http://www.w3.org/1999/xlink" x="0px" y="0px" viewBox="0 0 360 60"
	 xml:space="preserve">
<title>Button + Register Now</title>
<desc>Created with Sketch.</desc>
<g id="Page-1" sketch:type="MSPage">
	<g id="Button-_x2B_-Register-Now" sketch:type="MSLayerGroup">
		<rect id="Button" sketch:type="MSShapeGroup" fill="none" stroke="#B8C8D2" width="360" height="60">
		</rect>
		<g>
			<path fill="#B8C8D2" d="M109,15.8c0.7-0.2,1.5-0.3,2.3-0.4c0.8-0.1,1.6-0.1,2.3-0.1c0.8,0,1.6,0.1,2.4,0.3c0.7,0.2,1.4,0.5,2,1
				c0.6,0.5,1,1.1,1.3,1.9c0.3,0.8,0.5,1.8,0.5,2.9c0,1.8-0.4,3.2-1.1,4.3s-1.7,1.8-2.9,2.1l1.2,1.2l4.4,8.9h-2.8l-4.8-9.8l-2.4-0.5
				V38H109V15.8z M111.4,26.2h1.9c1.2,0,2.2-0.4,2.9-1.1c0.7-0.7,1.1-1.9,1.1-3.4c0-1.2-0.3-2.1-0.9-2.9c-0.6-0.8-1.5-1.2-2.6-1.2
				c-0.4,0-0.9,0-1.3,0c-0.5,0-0.8,0.1-1,0.1V26.2z"/>
			<path fill="#B8C8D2" d="M132.6,36.9c-0.5,0.5-1.2,0.8-2,1.1c-0.8,0.3-1.6,0.4-2.5,0.4c-1,0-1.9-0.2-2.6-0.6
				c-0.7-0.4-1.3-1-1.8-1.7c-0.5-0.7-0.8-1.6-1.1-2.6s-0.3-2.2-0.3-3.5c0-2.7,0.5-4.8,1.5-6.2c1-1.4,2.4-2.1,4.3-2.1
				c0.6,0,1.2,0.1,1.8,0.2c0.6,0.1,1.1,0.4,1.6,0.9c0.5,0.4,0.8,1.1,1.1,1.9s0.4,1.9,0.4,3.2c0,0.4,0,0.8,0,1.2
				c0,0.4-0.1,0.8-0.1,1.3h-8.1c0,0.9,0.1,1.8,0.2,2.5c0.1,0.7,0.4,1.4,0.7,1.9c0.3,0.5,0.7,0.9,1.2,1.2c0.5,0.3,1.1,0.4,1.9,0.4
				c0.6,0,1.1-0.1,1.7-0.3c0.6-0.2,1-0.5,1.3-0.8L132.6,36.9z M130.8,28.3c0-1.6-0.2-2.8-0.7-3.5c-0.5-0.7-1.2-1.1-2-1.1
				c-1,0-1.8,0.4-2.3,1.1c-0.6,0.7-0.9,1.9-1,3.5H130.8z"/>
			<path fill="#B8C8D2" d="M146,38.7c0,2.1-0.5,3.6-1.4,4.6c-0.9,1-2.3,1.5-4,1.5c-1.1,0-1.9-0.1-2.6-0.3s-1.2-0.4-1.7-0.6l0.7-2
				c0.4,0.2,0.9,0.4,1.4,0.5c0.5,0.2,1.1,0.3,1.9,0.3c1.3,0,2.2-0.4,2.7-1.1c0.5-0.7,0.7-1.9,0.7-3.6v-1.2h-0.1
				c-0.3,0.5-0.8,0.9-1.3,1.2c-0.5,0.3-1.2,0.4-2,0.4c-1.7,0-3-0.7-3.8-2c-0.8-1.3-1.2-3.4-1.2-6.3c0-2.8,0.5-4.8,1.6-6.2
				s2.6-2.1,4.7-2.1c1,0,1.9,0.1,2.6,0.3c0.7,0.2,1.4,0.4,1.9,0.7V38.7z M143.7,24.3c-0.6-0.3-1.5-0.5-2.5-0.5c-1.1,0-2,0.5-2.6,1.5
				c-0.7,1-1,2.6-1,4.8c0,0.9,0.1,1.7,0.2,2.5c0.1,0.8,0.3,1.4,0.5,2s0.6,1,1,1.3c0.4,0.3,0.9,0.5,1.5,0.5c0.8,0,1.5-0.2,1.9-0.6
				c0.5-0.4,0.8-1.1,1-1.9V24.3z"/>
			<path fill="#B8C8D2" d="M149.8,17.1c0-0.5,0.1-0.9,0.4-1.2c0.3-0.3,0.7-0.5,1.1-0.5s0.9,0.2,1.2,0.5c0.3,0.3,0.5,0.7,0.5,1.3
				c0,0.5-0.2,0.9-0.5,1.2s-0.7,0.4-1.2,0.4s-0.8-0.1-1.1-0.4S149.8,17.6,149.8,17.1z M150.2,22h2.3v16h-2.3V22z"/>
			<path fill="#B8C8D2" d="M156.5,35.4c0.4,0.3,0.9,0.5,1.5,0.7c0.6,0.2,1.2,0.3,1.8,0.3c0.7,0,1.3-0.2,1.8-0.5
				c0.5-0.4,0.7-0.9,0.7-1.7c0-0.7-0.1-1.2-0.4-1.6c-0.3-0.4-0.7-0.8-1.1-1.2c-0.5-0.3-1-0.7-1.5-0.9c-0.5-0.3-1-0.6-1.5-1
				c-0.5-0.4-0.8-0.9-1.1-1.4c-0.3-0.6-0.4-1.3-0.4-2.1c0-1.4,0.4-2.4,1.1-3.1c0.7-0.7,1.8-1,3.1-1c0.9,0,1.6,0.1,2.3,0.2
				c0.6,0.2,1.2,0.4,1.7,0.7l-0.6,1.9c-0.4-0.2-0.9-0.4-1.4-0.5s-1.1-0.2-1.6-0.2c-0.8,0-1.3,0.2-1.7,0.5c-0.4,0.3-0.5,0.8-0.5,1.5
				c0,0.5,0.1,1,0.4,1.4c0.3,0.4,0.7,0.7,1.1,1c0.5,0.3,1,0.6,1.5,0.9c0.5,0.3,1,0.7,1.5,1.1c0.5,0.4,0.8,1,1.1,1.6
				c0.3,0.6,0.4,1.4,0.4,2.3c0,0.6-0.1,1.2-0.3,1.7s-0.5,1-0.9,1.4c-0.4,0.4-0.9,0.7-1.5,0.9c-0.6,0.2-1.3,0.4-2.1,0.4
				c-0.9,0-1.7-0.1-2.4-0.3c-0.7-0.2-1.3-0.4-1.7-0.7L156.5,35.4z"/>
			<path fill="#B8C8D2" d="M165.9,22h2v-3.2l2.3-0.7V22h3.5v2.1h-3.5v9.5c0,0.9,0.1,1.6,0.3,2s0.6,0.6,1.1,0.6c0.4,0,0.8,0,1.1-0.1
				c0.3-0.1,0.6-0.2,1-0.4l0.4,1.8c-0.5,0.2-1,0.4-1.6,0.6c-0.6,0.1-1.2,0.2-1.8,0.2c-1.1,0-1.8-0.3-2.3-1c-0.5-0.7-0.7-1.8-0.7-3.4
				v-9.9h-2V22z"/>
			<path fill="#B8C8D2" d="M185.7,36.9c-0.5,0.5-1.2,0.8-2,1.1s-1.6,0.4-2.5,0.4c-1,0-1.9-0.2-2.6-0.6c-0.7-0.4-1.3-1-1.8-1.7
				c-0.5-0.7-0.8-1.6-1.1-2.6s-0.3-2.2-0.3-3.5c0-2.7,0.5-4.8,1.5-6.2c1-1.4,2.4-2.1,4.3-2.1c0.6,0,1.2,0.1,1.8,0.2
				c0.6,0.1,1.1,0.4,1.6,0.9c0.5,0.4,0.8,1.1,1.1,1.9s0.4,1.9,0.4,3.2c0,0.4,0,0.8,0,1.2c0,0.4-0.1,0.8-0.1,1.3h-8.1
				c0,0.9,0.1,1.8,0.2,2.5c0.1,0.7,0.4,1.4,0.7,1.9c0.3,0.5,0.7,0.9,1.2,1.2c0.5,0.3,1.1,0.4,1.9,0.4c0.6,0,1.1-0.1,1.7-0.3
				c0.6-0.2,1-0.5,1.3-0.8L185.7,36.9z M183.9,28.3c0-1.6-0.2-2.8-0.7-3.5s-1.2-1.1-2-1.1c-1,0-1.8,0.4-2.3,1.1
				c-0.6,0.7-0.9,1.9-1,3.5H183.9z"/>
			<path fill="#B8C8D2" d="M189.3,22h1.6l0.4,1.7h0.1c0.3-0.6,0.7-1.1,1.2-1.5c0.5-0.4,1.1-0.5,1.7-0.5c0.5,0,1,0.1,1.7,0.3
				l-0.4,2.3c-0.6-0.2-1-0.3-1.5-0.3c-0.7,0-1.2,0.2-1.7,0.6c-0.4,0.4-0.7,0.9-0.8,1.6V38h-2.3V22z"/>
			<path fill="#B8C8D2" d="M208.4,23.8l-1.4-3.5H207l0.4,3.5V38H205V15.2h1.4l8.3,14.5l1.3,3.4h0.1l-0.4-3.4V15.6h2.3v22.8h-1.5
				L208.4,23.8z"/>
			<path fill="#B8C8D2" d="M221.4,30c0-2.9,0.5-5,1.5-6.4c1-1.4,2.4-2,4.2-2c2,0,3.4,0.7,4.3,2.1c0.9,1.4,1.4,3.5,1.4,6.3
				c0,2.9-0.5,5-1.5,6.4s-2.4,2-4.2,2c-2,0-3.4-0.7-4.3-2.1C221.8,34.9,221.4,32.8,221.4,30z M223.8,30c0,0.9,0.1,1.8,0.2,2.6
				c0.1,0.8,0.3,1.4,0.6,2s0.6,1,1,1.3c0.4,0.3,0.9,0.5,1.5,0.5c1.1,0,1.9-0.5,2.5-1.5c0.6-1,0.8-2.6,0.8-4.8c0-0.9-0.1-1.8-0.2-2.5
				c-0.1-0.8-0.3-1.4-0.6-2c-0.3-0.6-0.6-1-1-1.3c-0.4-0.3-0.9-0.5-1.5-0.5c-1.1,0-1.9,0.5-2.5,1.5C224,26.2,223.8,27.8,223.8,30z"
				/>
			<path fill="#B8C8D2" d="M244.2,22l2.8,9.3l0.6,3.1h0.1l0.5-3.1l2.2-9.3h2.2l-4.3,16.4h-1.3l-3.2-10.5l-0.4-2.7h-0.1l-0.4,2.7
				l-3.1,10.5h-1.3L233.9,22h2.4l2.5,9.3l0.4,3.1h0.1l0.6-3.2l2.6-9.2H244.2z"/>
		</g>
	</g>
</g>
</svg>
