<?xml version="1.0" encoding="UTF-8" standalone="no"?>
<!-- Created with Inkscape (http://www.inkscape.org/) -->
<svg
   xmlns:dc="http://purl.org/dc/elements/1.1/"
   xmlns:cc="http://web.resource.org/cc/"
   xmlns:rdf="http://www.w3.org/1999/02/22-rdf-syntax-ns#"
   xmlns:svg="http://www.w3.org/2000/svg"
   xmlns="http://www.w3.org/2000/svg"
   xmlns:xlink="http://www.w3.org/1999/xlink"
   xmlns:sodipodi="http://sodipodi.sourceforge.net/DTD/sodipodi-0.dtd"
   xmlns:inkscape="http://www.inkscape.org/namespaces/inkscape"
   width="744.09448819"
   height="1052.3622047"
   id="svg2"
   sodipodi:version="0.32"
   inkscape:version="0.44.1"
   sodipodi:docbase="/home/frolov/www/artwork"
   sodipodi:docname="alpha.svg"
   inkscape:export-filename="/home/frolov/www/artwork/alpha.png"
   inkscape:export-xdpi="90"
   inkscape:export-ydpi="90">
  <defs
     id="defs4">
    <linearGradient
       id="linearGradient2979">
      <stop
         style="stop-color:black;stop-opacity:1;"
         offset="0"
         id="stop2981" />
      <stop
         style="stop-color:#008021;stop-opacity:1;"
         offset="1"
         id="stop2983" />
    </linearGradient>
    <linearGradient
       id="linearGradient4676"
       inkscape:collect="always">
      <stop
         id="stop4678"
         offset="0"
         style="stop-color:black;stop-opacity:1;" />
      <stop
         id="stop4680"
         offset="1"
         style="stop-color:black;stop-opacity:0;" />
    </linearGradient>
    <linearGradient
       id="linearGradient2892"
       inkscape:collect="always">
      <stop
         id="stop2894"
         offset="0"
         style="stop-color:black;stop-opacity:1;" />
      <stop
         id="stop2896"
         offset="1"
         style="stop-color:black;stop-opacity:0;" />
    </linearGradient>
    <radialGradient
       inkscape:collect="always"
       xlink:href="#linearGradient2892"
       id="radialGradient1970"
       gradientUnits="userSpaceOnUse"
       gradientTransform="matrix(-1.172068,2.558332e-2,-5.337209e-2,-2.445174,860.9763,1677.847)"
       cx="384.1814"
       cy="496.66989"
       fx="384.1814"
       fy="496.66989"
       r="70.5191" />
    <radialGradient
       inkscape:collect="always"
       xlink:href="#linearGradient2892"
       id="radialGradient1972"
       gradientUnits="userSpaceOnUse"
       gradientTransform="matrix(-1.172068,2.558332e-2,-5.337209e-2,-2.445174,860.9763,1677.847)"
       cx="384.1814"
       cy="496.66989"
       fx="384.1814"
       fy="496.66989"
       r="70.5191" />
    <radialGradient
       inkscape:collect="always"
       xlink:href="#linearGradient2892"
       id="radialGradient1974"
       gradientUnits="userSpaceOnUse"
       gradientTransform="matrix(-1.172068,2.558332e-2,-5.337209e-2,-2.445174,860.9763,1677.847)"
       cx="384.1814"
       cy="496.66989"
       fx="384.1814"
       fy="496.66989"
       r="70.5191" />
    <radialGradient
       inkscape:collect="always"
       xlink:href="#linearGradient2892"
       id="radialGradient1976"
       gradientUnits="userSpaceOnUse"
       gradientTransform="matrix(-1.172068,2.558332e-2,-5.337209e-2,-2.445174,860.9763,1677.847)"
       cx="384.1814"
       cy="496.66989"
       fx="384.1814"
       fy="496.66989"
       r="70.5191" />
    <radialGradient
       inkscape:collect="always"
       xlink:href="#linearGradient2892"
       id="radialGradient1978"
       gradientUnits="userSpaceOnUse"
       gradientTransform="matrix(-1.172068,2.558332e-2,-5.337209e-2,-2.445174,860.9763,1677.847)"
       cx="384.1814"
       cy="496.66989"
       fx="384.1814"
       fy="496.66989"
       r="70.5191" />
    <linearGradient
       inkscape:collect="always"
       xlink:href="#linearGradient2979"
       id="linearGradient1995"
       gradientUnits="userSpaceOnUse"
       gradientTransform="translate(26.62013,64.03157)"
       x1="321.00357"
       y1="480.9538"
       x2="365.12775"
       y2="645.75" />
    <radialGradient
       inkscape:collect="always"
       xlink:href="#linearGradient4676"
       id="radialGradient1998"
       gradientUnits="userSpaceOnUse"
       gradientTransform="matrix(0.640688,-0.38652,0.222,0.367983,-27.14477,482.9933)"
       cx="372.04724"
       cy="391.78894"
       fx="372.04724"
       fy="391.78894"
       r="350.3022" />
  </defs>
  <sodipodi:namedview
     id="base"
     pagecolor="#ffffff"
     bordercolor="#666666"
     borderopacity="1.0"
     gridtolerance="10000"
     guidetolerance="10"
     objecttolerance="10"
     inkscape:pageopacity="0.0"
     inkscape:pageshadow="2"
     inkscape:zoom="1.8149645"
     inkscape:cx="544.91983"
     inkscape:cy="526.18109"
     inkscape:document-units="px"
     inkscape:current-layer="layer1"
     inkscape:window-width="1910"
     inkscape:window-height="1170"
     inkscape:window-x="0"
     inkscape:window-y="0" />
  <metadata
     id="metadata7">
    <rdf:RDF>
      <cc:Work
         rdf:about="">
        <dc:format>image/svg+xml</dc:format>
        <dc:type
           rdf:resource="http://purl.org/dc/dcmitype/StillImage" />
      </cc:Work>
    </rdf:RDF>
  </metadata>
  <g
     inkscape:label="Layer 1"
     inkscape:groupmode="layer"
     id="layer1">
    <path
       style="fill:url(#radialGradient1998);fill-opacity:1;fill-rule:evenodd;stroke:none;stroke-width:0.9550274px;stroke-linecap:butt;stroke-linejoin:miter;stroke-opacity:1"
       d="M 456.06171,390.79708 C 455.79684,390.43036 455.51902,390.06841 455.24348,389.70756 C 453.80979,387.82998 452.23029,386.03007 450.50379,384.31745 C 419.13612,353.2019 337.98866,363.30381 271.08851,419.45816 C 227.45817,456.0804 201.18598,508.81295 229.97599,527.11839 C 246.30167,537.49868 284.41102,531.10935 310.14475,503.84822 C 321.20739,492.12898 329.03463,472.58491 313.4077,473.09029 C 310.6645,473.17901 298.09492,477.83014 299.9377,481.81249 C 300.30886,482.52308 300.21292,482.23685 300.68356,481.95639 C 307.1862,477.52198 305.00557,486.40196 303.52685,488.97414 C 295.10313,503.62686 273.02662,509.19654 263.504,506.43124 C 241.3526,499.99867 254.88027,467.71436 278.54889,445.10224 C 320.28805,405.22618 376.82979,395.13202 401.3045,412.46482 C 438.83256,439.04193 405.28373,510.11745 344.58099,561.04397 C 295.50485,602.21634 240.06062,624.98781 193.8308,629.51391 C 240.23193,632.51503 302.85026,611.36769 360.89485,569.08907 C 411.69275,532.08882 450.8901,485.99686 464.11136,445.81939 C 471.40596,423.65221 466.55378,405.32273 456.06171,390.79708 z M 391.47879,336.92834 C 346.5476,337.75317 289.34138,358.77456 236.00351,397.62488 C 184.18647,435.36745 144.22946,482.65602 131.85416,523.33732 C 124.25153,548.3294 131.45039,568.4181 146.66437,583.00384 C 178.69033,613.70734 260.34639,602.89844 327.05025,546.3523 C 370.55258,509.47455 396.35263,456.71371 367.09233,438.7457 C 350.49998,428.55675 312.16137,435.26786 286.57708,462.6572 C 275.57869,474.43157 267.94468,493.96956 283.69048,493.32253 C 286.45455,493.20895 299.33125,488.5023 297.42166,484.55271 C 297.2835,484.21845 297.28344,484.20186 297.14503,484.27448 C 290.93907,489.0332 291.0443,480.9148 292.22194,478.39563 C 298.93047,464.04481 321.41257,456.60157 331.88403,458.14145 C 356.24257,461.7235 346.78792,492.80817 325.16598,516.07622 C 287.03609,557.10897 228.8105,572.33225 200.36951,558.97774 C 156.75976,538.50074 181.56796,469.66449 238.07733,416.483 C 285.15999,372.17307 342.30648,345.10477 391.47879,336.92834 z "
       id="path1878"
       sodipodi:nodetypes="cssssssccssssscssccsssssssccsssssc" />
    <path
       style="fill:url(#linearGradient1995);fill-opacity:1;stroke:none;stroke-opacity:1"
       d="M 473.12013,470.62532 L 389.52638,615.25032 L 345.49513,538.96907 L 283.33888,646.53157 L 253.02638,594.06282 L 186.15138,709.78157 L 319.87013,709.78157 L 444.12013,709.78157 L 444.12013,709.75032 L 611.18263,709.78157 L 473.12013,470.62532 z M 473.08888,484.62532 L 515.08888,557.40657 L 495.18263,549.68782 L 474.15138,560.68782 L 459.77638,541.96907 L 431.02638,557.37532 L 473.08888,484.62532 z "
       id="path1872" />
    <g
       id="g2952"
       inkscape:label="Layer 1"
       transform="matrix(0.524845,0,0,0.524845,380.285,250.6206)">
      <path
         sodipodi:nodetypes="ccccccccc"
         id="path3994"
         d="M 382.89273,399.65565 L 397.60444,462.52329 L 442.56634,472.73237 L 397.94166,487.46772 L 387.20175,652.70653 L 372.84526,487.83889 L 301.52814,477.27458 L 372.50805,462.57857 L 382.89273,399.65565 z "
         style="opacity:1;fill:url(#radialGradient1970);fill-opacity:1;stroke:none;stroke-width:1;stroke-miterlimit:4;stroke-opacity:1" />
    </g>
    <g
       transform="matrix(0.333039,0,0,0.333039,467.9037,198.2135)"
       inkscape:label="Layer 1"
       id="g2955">
      <path
         style="opacity:1;fill:url(#radialGradient1972);fill-opacity:1;stroke:none;stroke-width:1;stroke-miterlimit:4;stroke-opacity:1"
         d="M 382.89273,399.65565 L 397.60444,462.52329 L 442.56634,472.73237 L 397.94166,487.46772 L 387.20175,652.70653 L 372.84526,487.83889 L 301.52814,477.27458 L 372.50805,462.57857 L 382.89273,399.65565 z "
         id="path2957"
         sodipodi:nodetypes="ccccccccc" />
    </g>
    <g
       id="g2961"
       inkscape:label="Layer 1"
       transform="matrix(0.192255,0,0,0.192255,428.7242,287.8978)">
      <path
         sodipodi:nodetypes="ccccccccc"
         id="path2963"
         d="M 382.89273,399.65565 L 397.60444,462.52329 L 442.56634,472.73237 L 397.94166,487.46772 L 387.20175,652.70653 L 372.84526,487.83889 L 301.52814,477.27458 L 372.50805,462.57857 L 382.89273,399.65565 z "
         style="opacity:1;fill:url(#radialGradient1974);fill-opacity:1;stroke:none;stroke-width:1;stroke-miterlimit:4;stroke-opacity:1" />
    </g>
    <g
       transform="matrix(0.153022,0,0,0.153022,491.2969,353.2172)"
       inkscape:label="Layer 1"
       id="g2967">
      <path
         style="opacity:1;fill:url(#radialGradient1976);fill-opacity:1;stroke:none;stroke-width:1;stroke-miterlimit:4;stroke-opacity:1"
         d="M 382.89273,399.65565 L 397.60444,462.52329 L 442.56634,472.73237 L 397.94166,487.46772 L 387.20175,652.70653 L 372.84526,487.83889 L 301.52814,477.27458 L 372.50805,462.57857 L 382.89273,399.65565 z "
         id="path2969"
         sodipodi:nodetypes="ccccccccc" />
    </g>
    <g
       id="g2973"
       inkscape:label="Layer 1"
       transform="matrix(9.199289e-2,0,0,9.199289e-2,475.5026,410.701)">
      <path
         sodipodi:nodetypes="ccccccccc"
         id="path2975"
         d="M 382.89273,399.65565 L 397.60444,462.52329 L 442.56634,472.73237 L 397.94166,487.46772 L 387.20175,652.70653 L 372.84526,487.83889 L 301.52814,477.27458 L 372.50805,462.57857 L 382.89273,399.65565 z "
         style="opacity:1;fill:url(#radialGradient1978);fill-opacity:1;stroke:none;stroke-width:1;stroke-miterlimit:4;stroke-opacity:1" />
    </g>
    <path
       style="font-size:40px;font-style:normal;font-variant:normal;font-weight:normal;font-stretch:normal;text-align:start;line-height:125%;writing-mode:lr-tb;text-anchor:start;fill:white;fill-opacity:1;stroke:none;stroke-width:1px;stroke-linecap:butt;stroke-linejoin:miter;stroke-opacity:1;font-family:Lithos Pro Light"
       d="M 247.09726,694.98994 C 245.89726,695.18994 244.13726,695.34994 242.65726,695.34994 C 233.53727,695.34994 229.93726,690.98993 229.93726,686.70994 C 229.93726,680.74994 236.73727,675.62994 245.57726,674.54994 L 245.21726,672.38994 C 233.05727,674.54994 227.37726,681.26994 227.37726,687.22994 C 227.37726,690.74994 230.73727,697.30994 242.29726,697.30994 C 244.49726,697.30994 246.37726,697.14994 247.33726,696.98994 L 247.09726,694.98994 M 265.33636,697.30994 C 275.81635,697.30994 279.37636,689.26993 279.37636,683.98994 C 279.37636,676.66995 274.33635,672.38994 267.53636,672.38994 C 258.85636,672.38994 253.37636,678.54995 253.37636,686.06994 C 253.37636,692.02993 257.73636,697.30994 265.29636,697.30994 L 265.33636,697.30994 M 265.73636,695.46994 C 259.33636,695.46994 255.89636,690.86993 255.89636,685.58994 C 255.89636,679.54995 260.17636,674.22994 267.05636,674.22994 C 272.73635,674.22994 276.85636,677.94995 276.85636,684.10994 C 276.85636,691.06993 271.93635,695.46994 265.77636,695.46994 L 265.73636,695.46994 M 291.26031,697.42994 C 297.94031,695.94994 301.66031,692.38994 301.66031,688.98994 C 301.66031,686.62994 299.86031,685.34994 296.82031,683.82994 C 294.42032,682.62994 292.06031,681.82994 292.06031,679.82994 C 292.06031,676.82994 297.18032,674.70994 300.14031,674.30994 L 299.58031,672.30994 C 294.66032,673.30994 289.58031,676.54994 289.58031,680.26994 C 289.58031,682.62994 291.94032,683.98994 294.74031,685.30994 C 297.98031,686.82994 299.18031,687.54994 299.18031,689.54994 C 299.18031,692.86994 294.14031,694.78994 290.62031,695.42994 L 291.26031,697.42994 M 312.60615,697.58994 C 313.00615,696.26994 317.48615,681.66993 318.60615,677.66994 L 318.68615,677.66994 C 320.36615,681.22994 325.08615,690.90994 326.84615,694.22994 L 327.00615,694.22994 C 328.52615,691.70994 334.20615,681.62994 336.08615,677.94994 C 337.08615,681.10994 341.96615,695.02994 342.88615,697.58994 L 345.12615,696.74994 C 343.52615,692.74994 337.60615,676.18994 336.60615,673.42994 L 336.44615,673.42994 C 335.76615,674.50994 328.88615,686.98994 327.16615,690.22994 C 325.68615,687.18994 319.44615,674.58994 318.40615,672.34994 L 318.24615,672.34994 C 318.04615,673.22994 311.08615,695.14994 310.36615,696.90994 L 312.60615,697.58994 M 365.32886,697.30994 C 375.80885,697.30994 379.36886,689.26993 379.36886,683.98994 C 379.36886,676.66995 374.32885,672.38994 367.52886,672.38994 C 358.84886,672.38994 353.36886,678.54995 353.36886,686.06994 C 353.36886,692.02993 357.72886,697.30994 365.28886,697.30994 L 365.32886,697.30994 M 365.72886,695.46994 C 359.32886,695.46994 355.88886,690.86993 355.88886,685.58994 C 355.88886,679.54995 360.16886,674.22994 367.04886,674.22994 C 372.72885,674.22994 376.84886,677.94995 376.84886,684.10994 C 376.84886,691.06993 371.92885,695.46994 365.76886,695.46994 L 365.72886,695.46994 M 390.45464,672.94994 C 390.53464,673.58994 390.57464,681.78994 390.57464,682.34994 L 390.57464,686.86994 C 390.57464,687.66994 390.57464,694.94994 390.37464,696.74994 C 391.21464,696.74994 401.41464,697.10994 402.45464,697.10994 L 402.45464,694.94994 C 398.61465,695.02994 393.77464,694.94994 392.93464,694.94994 L 392.93464,684.66994 C 392.93464,680.38994 393.05464,673.70994 393.13464,672.94994 L 390.45464,672.94994 M 422.27128,697.30994 C 432.75127,697.30994 436.31128,689.26993 436.31128,683.98994 C 436.31128,676.66995 431.27128,672.38994 424.47128,672.38994 C 415.79129,672.38994 410.31128,678.54995 410.31128,686.06994 C 410.31128,692.02993 414.67129,697.30994 422.23128,697.30994 L 422.27128,697.30994 M 422.67128,695.46994 C 416.27129,695.46994 412.83128,690.86993 412.83128,685.58994 C 412.83128,679.54995 417.11129,674.22994 423.99128,674.22994 C 429.67128,674.22994 433.79128,677.94995 433.79128,684.10994 C 433.79128,691.06993 428.87128,695.46994 422.71128,695.46994 L 422.67128,695.46994 M 466.11524,689.74994 L 466.11524,686.34994 L 463.71524,686.34994 C 463.71524,687.02994 463.79524,689.34994 463.79524,691.14994 L 463.79524,694.98994 C 462.63524,695.30994 460.83523,695.46994 458.91524,695.46994 C 451.39524,695.46994 447.91524,691.50993 447.91524,687.38994 C 447.91524,681.58994 454.51524,676.14994 463.55524,674.42994 L 462.99524,672.30994 C 449.47525,675.58994 445.35524,683.30994 445.35524,687.34994 C 445.35524,692.98993 450.27524,697.30994 458.47524,697.30994 C 462.11523,697.30994 464.87524,696.74994 466.19524,696.30994 C 466.19524,695.78994 466.11524,693.14994 466.11524,691.82994 L 466.11524,689.74994 M 486.27733,696.74994 C 486.19733,696.06994 486.11733,693.02994 486.11733,692.54994 L 486.11733,689.42994 C 486.11733,685.70994 487.35733,682.22994 490.19733,678.98994 C 492.23732,676.66994 494.75733,675.14994 497.07733,674.42994 L 496.35733,672.42994 C 494.31733,673.06994 491.23733,675.06994 489.59733,676.82994 C 487.55733,678.94994 486.11733,681.18994 485.15733,684.46994 L 485.07733,684.46994 C 484.27733,680.82994 482.31732,678.34994 480.51733,676.38994 C 479.59733,675.34994 477.23732,673.46994 475.11733,672.46994 L 474.11733,674.38994 C 475.87732,675.18994 477.79733,676.54994 479.31733,678.14994 C 482.15732,681.14994 483.79733,684.90994 483.79733,689.42994 L 483.79733,691.90994 C 483.79733,692.34994 483.71733,695.94994 483.67733,696.74994 L 486.27733,696.74994"
       id="text1903" />
    <path
       id="path1948"
       style="font-size:71.99995422px;font-style:normal;font-variant:normal;font-weight:bold;font-stretch:normal;text-align:start;line-height:125%;writing-mode:lr-tb;text-anchor:start;fill:white;fill-opacity:1;stroke:none;stroke-width:1px;stroke-linecap:butt;stroke-linejoin:miter;stroke-opacity:1;font-family:Adobe Garamond Pro"
       d="M 504.56567,621.85326 C 511.42458,617.89326 512.19711,610.87932 512.02279,605.82539 L 511.82917,600.45004 C 511.65037,596.39635 512.79324,592.32785 515.6615,590.67184 C 518.7792,588.87185 522.75641,589.56859 525.13241,593.68392 C 527.7244,598.17339 524.72058,603.48261 522.15253,606.37864 C 521.853,607.29982 522.81535,608.82266 523.74359,608.70243 C 527.92129,606.29042 530.9284,603.72288 532.01219,602.43207 C 531.70489,601.61182 531.50561,600.97864 531.28702,600.02404 C 530.59527,597.09789 529.36868,594.39737 528.18068,592.3397 C 522.96069,583.29841 514.92908,580.61927 507.91911,584.74961 C 501.74609,588.31361 500.84886,595.39957 501.19612,601.18505 C 501.4855,606.00626 501.22851,612.47315 496.17786,615.38915 C 493.06018,617.18915 488.65613,616.90511 485.99213,612.29093 C 482.93214,606.99087 486.25669,599.50115 489.58968,595.91408 C 489.98757,595.01925 489.09722,593.62111 488.03462,593.65264 C 483.79457,596.10064 479.77309,599.50325 479.0853,601.47995 C 479.09306,603.22139 479.52387,607.71157 482.83585,613.4481 C 488.27185,622.86352 496.89616,626.28125 504.56567,621.85326 M 538.92517,625.7817 C 541.35697,624.3777 541.48166,624.3057 542.66967,626.36336 L 545.47767,631.22696 C 547.31366,634.40699 547.64542,636.70962 546.94799,638.52563 C 546.49739,639.61717 545.2889,640.98001 543.12839,643.14188 C 543.06156,644.17813 543.91592,645.51392 544.7458,645.36734 C 548.85151,642.83062 553.34099,640.23863 554.401,639.62662 C 553.77229,638.82568 551.65794,635.30751 549.35395,631.31687 L 541.79395,618.22257 C 540.06595,615.22958 538.3283,612.07589 536.90501,609.32269 C 536.2596,608.7808 534.70075,609.6808 534.65063,610.45799 L 535.18357,611.81304 C 536.36709,614.87098 536.0219,615.56909 530.223,618.9171 L 507.02739,632.30908 C 501.22849,635.65708 500.57601,635.53496 498.51954,632.98103 L 497.01977,631.10337 C 496.35765,630.82053 494.92352,631.64854 494.83739,632.36337 C 497.1221,636.03258 498.98445,639.11428 500.64045,641.98255 C 502.36844,644.97554 504.0701,648.06688 506.17738,652.0048 C 506.80351,652.22529 508.23764,651.39728 508.35977,650.74481 L 507.33954,648.25772 C 506.09366,645.2358 506.37649,644.57368 512.17539,641.22569 L 520.59316,636.36569 C 522.2767,635.39369 522.49976,635.34805 523.47176,637.03158 L 526.24376,641.83284 C 528.15175,645.13757 528.04893,646.11147 525.41595,648.46301 L 524.09946,649.63878 C 523.79028,650.39926 524.75263,651.92211 525.52982,651.97223 C 527.32842,650.76753 529.59952,649.37317 531.9066,648.04117 C 534.27605,646.67317 536.61914,645.40353 538.68647,644.37622 C 539.03165,643.6781 538.194,642.08326 537.38082,641.97079 L 535.70433,642.52302 C 532.28899,643.66347 531.45651,643.22958 529.54851,639.92484 L 526.77651,635.12358 C 525.80452,633.44005 525.95558,633.26969 527.63913,632.29769 L 538.92517,625.7817 M 534.95237,663.10857 C 528.15581,667.03256 524.26397,670.94773 523.29015,675.453 C 522.31964,680.10802 523.80413,684.40724 526.29954,688.72942 C 528.95913,693.33595 532.91489,696.58753 537.29023,697.39784 C 542.89969,698.32973 548.55764,695.74557 554.41888,692.36158 L 561.40251,688.32958 C 566.45316,685.41359 571.32339,682.90506 573.30577,682.59465 C 574.91071,682.35049 575.90868,683.21503 577.13651,684.47768 L 577.97694,685.35733 C 578.73844,685.52431 579.91985,684.69058 580.09697,684.13333 C 578.72455,682.04426 577.44733,679.97603 576.23246,677.8718 C 574.88625,675.54011 573.66806,673.28614 572.01971,670.14312 C 571.44858,670.01791 570.13583,670.62416 569.89968,671.36712 L 570.47444,673.08264 C 571.04919,674.79814 571.39743,676.26531 570.38351,677.53314 C 569.12349,679.09473 564.51593,682.0582 559.46528,684.97419 L 551.92047,689.33019 C 543.37801,694.26218 535.11384,696.07622 530.91104,688.79677 C 525.92022,680.15242 533.53702,674.76909 540.8324,670.5571 L 555.23612,662.2411 C 561.03502,658.89311 561.73087,658.94633 563.70725,661.21752 L 564.74468,662.43841 C 565.38148,662.67737 566.75326,661.88537 566.86471,661.21441 C 565.16396,658.55662 563.49272,655.80595 561.88384,653.01928 C 560.30779,650.28949 558.72842,647.40993 557.27708,644.60814 C 556.54178,644.19856 555.20283,645.04743 555.09138,645.7184 L 555.60047,647.32017 C 556.51683,650.20335 556.3397,650.76058 550.54081,654.10858 L 534.95237,663.10857" />
  </g>
</svg>
