<?xml version="1.0" encoding="utf-8"?>
<!-- Generator: Adobe Illustrator 18.0.0, SVG Export Plug-In . SVG Version: 6.00 Build 0)  -->
<svg version="1.2" baseProfile="tiny" id="Layer_1" xmlns:sketch="http://www.bohemiancoding.com/sketch/ns"
	 xmlns="http://www.w3.org/2000/svg" xmlns:xlink="http://www.w3.org/1999/xlink" x="0px" y="0px" viewBox="0 0 360 60"
	 xml:space="preserve">
<title>subscribe-fill</title>
<desc>Created with Sketch.</desc>
<g id="Page-1" sketch:type="MSPage">
	<g id="subscribe-fill" sketch:type="MSLayerGroup">
		<rect id="Button" sketch:type="MSShapeGroup" fill="#B8C8D2" width="360" height="60">
		</rect>
		<g>
			<path fill="#FFFFFF" d="M79.9,38c0.4,0.3,1,0.5,1.7,0.8c0.7,0.2,1.6,0.4,2.5,0.4c1.2,0,2.2-0.3,2.9-0.9c0.7-0.6,1.1-1.5,1.1-2.8
				c0-0.8-0.2-1.6-0.6-2.2c-0.4-0.6-1-1.2-1.6-1.7c-0.6-0.5-1.3-1-2.1-1.5c-0.7-0.5-1.4-1.1-2.1-1.7c-0.6-0.6-1.2-1.3-1.6-2.1
				c-0.4-0.8-0.6-1.7-0.6-2.8c0-1.8,0.5-3.1,1.6-4c1.1-0.9,2.5-1.3,4.2-1.3c1.1,0,2,0.1,2.8,0.3s1.5,0.4,2,0.7l-0.8,2.1
				c-0.4-0.2-0.9-0.4-1.6-0.6c-0.7-0.2-1.5-0.3-2.5-0.3c-1.2,0-2,0.3-2.6,0.8c-0.6,0.6-0.8,1.3-0.8,2.1c0,0.7,0.2,1.4,0.6,2
				c0.4,0.6,1,1.1,1.6,1.6c0.6,0.5,1.3,1,2.1,1.6c0.7,0.5,1.4,1.1,2.1,1.7c0.6,0.6,1.2,1.4,1.6,2.2s0.6,1.8,0.6,2.9
				c0,1.9-0.6,3.3-1.7,4.4c-1.1,1.1-2.7,1.6-4.7,1.6c-1.3,0-2.3-0.1-3.2-0.4s-1.5-0.5-2-0.8L79.9,38z"/>
			<path fill="#FFFFFF" d="M95.7,25v9.8c0,1.6,0.2,2.8,0.5,3.5c0.3,0.7,0.9,1,1.8,1c0.4,0,0.8-0.1,1.2-0.3s0.7-0.4,0.9-0.7
				c0.3-0.3,0.5-0.6,0.7-1s0.4-0.8,0.5-1.2V25h2.3v11.5c0,0.8,0,1.6,0.1,2.4s0.1,1.5,0.2,2.2h-1.6l-0.6-2.2h-0.1
				c-0.4,0.7-0.9,1.3-1.6,1.8c-0.7,0.5-1.5,0.8-2.6,0.8c-0.7,0-1.3-0.1-1.8-0.3s-0.9-0.5-1.3-0.9c-0.4-0.4-0.6-1.1-0.8-1.8
				c-0.2-0.8-0.3-1.8-0.3-3V25H95.7z"/>
			<path fill="#FFFFFF" d="M107.5,18.6h2.3v7.6h0.1c0.9-1.1,2-1.6,3.5-1.6c1.6,0,2.9,0.7,3.7,2c0.8,1.3,1.2,3.4,1.2,6.2
				c0,2.9-0.5,5-1.6,6.4c-1.1,1.4-2.7,2.1-4.7,2.1c-1,0-1.9-0.1-2.7-0.3c-0.8-0.2-1.4-0.5-1.8-0.8V18.6z M109.8,38.7
				c0.3,0.2,0.7,0.3,1.1,0.4c0.4,0.1,0.9,0.1,1.4,0.1c1.1,0,2-0.5,2.6-1.6c0.7-1.1,1-2.7,1-4.9c0-0.9-0.1-1.7-0.2-2.5
				c-0.1-0.7-0.3-1.4-0.5-1.9c-0.2-0.5-0.6-0.9-1-1.2c-0.4-0.3-0.9-0.4-1.4-0.4c-0.8,0-1.4,0.2-1.9,0.7c-0.5,0.5-0.9,1.1-1.1,1.9
				V38.7z"/>
			<path fill="#FFFFFF" d="M121.1,38.4c0.4,0.3,0.9,0.5,1.5,0.7c0.6,0.2,1.2,0.3,1.8,0.3c0.7,0,1.3-0.2,1.8-0.5
				c0.5-0.4,0.7-0.9,0.7-1.7c0-0.7-0.1-1.2-0.4-1.6c-0.3-0.4-0.7-0.8-1.1-1.2c-0.5-0.3-1-0.7-1.5-0.9c-0.5-0.3-1-0.6-1.5-1
				c-0.5-0.4-0.8-0.9-1.1-1.4c-0.3-0.6-0.4-1.3-0.4-2.1c0-1.4,0.4-2.4,1.1-3.1c0.7-0.7,1.8-1,3.1-1c0.9,0,1.6,0.1,2.3,0.2
				c0.6,0.2,1.2,0.4,1.7,0.7l-0.6,1.9c-0.4-0.2-0.9-0.4-1.4-0.5s-1.1-0.2-1.6-0.2c-0.8,0-1.3,0.2-1.7,0.5c-0.4,0.3-0.5,0.8-0.5,1.5
				c0,0.5,0.1,1,0.4,1.4c0.3,0.4,0.7,0.7,1.1,1c0.5,0.3,1,0.6,1.5,0.9c0.5,0.3,1,0.7,1.5,1.1c0.5,0.4,0.8,1,1.1,1.6
				c0.3,0.6,0.4,1.4,0.4,2.3c0,0.6-0.1,1.2-0.3,1.7s-0.5,1-0.9,1.4c-0.4,0.4-0.9,0.7-1.5,0.9c-0.6,0.2-1.3,0.4-2.1,0.4
				c-0.9,0-1.7-0.1-2.4-0.3c-0.7-0.2-1.3-0.4-1.7-0.7L121.1,38.4z"/>
			<path fill="#FFFFFF" d="M141,40.2c-0.5,0.4-1.1,0.7-1.8,0.9c-0.7,0.2-1.4,0.3-2.1,0.3c-1,0-1.9-0.2-2.6-0.6
				c-0.7-0.4-1.3-1-1.7-1.7c-0.4-0.7-0.8-1.6-1-2.7c-0.2-1-0.3-2.2-0.3-3.4c0-2.7,0.5-4.8,1.5-6.2c1-1.4,2.4-2.1,4.2-2.1
				c0.8,0,1.5,0.1,2.1,0.2c0.6,0.1,1.1,0.3,1.5,0.6l-0.6,2c-0.9-0.5-1.8-0.7-2.8-0.7c-1.2,0-2,0.5-2.6,1.5c-0.6,1-0.9,2.6-0.9,4.8
				c0,0.9,0.1,1.7,0.2,2.5c0.1,0.8,0.3,1.4,0.6,2c0.3,0.6,0.7,1,1.2,1.3c0.5,0.3,1.1,0.5,1.8,0.5c0.6,0,1.1-0.1,1.6-0.3
				c0.5-0.2,0.9-0.4,1.2-0.7L141,40.2z"/>
			<path fill="#FFFFFF" d="M143.6,25h1.6l0.4,1.7h0.1c0.3-0.6,0.7-1.1,1.2-1.5c0.5-0.4,1.1-0.5,1.7-0.5c0.5,0,1,0.1,1.7,0.3
				l-0.4,2.3c-0.6-0.2-1-0.3-1.5-0.3c-0.7,0-1.2,0.2-1.7,0.6c-0.4,0.4-0.7,0.9-0.8,1.6V41h-2.3V25z"/>
			<path fill="#FFFFFF" d="M152.3,20.1c0-0.5,0.1-0.9,0.4-1.2c0.3-0.3,0.7-0.5,1.1-0.5s0.9,0.2,1.2,0.5c0.3,0.3,0.5,0.7,0.5,1.3
				c0,0.5-0.2,0.9-0.5,1.2s-0.7,0.4-1.2,0.4s-0.8-0.1-1.1-0.4S152.3,20.6,152.3,20.1z M152.7,25h2.3v16h-2.3V25z"/>
			<path fill="#FFFFFF" d="M159.3,18.6h2.3v7.6h0.1c0.9-1.1,2-1.6,3.5-1.6c1.6,0,2.9,0.7,3.7,2c0.8,1.3,1.2,3.4,1.2,6.2
				c0,2.9-0.5,5-1.6,6.4c-1.1,1.4-2.7,2.1-4.7,2.1c-1,0-1.9-0.1-2.7-0.3c-0.8-0.2-1.4-0.5-1.8-0.8V18.6z M161.6,38.7
				c0.3,0.2,0.7,0.3,1.1,0.4c0.4,0.1,0.9,0.1,1.4,0.1c1.1,0,2-0.5,2.6-1.6c0.7-1.1,1-2.7,1-4.9c0-0.9-0.1-1.7-0.2-2.5
				c-0.1-0.7-0.3-1.4-0.5-1.9c-0.2-0.5-0.6-0.9-1-1.2c-0.4-0.3-0.9-0.4-1.4-0.4c-0.8,0-1.4,0.2-1.9,0.7c-0.5,0.5-0.9,1.1-1.1,1.9
				V38.7z"/>
			<path fill="#FFFFFF" d="M182.7,39.9c-0.5,0.5-1.2,0.8-2,1.1c-0.8,0.3-1.6,0.4-2.5,0.4c-1,0-1.9-0.2-2.6-0.6
				c-0.7-0.4-1.3-1-1.8-1.7c-0.5-0.7-0.8-1.6-1.1-2.6s-0.3-2.2-0.3-3.5c0-2.7,0.5-4.8,1.5-6.2c1-1.4,2.4-2.1,4.3-2.1
				c0.6,0,1.2,0.1,1.8,0.2c0.6,0.1,1.1,0.4,1.6,0.9c0.5,0.4,0.8,1.1,1.1,1.9s0.4,1.9,0.4,3.2c0,0.4,0,0.8,0,1.2
				c0,0.4-0.1,0.8-0.1,1.3h-8.1c0,0.9,0.1,1.8,0.2,2.5c0.1,0.7,0.4,1.4,0.7,1.9c0.3,0.5,0.7,0.9,1.2,1.2c0.5,0.3,1.1,0.4,1.9,0.4
				c0.6,0,1.1-0.1,1.7-0.3c0.6-0.2,1-0.5,1.3-0.8L182.7,39.9z M180.9,31.3c0-1.6-0.2-2.8-0.7-3.5c-0.5-0.7-1.2-1.1-2-1.1
				c-1,0-1.8,0.4-2.3,1.1c-0.6,0.7-0.9,1.9-1,3.5H180.9z"/>
			<path fill="#FFFFFF" d="M191.6,25h2v-3.2l2.3-0.7V25h3.5v2.1h-3.5v9.5c0,0.9,0.1,1.6,0.3,2s0.6,0.6,1.1,0.6c0.4,0,0.8,0,1.1-0.1
				c0.3-0.1,0.6-0.2,1-0.4l0.4,1.8c-0.5,0.2-1,0.4-1.6,0.6c-0.6,0.1-1.2,0.2-1.8,0.2c-1.1,0-1.8-0.3-2.3-1c-0.5-0.7-0.7-1.8-0.7-3.4
				v-9.9h-2V25z"/>
			<path fill="#FFFFFF" d="M201,33c0-2.9,0.5-5,1.5-6.4c1-1.4,2.4-2,4.2-2c2,0,3.4,0.7,4.3,2.1c0.9,1.4,1.4,3.5,1.4,6.3
				c0,2.9-0.5,5-1.5,6.4s-2.4,2-4.2,2c-2,0-3.4-0.7-4.3-2.1C201.5,37.9,201,35.8,201,33z M203.4,33c0,0.9,0.1,1.8,0.2,2.6
				c0.1,0.8,0.3,1.4,0.6,2s0.6,1,1,1.3c0.4,0.3,0.9,0.5,1.5,0.5c1.1,0,1.9-0.5,2.5-1.5c0.6-1,0.8-2.6,0.8-4.8c0-0.9-0.1-1.8-0.2-2.5
				c-0.1-0.8-0.3-1.4-0.6-2c-0.3-0.6-0.6-1-1-1.3c-0.4-0.3-0.9-0.5-1.5-0.5c-1.1,0-1.9,0.5-2.5,1.5C203.7,29.2,203.4,30.8,203.4,33z
				"/>
			<path fill="#FFFFFF" d="M225.9,26.8l-1.4-3.5h-0.1l0.4,3.5V41h-2.3V18.2h1.4l8.3,14.5l1.3,3.4h0.1l-0.4-3.4V18.6h2.3v22.8h-1.5
				L225.9,26.8z"/>
			<path fill="#FFFFFF" d="M249.1,39.9c-0.5,0.5-1.2,0.8-2,1.1s-1.6,0.4-2.5,0.4c-1,0-1.9-0.2-2.6-0.6s-1.3-1-1.8-1.7
				c-0.5-0.7-0.8-1.6-1.1-2.6c-0.2-1-0.3-2.2-0.3-3.5c0-2.7,0.5-4.8,1.5-6.2c1-1.4,2.4-2.1,4.3-2.1c0.6,0,1.2,0.1,1.8,0.2
				c0.6,0.1,1.1,0.4,1.6,0.9c0.5,0.4,0.8,1.1,1.1,1.9c0.3,0.8,0.4,1.9,0.4,3.2c0,0.4,0,0.8,0,1.2c0,0.4-0.1,0.8-0.1,1.3h-8.1
				c0,0.9,0.1,1.8,0.2,2.5c0.1,0.7,0.4,1.4,0.7,1.9s0.7,0.9,1.2,1.2c0.5,0.3,1.1,0.4,1.9,0.4c0.6,0,1.1-0.1,1.7-0.3
				c0.6-0.2,1-0.5,1.3-0.8L249.1,39.9z M247.3,31.3c0-1.6-0.2-2.8-0.7-3.5c-0.5-0.7-1.2-1.1-2-1.1c-1,0-1.8,0.4-2.3,1.1
				c-0.6,0.7-0.9,1.9-1,3.5H247.3z"/>
			<path fill="#FFFFFF" d="M261,25l2.8,9.3l0.6,3.1h0.1l0.5-3.1l2.2-9.3h2.2l-4.3,16.4h-1.3l-3.2-10.5l-0.4-2.7H260l-0.4,2.7
				l-3.1,10.5h-1.3L250.8,25h2.4l2.5,9.3l0.4,3.1h0.1l0.6-3.2l2.6-9.2H261z"/>
			<path fill="#FFFFFF" d="M271.1,38.4c0.4,0.3,0.9,0.5,1.5,0.7c0.6,0.2,1.2,0.3,1.8,0.3c0.7,0,1.3-0.2,1.8-0.5
				c0.5-0.4,0.7-0.9,0.7-1.7c0-0.7-0.2-1.2-0.4-1.6c-0.3-0.4-0.7-0.8-1.1-1.2c-0.5-0.3-1-0.7-1.5-0.9s-1-0.6-1.5-1s-0.8-0.9-1.1-1.4
				c-0.3-0.6-0.4-1.3-0.4-2.1c0-1.4,0.4-2.4,1.1-3.1c0.7-0.7,1.8-1,3.1-1c0.9,0,1.6,0.1,2.3,0.2c0.6,0.2,1.2,0.4,1.7,0.7l-0.6,1.9
				c-0.4-0.2-0.9-0.4-1.4-0.5s-1.1-0.2-1.6-0.2c-0.8,0-1.3,0.2-1.7,0.5c-0.4,0.3-0.5,0.8-0.5,1.5c0,0.5,0.1,1,0.4,1.4s0.7,0.7,1.1,1
				c0.5,0.3,1,0.6,1.5,0.9c0.5,0.3,1,0.7,1.5,1.1c0.5,0.4,0.8,1,1.1,1.6s0.4,1.4,0.4,2.3c0,0.6-0.1,1.2-0.3,1.7s-0.5,1-0.9,1.4
				c-0.4,0.4-0.9,0.7-1.5,0.9c-0.6,0.2-1.3,0.4-2.1,0.4c-0.9,0-1.8-0.1-2.4-0.3c-0.7-0.2-1.3-0.4-1.7-0.7L271.1,38.4z"/>
		</g>
		<g id="ribbon" transform="translate(308.000000, 18.000000)" sketch:type="MSShapeGroup">
			<path id="Shape" fill="#FFFFFF" d="M-0.1,0.2v25.6L10,18.3l10.1,7.5V0.2H-0.1L-0.1,0.2z M19.1,23.7L10,17l-9.1,6.7V1.3h18.1V23.7
				L19.1,23.7z"/>
			<path id="Shape_1_" fill="#FFFFFF" d="M4.7,6.6h10.7v1.1H4.7V6.6L4.7,6.6z"/>
			<path id="Shape_2_" fill="#FFFFFF" d="M4.7,10.9h10.7v1.1H4.7V10.9L4.7,10.9z"/>
		</g>
	</g>
</g>
</svg>
