<?xml version="1.0" encoding="utf-8"?>
<!-- Generator: Adobe Illustrator 18.1.1, SVG Export Plug-In . SVG Version: 6.00 Build 0)  -->
<svg version="1.1" id="Layer_1" xmlns="http://www.w3.org/2000/svg" xmlns:xlink="http://www.w3.org/1999/xlink" x="0px" y="0px"
	 viewBox="0 0 940 90" enable-background="new 0 0 940 90" xml:space="preserve">
<line fill="none" stroke="#808080" stroke-width="2" stroke-miterlimit="10" x1="547" y1="32.5" x2="547" y2="80.5"/>
<rect y="9.5" opacity="0.5" fill="#BDCCD4" width="890" height="24"/>
<line fill="none" x1="1" y1="32.5" x2="1" y2="80.5"/>
<line fill="#808080" stroke="#808080" stroke-width="2" stroke-miterlimit="10" x1="713" y1="32.5" x2="713" y2="80.5"/>
<line fill="none" stroke="#000000" stroke-width="2" stroke-miterlimit="10" x1="939" y1="32.5" x2="939" y2="80.5"/>
<g>
	<path d="M803.4,56.3h2.7V44.5l0.2-1.4l-0.8,1.2l-2,1.6l-0.9-1.1l4.4-4.1h0.9v15.5h2.6v1.6h-7.1V56.3z"/>
	<path d="M820.6,41v1.7H816v4.9l0.8-0.1c1.3,0,2.3,0.5,3,1.3c0.7,0.9,1.1,2.1,1.1,3.7c0,0.9-0.1,1.7-0.4,2.4s-0.6,1.3-1,1.7
		c-0.4,0.5-0.9,0.8-1.5,1.1c-0.6,0.2-1.2,0.4-1.8,0.4c-1.1,0-2-0.1-2.7-0.4l0.4-1.5c0.3,0.1,0.6,0.2,1,0.3s0.8,0.1,1.2,0.1
		c0.9,0,1.7-0.3,2.2-1c0.6-0.7,0.9-1.6,0.9-2.8c0-1.2-0.3-2.2-0.9-2.8c-0.6-0.6-1.4-0.9-2.4-0.9l-1.6,0.1V41H820.6z"/>
	<path d="M830.1,41h1.8v13c0,1.3-0.2,2.3-0.6,3c-0.4,0.7-1.2,1-2.2,1c-0.3,0-0.6,0-0.9-0.1c-0.4-0.1-0.7-0.2-0.9-0.3l0.4-1.6
		c0.2,0.1,0.3,0.2,0.5,0.2c0.2,0,0.4,0.1,0.6,0.1c0.3,0,0.5-0.1,0.7-0.2c0.2-0.1,0.3-0.3,0.4-0.5c0.1-0.2,0.2-0.5,0.2-0.8
		c0-0.3,0-0.7,0-1.1V41z"/>
	<path d="M835,46.6c0.5-0.3,1-0.5,1.7-0.7c0.7-0.2,1.4-0.2,2.1-0.2c0.7,0,1.2,0.1,1.6,0.3c0.4,0.2,0.7,0.5,1,0.8
		c0.2,0.3,0.4,0.7,0.5,1.2s0.1,0.9,0.1,1.4c0,1,0,1.9-0.1,2.8s-0.1,1.8-0.1,2.6c0,0.6,0,1.2,0.1,1.7c0,0.5,0.1,1,0.2,1.5h-1.4
		l-0.4-1.4h-0.1c-0.2,0.4-0.6,0.8-1,1.1c-0.5,0.3-1.1,0.5-1.9,0.5c-0.9,0-1.6-0.3-2.1-0.9s-0.8-1.4-0.8-2.5c0-0.7,0.1-1.3,0.3-1.7
		s0.6-0.8,1-1.1c0.4-0.3,0.9-0.5,1.5-0.6s1.2-0.2,1.9-0.2c0.2,0,0.3,0,0.5,0c0.2,0,0.3,0,0.5,0c0-0.5,0.1-0.9,0.1-1.3
		c0-0.9-0.1-1.6-0.4-1.9c-0.3-0.4-0.8-0.6-1.5-0.6c-0.4,0-0.9,0.1-1.5,0.2c-0.5,0.1-1,0.3-1.3,0.5L835,46.6z M840.1,52.4
		c-0.2,0-0.3,0-0.5,0s-0.3,0-0.5,0c-0.4,0-0.8,0-1.1,0.1c-0.4,0.1-0.7,0.2-1,0.3c-0.3,0.2-0.5,0.4-0.7,0.6s-0.2,0.6-0.2,1
		c0,0.6,0.2,1.1,0.5,1.5c0.3,0.4,0.7,0.5,1.2,0.5c0.7,0,1.2-0.2,1.5-0.5c0.4-0.3,0.6-0.7,0.8-1.1V52.4z"/>
	<path d="M850.8,57.8v-7.3c0-1.2-0.1-2.1-0.4-2.6c-0.3-0.5-0.8-0.8-1.5-0.8c-0.6,0-1.2,0.2-1.6,0.6c-0.4,0.4-0.7,0.9-0.9,1.4v8.7
		h-1.7v-12h1.2l0.3,1.3h0.1c0.3-0.4,0.7-0.8,1.2-1.1c0.5-0.3,1.1-0.5,1.9-0.5c0.5,0,1,0.1,1.4,0.2c0.4,0.1,0.7,0.4,1,0.7
		c0.3,0.3,0.5,0.8,0.6,1.4s0.2,1.3,0.2,2.2v7.8H850.8z"/>
	<path d="M856.8,45.8v7.3c0,1.2,0.1,2.1,0.4,2.6s0.7,0.8,1.4,0.8c0.3,0,0.6-0.1,0.9-0.2c0.3-0.1,0.5-0.3,0.7-0.5
		c0.2-0.2,0.4-0.5,0.6-0.8c0.2-0.3,0.3-0.6,0.4-0.9v-8.3h1.7v8.6c0,0.6,0,1.2,0.1,1.8c0,0.6,0.1,1.2,0.2,1.6h-1.2l-0.4-1.7h-0.1
		c-0.3,0.5-0.7,1-1.2,1.4c-0.5,0.4-1.2,0.6-1.9,0.6c-0.5,0-1-0.1-1.3-0.2c-0.4-0.1-0.7-0.4-1-0.7c-0.3-0.3-0.5-0.8-0.6-1.4
		c-0.1-0.6-0.2-1.3-0.2-2.2v-7.8H856.8z"/>
	<path d="M865.5,46.6c0.5-0.3,1-0.5,1.7-0.7c0.7-0.2,1.4-0.2,2.1-0.2c0.7,0,1.2,0.1,1.6,0.3c0.4,0.2,0.7,0.5,1,0.8
		c0.2,0.3,0.4,0.7,0.5,1.2s0.1,0.9,0.1,1.4c0,1,0,1.9-0.1,2.8s-0.1,1.8-0.1,2.6c0,0.6,0,1.2,0.1,1.7c0,0.5,0.1,1,0.2,1.5h-1.4
		l-0.4-1.4h-0.1c-0.2,0.4-0.6,0.8-1,1.1c-0.5,0.3-1.1,0.5-1.9,0.5c-0.9,0-1.6-0.3-2.1-0.9s-0.8-1.4-0.8-2.5c0-0.7,0.1-1.3,0.3-1.7
		s0.6-0.8,1-1.1c0.4-0.3,0.9-0.5,1.5-0.6s1.2-0.2,1.9-0.2c0.2,0,0.3,0,0.5,0c0.2,0,0.3,0,0.5,0c0-0.5,0.1-0.9,0.1-1.3
		c0-0.9-0.1-1.6-0.4-1.9c-0.3-0.4-0.8-0.6-1.5-0.6c-0.4,0-0.9,0.1-1.5,0.2c-0.5,0.1-1,0.3-1.3,0.5L865.5,46.6z M870.7,52.4
		c-0.2,0-0.3,0-0.5,0s-0.3,0-0.5,0c-0.4,0-0.8,0-1.1,0.1c-0.4,0.1-0.7,0.2-1,0.3c-0.3,0.2-0.5,0.4-0.7,0.6s-0.2,0.6-0.2,1
		c0,0.6,0.2,1.1,0.5,1.5c0.3,0.4,0.7,0.5,1.2,0.5c0.7,0,1.2-0.2,1.5-0.5c0.4-0.3,0.6-0.7,0.8-1.1V52.4z"/>
	<path d="M875.2,45.8h1.2l0.3,1.3h0.1c0.2-0.5,0.5-0.8,0.9-1.1c0.4-0.3,0.8-0.4,1.3-0.4c0.4,0,0.8,0.1,1.2,0.2l-0.3,1.8
		c-0.4-0.1-0.8-0.2-1.1-0.2c-0.5,0-0.9,0.1-1.2,0.4c-0.3,0.3-0.5,0.7-0.6,1.2v8.8h-1.7V45.8z"/>
	<path d="M884.8,53.6l0.5,2.3h0.1l0.4-2.3l1.8-7.8h1.8l-2.9,10.8c-0.2,0.9-0.4,1.7-0.7,2.4c-0.2,0.8-0.5,1.4-0.7,2
		c-0.3,0.6-0.6,1-0.9,1.3s-0.7,0.5-1.2,0.5s-0.8-0.1-1.2-0.2l0.3-1.6c0.2,0.1,0.4,0.1,0.7,0c0.2,0,0.4-0.2,0.6-0.4s0.4-0.6,0.6-1
		s0.3-1,0.4-1.7l-3.9-12h2L884.8,53.6z"/>
	<path d="M902.6,44.7c0,0.9-0.1,1.8-0.4,2.8c-0.3,1-0.6,1.9-1,2.9c-0.4,0.9-0.9,1.8-1.4,2.7c-0.5,0.9-1,1.6-1.5,2.3l-1,1.1v0.1
		l1.3-0.2h4.2v1.6h-7.8v-0.7c0.3-0.4,0.7-0.8,1.1-1.4c0.4-0.6,0.8-1.2,1.2-1.8c0.4-0.7,0.8-1.4,1.2-2.1c0.4-0.7,0.8-1.5,1.1-2.3
		c0.3-0.8,0.6-1.5,0.8-2.3c0.2-0.8,0.3-1.5,0.3-2.2c0-0.8-0.2-1.5-0.6-2s-0.9-0.7-1.6-0.7c-0.5,0-0.9,0.1-1.4,0.3
		c-0.4,0.2-0.8,0.4-1.1,0.7l-0.7-1.3c0.4-0.4,1-0.7,1.6-0.9c0.6-0.2,1.3-0.3,2-0.3c1.2,0,2.1,0.4,2.7,1.1
		C902.3,42.6,902.6,43.5,902.6,44.7z"/>
	<path d="M905.5,49.4c0-1.5,0.1-2.9,0.3-4c0.2-1.1,0.5-2,0.9-2.7c0.4-0.7,0.9-1.2,1.4-1.5c0.6-0.3,1.2-0.5,1.9-0.5
		c0.8,0,1.4,0.2,2,0.5c0.6,0.3,1,0.8,1.4,1.5c0.4,0.7,0.6,1.6,0.8,2.7c0.2,1.1,0.3,2.4,0.3,4c0,1.6-0.1,2.9-0.3,4
		c-0.2,1.1-0.5,2-0.9,2.7c-0.4,0.7-0.9,1.2-1.4,1.5s-1.2,0.5-1.9,0.5c-0.8,0-1.5-0.2-2-0.5c-0.6-0.3-1-0.9-1.4-1.6s-0.6-1.6-0.8-2.7
		C905.6,52.3,905.5,51,905.5,49.4z M907.3,49.4c0,2.3,0.2,4,0.6,5.3c0.4,1.2,1.1,1.8,2.1,1.8c0.9,0,1.6-0.6,2-1.7
		c0.4-1.1,0.6-2.9,0.6-5.4c0-2.3-0.2-4-0.6-5.3c-0.4-1.2-1.1-1.9-2.1-1.9c-0.9,0-1.6,0.6-2,1.7C907.5,45.1,907.3,46.9,907.3,49.4z"
		/>
	<path d="M917.7,56.3h2.7V44.5l0.2-1.4l-0.8,1.2l-2,1.6l-0.9-1.1l4.4-4.1h0.9v15.5h2.6v1.6h-7.1V56.3z"/>
	<path d="M934.8,41v1.7h-4.6v4.9l0.8-0.1c1.3,0,2.3,0.5,3,1.3c0.7,0.9,1.1,2.1,1.1,3.7c0,0.9-0.1,1.7-0.4,2.4s-0.6,1.3-1,1.7
		c-0.4,0.5-0.9,0.8-1.5,1.1c-0.6,0.2-1.2,0.4-1.8,0.4c-1.1,0-2-0.1-2.7-0.4l0.4-1.5c0.3,0.1,0.6,0.2,1,0.3s0.8,0.1,1.2,0.1
		c0.9,0,1.7-0.3,2.2-1c0.6-0.7,0.9-1.6,0.9-2.8c0-1.2-0.3-2.2-0.9-2.8c-0.6-0.6-1.4-0.9-2.4-0.9l-1.6,0.1V41H934.8z"/>
</g>
<g>
	<path d="M842.9,68.9l1-0.1c0.2,0,0.3,0.1,0.3,0.2c0,0.1-0.1,0.2-0.4,0.3c-0.3,0.1-0.6,0.5-0.9,1.1l-2.3,5.6c0,0.1-0.1,0.1-0.1,0.1
		s-0.1,0-0.2-0.1l-1.8-4.4c-0.1-0.2-0.1-0.2-0.2,0l-1.9,4.4c0,0.1-0.1,0.1-0.1,0.1c-0.1,0-0.1,0-0.1-0.1l-2.4-5.9
		c-0.2-0.4-0.5-0.7-0.9-0.8c-0.3-0.1-0.4-0.2-0.4-0.3c0-0.1,0.1-0.2,0.3-0.2l1.2,0.1c0.9-0.1,1.4-0.1,1.5-0.1s0.2,0.1,0.2,0.2
		c0,0.1-0.1,0.2-0.4,0.3c-0.2,0.1-0.4,0.3-0.4,0.7c0,0.1,0,0.3,0.1,0.4l1.3,3.3c0.1,0.2,0.2,0.2,0.3,0l1.1-2.7
		c0.1-0.2,0.1-0.4,0.1-0.6s-0.1-0.5-0.3-0.7c-0.2-0.2-0.4-0.4-0.6-0.4c-0.2-0.1-0.3-0.2-0.3-0.3c0-0.1,0.1-0.2,0.3-0.2l1.3,0.1
		l1.4-0.1c0.2,0,0.3,0.1,0.3,0.2c0,0.1-0.1,0.2-0.4,0.3c-0.4,0.1-0.6,0.3-0.6,0.6c0,0.1,0,0.3,0.1,0.5l1.3,3.3
		c0.1,0.2,0.2,0.2,0.3,0l1.3-3c0.1-0.2,0.1-0.4,0.1-0.6c0-0.2-0.1-0.4-0.2-0.5c-0.1-0.2-0.3-0.3-0.5-0.3s-0.3-0.2-0.3-0.3
		c0-0.1,0.1-0.2,0.3-0.2L842.9,68.9z"/>
	<path d="M844.5,72.6c0-1,0.4-1.9,1.1-2.7c0.7-0.8,1.6-1.2,2.6-1.2c1,0,1.8,0.3,2.5,1c0.7,0.7,1,1.5,1,2.5c0,1-0.3,1.9-1,2.6
		c-0.7,0.8-1.6,1.1-2.8,1.1c-1,0-1.8-0.3-2.4-1C844.9,74.3,844.5,73.5,844.5,72.6z M848,69.2c-1.4,0-2,1-2,2.9
		c0,0.9,0.2,1.6,0.7,2.3s1,1,1.7,1c0.8,0,1.4-0.3,1.8-0.9c0.2-0.4,0.3-1.1,0.3-2c0-0.9-0.2-1.6-0.7-2.3S848.7,69.2,848,69.2z"/>
	<path d="M854.6,75.7l-1.4,0.1c-0.2,0-0.3-0.1-0.3-0.2s0.1-0.2,0.3-0.3s0.3-0.1,0.4-0.1s0.1-0.1,0.2-0.2c0.1-0.1,0.1-0.2,0.1-0.4V71
		c0-0.7-0.2-1.1-0.7-1.2c-0.1,0-0.1-0.1-0.1-0.2s0-0.2,0.1-0.2c0.4-0.1,0.7-0.2,1-0.3c0.4-0.2,0.6-0.4,0.8-0.5
		c0.1-0.1,0.2-0.1,0.2-0.1c0,0,0,0,0,0s0.1,0,0.1,0.1c0,0.3,0,0.6,0,0.9c0,0.3,0,0.4,0,0.4s0,0,0.1-0.1c0.2-0.2,0.3-0.3,0.3-0.3
		c0.5-0.5,1.1-0.7,1.6-0.7c0.2,0,0.4,0.1,0.6,0.2c0.2,0.1,0.2,0.2,0.2,0.4s-0.1,0.4-0.2,0.6c-0.1,0.2-0.3,0.3-0.4,0.3
		c-0.1,0-0.3-0.1-0.5-0.2c-0.2-0.1-0.4-0.2-0.5-0.2c-0.3,0-0.6,0.1-0.8,0.3s-0.3,0.6-0.3,1.1v3.3c0,0.3,0.3,0.5,0.9,0.7
		c0.3,0.1,0.4,0.2,0.4,0.3s-0.1,0.2-0.3,0.2L854.6,75.7z"/>
	<path d="M865.8,75.8l-3.1-0.1c-0.3,0-0.4-0.1-0.4-0.2c0-0.1,0.1-0.2,0.4-0.3c0.2-0.1,0.4-0.2,0.4-0.3c0-0.1,0-0.1-0.1-0.2l-2.1-2.5
		c0,0-0.1,0-0.1,0c0,0-0.1,0.1-0.1,0.2c0,0.1,0,0.5,0,1s0,0.9,0,1.2c0,0.4,0.2,0.6,0.6,0.7c0.3,0.1,0.4,0.2,0.4,0.3
		s-0.1,0.2-0.4,0.2l-1.2-0.1l-1.3,0.1c-0.3,0-0.4-0.1-0.4-0.2s0.1-0.2,0.3-0.3s0.3-0.1,0.4-0.2c0.3-0.1,0.4-0.3,0.4-0.6v-8.5
		c0-0.4-0.1-0.7-0.2-0.9s-0.3-0.3-0.6-0.4c-0.1,0-0.1-0.1-0.1-0.2c0-0.1,0-0.2,0.1-0.2c0.3-0.1,1-0.3,2-0.7h0l0,0
		c0.1,0,0.1,0,0.1,0.1s0,0.2,0,0.4c-0.1,0.6-0.1,1.3-0.1,1.9v5.6c0,0.1,0,0.1,0.1,0.1c0.2,0,0.4-0.2,0.6-0.4c1-0.9,1.7-1.5,1.9-1.9
		c0,0,0,0,0-0.1c0-0.1-0.1-0.2-0.4-0.3c-0.1,0-0.2-0.1-0.2-0.1c0-0.2,0.1-0.2,0.4-0.2h0.8c0.2,0,0.6,0,1-0.1
		c0.4-0.1,0.6-0.1,0.7-0.1c0.1,0,0.1,0,0.1,0.1s0,0.1-0.1,0.2c-0.1,0.1-0.2,0.1-0.2,0.1c-0.3,0.1-0.7,0.2-1,0.4
		c-0.4,0.2-1.1,0.9-2.3,1.9c-0.1,0.1-0.1,0.2-0.1,0.3c0.4,0.5,0.9,1,1.4,1.6c0.5,0.6,0.9,0.9,1.1,1.1c0.4,0.4,0.9,0.7,1.4,0.8
		c0.3,0.1,0.4,0.2,0.4,0.3C866.2,75.8,866.1,75.8,865.8,75.8z"/>
	<path d="M869.7,69.4c-0.2-0.2-0.5-0.3-0.8-0.3c-0.3,0-0.5,0.1-0.7,0.3s-0.3,0.4-0.3,0.7s0.1,0.5,0.3,0.7c0.2,0.2,0.4,0.4,0.5,0.5
		c0.1,0.1,0.4,0.2,0.6,0.4c0.3,0.2,0.5,0.3,0.7,0.5c0.2,0.1,0.4,0.3,0.6,0.7c0.2,0.3,0.3,0.7,0.3,1c0,1.4-0.8,2-2.4,2
		c-0.4,0-0.8-0.1-1.2-0.2c-0.4-0.1-0.6-0.3-0.6-0.4c-0.1-0.3-0.2-0.6-0.2-1c0-0.1,0.1-0.2,0.3-0.2s0.3,0,0.3,0.1
		c0.1,0.3,0.2,0.6,0.6,0.8s0.7,0.4,1,0.4c0.4,0,0.7-0.1,0.8-0.3s0.3-0.5,0.3-0.8s-0.1-0.6-0.3-0.8c-0.2-0.2-0.5-0.5-1-0.8
		c-0.5-0.3-0.9-0.7-1.2-1c-0.3-0.3-0.4-0.7-0.4-1.2s0.2-0.9,0.6-1.3c0.4-0.4,0.9-0.6,1.6-0.6s1.2,0.1,1.4,0.4
		c0.2,0.2,0.3,0.7,0.3,1.3c0,0,0,0.1-0.1,0.1s-0.2,0-0.3-0.1s-0.2-0.2-0.2-0.2C870.1,69.9,869.9,69.6,869.7,69.4z"/>
	<path d="M873.5,75.7l-1.4,0.1c-0.2,0-0.3-0.1-0.3-0.2s0.1-0.2,0.3-0.3s0.3-0.1,0.4-0.2c0.3-0.1,0.4-0.3,0.4-0.6v-8.5
		c0-0.7-0.3-1.1-0.8-1.2c-0.1,0-0.1-0.1-0.1-0.2c0-0.1,0-0.2,0.1-0.2c0.3-0.1,0.9-0.3,2-0.7l0,0c0,0,0.1,0,0.1,0.1c0,0,0,0.1,0,0.2
		c-0.1,0.5-0.1,1.2-0.1,2.1v3c0,0.3,0,0.5,0.1,0.6c1-0.7,1.8-1.1,2.6-1.1c0.6,0,1,0.2,1.4,0.7s0.6,1,0.6,1.6v3.6
		c0,0.4,0.2,0.6,0.7,0.7c0.3,0.1,0.4,0.2,0.4,0.3s-0.1,0.2-0.3,0.2l-1.3-0.1l-1.3,0.1c-0.2,0-0.3-0.1-0.3-0.2s0.1-0.2,0.4-0.3
		c0.4-0.1,0.7-0.4,0.7-0.7v-3.5c0-0.4-0.2-0.8-0.5-1.1c-0.3-0.3-0.7-0.5-1.1-0.5c-0.6,0-1.1,0.1-1.4,0.4c-0.2,0.1-0.3,0.3-0.4,0.5
		c-0.1,0.2-0.1,0.4-0.1,0.8v3.5c0,0.3,0.2,0.6,0.6,0.7c0.3,0.1,0.4,0.2,0.4,0.3s-0.1,0.2-0.3,0.2L873.5,75.7z"/>
	<path d="M880.8,72.6c0-1,0.4-1.9,1.1-2.7c0.7-0.8,1.6-1.2,2.6-1.2c1,0,1.8,0.3,2.5,1c0.7,0.7,1,1.5,1,2.5c0,1-0.3,1.9-1,2.6
		c-0.7,0.8-1.6,1.1-2.8,1.1c-1,0-1.8-0.3-2.4-1C881.2,74.3,880.8,73.5,880.8,72.6z M884.3,69.2c-1.4,0-2,1-2,2.9
		c0,0.9,0.2,1.6,0.7,2.3s1,1,1.7,1c0.8,0,1.4-0.3,1.8-0.9c0.2-0.4,0.3-1.1,0.3-2c0-0.9-0.2-1.6-0.7-2.3S885,69.2,884.3,69.2z"/>
	<path d="M890.7,80.5l-1.4,0.1c-0.2,0-0.4-0.1-0.4-0.2c0-0.1,0.2-0.2,0.5-0.3s0.5-0.2,0.6-0.3c0.1-0.1,0.1-0.2,0.1-0.3v-8.6
		c0-0.2-0.1-0.4-0.2-0.7s-0.3-0.5-0.6-0.5c-0.1,0-0.1-0.1-0.1-0.2s0-0.2,0.1-0.2c0.5-0.1,1.1-0.3,2-0.7l0,0h0c0.1,0,0.1,0.1,0.1,0.2
		l-0.1,1c0,0.1,0,0.1,0,0.2c0.2-0.2,0.6-0.5,1.2-0.7c0.6-0.3,1.1-0.4,1.6-0.4c0.8,0,1.5,0.3,2,1s0.8,1.4,0.8,2.2c0,1-0.4,2-1.1,2.8
		s-1.7,1.2-2.7,1.2c-0.2,0-0.6-0.1-0.9-0.2c-0.4-0.1-0.6-0.2-0.8-0.4c0,0-0.1,0.3-0.1,0.9v3.2c0,0.2,0.1,0.3,0.2,0.4
		c0.1,0.1,0.2,0.1,0.3,0.1c0.1,0,0.2,0,0.3,0.1c0.4,0.1,0.6,0.2,0.6,0.4c0,0.1-0.1,0.2-0.4,0.2L890.7,80.5z M891.3,71.2l0,1.1
		c0,0.5,0,1.1,0,1.6s0.2,0.9,0.5,1.2c0.3,0.3,0.8,0.4,1.5,0.4c0.4,0,0.9-0.2,1.4-0.6c0.2-0.2,0.4-0.5,0.6-0.9
		c0.2-0.4,0.2-0.9,0.2-1.5s-0.1-1.1-0.2-1.5c-0.2-0.4-0.4-0.7-0.6-0.9c-0.5-0.3-1-0.5-1.5-0.5c-0.5,0-1,0.2-1.4,0.5
		C891.5,70.1,891.4,70.5,891.3,71.2z"/>
	<path d="M904.6,69.4c-0.2-0.2-0.5-0.3-0.8-0.3c-0.3,0-0.5,0.1-0.7,0.3s-0.3,0.4-0.3,0.7s0.1,0.5,0.3,0.7c0.2,0.2,0.4,0.4,0.5,0.5
		c0.1,0.1,0.4,0.2,0.6,0.4c0.3,0.2,0.5,0.3,0.7,0.5c0.2,0.1,0.4,0.3,0.6,0.7c0.2,0.3,0.3,0.7,0.3,1c0,1.4-0.8,2-2.4,2
		c-0.4,0-0.8-0.1-1.2-0.2c-0.4-0.1-0.6-0.3-0.6-0.4c-0.1-0.3-0.2-0.6-0.2-1c0-0.1,0.1-0.2,0.3-0.2s0.3,0,0.3,0.1
		c0.1,0.3,0.2,0.6,0.6,0.8s0.7,0.4,1,0.4c0.4,0,0.7-0.1,0.8-0.3s0.3-0.5,0.3-0.8s-0.1-0.6-0.3-0.8c-0.2-0.2-0.5-0.5-1-0.8
		c-0.5-0.3-0.9-0.7-1.2-1c-0.3-0.3-0.4-0.7-0.4-1.2s0.2-0.9,0.6-1.3c0.4-0.4,0.9-0.6,1.6-0.6s1.2,0.1,1.4,0.4
		c0.2,0.2,0.3,0.7,0.3,1.3c0,0,0,0.1-0.1,0.1s-0.2,0-0.3-0.1s-0.2-0.2-0.2-0.2C904.9,69.9,904.8,69.6,904.6,69.4z"/>
	<path d="M909.6,76c-0.6,0-1-0.2-1.3-0.5c-0.3-0.3-0.5-0.8-0.5-1.5V70c0-0.1,0-0.2-0.1-0.2c-0.1,0-0.3-0.1-0.5-0.1
		c0,0-0.1,0-0.1-0.1c-0.1-0.1-0.1-0.2-0.1-0.2c0-0.1,0-0.1,0.1-0.1c0.3-0.1,0.5-0.2,0.8-0.5c0.3-0.2,0.5-0.5,0.7-0.7
		s0.3-0.3,0.3-0.3c0.2,0,0.2,0.1,0.2,0.2l0,0.7c0,0.2,0.1,0.2,0.4,0.2h1.9c0.1,0,0.2,0.1,0.2,0.4s-0.1,0.4-0.2,0.4h-1.7
		c-0.3,0-0.5,0-0.6,0.1c-0.1,0-0.1,0.2-0.1,0.4v3.2c0,0.6,0.1,1,0.3,1.2c0.2,0.2,0.5,0.4,0.8,0.4c0.6,0,1-0.1,1.3-0.3
		c0,0,0.1,0,0.1,0c0,0.1,0.1,0.1,0.1,0.2c0,0.1-0.1,0.2-0.3,0.4c-0.2,0.2-0.4,0.3-0.8,0.5C910.2,75.9,909.9,76,909.6,76z"/>
	<path d="M913.7,70.4l0,0.2c0,0.1-0.2,0.2-0.5,0.4c-0.3,0.1-0.5,0.2-0.7,0.2s-0.2-0.1-0.2-0.2c0-0.4,0.2-0.8,0.6-1.1
		s0.8-0.6,1.3-0.9c0.5-0.3,0.9-0.4,1.3-0.4s0.7,0.1,1,0.4c0.3,0.3,0.4,0.7,0.4,1.1l-0.1,3.7V74c0,0.8,0.2,1.2,0.6,1.2
		c0.3,0,0.5-0.1,0.7-0.2c0,0,0.1,0,0.2,0c0.1,0,0.1,0.1,0.1,0.2v0c-0.1,0.1-0.2,0.3-0.5,0.5c-0.3,0.2-0.6,0.3-0.8,0.3
		s-0.5-0.1-0.7-0.2c-0.2-0.1-0.3-0.3-0.4-0.4s-0.1-0.2-0.2-0.2c0,0-0.1,0.1-0.3,0.2c-0.2,0.1-0.4,0.3-0.7,0.4
		c-0.3,0.1-0.7,0.2-1,0.2s-0.7-0.1-1-0.4s-0.5-0.6-0.5-0.9c0-0.7,0.4-1.2,1.2-1.5l1.7-0.7c0.2-0.1,0.3-0.2,0.4-0.2s0.1-0.2,0.1-0.4
		l0-1.1v0c0-0.3-0.1-0.5-0.3-0.8c-0.2-0.2-0.4-0.3-0.6-0.3s-0.5,0.1-0.7,0.2c-0.2,0.1-0.4,0.2-0.4,0.3S913.7,70.3,913.7,70.4z
		 M913.7,74.2c0,0.3,0.1,0.5,0.3,0.7c0.2,0.2,0.4,0.2,0.7,0.2s0.6-0.2,0.9-0.5c0.1-0.1,0.2-0.3,0.2-0.7l0-0.8c0-0.2,0-0.4-0.2-0.4
		c-0.1,0-0.2,0-0.2,0.1C914.2,73.3,913.7,73.7,913.7,74.2z"/>
	<path d="M920.7,75.7l-1.4,0.1c-0.2,0-0.3-0.1-0.3-0.2s0.1-0.2,0.3-0.3s0.3-0.1,0.4-0.1s0.1-0.1,0.2-0.2c0.1-0.1,0.1-0.2,0.1-0.4V71
		c0-0.7-0.2-1.1-0.7-1.2c-0.1,0-0.1-0.1-0.1-0.2s0-0.2,0.1-0.2c0.4-0.1,0.7-0.2,1-0.3c0.4-0.2,0.6-0.4,0.8-0.5
		c0.1-0.1,0.2-0.1,0.2-0.1c0,0,0,0,0,0s0.1,0,0.1,0.1c0,0.3,0,0.6,0,0.9c0,0.3,0,0.4,0,0.4s0,0,0.1-0.1c0.2-0.2,0.3-0.3,0.3-0.3
		c0.5-0.5,1.1-0.7,1.6-0.7c0.2,0,0.4,0.1,0.6,0.2c0.2,0.1,0.2,0.2,0.2,0.4s-0.1,0.4-0.2,0.6c-0.1,0.2-0.3,0.3-0.4,0.3
		c-0.1,0-0.3-0.1-0.5-0.2c-0.2-0.1-0.4-0.2-0.5-0.2c-0.3,0-0.6,0.1-0.8,0.3s-0.3,0.6-0.3,1.1v3.3c0,0.3,0.3,0.5,0.9,0.7
		c0.3,0.1,0.4,0.2,0.4,0.3s-0.1,0.2-0.3,0.2L920.7,75.7z"/>
	<path d="M927.4,76c-0.6,0-1-0.2-1.3-0.5c-0.3-0.3-0.5-0.8-0.5-1.5V70c0-0.1,0-0.2-0.1-0.2c-0.1,0-0.3-0.1-0.5-0.1
		c0,0-0.1,0-0.1-0.1c-0.1-0.1-0.1-0.2-0.1-0.2c0-0.1,0-0.1,0.1-0.1c0.3-0.1,0.5-0.2,0.8-0.5c0.3-0.2,0.5-0.5,0.7-0.7
		s0.3-0.3,0.3-0.3c0.2,0,0.2,0.1,0.2,0.2l0,0.7c0,0.2,0.1,0.2,0.4,0.2h1.9c0.1,0,0.2,0.1,0.2,0.4s-0.1,0.4-0.2,0.4h-1.7
		c-0.3,0-0.5,0-0.6,0.1c-0.1,0-0.1,0.2-0.1,0.4v3.2c0,0.6,0.1,1,0.3,1.2c0.2,0.2,0.5,0.4,0.8,0.4c0.6,0,1-0.1,1.3-0.3
		c0,0,0.1,0,0.1,0c0,0.1,0.1,0.1,0.1,0.2c0,0.1-0.1,0.2-0.3,0.4c-0.2,0.2-0.4,0.3-0.8,0.5C928,75.9,927.7,76,927.4,76z"/>
	<path d="M933.2,69.4c-0.2-0.2-0.5-0.3-0.8-0.3c-0.3,0-0.5,0.1-0.7,0.3s-0.3,0.4-0.3,0.7s0.1,0.5,0.3,0.7c0.2,0.2,0.4,0.4,0.5,0.5
		c0.1,0.1,0.4,0.2,0.6,0.4c0.3,0.2,0.5,0.3,0.7,0.5c0.2,0.1,0.4,0.3,0.6,0.7c0.2,0.3,0.3,0.7,0.3,1c0,1.4-0.8,2-2.4,2
		c-0.4,0-0.8-0.1-1.2-0.2c-0.4-0.1-0.6-0.3-0.6-0.4c-0.1-0.3-0.2-0.6-0.2-1c0-0.1,0.1-0.2,0.3-0.2s0.3,0,0.3,0.1
		c0.1,0.3,0.2,0.6,0.6,0.8s0.7,0.4,1,0.4c0.4,0,0.7-0.1,0.8-0.3s0.3-0.5,0.3-0.8s-0.1-0.6-0.3-0.8c-0.2-0.2-0.5-0.5-1-0.8
		c-0.5-0.3-0.9-0.7-1.2-1c-0.3-0.3-0.4-0.7-0.4-1.2s0.2-0.9,0.6-1.3c0.4-0.4,0.9-0.6,1.6-0.6s1.2,0.1,1.4,0.4
		c0.2,0.2,0.3,0.7,0.3,1.3c0,0,0,0.1-0.1,0.1s-0.2,0-0.3-0.1s-0.2-0.2-0.2-0.2C933.6,69.9,933.5,69.6,933.2,69.4z"/>
</g>
<g>
	<path fill="#808080" d="M565.2,56.3h2.7V44.5l0.2-1.4l-0.8,1.2l-2,1.6l-0.9-1.1l4.4-4.1h0.9v15.5h2.6v1.6h-7.1V56.3z"/>
	<path fill="#808080" d="M580.4,41c0.3,0,0.5-0.1,0.9-0.1c0.3,0,0.6,0,0.9,0c0.3,0,0.6,0,0.9,0c0.3,0,0.6,0,0.9,0
		c1.2,0,2.2,0.2,3,0.6c0.8,0.4,1.5,1,2,1.7c0.5,0.7,0.9,1.6,1.1,2.7c0.2,1,0.3,2.2,0.3,3.5c0,1.2-0.1,2.3-0.3,3.3s-0.6,2-1.1,2.8
		c-0.5,0.8-1.2,1.4-2,1.9s-1.9,0.7-3.2,0.7c-0.2,0-0.5,0-0.8,0c-0.3,0-0.7,0-1,0c-0.3,0-0.7,0-1-0.1c-0.3,0-0.5,0-0.7-0.1V41z
		 M584.1,42.5c-0.2,0-0.3,0-0.5,0c-0.2,0-0.4,0-0.5,0c-0.2,0-0.3,0-0.5,0c-0.2,0-0.3,0-0.4,0v13.7c0.1,0,0.2,0,0.3,0
		c0.2,0,0.3,0,0.5,0c0.2,0,0.4,0,0.5,0c0.2,0,0.3,0,0.4,0c0.9,0,1.6-0.2,2.2-0.6c0.6-0.4,1.1-0.9,1.4-1.5c0.3-0.6,0.6-1.4,0.7-2.3
		c0.1-0.9,0.2-1.8,0.2-2.7c0-0.8-0.1-1.7-0.2-2.5c-0.1-0.8-0.4-1.5-0.7-2.2c-0.3-0.6-0.8-1.1-1.3-1.5
		C585.7,42.7,585,42.5,584.1,42.5z"/>
	<path fill="#808080" d="M600,57c-0.4,0.4-0.9,0.6-1.5,0.8s-1.2,0.3-1.9,0.3c-0.8,0-1.4-0.1-2-0.4c-0.6-0.3-1-0.7-1.4-1.3
		c-0.4-0.6-0.6-1.2-0.8-2c-0.2-0.8-0.3-1.6-0.3-2.6c0-2,0.4-3.6,1.1-4.7c0.8-1.1,1.8-1.6,3.2-1.6c0.4,0,0.9,0.1,1.3,0.2
		c0.4,0.1,0.8,0.3,1.2,0.7c0.4,0.3,0.6,0.8,0.9,1.4c0.2,0.6,0.3,1.4,0.3,2.4c0,0.3,0,0.6,0,0.9c0,0.3-0.1,0.6-0.1,1h-6.1
		c0,0.7,0.1,1.3,0.2,1.9c0.1,0.6,0.3,1,0.5,1.4s0.5,0.7,0.9,0.9c0.4,0.2,0.8,0.3,1.4,0.3c0.4,0,0.9-0.1,1.3-0.2
		c0.4-0.2,0.7-0.4,1-0.6L600,57z M598.7,50.6c0-1.2-0.1-2.1-0.5-2.6c-0.4-0.6-0.9-0.8-1.5-0.8c-0.7,0-1.3,0.3-1.8,0.8
		c-0.4,0.6-0.7,1.4-0.8,2.6H598.7z"/>
	<path fill="#808080" d="M609.2,57.2c-0.4,0.3-0.9,0.5-1.4,0.7c-0.5,0.1-1,0.2-1.6,0.2c-0.8,0-1.4-0.1-1.9-0.4
		c-0.5-0.3-1-0.7-1.3-1.3c-0.3-0.6-0.6-1.2-0.7-2c-0.2-0.8-0.2-1.6-0.2-2.6c0-2,0.4-3.6,1.1-4.7c0.7-1.1,1.8-1.6,3.1-1.6
		c0.6,0,1.2,0.1,1.6,0.2c0.4,0.1,0.8,0.3,1.2,0.4l-0.5,1.5c-0.6-0.4-1.3-0.6-2.1-0.6c-0.9,0-1.5,0.4-2,1.1c-0.4,0.8-0.7,2-0.7,3.6
		c0,0.7,0,1.3,0.1,1.8c0.1,0.6,0.3,1.1,0.5,1.5c0.2,0.4,0.5,0.8,0.9,1c0.4,0.2,0.8,0.4,1.3,0.4c0.4,0,0.8-0.1,1.2-0.2
		c0.4-0.1,0.7-0.3,0.9-0.5L609.2,57.2z"/>
	<path fill="#808080" d="M617.9,57c-0.4,0.4-0.9,0.6-1.5,0.8s-1.2,0.3-1.9,0.3c-0.8,0-1.4-0.1-2-0.4c-0.6-0.3-1-0.7-1.4-1.3
		c-0.4-0.6-0.6-1.2-0.8-2c-0.2-0.8-0.3-1.6-0.3-2.6c0-2,0.4-3.6,1.1-4.7c0.8-1.1,1.8-1.6,3.2-1.6c0.4,0,0.9,0.1,1.3,0.2
		c0.4,0.1,0.8,0.3,1.2,0.7c0.4,0.3,0.6,0.8,0.9,1.4c0.2,0.6,0.3,1.4,0.3,2.4c0,0.3,0,0.6,0,0.9c0,0.3-0.1,0.6-0.1,1H612
		c0,0.7,0.1,1.3,0.2,1.9c0.1,0.6,0.3,1,0.5,1.4s0.5,0.7,0.9,0.9c0.4,0.2,0.8,0.3,1.4,0.3c0.4,0,0.9-0.1,1.3-0.2
		c0.4-0.2,0.7-0.4,1-0.6L617.9,57z M616.5,50.6c0-1.2-0.1-2.1-0.5-2.6c-0.4-0.6-0.9-0.8-1.5-0.8c-0.7,0-1.3,0.3-1.8,0.8
		c-0.4,0.6-0.7,1.4-0.8,2.6H616.5z"/>
	<path fill="#808080" d="M626.2,57.8v-7.1c0-0.6,0-1.2-0.1-1.6s-0.1-0.8-0.3-1.1c-0.1-0.3-0.3-0.5-0.5-0.6c-0.2-0.1-0.5-0.2-0.9-0.2
		c-0.5,0-1,0.2-1.4,0.6s-0.6,0.9-0.8,1.5v8.6h-1.7v-12h1.2l0.3,1.3h0.1c0.3-0.5,0.7-0.8,1.2-1.1s1.1-0.4,1.8-0.4
		c0.6,0,1.1,0.1,1.5,0.4c0.4,0.3,0.7,0.7,0.9,1.4c0.3-0.6,0.7-1,1.2-1.3c0.5-0.3,1.1-0.5,1.8-0.5c0.5,0,1,0.1,1.4,0.2
		c0.4,0.1,0.7,0.4,0.9,0.7c0.2,0.3,0.4,0.8,0.5,1.4c0.1,0.6,0.2,1.3,0.2,2.1v7.8h-1.7v-7.6c0-1-0.1-1.8-0.3-2.3
		c-0.2-0.5-0.7-0.8-1.4-0.8c-0.6,0-1.1,0.2-1.5,0.6c-0.4,0.4-0.6,0.9-0.8,1.5v8.6H626.2z"/>
	<path fill="#808080" d="M636.2,41h1.7v5.7h0.1c0.7-0.8,1.5-1.2,2.6-1.2c1.2,0,2.2,0.5,2.8,1.5c0.6,1,0.9,2.5,0.9,4.6
		c0,2.2-0.4,3.8-1.2,4.8c-0.8,1.1-2,1.6-3.5,1.6c-0.7,0-1.4-0.1-2-0.3c-0.6-0.2-1.1-0.4-1.4-0.6V41z M638,56.1
		c0.2,0.1,0.5,0.2,0.8,0.3c0.3,0.1,0.7,0.1,1,0.1c0.8,0,1.5-0.4,2-1.2c0.5-0.8,0.7-2,0.7-3.7c0-0.7,0-1.3-0.1-1.9
		c-0.1-0.6-0.2-1-0.4-1.4c-0.2-0.4-0.4-0.7-0.7-0.9c-0.3-0.2-0.7-0.3-1.1-0.3c-0.6,0-1.1,0.2-1.4,0.5c-0.4,0.3-0.7,0.8-0.8,1.4V56.1
		z"/>
	<path fill="#808080" d="M653.8,57c-0.4,0.4-0.9,0.6-1.5,0.8s-1.2,0.3-1.9,0.3c-0.8,0-1.4-0.1-2-0.4c-0.6-0.3-1-0.7-1.4-1.3
		c-0.4-0.6-0.6-1.2-0.8-2c-0.2-0.8-0.3-1.6-0.3-2.6c0-2,0.4-3.6,1.1-4.7c0.8-1.1,1.8-1.6,3.2-1.6c0.4,0,0.9,0.1,1.3,0.2
		c0.4,0.1,0.8,0.3,1.2,0.7c0.4,0.3,0.6,0.8,0.9,1.4c0.2,0.6,0.3,1.4,0.3,2.4c0,0.3,0,0.6,0,0.9c0,0.3-0.1,0.6-0.1,1h-6.1
		c0,0.7,0.1,1.3,0.2,1.9c0.1,0.6,0.3,1,0.5,1.4s0.5,0.7,0.9,0.9c0.4,0.2,0.8,0.3,1.4,0.3c0.4,0,0.9-0.1,1.3-0.2
		c0.4-0.2,0.7-0.4,1-0.6L653.8,57z M652.5,50.6c0-1.2-0.1-2.1-0.5-2.6c-0.4-0.6-0.9-0.8-1.5-0.8c-0.7,0-1.3,0.3-1.8,0.8
		c-0.4,0.6-0.7,1.4-0.8,2.6H652.5z"/>
	<path fill="#808080" d="M656.6,45.8h1.2l0.3,1.3h0.1c0.2-0.5,0.5-0.8,0.9-1.1c0.4-0.3,0.8-0.4,1.3-0.4c0.4,0,0.8,0.1,1.2,0.2
		l-0.3,1.8c-0.4-0.1-0.8-0.2-1.1-0.2c-0.5,0-0.9,0.1-1.2,0.4c-0.3,0.3-0.5,0.7-0.6,1.2v8.8h-1.7V45.8z"/>
	<path fill="#808080" d="M675.6,44.7c0,0.9-0.1,1.8-0.4,2.8c-0.3,1-0.6,1.9-1,2.9c-0.4,0.9-0.9,1.8-1.4,2.7c-0.5,0.9-1,1.6-1.5,2.3
		l-1,1.1v0.1l1.3-0.2h4.2v1.6h-7.8v-0.7c0.3-0.4,0.7-0.8,1.1-1.4c0.4-0.6,0.8-1.2,1.2-1.8c0.4-0.7,0.8-1.4,1.2-2.1
		c0.4-0.7,0.8-1.5,1.1-2.3c0.3-0.8,0.6-1.5,0.8-2.3c0.2-0.8,0.3-1.5,0.3-2.2c0-0.8-0.2-1.5-0.6-2s-0.9-0.7-1.6-0.7
		c-0.5,0-0.9,0.1-1.4,0.3c-0.4,0.2-0.8,0.4-1.1,0.7l-0.7-1.3c0.4-0.4,1-0.7,1.6-0.9c0.6-0.2,1.3-0.3,2-0.3c1.2,0,2.1,0.4,2.7,1.1
		C675.3,42.6,675.6,43.5,675.6,44.7z"/>
	<path fill="#808080" d="M678.5,49.4c0-1.5,0.1-2.9,0.3-4c0.2-1.1,0.5-2,0.9-2.7c0.4-0.7,0.9-1.2,1.4-1.5c0.6-0.3,1.2-0.5,1.9-0.5
		c0.8,0,1.4,0.2,2,0.5c0.6,0.3,1,0.8,1.4,1.5c0.4,0.7,0.6,1.6,0.8,2.7c0.2,1.1,0.3,2.4,0.3,4c0,1.6-0.1,2.9-0.3,4
		c-0.2,1.1-0.5,2-0.9,2.7c-0.4,0.7-0.9,1.2-1.4,1.5s-1.2,0.5-1.9,0.5c-0.8,0-1.5-0.2-2-0.5c-0.6-0.3-1-0.9-1.4-1.6s-0.6-1.6-0.8-2.7
		C678.6,52.3,678.5,51,678.5,49.4z M680.3,49.4c0,2.3,0.2,4,0.6,5.3c0.4,1.2,1.1,1.8,2.1,1.8c0.9,0,1.6-0.6,2-1.7
		c0.4-1.1,0.6-2.9,0.6-5.4c0-2.3-0.2-4-0.6-5.3c-0.4-1.2-1.1-1.9-2.1-1.9c-0.9,0-1.6,0.6-2,1.7C680.5,45.1,680.3,46.9,680.3,49.4z"
		/>
	<path fill="#808080" d="M690.7,56.3h2.7V44.5l0.2-1.4l-0.8,1.2l-2,1.6l-0.9-1.1l4.4-4.1h0.9v15.5h2.6v1.6h-7.1V56.3z"/>
	<path fill="#808080" d="M709.6,52.7h-2.2v5.2h-1.7v-5.2h-5.9v-0.8l6.4-11.1h1.3v10.3h2.2V52.7z M705.6,45.7l0.3-2.1h-0.1l-0.7,1.8
		l-2.6,4.6l-0.9,1.2l1.3-0.2h2.7V45.7z"/>
</g>
<g>
	<path fill="#808080" d="M596.3,75.7l-1.4,0.1c-0.2,0-0.3-0.1-0.3-0.2s0.1-0.2,0.3-0.3s0.3-0.1,0.4-0.1s0.1-0.1,0.2-0.2
		c0.1-0.1,0.1-0.2,0.1-0.4V71c0-0.7-0.2-1.1-0.7-1.2c-0.1,0-0.1-0.1-0.1-0.2s0-0.2,0.1-0.2c0.4-0.1,0.7-0.2,1-0.3
		c0.4-0.2,0.6-0.4,0.8-0.5c0.1-0.1,0.2-0.1,0.2-0.1c0,0,0,0,0,0s0.1,0,0.1,0.1c0,0.3,0,0.6,0,0.9c0,0.3,0,0.4,0,0.4s0,0,0.1-0.1
		c0.2-0.2,0.3-0.3,0.3-0.3c0.5-0.5,1.1-0.7,1.6-0.7c0.2,0,0.4,0.1,0.6,0.2c0.2,0.1,0.2,0.2,0.2,0.4s-0.1,0.4-0.2,0.6
		c-0.1,0.2-0.3,0.3-0.4,0.3c-0.1,0-0.3-0.1-0.5-0.2c-0.2-0.1-0.4-0.2-0.5-0.2c-0.3,0-0.6,0.1-0.8,0.3s-0.3,0.6-0.3,1.1v3.3
		c0,0.3,0.3,0.5,0.9,0.7c0.3,0.1,0.4,0.2,0.4,0.3s-0.1,0.2-0.3,0.2L596.3,75.7z"/>
	<path fill="#808080" d="M603.7,68.7c0.7,0,1.2,0.1,1.6,0.4c0.4,0.3,0.6,0.7,0.6,1.2s-0.1,0.8-0.4,0.9c-0.2,0.1-0.6,0.2-0.9,0.2
		h-2.8c-0.2,0-0.3,0-0.3,0.1s-0.1,0.2-0.1,0.5c0,0.8,0.2,1.5,0.7,2.1s1.1,0.9,1.8,0.9c0.7,0,1.3-0.2,1.6-0.7
		c0.1-0.1,0.1-0.1,0.2-0.1c0.1,0,0.1,0.1,0.1,0.4c-0.1,0.3-0.4,0.6-0.8,0.9c-0.5,0.3-1.1,0.5-1.8,0.5s-1.4-0.3-2-1
		c-0.6-0.7-0.8-1.5-0.8-2.6s0.3-1.9,1-2.6C601.9,69,602.7,68.7,603.7,68.7z M604.8,70.3c0-0.3-0.1-0.6-0.4-0.8
		c-0.3-0.2-0.6-0.3-1-0.3s-0.8,0.2-1.1,0.5c-0.4,0.3-0.5,0.6-0.5,0.9c0,0.2,0.1,0.3,0.3,0.3h1.4c0.5,0,0.9,0,1.2-0.1
		C604.7,70.7,604.8,70.6,604.8,70.3z"/>
	<path fill="#808080" d="M612.7,69.2l0.5,0c0.1,0,0.3,0,0.4,0c0.1,0,0.2,0.1,0.2,0.3s-0.1,0.3-0.2,0.3c-0.4,0-0.7,0-0.7,0
		c-0.1,0-0.1,0-0.1,0.1c0,0-0.1,0-0.1,0c0,0.1-0.1,0.4-0.1,0.8c0,0.9-0.3,1.6-0.8,2.2s-1.2,1-2,1c-0.4,0-0.7-0.1-0.9-0.2
		c-0.5,0.4-0.7,0.7-0.7,0.8c0,0.4,0.5,0.6,1.6,0.7c1.5,0.1,2.3,0.3,2.6,0.4s0.5,0.2,0.7,0.4c0.3,0.2,0.5,0.6,0.5,1.1
		c0,0.9-0.4,1.7-1.2,2.5c-0.8,0.8-1.7,1.1-2.5,1.1c-0.9,0-1.6-0.2-2.2-0.5c-0.6-0.3-0.9-0.8-0.9-1.5c0-0.4,0.1-0.7,0.3-0.9
		s0.5-0.5,0.9-0.8c0.4-0.3,0.7-0.5,0.9-0.8c-0.4-0.1-0.7-0.2-1.1-0.4c-0.3-0.2-0.5-0.5-0.5-0.8c0-0.2,0.1-0.4,0.4-0.6
		c0.1,0,0.2-0.1,0.3-0.2c0.3-0.2,0.5-0.4,0.7-0.6c-0.2,0-0.4-0.2-0.6-0.4c-0.6-0.5-0.8-1.1-0.8-1.9s0.3-1.4,0.9-1.8
		c0.6-0.5,1.3-0.7,2.1-0.7c0.3,0,0.6,0.1,1,0.2C611.7,69.1,612.3,69.2,612.7,69.2z M607.8,78c0,0.6,0.2,1.1,0.6,1.4s0.9,0.6,1.6,0.6
		c0.7,0,1.3-0.2,1.8-0.7c0.5-0.5,0.7-1,0.7-1.7c0-0.3-0.1-0.5-0.4-0.7c-0.3-0.2-0.6-0.3-1-0.4c-0.4-0.1-0.9-0.1-1.6-0.2H609
		c-0.1,0.1-0.4,0.4-0.9,0.8C607.9,77.4,607.8,77.7,607.8,78z M611.4,71.2c0-0.5-0.2-1-0.5-1.5c-0.3-0.4-0.7-0.6-1.1-0.6
		s-0.8,0.2-1.1,0.6c-0.3,0.4-0.4,0.9-0.4,1.4c0,0.5,0.2,1,0.5,1.4c0.3,0.5,0.7,0.7,1.1,0.7c0.4,0,0.8-0.2,1.1-0.6
		C611.3,72.3,611.4,71.8,611.4,71.2z"/>
	<path fill="#808080" d="M615.9,75.7l-1.4,0.1c-0.2,0-0.3-0.1-0.3-0.2s0.2-0.2,0.5-0.3c0.3-0.1,0.5-0.2,0.6-0.3
		c0.1-0.1,0.1-0.2,0.1-0.3V71c0-0.7-0.3-1.1-0.8-1.2c-0.1,0-0.1-0.1-0.1-0.2c0-0.1,0-0.2,0.1-0.2c0.6-0.1,1.1-0.4,1.7-0.8
		c0.2-0.1,0.3-0.2,0.3-0.2c0.1,0,0.1,0,0.1,0.1c-0.1,1-0.2,1.8-0.2,2.3v3.9c0,0.2,0.1,0.4,0.2,0.4c0.1,0.1,0.3,0.1,0.6,0.2
		c0.2,0.1,0.3,0.2,0.3,0.3s-0.1,0.2-0.3,0.2L615.9,75.7z M615.2,66.7c-0.2-0.2-0.2-0.4-0.2-0.6c0-0.2,0.1-0.5,0.2-0.6
		c0.2-0.2,0.4-0.2,0.6-0.2s0.5,0.1,0.6,0.2c0.2,0.2,0.2,0.4,0.3,0.6c0,0.2-0.1,0.4-0.3,0.6c-0.2,0.2-0.4,0.2-0.6,0.3
		C615.5,67,615.3,66.9,615.2,66.7z"/>
	<path fill="#808080" d="M621.7,69.4c-0.2-0.2-0.5-0.3-0.8-0.3c-0.3,0-0.5,0.1-0.7,0.3s-0.3,0.4-0.3,0.7s0.1,0.5,0.3,0.7
		c0.2,0.2,0.4,0.4,0.5,0.5c0.1,0.1,0.4,0.2,0.6,0.4c0.3,0.2,0.5,0.3,0.7,0.5c0.2,0.1,0.4,0.3,0.6,0.7c0.2,0.3,0.3,0.7,0.3,1
		c0,1.4-0.8,2-2.4,2c-0.4,0-0.8-0.1-1.2-0.2c-0.4-0.1-0.6-0.3-0.6-0.4c-0.1-0.3-0.2-0.6-0.2-1c0-0.1,0.1-0.2,0.3-0.2s0.3,0,0.3,0.1
		c0.1,0.3,0.2,0.6,0.6,0.8s0.7,0.4,1,0.4c0.4,0,0.7-0.1,0.8-0.3s0.3-0.5,0.3-0.8s-0.1-0.6-0.3-0.8c-0.2-0.2-0.5-0.5-1-0.8
		c-0.5-0.3-0.9-0.7-1.2-1c-0.3-0.3-0.4-0.7-0.4-1.2s0.2-0.9,0.6-1.3c0.4-0.4,0.9-0.6,1.6-0.6s1.2,0.1,1.4,0.4
		c0.2,0.2,0.3,0.7,0.3,1.3c0,0,0,0.1-0.1,0.1s-0.2,0-0.3-0.1s-0.2-0.2-0.2-0.2C622,69.9,621.9,69.6,621.7,69.4z"/>
	<path fill="#808080" d="M626.6,76c-0.6,0-1-0.2-1.3-0.5c-0.3-0.3-0.5-0.8-0.5-1.5V70c0-0.1,0-0.2-0.1-0.2c-0.1,0-0.3-0.1-0.5-0.1
		c0,0-0.1,0-0.1-0.1c-0.1-0.1-0.1-0.2-0.1-0.2c0-0.1,0-0.1,0.1-0.1c0.3-0.1,0.5-0.2,0.8-0.5c0.3-0.2,0.5-0.5,0.7-0.7
		s0.3-0.3,0.3-0.3c0.2,0,0.2,0.1,0.2,0.2l0,0.7c0,0.2,0.1,0.2,0.4,0.2h1.9c0.1,0,0.2,0.1,0.2,0.4s-0.1,0.4-0.2,0.4h-1.7
		c-0.3,0-0.5,0-0.6,0.1c-0.1,0-0.1,0.2-0.1,0.4v3.2c0,0.6,0.1,1,0.3,1.2c0.2,0.2,0.5,0.4,0.8,0.4c0.6,0,1-0.1,1.3-0.3
		c0,0,0.1,0,0.1,0c0,0.1,0.1,0.1,0.1,0.2c0,0.1-0.1,0.2-0.3,0.4c-0.2,0.2-0.4,0.3-0.8,0.5C627.3,75.9,627,76,626.6,76z"/>
	<path fill="#808080" d="M631,75.7l-1.4,0.1c-0.2,0-0.3-0.1-0.3-0.2s0.1-0.2,0.3-0.3s0.3-0.1,0.4-0.1s0.1-0.1,0.2-0.2
		c0.1-0.1,0.1-0.2,0.1-0.4V71c0-0.7-0.2-1.1-0.7-1.2c-0.1,0-0.1-0.1-0.1-0.2s0-0.2,0.1-0.2c0.4-0.1,0.7-0.2,1-0.3
		c0.4-0.2,0.6-0.4,0.8-0.5c0.1-0.1,0.2-0.1,0.2-0.1c0,0,0,0,0,0s0.1,0,0.1,0.1c0,0.3,0,0.6,0,0.9c0,0.3,0,0.4,0,0.4s0,0,0.1-0.1
		c0.2-0.2,0.3-0.3,0.3-0.3c0.5-0.5,1.1-0.7,1.6-0.7c0.2,0,0.4,0.1,0.6,0.2c0.2,0.1,0.2,0.2,0.2,0.4s-0.1,0.4-0.2,0.6
		c-0.1,0.2-0.3,0.3-0.4,0.3c-0.1,0-0.3-0.1-0.5-0.2c-0.2-0.1-0.4-0.2-0.5-0.2c-0.3,0-0.6,0.1-0.8,0.3s-0.3,0.6-0.3,1.1v3.3
		c0,0.3,0.3,0.5,0.9,0.7c0.3,0.1,0.4,0.2,0.4,0.3s-0.1,0.2-0.3,0.2L631,75.7z"/>
	<path fill="#808080" d="M636.4,70.4l0,0.2c0,0.1-0.2,0.2-0.5,0.4c-0.3,0.1-0.5,0.2-0.7,0.2s-0.2-0.1-0.2-0.2c0-0.4,0.2-0.8,0.6-1.1
		s0.8-0.6,1.3-0.9c0.5-0.3,0.9-0.4,1.3-0.4s0.7,0.1,1,0.4c0.3,0.3,0.4,0.7,0.4,1.1l-0.1,3.7V74c0,0.8,0.2,1.2,0.6,1.2
		c0.3,0,0.5-0.1,0.7-0.2c0,0,0.1,0,0.2,0c0.1,0,0.1,0.1,0.1,0.2v0c-0.1,0.1-0.2,0.3-0.5,0.5c-0.3,0.2-0.6,0.3-0.8,0.3
		s-0.5-0.1-0.7-0.2c-0.2-0.1-0.3-0.3-0.4-0.4s-0.1-0.2-0.2-0.2c0,0-0.1,0.1-0.3,0.2c-0.2,0.1-0.4,0.3-0.7,0.4
		c-0.3,0.1-0.7,0.2-1,0.2s-0.7-0.1-1-0.4s-0.5-0.6-0.5-0.9c0-0.7,0.4-1.2,1.2-1.5l1.7-0.7c0.2-0.1,0.3-0.2,0.4-0.2s0.1-0.2,0.1-0.4
		l0-1.1v0c0-0.3-0.1-0.5-0.3-0.8c-0.2-0.2-0.4-0.3-0.6-0.3s-0.5,0.1-0.7,0.2c-0.2,0.1-0.4,0.2-0.4,0.3S636.4,70.3,636.4,70.4z
		 M636.4,74.2c0,0.3,0.1,0.5,0.3,0.7c0.2,0.2,0.4,0.2,0.7,0.2s0.6-0.2,0.9-0.5c0.1-0.1,0.2-0.3,0.2-0.7l0-0.8c0-0.2,0-0.4-0.2-0.4
		c-0.1,0-0.2,0-0.2,0.1C637,73.3,636.4,73.7,636.4,74.2z"/>
	<path fill="#808080" d="M644.4,76c-0.6,0-1-0.2-1.3-0.5c-0.3-0.3-0.5-0.8-0.5-1.5V70c0-0.1,0-0.2-0.1-0.2c-0.1,0-0.3-0.1-0.5-0.1
		c0,0-0.1,0-0.1-0.1c-0.1-0.1-0.1-0.2-0.1-0.2c0-0.1,0-0.1,0.1-0.1c0.3-0.1,0.5-0.2,0.8-0.5c0.3-0.2,0.5-0.5,0.7-0.7
		s0.3-0.3,0.3-0.3c0.2,0,0.2,0.1,0.2,0.2l0,0.7c0,0.2,0.1,0.2,0.4,0.2h1.9c0.1,0,0.2,0.1,0.2,0.4s-0.1,0.4-0.2,0.4h-1.7
		c-0.3,0-0.5,0-0.6,0.1c-0.1,0-0.1,0.2-0.1,0.4v3.2c0,0.6,0.1,1,0.3,1.2c0.2,0.2,0.5,0.4,0.8,0.4c0.6,0,1-0.1,1.3-0.3
		c0,0,0.1,0,0.1,0c0,0.1,0.1,0.1,0.1,0.2c0,0.1-0.1,0.2-0.3,0.4c-0.2,0.2-0.4,0.3-0.8,0.5C645.1,75.9,644.8,76,644.4,76z"/>
	<path fill="#808080" d="M648.7,75.7l-1.4,0.1c-0.2,0-0.3-0.1-0.3-0.2s0.2-0.2,0.5-0.3c0.3-0.1,0.5-0.2,0.6-0.3
		c0.1-0.1,0.1-0.2,0.1-0.3V71c0-0.7-0.3-1.1-0.8-1.2c-0.1,0-0.1-0.1-0.1-0.2c0-0.1,0-0.2,0.1-0.2c0.6-0.1,1.1-0.4,1.7-0.8
		c0.2-0.1,0.3-0.2,0.3-0.2c0.1,0,0.1,0,0.1,0.1c-0.1,1-0.2,1.8-0.2,2.3v3.9c0,0.2,0.1,0.4,0.2,0.4c0.1,0.1,0.3,0.1,0.6,0.2
		c0.2,0.1,0.3,0.2,0.3,0.3s-0.1,0.2-0.3,0.2L648.7,75.7z M648,66.7c-0.2-0.2-0.2-0.4-0.2-0.6c0-0.2,0.1-0.5,0.2-0.6
		c0.2-0.2,0.4-0.2,0.6-0.2s0.5,0.1,0.6,0.2c0.2,0.2,0.2,0.4,0.3,0.6c0,0.2-0.1,0.4-0.3,0.6c-0.2,0.2-0.4,0.2-0.6,0.3
		C648.3,67,648.1,66.9,648,66.7z"/>
	<path fill="#808080" d="M651.3,72.6c0-1,0.4-1.9,1.1-2.7c0.7-0.8,1.6-1.2,2.6-1.2c1,0,1.8,0.3,2.5,1c0.7,0.7,1,1.5,1,2.5
		c0,1-0.3,1.9-1,2.6c-0.7,0.8-1.6,1.1-2.8,1.1c-1,0-1.8-0.3-2.4-1C651.7,74.3,651.3,73.5,651.3,72.6z M654.8,69.2c-1.4,0-2,1-2,2.9
		c0,0.9,0.2,1.6,0.7,2.3s1,1,1.7,1c0.8,0,1.4-0.3,1.8-0.9c0.2-0.4,0.3-1.1,0.3-2c0-0.9-0.2-1.6-0.7-2.3S655.5,69.2,654.8,69.2z"/>
	<path fill="#808080" d="M666,75.7l-1.4,0.1c-0.2,0-0.3-0.1-0.3-0.2s0.1-0.2,0.4-0.3c0,0,0,0,0.1,0c0.4-0.1,0.6-0.3,0.6-0.5
		c0-0.1,0-0.1,0-0.2v-3.6c0-0.5-0.1-0.9-0.4-1.2s-0.7-0.4-1.2-0.4s-1,0.1-1.4,0.4c-0.4,0.2-0.5,0.7-0.5,1.3v3.5
		c0,0.2,0.1,0.4,0.2,0.4c0.1,0.1,0.3,0.1,0.6,0.2c0.2,0.1,0.3,0.2,0.3,0.3s-0.1,0.2-0.3,0.2l-1.4-0.1l-1.4,0.1
		c-0.2,0-0.3-0.1-0.3-0.2s0.1-0.2,0.3-0.3c0.2-0.1,0.3-0.1,0.3-0.1s0.1,0,0.2-0.1c0.1,0,0.1-0.1,0.2-0.1c0.1-0.1,0.2-0.3,0.2-0.4V71
		c0-0.7-0.2-1.1-0.7-1.2c-0.1,0-0.1-0.1-0.1-0.2c0-0.1,0-0.2,0.1-0.2c0.6-0.1,1.2-0.4,1.9-0.9c0,0,0,0,0.1,0s0.1,0.1,0.1,0.2
		l-0.1,1.1c0,0.1,0,0.1,0,0.1c0.3-0.3,0.7-0.5,1.3-0.8s1.1-0.4,1.6-0.4s0.9,0.2,1.3,0.7s0.6,1,0.6,1.7v3.6c0,0.2,0.1,0.4,0.2,0.4
		c0.1,0.1,0.3,0.1,0.6,0.2c0.2,0.1,0.3,0.2,0.3,0.3s-0.1,0.2-0.3,0.2L666,75.7z"/>
	<path fill="#808080" d="M677.8,69.8c0,0.1-0.1,0.2-0.2,0.3s-0.3,0.2-0.5,0.2c-0.1,0-0.3-0.1-0.4-0.2c-0.3-0.3-0.5-0.5-0.7-0.6
		c-0.2-0.1-0.5-0.2-0.9-0.2c-0.6,0-1,0.3-1.4,0.8c-0.3,0.5-0.5,1.1-0.5,1.9c0,0.8,0.3,1.5,0.8,2.1s1.2,1,1.9,1
		c0.3,0,0.6-0.1,0.8-0.2c0.2-0.1,0.4-0.3,0.7-0.7c0.1-0.1,0.1-0.1,0.2-0.1c0,0,0.1,0,0.1,0.1c0,0.1,0.1,0.1,0.1,0.2
		c0,0.3-0.3,0.7-0.9,1s-1.3,0.5-2,0.5s-1.4-0.3-2-1c-0.5-0.7-0.8-1.5-0.8-2.5c0-1,0.3-1.9,1-2.7c0.7-0.8,1.5-1.2,2.5-1.2
		s1.7,0.3,2.1,0.8C677.8,69.6,677.8,69.7,677.8,69.8z"/>
	<path fill="#808080" d="M680,75.7l-1.4,0.1c-0.2,0-0.3-0.1-0.3-0.2s0.2-0.2,0.5-0.3c0.3-0.1,0.5-0.2,0.6-0.3
		c0.1-0.1,0.1-0.2,0.1-0.3v-8.6c0-0.7-0.3-1.1-0.8-1.2c-0.1,0-0.1-0.1-0.1-0.2c0-0.1,0-0.2,0.1-0.2c0.3-0.1,0.9-0.3,2-0.7h0l0,0
		c0.1,0,0.1,0,0.1,0.1c0,0,0,0.1,0,0.3c-0.1,0.4-0.1,1.1-0.1,2v8.5c0,0.2,0.1,0.4,0.2,0.4c0.1,0.1,0.3,0.1,0.6,0.2
		c0.2,0.1,0.3,0.2,0.3,0.3s-0.1,0.2-0.3,0.2L680,75.7z"/>
	<path fill="#808080" d="M682.6,72.6c0-1,0.4-1.9,1.1-2.7c0.7-0.8,1.6-1.2,2.6-1.2c1,0,1.8,0.3,2.5,1c0.7,0.7,1,1.5,1,2.5
		c0,1-0.3,1.9-1,2.6c-0.7,0.8-1.6,1.1-2.8,1.1c-1,0-1.8-0.3-2.4-1C682.9,74.3,682.6,73.5,682.6,72.6z M686,69.2c-1.4,0-2,1-2,2.9
		c0,0.9,0.2,1.6,0.7,2.3s1,1,1.7,1c0.8,0,1.4-0.3,1.8-0.9c0.2-0.4,0.3-1.1,0.3-2c0-0.9-0.2-1.6-0.7-2.3S686.7,69.2,686,69.2z"/>
	<path fill="#808080" d="M694.2,69.4c-0.2-0.2-0.5-0.3-0.8-0.3c-0.3,0-0.5,0.1-0.7,0.3s-0.3,0.4-0.3,0.7s0.1,0.5,0.3,0.7
		c0.2,0.2,0.4,0.4,0.5,0.5c0.1,0.1,0.4,0.2,0.6,0.4c0.3,0.2,0.5,0.3,0.7,0.5c0.2,0.1,0.4,0.3,0.6,0.7c0.2,0.3,0.3,0.7,0.3,1
		c0,1.4-0.8,2-2.4,2c-0.4,0-0.8-0.1-1.2-0.2c-0.4-0.1-0.6-0.3-0.6-0.4c-0.1-0.3-0.2-0.6-0.2-1c0-0.1,0.1-0.2,0.3-0.2s0.3,0,0.3,0.1
		c0.1,0.3,0.2,0.6,0.6,0.8s0.7,0.4,1,0.4c0.4,0,0.7-0.1,0.8-0.3s0.3-0.5,0.3-0.8s-0.1-0.6-0.3-0.8c-0.2-0.2-0.5-0.5-1-0.8
		c-0.5-0.3-0.9-0.7-1.2-1c-0.3-0.3-0.4-0.7-0.4-1.2s0.2-0.9,0.6-1.3c0.4-0.4,0.9-0.6,1.6-0.6s1.2,0.1,1.4,0.4
		c0.2,0.2,0.3,0.7,0.3,1.3c0,0,0,0.1-0.1,0.1s-0.2,0-0.3-0.1s-0.2-0.2-0.2-0.2C694.5,69.9,694.4,69.6,694.2,69.4z"/>
	<path fill="#808080" d="M699.8,68.7c0.7,0,1.2,0.1,1.6,0.4c0.4,0.3,0.6,0.7,0.6,1.2s-0.1,0.8-0.4,0.9c-0.2,0.1-0.6,0.2-0.9,0.2
		h-2.8c-0.2,0-0.3,0-0.3,0.1s-0.1,0.2-0.1,0.5c0,0.8,0.2,1.5,0.7,2.1s1.1,0.9,1.8,0.9c0.7,0,1.3-0.2,1.6-0.7
		c0.1-0.1,0.1-0.1,0.2-0.1c0.1,0,0.1,0.1,0.1,0.4c-0.1,0.3-0.4,0.6-0.8,0.9c-0.5,0.3-1.1,0.5-1.8,0.5s-1.4-0.3-2-1
		c-0.6-0.7-0.8-1.5-0.8-2.6s0.3-1.9,1-2.6C698.1,69,698.9,68.7,699.8,68.7z M700.9,70.3c0-0.3-0.1-0.6-0.4-0.8
		c-0.3-0.2-0.6-0.3-1-0.3s-0.8,0.2-1.1,0.5c-0.4,0.3-0.5,0.6-0.5,0.9c0,0.2,0.1,0.3,0.3,0.3h1.4c0.5,0,0.9,0,1.2-0.1
		C700.9,70.7,700.9,70.6,700.9,70.3z"/>
	<path fill="#808080" d="M706.2,69.4c-0.2-0.2-0.5-0.3-0.8-0.3c-0.3,0-0.5,0.1-0.7,0.3s-0.3,0.4-0.3,0.7s0.1,0.5,0.3,0.7
		c0.2,0.2,0.4,0.4,0.5,0.5c0.1,0.1,0.4,0.2,0.6,0.4c0.3,0.2,0.5,0.3,0.7,0.5c0.2,0.1,0.4,0.3,0.6,0.7c0.2,0.3,0.3,0.7,0.3,1
		c0,1.4-0.8,2-2.4,2c-0.4,0-0.8-0.1-1.2-0.2c-0.4-0.1-0.6-0.3-0.6-0.4c-0.1-0.3-0.2-0.6-0.2-1c0-0.1,0.1-0.2,0.3-0.2s0.3,0,0.3,0.1
		c0.1,0.3,0.2,0.6,0.6,0.8s0.7,0.4,1,0.4c0.4,0,0.7-0.1,0.8-0.3s0.3-0.5,0.3-0.8s-0.1-0.6-0.3-0.8c-0.2-0.2-0.5-0.5-1-0.8
		c-0.5-0.3-0.9-0.7-1.2-1c-0.3-0.3-0.4-0.7-0.4-1.2s0.2-0.9,0.6-1.3c0.4-0.4,0.9-0.6,1.6-0.6s1.2,0.1,1.4,0.4
		c0.2,0.2,0.3,0.7,0.3,1.3c0,0,0,0.1-0.1,0.1s-0.2,0-0.3-0.1s-0.2-0.2-0.2-0.2C706.6,69.9,706.5,69.6,706.2,69.4z"/>
</g>
<g>
	<path fill="#808080" d="M397.3,56.3h2.7V44.5l0.2-1.4l-0.8,1.2l-2,1.6l-0.9-1.1l4.4-4.1h0.9v15.5h2.6v1.6h-7.1V56.3z"/>
	<path fill="#808080" d="M415,47.2l-1-2.6h-0.1l0.3,2.6v10.7h-1.7V40.8h1.1l6.2,10.9l1,2.5h0.1l-0.3-2.5V41h1.7v17.1h-1.1L415,47.2z
		"/>
	<path fill="#808080" d="M424.7,51.8c0-2.2,0.4-3.7,1.1-4.8c0.7-1,1.8-1.5,3.2-1.5c1.5,0,2.6,0.5,3.3,1.6c0.7,1,1,2.6,1,4.7
		c0,2.2-0.4,3.8-1.1,4.8c-0.8,1-1.8,1.5-3.2,1.5c-1.5,0-2.6-0.5-3.3-1.6C425.1,55.5,424.7,53.9,424.7,51.8z M426.5,51.8
		c0,0.7,0,1.3,0.1,1.9c0.1,0.6,0.2,1.1,0.4,1.5s0.5,0.7,0.8,1c0.3,0.2,0.7,0.3,1.2,0.3c0.8,0,1.5-0.4,1.9-1.1
		c0.4-0.7,0.6-1.9,0.6-3.6c0-0.7,0-1.3-0.1-1.9c-0.1-0.6-0.2-1.1-0.4-1.5c-0.2-0.4-0.5-0.7-0.8-1s-0.7-0.3-1.2-0.3
		c-0.8,0-1.4,0.4-1.9,1.1C426.7,49,426.5,50.2,426.5,51.8z"/>
	<path fill="#808080" d="M438.3,52.9l0.5,2.4h0l0.4-2.4l2.1-7h1.8l-4.1,12.3h-0.8l-4.2-12.3h2L438.3,52.9z"/>
	<path fill="#808080" d="M451.9,57c-0.4,0.4-0.9,0.6-1.5,0.8s-1.2,0.3-1.9,0.3c-0.8,0-1.4-0.1-2-0.4c-0.6-0.3-1-0.7-1.4-1.3
		c-0.4-0.6-0.6-1.2-0.8-2c-0.2-0.8-0.3-1.6-0.3-2.6c0-2,0.4-3.6,1.1-4.7c0.8-1.1,1.8-1.6,3.2-1.6c0.4,0,0.9,0.1,1.3,0.2
		c0.4,0.1,0.8,0.3,1.2,0.7c0.4,0.3,0.6,0.8,0.9,1.4c0.2,0.6,0.3,1.4,0.3,2.4c0,0.3,0,0.6,0,0.9c0,0.3-0.1,0.6-0.1,1H446
		c0,0.7,0.1,1.3,0.2,1.9c0.1,0.6,0.3,1,0.5,1.4s0.5,0.7,0.9,0.9c0.4,0.2,0.8,0.3,1.4,0.3c0.4,0,0.9-0.1,1.3-0.2
		c0.4-0.2,0.7-0.4,1-0.6L451.9,57z M450.5,50.6c0-1.2-0.1-2.1-0.5-2.6c-0.4-0.6-0.9-0.8-1.5-0.8c-0.7,0-1.3,0.3-1.8,0.8
		c-0.4,0.6-0.7,1.4-0.8,2.6H450.5z"/>
	<path fill="#808080" d="M460.2,57.8v-7.1c0-0.6,0-1.2-0.1-1.6s-0.1-0.8-0.3-1.1c-0.1-0.3-0.3-0.5-0.5-0.6c-0.2-0.1-0.5-0.2-0.9-0.2
		c-0.5,0-1,0.2-1.4,0.6s-0.6,0.9-0.8,1.5v8.6h-1.7v-12h1.2l0.3,1.3h0.1c0.3-0.5,0.7-0.8,1.2-1.1s1.1-0.4,1.8-0.4
		c0.6,0,1.1,0.1,1.5,0.4c0.4,0.3,0.7,0.7,0.9,1.4c0.3-0.6,0.7-1,1.2-1.3c0.5-0.3,1.1-0.5,1.8-0.5c0.5,0,1,0.1,1.4,0.2
		c0.4,0.1,0.7,0.4,0.9,0.7c0.2,0.3,0.4,0.8,0.5,1.4c0.1,0.6,0.2,1.3,0.2,2.1v7.8h-1.7v-7.6c0-1-0.1-1.8-0.3-2.3
		c-0.2-0.5-0.7-0.8-1.4-0.8c-0.6,0-1.1,0.2-1.5,0.6c-0.4,0.4-0.6,0.9-0.8,1.5v8.6H460.2z"/>
	<path fill="#808080" d="M470.2,41h1.7v5.7h0.1c0.7-0.8,1.5-1.2,2.6-1.2c1.2,0,2.2,0.5,2.8,1.5c0.6,1,0.9,2.5,0.9,4.6
		c0,2.2-0.4,3.8-1.2,4.8c-0.8,1.1-2,1.6-3.5,1.6c-0.7,0-1.4-0.1-2-0.3c-0.6-0.2-1.1-0.4-1.4-0.6V41z M472,56.1
		c0.2,0.1,0.5,0.2,0.8,0.3c0.3,0.1,0.7,0.1,1,0.1c0.8,0,1.5-0.4,2-1.2c0.5-0.8,0.7-2,0.7-3.7c0-0.7,0-1.3-0.1-1.9
		c-0.1-0.6-0.2-1-0.4-1.4c-0.2-0.4-0.4-0.7-0.7-0.9c-0.3-0.2-0.7-0.3-1.1-0.3c-0.6,0-1.1,0.2-1.4,0.5c-0.4,0.3-0.7,0.8-0.8,1.4V56.1
		z"/>
	<path fill="#808080" d="M487.8,57c-0.4,0.4-0.9,0.6-1.5,0.8s-1.2,0.3-1.9,0.3c-0.8,0-1.4-0.1-2-0.4c-0.6-0.3-1-0.7-1.4-1.3
		c-0.4-0.6-0.6-1.2-0.8-2c-0.2-0.8-0.3-1.6-0.3-2.6c0-2,0.4-3.6,1.1-4.7c0.8-1.1,1.8-1.6,3.2-1.6c0.4,0,0.9,0.1,1.3,0.2
		c0.4,0.1,0.8,0.3,1.2,0.7c0.4,0.3,0.6,0.8,0.9,1.4c0.2,0.6,0.3,1.4,0.3,2.4c0,0.3,0,0.6,0,0.9c0,0.3-0.1,0.6-0.1,1h-6.1
		c0,0.7,0.1,1.3,0.2,1.9c0.1,0.6,0.3,1,0.5,1.4s0.5,0.7,0.9,0.9c0.4,0.2,0.8,0.3,1.4,0.3c0.4,0,0.9-0.1,1.3-0.2
		c0.4-0.2,0.7-0.4,1-0.6L487.8,57z M486.5,50.6c0-1.2-0.1-2.1-0.5-2.6c-0.4-0.6-0.9-0.8-1.5-0.8c-0.7,0-1.3,0.3-1.8,0.8
		c-0.4,0.6-0.7,1.4-0.8,2.6H486.5z"/>
	<path fill="#808080" d="M490.6,45.8h1.2l0.3,1.3h0.1c0.2-0.5,0.5-0.8,0.9-1.1c0.4-0.3,0.8-0.4,1.3-0.4c0.4,0,0.8,0.1,1.2,0.2
		l-0.3,1.8c-0.4-0.1-0.8-0.2-1.1-0.2c-0.5,0-0.9,0.1-1.2,0.4c-0.3,0.3-0.5,0.7-0.6,1.2v8.8h-1.7V45.8z"/>
	<path fill="#808080" d="M509.6,44.7c0,0.9-0.1,1.8-0.4,2.8c-0.3,1-0.6,1.9-1,2.9c-0.4,0.9-0.9,1.8-1.4,2.7c-0.5,0.9-1,1.6-1.5,2.3
		l-1,1.1v0.1l1.3-0.2h4.2v1.6h-7.8v-0.7c0.3-0.4,0.7-0.8,1.1-1.4c0.4-0.6,0.8-1.2,1.2-1.8c0.4-0.7,0.8-1.4,1.2-2.1
		c0.4-0.7,0.8-1.5,1.1-2.3c0.3-0.8,0.6-1.5,0.8-2.3c0.2-0.8,0.3-1.5,0.3-2.2c0-0.8-0.2-1.5-0.6-2s-0.9-0.7-1.6-0.7
		c-0.5,0-0.9,0.1-1.4,0.3c-0.4,0.2-0.8,0.4-1.1,0.7l-0.7-1.3c0.4-0.4,1-0.7,1.6-0.9c0.6-0.2,1.3-0.3,2-0.3c1.2,0,2.1,0.4,2.7,1.1
		C509.3,42.6,509.6,43.5,509.6,44.7z"/>
	<path fill="#808080" d="M512.5,49.4c0-1.5,0.1-2.9,0.3-4c0.2-1.1,0.5-2,0.9-2.7c0.4-0.7,0.9-1.2,1.4-1.5c0.6-0.3,1.2-0.5,1.9-0.5
		c0.8,0,1.4,0.2,2,0.5c0.6,0.3,1,0.8,1.4,1.5c0.4,0.7,0.6,1.6,0.8,2.7c0.2,1.1,0.3,2.4,0.3,4c0,1.6-0.1,2.9-0.3,4
		c-0.2,1.1-0.5,2-0.9,2.7c-0.4,0.7-0.9,1.2-1.4,1.5s-1.2,0.5-1.9,0.5c-0.8,0-1.5-0.2-2-0.5c-0.6-0.3-1-0.9-1.4-1.6s-0.6-1.6-0.8-2.7
		C512.6,52.3,512.5,51,512.5,49.4z M514.3,49.4c0,2.3,0.2,4,0.6,5.3c0.4,1.2,1.1,1.8,2.1,1.8c0.9,0,1.6-0.6,2-1.7
		c0.4-1.1,0.6-2.9,0.6-5.4c0-2.3-0.2-4-0.6-5.3c-0.4-1.2-1.1-1.9-2.1-1.9c-0.9,0-1.6,0.6-2,1.7C514.5,45.1,514.3,46.9,514.3,49.4z"
		/>
	<path fill="#808080" d="M524.7,56.3h2.7V44.5l0.2-1.4l-0.8,1.2l-2,1.6l-0.9-1.1l4.4-4.1h0.9v15.5h2.6v1.6h-7.1V56.3z"/>
	<path fill="#808080" d="M543.6,52.7h-2.2v5.2h-1.7v-5.2h-5.9v-0.8l6.4-11.1h1.3v10.3h2.2V52.7z M539.6,45.7l0.3-2.1h-0.1l-0.7,1.8
		l-2.6,4.6l-0.9,1.2l1.3-0.2h2.7V45.7z"/>
</g>
<g>
	<path fill="#808080" d="M404.9,68.8c0.7,0,1.2,0.1,1.6,0.4c0.4,0.3,0.6,0.7,0.6,1.2s-0.1,0.8-0.4,0.9c-0.2,0.1-0.6,0.2-0.9,0.2
		h-2.8c-0.2,0-0.3,0-0.3,0.1s-0.1,0.2-0.1,0.5c0,0.8,0.2,1.5,0.7,2.1s1.1,0.9,1.8,0.9c0.7,0,1.3-0.2,1.6-0.7
		c0.1-0.1,0.1-0.1,0.2-0.1c0.1,0,0.1,0.1,0.1,0.4c-0.1,0.3-0.4,0.6-0.8,0.9c-0.5,0.3-1.1,0.5-1.8,0.5s-1.4-0.3-2-1
		c-0.6-0.7-0.8-1.5-0.8-2.6s0.3-1.9,1-2.6C403.1,69.1,403.9,68.8,404.9,68.8z M406,70.4c0-0.3-0.1-0.6-0.4-0.8
		c-0.3-0.2-0.6-0.3-1-0.3s-0.8,0.2-1.1,0.5c-0.4,0.3-0.5,0.6-0.5,0.9c0,0.2,0.1,0.3,0.3,0.3h1.4c0.5,0,0.9,0,1.2-0.1
		C405.9,70.8,406,70.7,406,70.4z"/>
	<path fill="#808080" d="M409.5,70.5l0,0.2c0,0.1-0.2,0.2-0.5,0.4c-0.3,0.1-0.5,0.2-0.7,0.2s-0.2-0.1-0.2-0.2c0-0.4,0.2-0.8,0.6-1.1
		s0.8-0.6,1.3-0.9c0.5-0.3,0.9-0.4,1.3-0.4s0.7,0.1,1,0.4c0.3,0.3,0.4,0.7,0.4,1.1l-0.1,3.7v0.1c0,0.8,0.2,1.2,0.6,1.2
		c0.3,0,0.5-0.1,0.7-0.2c0,0,0.1,0,0.2,0c0.1,0,0.1,0.1,0.1,0.2v0c-0.1,0.1-0.2,0.3-0.5,0.5c-0.3,0.2-0.6,0.3-0.8,0.3
		s-0.5-0.1-0.7-0.2c-0.2-0.1-0.3-0.3-0.4-0.4s-0.1-0.2-0.2-0.2c0,0-0.1,0.1-0.3,0.2c-0.2,0.1-0.4,0.3-0.7,0.4
		c-0.3,0.1-0.7,0.2-1,0.2s-0.7-0.1-1-0.4s-0.5-0.6-0.5-0.9c0-0.7,0.4-1.2,1.2-1.5l1.7-0.7c0.2-0.1,0.3-0.2,0.4-0.2s0.1-0.2,0.1-0.4
		l0-1.1v0c0-0.3-0.1-0.5-0.3-0.8c-0.2-0.2-0.4-0.3-0.6-0.3s-0.5,0.1-0.7,0.2c-0.2,0.1-0.4,0.2-0.4,0.3S409.5,70.4,409.5,70.5z
		 M409.5,74.4c0,0.3,0.1,0.5,0.3,0.7c0.2,0.2,0.4,0.2,0.7,0.2s0.6-0.2,0.9-0.5c0.1-0.1,0.2-0.3,0.2-0.7l0-0.8c0-0.2,0-0.4-0.2-0.4
		c-0.1,0-0.2,0-0.2,0.1C410.1,73.4,409.5,73.8,409.5,74.4z"/>
	<path fill="#808080" d="M416.5,75.8l-1.4,0.1c-0.2,0-0.3-0.1-0.3-0.2s0.1-0.2,0.3-0.3s0.3-0.1,0.4-0.1s0.1-0.1,0.2-0.2
		c0.1-0.1,0.1-0.2,0.1-0.4v-3.7c0-0.7-0.2-1.1-0.7-1.2c-0.1,0-0.1-0.1-0.1-0.2s0-0.2,0.1-0.2c0.4-0.1,0.7-0.2,1-0.3
		c0.4-0.2,0.6-0.4,0.8-0.5c0.1-0.1,0.2-0.1,0.2-0.1c0,0,0,0,0,0s0.1,0,0.1,0.1c0,0.3,0,0.6,0,0.9c0,0.3,0,0.4,0,0.4s0,0,0.1-0.1
		c0.2-0.2,0.3-0.3,0.3-0.3c0.5-0.5,1.1-0.7,1.6-0.7c0.2,0,0.4,0.1,0.6,0.2c0.2,0.1,0.2,0.2,0.2,0.4s-0.1,0.4-0.2,0.6
		c-0.1,0.2-0.3,0.3-0.4,0.3c-0.1,0-0.3-0.1-0.5-0.2c-0.2-0.1-0.4-0.2-0.5-0.2c-0.3,0-0.6,0.1-0.8,0.3s-0.3,0.6-0.3,1.1v3.3
		c0,0.3,0.3,0.5,0.9,0.7c0.3,0.1,0.4,0.2,0.4,0.3s-0.1,0.2-0.3,0.2L416.5,75.8z"/>
	<path fill="#808080" d="M422.1,75.8l-1.4,0.1c-0.2,0-0.3-0.1-0.3-0.2s0.2-0.2,0.5-0.3c0.3-0.1,0.5-0.2,0.6-0.3
		c0.1-0.1,0.1-0.2,0.1-0.3v-8.6c0-0.7-0.3-1.1-0.8-1.2c-0.1,0-0.1-0.1-0.1-0.2c0-0.1,0-0.2,0.1-0.2c0.3-0.1,0.9-0.3,2-0.7h0l0,0
		c0.1,0,0.1,0,0.1,0.1c0,0,0,0.1,0,0.3c-0.1,0.4-0.1,1.1-0.1,2v8.5c0,0.2,0.1,0.4,0.2,0.4c0.1,0.1,0.3,0.1,0.6,0.2
		c0.2,0.1,0.3,0.2,0.3,0.3s-0.1,0.2-0.3,0.2L422.1,75.8z"/>
	<path fill="#808080" d="M430.3,69l1-0.1c0.2,0,0.3,0.1,0.3,0.2c0,0.1-0.1,0.2-0.3,0.3c-0.2,0.1-0.4,0.2-0.6,0.4
		c-0.2,0.2-0.3,0.5-0.5,0.7l-2.3,5.5c0,0-0.1,0.3-0.3,0.7c-0.2,0.4-0.4,0.9-0.7,1.6s-0.5,1.2-0.7,1.7c-0.2,0.5-0.6,0.7-1.1,0.7
		c-0.2,0-0.4-0.1-0.6-0.2c-0.2-0.1-0.3-0.3-0.3-0.4c0-0.3,0.2-0.5,0.5-0.5l0.7,0.1c0.1,0,0.2-0.1,0.3-0.2c0.5-0.9,1-2,1.5-3.4
		c0-0.1,0.1-0.2,0.1-0.4s0-0.3-0.1-0.5l-2-5c-0.2-0.5-0.4-0.7-0.8-0.8c-0.3-0.1-0.4-0.2-0.4-0.3c0-0.1,0.1-0.2,0.3-0.2l1.2,0.1
		l1.3-0.1c0.2,0,0.3,0.1,0.3,0.2c0,0.2-0.2,0.3-0.5,0.4c-0.2,0.1-0.3,0.2-0.3,0.5c0,0.1,0,0.3,0.1,0.5l1.3,3.3
		c0.1,0.2,0.2,0.2,0.3,0l1.1-3c0.1-0.2,0.1-0.4,0.1-0.7s-0.1-0.5-0.4-0.6c-0.3-0.1-0.4-0.2-0.4-0.4c0-0.1,0.1-0.2,0.3-0.2L430.3,69z
		"/>
	<path fill="#808080" d="M437.2,75.8l-1.4,0.1c-0.2,0-0.3-0.1-0.3-0.2s0.1-0.2,0.3-0.3s0.3-0.1,0.4-0.1s0.1-0.1,0.2-0.2
		c0.1-0.1,0.1-0.2,0.1-0.4v-3.7c0-0.7-0.2-1.1-0.7-1.2c-0.1,0-0.1-0.1-0.1-0.2s0-0.2,0.1-0.2c0.4-0.1,0.7-0.2,1-0.3
		c0.4-0.2,0.6-0.4,0.8-0.5c0.1-0.1,0.2-0.1,0.2-0.1c0,0,0,0,0,0s0.1,0,0.1,0.1c0,0.3,0,0.6,0,0.9c0,0.3,0,0.4,0,0.4s0,0,0.1-0.1
		c0.2-0.2,0.3-0.3,0.3-0.3c0.5-0.5,1.1-0.7,1.6-0.7c0.2,0,0.4,0.1,0.6,0.2c0.2,0.1,0.2,0.2,0.2,0.4s-0.1,0.4-0.2,0.6
		c-0.1,0.2-0.3,0.3-0.4,0.3c-0.1,0-0.3-0.1-0.5-0.2c-0.2-0.1-0.4-0.2-0.5-0.2c-0.3,0-0.6,0.1-0.8,0.3s-0.3,0.6-0.3,1.1v3.3
		c0,0.3,0.3,0.5,0.9,0.7c0.3,0.1,0.4,0.2,0.4,0.3s-0.1,0.2-0.3,0.2L437.2,75.8z"/>
	<path fill="#808080" d="M444.5,68.8c0.7,0,1.2,0.1,1.6,0.4c0.4,0.3,0.6,0.7,0.6,1.2s-0.1,0.8-0.4,0.9c-0.2,0.1-0.6,0.2-0.9,0.2
		h-2.8c-0.2,0-0.3,0-0.3,0.1s-0.1,0.2-0.1,0.5c0,0.8,0.2,1.5,0.7,2.1s1.1,0.9,1.8,0.9c0.7,0,1.3-0.2,1.6-0.7
		c0.1-0.1,0.1-0.1,0.2-0.1c0.1,0,0.1,0.1,0.1,0.4c-0.1,0.3-0.4,0.6-0.8,0.9c-0.5,0.3-1.1,0.5-1.8,0.5s-1.4-0.3-2-1
		c-0.6-0.7-0.8-1.5-0.8-2.6s0.3-1.9,1-2.6C442.8,69.1,443.6,68.8,444.5,68.8z M445.7,70.4c0-0.3-0.1-0.6-0.4-0.8
		c-0.3-0.2-0.6-0.3-1-0.3s-0.8,0.2-1.1,0.5c-0.4,0.3-0.5,0.6-0.5,0.9c0,0.2,0.1,0.3,0.3,0.3h1.4c0.5,0,0.9,0,1.2-0.1
		C445.6,70.8,445.7,70.7,445.7,70.4z"/>
	<path fill="#808080" d="M453.6,69.3l0.5,0c0.1,0,0.3,0,0.4,0c0.1,0,0.2,0.1,0.2,0.3s-0.1,0.3-0.2,0.3c-0.4,0-0.7,0-0.7,0
		c-0.1,0-0.1,0-0.1,0.1c0,0-0.1,0-0.1,0c0,0.1-0.1,0.4-0.1,0.8c0,0.9-0.3,1.6-0.8,2.2s-1.2,1-2,1c-0.4,0-0.7-0.1-0.9-0.2
		c-0.5,0.4-0.7,0.7-0.7,0.8c0,0.4,0.5,0.6,1.6,0.7c1.5,0.1,2.3,0.3,2.6,0.4s0.5,0.2,0.7,0.4c0.3,0.2,0.5,0.6,0.5,1.1
		c0,0.9-0.4,1.7-1.2,2.5c-0.8,0.8-1.7,1.1-2.5,1.1c-0.9,0-1.6-0.2-2.2-0.5c-0.6-0.3-0.9-0.8-0.9-1.5c0-0.4,0.1-0.7,0.3-0.9
		s0.5-0.5,0.9-0.8c0.4-0.3,0.7-0.5,0.9-0.8c-0.4-0.1-0.7-0.2-1.1-0.4c-0.3-0.2-0.5-0.5-0.5-0.8c0-0.2,0.1-0.4,0.4-0.6
		c0.1,0,0.2-0.1,0.3-0.2c0.3-0.2,0.5-0.4,0.7-0.6c-0.2,0-0.4-0.2-0.6-0.4c-0.6-0.5-0.8-1.1-0.8-1.9s0.3-1.4,0.9-1.8
		c0.6-0.5,1.3-0.7,2.1-0.7c0.3,0,0.6,0.1,1,0.2C452.6,69.2,453.1,69.3,453.6,69.3z M448.6,78.1c0,0.6,0.2,1.1,0.6,1.4
		s0.9,0.6,1.6,0.6c0.7,0,1.3-0.2,1.8-0.7c0.5-0.5,0.7-1,0.7-1.7c0-0.3-0.1-0.5-0.4-0.7c-0.3-0.2-0.6-0.3-1-0.4
		c-0.4-0.1-0.9-0.1-1.6-0.2h-0.4c-0.1,0.1-0.4,0.4-0.9,0.8C448.8,77.5,448.6,77.8,448.6,78.1z M452.2,71.4c0-0.5-0.2-1-0.5-1.5
		c-0.3-0.4-0.7-0.6-1.1-0.6s-0.8,0.2-1.1,0.6c-0.3,0.4-0.4,0.9-0.4,1.4c0,0.5,0.2,1,0.5,1.4c0.3,0.5,0.7,0.7,1.1,0.7
		c0.4,0,0.8-0.2,1.1-0.6C452.1,72.4,452.2,71.9,452.2,71.4z"/>
	<path fill="#808080" d="M456.8,75.8l-1.4,0.1c-0.2,0-0.3-0.1-0.3-0.2s0.2-0.2,0.5-0.3c0.3-0.1,0.5-0.2,0.6-0.3
		c0.1-0.1,0.1-0.2,0.1-0.3v-3.7c0-0.7-0.3-1.1-0.8-1.2c-0.1,0-0.1-0.1-0.1-0.2c0-0.1,0-0.2,0.1-0.2c0.6-0.1,1.1-0.4,1.7-0.8
		c0.2-0.1,0.3-0.2,0.3-0.2c0.1,0,0.1,0,0.1,0.1c-0.1,1-0.2,1.8-0.2,2.3v3.9c0,0.2,0.1,0.4,0.2,0.4c0.1,0.1,0.3,0.1,0.6,0.2
		c0.2,0.1,0.3,0.2,0.3,0.3s-0.1,0.2-0.3,0.2L456.8,75.8z M456,66.9c-0.2-0.2-0.2-0.4-0.2-0.6c0-0.2,0.1-0.5,0.2-0.6
		c0.2-0.2,0.4-0.2,0.6-0.2s0.5,0.1,0.6,0.2c0.2,0.2,0.2,0.4,0.3,0.6c0,0.2-0.1,0.4-0.3,0.6c-0.2,0.2-0.4,0.2-0.6,0.3
		C456.4,67.1,456.2,67,456,66.9z"/>
	<path fill="#808080" d="M462.5,69.5c-0.2-0.2-0.5-0.3-0.8-0.3c-0.3,0-0.5,0.1-0.7,0.3s-0.3,0.4-0.3,0.7s0.1,0.5,0.3,0.7
		c0.2,0.2,0.4,0.4,0.5,0.5c0.1,0.1,0.4,0.2,0.6,0.4c0.3,0.2,0.5,0.3,0.7,0.5c0.2,0.1,0.4,0.3,0.6,0.7c0.2,0.3,0.3,0.7,0.3,1
		c0,1.4-0.8,2-2.4,2c-0.4,0-0.8-0.1-1.2-0.2c-0.4-0.1-0.6-0.3-0.6-0.4c-0.1-0.3-0.2-0.6-0.2-1c0-0.1,0.1-0.2,0.3-0.2s0.3,0,0.3,0.1
		c0.1,0.3,0.2,0.6,0.6,0.8s0.7,0.4,1,0.4c0.4,0,0.7-0.1,0.8-0.3s0.3-0.5,0.3-0.8s-0.1-0.6-0.3-0.8c-0.2-0.2-0.5-0.5-1-0.8
		c-0.5-0.3-0.9-0.7-1.2-1c-0.3-0.3-0.4-0.7-0.4-1.2s0.2-0.9,0.6-1.3c0.4-0.4,0.9-0.6,1.6-0.6s1.2,0.1,1.4,0.4
		c0.2,0.2,0.3,0.7,0.3,1.3c0,0,0,0.1-0.1,0.1s-0.2,0-0.3-0.1s-0.2-0.2-0.2-0.2C462.8,70,462.7,69.7,462.5,69.5z"/>
	<path fill="#808080" d="M467.5,76.1c-0.6,0-1-0.2-1.3-0.5c-0.3-0.3-0.5-0.8-0.5-1.5v-3.9c0-0.1,0-0.2-0.1-0.2
		c-0.1,0-0.3-0.1-0.5-0.1c0,0-0.1,0-0.1-0.1c-0.1-0.1-0.1-0.2-0.1-0.2c0-0.1,0-0.1,0.1-0.1c0.3-0.1,0.5-0.2,0.8-0.5
		c0.3-0.2,0.5-0.5,0.7-0.7s0.3-0.3,0.3-0.3c0.2,0,0.2,0.1,0.2,0.2l0,0.7c0,0.2,0.1,0.2,0.4,0.2h1.9c0.1,0,0.2,0.1,0.2,0.4
		s-0.1,0.4-0.2,0.4h-1.7c-0.3,0-0.5,0-0.6,0.1c-0.1,0-0.1,0.2-0.1,0.4v3.2c0,0.6,0.1,1,0.3,1.2c0.2,0.2,0.5,0.4,0.8,0.4
		c0.6,0,1-0.1,1.3-0.3c0,0,0.1,0,0.1,0c0,0.1,0.1,0.1,0.1,0.2c0,0.1-0.1,0.2-0.3,0.4c-0.2,0.2-0.4,0.3-0.8,0.5
		C468.1,76,467.8,76.1,467.5,76.1z"/>
	<path fill="#808080" d="M471.8,75.8l-1.4,0.1c-0.2,0-0.3-0.1-0.3-0.2s0.1-0.2,0.3-0.3s0.3-0.1,0.4-0.1s0.1-0.1,0.2-0.2
		c0.1-0.1,0.1-0.2,0.1-0.4v-3.7c0-0.7-0.2-1.1-0.7-1.2c-0.1,0-0.1-0.1-0.1-0.2s0-0.2,0.1-0.2c0.4-0.1,0.7-0.2,1-0.3
		c0.4-0.2,0.6-0.4,0.8-0.5c0.1-0.1,0.2-0.1,0.2-0.1c0,0,0,0,0,0s0.1,0,0.1,0.1c0,0.3,0,0.6,0,0.9c0,0.3,0,0.4,0,0.4s0,0,0.1-0.1
		c0.2-0.2,0.3-0.3,0.3-0.3c0.5-0.5,1.1-0.7,1.6-0.7c0.2,0,0.4,0.1,0.6,0.2c0.2,0.1,0.2,0.2,0.2,0.4s-0.1,0.4-0.2,0.6
		c-0.1,0.2-0.3,0.3-0.4,0.3c-0.1,0-0.3-0.1-0.5-0.2c-0.2-0.1-0.4-0.2-0.5-0.2c-0.3,0-0.6,0.1-0.8,0.3s-0.3,0.6-0.3,1.1v3.3
		c0,0.3,0.3,0.5,0.9,0.7c0.3,0.1,0.4,0.2,0.4,0.3s-0.1,0.2-0.3,0.2L471.8,75.8z"/>
	<path fill="#808080" d="M477.3,70.5l0,0.2c0,0.1-0.2,0.2-0.5,0.4c-0.3,0.1-0.5,0.2-0.7,0.2s-0.2-0.1-0.2-0.2c0-0.4,0.2-0.8,0.6-1.1
		s0.8-0.6,1.3-0.9c0.5-0.3,0.9-0.4,1.3-0.4s0.7,0.1,1,0.4c0.3,0.3,0.4,0.7,0.4,1.1l-0.1,3.7v0.1c0,0.8,0.2,1.2,0.6,1.2
		c0.3,0,0.5-0.1,0.7-0.2c0,0,0.1,0,0.2,0c0.1,0,0.1,0.1,0.1,0.2v0c-0.1,0.1-0.2,0.3-0.5,0.5c-0.3,0.2-0.6,0.3-0.8,0.3
		s-0.5-0.1-0.7-0.2c-0.2-0.1-0.3-0.3-0.4-0.4s-0.1-0.2-0.2-0.2c0,0-0.1,0.1-0.3,0.2c-0.2,0.1-0.4,0.3-0.7,0.4
		c-0.3,0.1-0.7,0.2-1,0.2s-0.7-0.1-1-0.4s-0.5-0.6-0.5-0.9c0-0.7,0.4-1.2,1.2-1.5l1.7-0.7c0.2-0.1,0.3-0.2,0.4-0.2s0.1-0.2,0.1-0.4
		l0-1.1v0c0-0.3-0.1-0.5-0.3-0.8c-0.2-0.2-0.4-0.3-0.6-0.3s-0.5,0.1-0.7,0.2c-0.2,0.1-0.4,0.2-0.4,0.3S477.3,70.4,477.3,70.5z
		 M477.3,74.4c0,0.3,0.1,0.5,0.3,0.7c0.2,0.2,0.4,0.2,0.7,0.2s0.6-0.2,0.9-0.5c0.1-0.1,0.2-0.3,0.2-0.7l0-0.8c0-0.2,0-0.4-0.2-0.4
		c-0.1,0-0.2,0-0.2,0.1C477.8,73.4,477.3,73.8,477.3,74.4z"/>
	<path fill="#808080" d="M485.3,76.1c-0.6,0-1-0.2-1.3-0.5c-0.3-0.3-0.5-0.8-0.5-1.5v-3.9c0-0.1,0-0.2-0.1-0.2
		c-0.1,0-0.3-0.1-0.5-0.1c0,0-0.1,0-0.1-0.1c-0.1-0.1-0.1-0.2-0.1-0.2c0-0.1,0-0.1,0.1-0.1c0.3-0.1,0.5-0.2,0.8-0.5
		c0.3-0.2,0.5-0.5,0.7-0.7s0.3-0.3,0.3-0.3c0.2,0,0.2,0.1,0.2,0.2l0,0.7c0,0.2,0.1,0.2,0.4,0.2h1.9c0.1,0,0.2,0.1,0.2,0.4
		s-0.1,0.4-0.2,0.4h-1.7c-0.3,0-0.5,0-0.6,0.1c-0.1,0-0.1,0.2-0.1,0.4v3.2c0,0.6,0.1,1,0.3,1.2c0.2,0.2,0.5,0.4,0.8,0.4
		c0.6,0,1-0.1,1.3-0.3c0,0,0.1,0,0.1,0c0,0.1,0.1,0.1,0.1,0.2c0,0.1-0.1,0.2-0.3,0.4c-0.2,0.2-0.4,0.3-0.8,0.5
		C485.9,76,485.6,76.1,485.3,76.1z"/>
	<path fill="#808080" d="M489.5,75.8l-1.4,0.1c-0.2,0-0.3-0.1-0.3-0.2s0.2-0.2,0.5-0.3c0.3-0.1,0.5-0.2,0.6-0.3
		c0.1-0.1,0.1-0.2,0.1-0.3v-3.7c0-0.7-0.3-1.1-0.8-1.2c-0.1,0-0.1-0.1-0.1-0.2c0-0.1,0-0.2,0.1-0.2c0.6-0.1,1.1-0.4,1.7-0.8
		c0.2-0.1,0.3-0.2,0.3-0.2c0.1,0,0.1,0,0.1,0.1c-0.1,1-0.2,1.8-0.2,2.3v3.9c0,0.2,0.1,0.4,0.2,0.4c0.1,0.1,0.3,0.1,0.6,0.2
		c0.2,0.1,0.3,0.2,0.3,0.3s-0.1,0.2-0.3,0.2L489.5,75.8z M488.8,66.9c-0.2-0.2-0.2-0.4-0.2-0.6c0-0.2,0.1-0.5,0.2-0.6
		c0.2-0.2,0.4-0.2,0.6-0.2s0.5,0.1,0.6,0.2c0.2,0.2,0.2,0.4,0.3,0.6c0,0.2-0.1,0.4-0.3,0.6c-0.2,0.2-0.4,0.2-0.6,0.3
		C489.2,67.1,489,67,488.8,66.9z"/>
	<path fill="#808080" d="M492.2,72.7c0-1,0.4-1.9,1.1-2.7c0.7-0.8,1.6-1.2,2.6-1.2c1,0,1.8,0.3,2.5,1c0.7,0.7,1,1.5,1,2.5
		c0,1-0.3,1.9-1,2.6c-0.7,0.8-1.6,1.1-2.8,1.1c-1,0-1.8-0.3-2.4-1C492.5,74.5,492.2,73.6,492.2,72.7z M495.6,69.3c-1.4,0-2,1-2,2.9
		c0,0.9,0.2,1.6,0.7,2.3s1,1,1.7,1c0.8,0,1.4-0.3,1.8-0.9c0.2-0.4,0.3-1.1,0.3-2c0-0.9-0.2-1.6-0.7-2.3S496.3,69.3,495.6,69.3z"/>
	<path fill="#808080" d="M506.9,75.8l-1.4,0.1c-0.2,0-0.3-0.1-0.3-0.2s0.1-0.2,0.4-0.3c0,0,0,0,0.1,0c0.4-0.1,0.6-0.3,0.6-0.5
		c0-0.1,0-0.1,0-0.2v-3.6c0-0.5-0.1-0.9-0.4-1.2s-0.7-0.4-1.2-0.4s-1,0.1-1.4,0.4c-0.4,0.2-0.5,0.7-0.5,1.3v3.5
		c0,0.2,0.1,0.4,0.2,0.4c0.1,0.1,0.3,0.1,0.6,0.2c0.2,0.1,0.3,0.2,0.3,0.3s-0.1,0.2-0.3,0.2l-1.4-0.1l-1.4,0.1
		c-0.2,0-0.3-0.1-0.3-0.2s0.1-0.2,0.3-0.3c0.2-0.1,0.3-0.1,0.3-0.1s0.1,0,0.2-0.1c0.1,0,0.1-0.1,0.2-0.1c0.1-0.1,0.2-0.3,0.2-0.4
		v-3.7c0-0.7-0.2-1.1-0.7-1.2c-0.1,0-0.1-0.1-0.1-0.2c0-0.1,0-0.2,0.1-0.2c0.6-0.1,1.2-0.4,1.9-0.9c0,0,0,0,0.1,0s0.1,0.1,0.1,0.2
		l-0.1,1.1c0,0.1,0,0.1,0,0.1c0.3-0.3,0.7-0.5,1.3-0.8s1.1-0.4,1.6-0.4s0.9,0.2,1.3,0.7s0.6,1,0.6,1.7v3.6c0,0.2,0.1,0.4,0.2,0.4
		c0.1,0.1,0.3,0.1,0.6,0.2c0.2,0.1,0.3,0.2,0.3,0.3s-0.1,0.2-0.3,0.2L506.9,75.8z"/>
	<path fill="#808080" d="M516.3,68.8c0.7,0,1.2,0.1,1.6,0.4c0.4,0.3,0.6,0.7,0.6,1.2s-0.1,0.8-0.4,0.9c-0.2,0.1-0.6,0.2-0.9,0.2
		h-2.8c-0.2,0-0.3,0-0.3,0.1s-0.1,0.2-0.1,0.5c0,0.8,0.2,1.5,0.7,2.1s1.1,0.9,1.8,0.9c0.7,0,1.3-0.2,1.6-0.7
		c0.1-0.1,0.1-0.1,0.2-0.1c0.1,0,0.1,0.1,0.1,0.4c-0.1,0.3-0.4,0.6-0.8,0.9c-0.5,0.3-1.1,0.5-1.8,0.5s-1.4-0.3-2-1
		c-0.6-0.7-0.8-1.5-0.8-2.6s0.3-1.9,1-2.6C514.5,69.1,515.3,68.8,516.3,68.8z M517.4,70.4c0-0.3-0.1-0.6-0.4-0.8
		c-0.3-0.2-0.6-0.3-1-0.3s-0.8,0.2-1.1,0.5c-0.4,0.3-0.5,0.6-0.5,0.9c0,0.2,0.1,0.3,0.3,0.3h1.4c0.5,0,0.9,0,1.2-0.1
		C517.3,70.8,517.4,70.7,517.4,70.4z"/>
	<path fill="#808080" d="M525.8,75.8l-1.4,0.1c-0.2,0-0.3-0.1-0.3-0.2s0.1-0.2,0.4-0.3c0,0,0,0,0.1,0c0.4-0.1,0.6-0.3,0.6-0.5
		c0-0.1,0-0.1,0-0.2v-3.6c0-0.5-0.1-0.9-0.4-1.2s-0.7-0.4-1.2-0.4s-1,0.1-1.4,0.4c-0.4,0.2-0.5,0.7-0.5,1.3v3.5
		c0,0.2,0.1,0.4,0.2,0.4c0.1,0.1,0.3,0.1,0.6,0.2c0.2,0.1,0.3,0.2,0.3,0.3s-0.1,0.2-0.3,0.2l-1.4-0.1l-1.4,0.1
		c-0.2,0-0.3-0.1-0.3-0.2s0.1-0.2,0.3-0.3c0.2-0.1,0.3-0.1,0.3-0.1s0.1,0,0.2-0.1c0.1,0,0.1-0.1,0.2-0.1c0.1-0.1,0.2-0.3,0.2-0.4
		v-3.7c0-0.7-0.2-1.1-0.7-1.2c-0.1,0-0.1-0.1-0.1-0.2c0-0.1,0-0.2,0.1-0.2c0.6-0.1,1.2-0.4,1.9-0.9c0,0,0,0,0.1,0s0.1,0.1,0.1,0.2
		l-0.1,1.1c0,0.1,0,0.1,0,0.1c0.3-0.3,0.7-0.5,1.3-0.8s1.1-0.4,1.6-0.4s0.9,0.2,1.3,0.7s0.6,1,0.6,1.7v3.6c0,0.2,0.1,0.4,0.2,0.4
		c0.1,0.1,0.3,0.1,0.6,0.2c0.2,0.1,0.3,0.2,0.3,0.3s-0.1,0.2-0.3,0.2L525.8,75.8z"/>
	<path fill="#808080" d="M533.8,76.1l0.1-1.1v-0.1c-0.2,0.3-0.5,0.6-0.9,0.8c-0.4,0.2-0.8,0.4-1.3,0.4c-0.9,0-1.7-0.4-2.3-1.1
		c-0.6-0.7-0.9-1.5-0.9-2.5c0-1,0.4-1.8,1.1-2.6c0.7-0.8,1.6-1.1,2.8-1.1c0.2,0,0.5,0,0.8,0.1c0.3,0.1,0.5,0.2,0.6,0.3
		c0.1,0.1,0.1,0.1,0.2,0.1c0,0,0.1-0.1,0.1-0.4v-2.7c0-0.4-0.1-0.7-0.2-0.9c-0.1-0.2-0.4-0.3-0.7-0.3c-0.1,0-0.1-0.1-0.1-0.2
		c0-0.1,0-0.2,0.1-0.2c0.4-0.1,0.9-0.2,1.3-0.4c0.4-0.2,0.7-0.3,0.8-0.3s0.1,0,0.1,0.1c0,0.1,0,0.2,0,0.3c-0.1,0.6-0.1,1.3-0.1,2V74
		c0,0.7,0.1,1.1,0.4,1.1c0.4,0,0.6,0,0.8-0.1c0.2,0,0.3,0,0.3,0.2c0,0.2-0.1,0.3-0.2,0.3c-0.6,0.1-1.1,0.2-1.5,0.4
		c-0.4,0.2-0.7,0.3-0.8,0.3S533.8,76.1,533.8,76.1z M531.8,69.4c-0.4,0-0.8,0.2-1.3,0.5c-0.2,0.2-0.4,0.5-0.6,0.9
		c-0.1,0.4-0.2,0.9-0.2,1.4s0.1,1.1,0.3,1.5c0.2,0.4,0.4,0.8,0.7,1c0.5,0.4,1,0.6,1.5,0.6c0.5,0,0.9-0.1,1.2-0.4
		c0.3-0.3,0.5-0.7,0.5-1.1v-2.3c0-0.5-0.2-1-0.6-1.4C532.9,69.6,532.4,69.4,531.8,69.4z"/>
	<path fill="#808080" d="M540.2,69.5c-0.2-0.2-0.5-0.3-0.8-0.3c-0.3,0-0.5,0.1-0.7,0.3s-0.3,0.4-0.3,0.7s0.1,0.5,0.3,0.7
		c0.2,0.2,0.4,0.4,0.5,0.5c0.1,0.1,0.4,0.2,0.6,0.4c0.3,0.2,0.5,0.3,0.7,0.5c0.2,0.1,0.4,0.3,0.6,0.7c0.2,0.3,0.3,0.7,0.3,1
		c0,1.4-0.8,2-2.4,2c-0.4,0-0.8-0.1-1.2-0.2c-0.4-0.1-0.6-0.3-0.6-0.4c-0.1-0.3-0.2-0.6-0.2-1c0-0.1,0.1-0.2,0.3-0.2s0.3,0,0.3,0.1
		c0.1,0.3,0.2,0.6,0.6,0.8s0.7,0.4,1,0.4c0.4,0,0.7-0.1,0.8-0.3s0.3-0.5,0.3-0.8s-0.1-0.6-0.3-0.8c-0.2-0.2-0.5-0.5-1-0.8
		c-0.5-0.3-0.9-0.7-1.2-1c-0.3-0.3-0.4-0.7-0.4-1.2s0.2-0.9,0.6-1.3c0.4-0.4,0.9-0.6,1.6-0.6s1.2,0.1,1.4,0.4
		c0.2,0.2,0.3,0.7,0.3,1.3c0,0,0,0.1-0.1,0.1s-0.2,0-0.3-0.1s-0.2-0.2-0.2-0.2C540.6,70,540.5,69.7,540.2,69.5z"/>
</g>
<rect x="1" y="9.5" fill="none" stroke="#000000" stroke-width="2" stroke-miterlimit="10" width="938" height="24"/>
</svg>
