<?xml version="1.0" encoding="utf-8"?>
<!-- Generator: Adobe Illustrator 18.0.0, SVG Export Plug-In . SVG Version: 6.00 Build 0)  -->
<!DOCTYPE svg PUBLIC "-//W3C//DTD SVG 1.1//EN" "http://www.w3.org/Graphics/SVG/1.1/DTD/svg11.dtd">
<svg version="1.1" id="Layer_1" xmlns="http://www.w3.org/2000/svg" xmlns:xlink="http://www.w3.org/1999/xlink" x="0px" y="0px"
	 viewBox="0 0 940 90" enable-background="new 0 0 940 90" xml:space="preserve">
<rect y="9.5" opacity="0.5" fill="#BDCCD4" width="40" height="24"/>
<rect x="1" y="9.5" fill="none" stroke="#000000" stroke-width="2" stroke-miterlimit="10" width="938" height="24"/>
<line fill="none" x1="1" y1="32.5" x2="1" y2="80.5"/>
<line fill="none" stroke="#000000" stroke-width="2" stroke-miterlimit="10" x1="550" y1="32.5" x2="550" y2="80.5"/>
<line fill="none" stroke="#000000" stroke-width="2" stroke-miterlimit="10" x1="710" y1="32.5" x2="710" y2="80.5"/>
<line fill="none" stroke="#000000" stroke-width="2" stroke-miterlimit="10" x1="939" y1="32.5" x2="939" y2="80.5"/>
<g>
	<path d="M803.4,56.3h2.7V44.5l0.2-1.4l-0.8,1.2l-2,1.6l-0.9-1.1l4.4-4.1h0.9v15.5h2.6v1.6h-7.1V56.3z"/>
	<path d="M820.6,41v1.7H816v4.9l0.8-0.1c1.3,0,2.3,0.5,3,1.3c0.7,0.9,1.1,2.1,1.1,3.7c0,0.9-0.1,1.7-0.4,2.4s-0.6,1.3-1,1.7
		c-0.4,0.5-0.9,0.8-1.5,1.1c-0.6,0.2-1.2,0.4-1.8,0.4c-1.1,0-2-0.1-2.7-0.4l0.4-1.5c0.3,0.1,0.6,0.2,1,0.3s0.8,0.1,1.2,0.1
		c0.9,0,1.7-0.3,2.2-1c0.6-0.7,0.9-1.6,0.9-2.8c0-1.2-0.3-2.2-0.9-2.8c-0.6-0.6-1.4-0.9-2.4-0.9l-1.6,0.1V41H820.6z"/>
	<path d="M830.1,41h1.8v13c0,1.3-0.2,2.3-0.6,3c-0.4,0.7-1.2,1-2.2,1c-0.3,0-0.6,0-0.9-0.1c-0.4-0.1-0.7-0.2-0.9-0.3l0.4-1.6
		c0.2,0.1,0.3,0.2,0.5,0.2c0.2,0,0.4,0.1,0.6,0.1c0.3,0,0.5-0.1,0.7-0.2c0.2-0.1,0.3-0.3,0.4-0.5c0.1-0.2,0.2-0.5,0.2-0.8
		c0-0.3,0-0.7,0-1.1V41z"/>
	<path d="M835,46.6c0.5-0.3,1-0.5,1.7-0.7c0.7-0.2,1.4-0.2,2.1-0.2c0.7,0,1.2,0.1,1.6,0.3c0.4,0.2,0.7,0.5,1,0.8
		c0.2,0.3,0.4,0.7,0.5,1.2s0.1,0.9,0.1,1.4c0,1,0,1.9-0.1,2.8s-0.1,1.8-0.1,2.6c0,0.6,0,1.2,0.1,1.7c0,0.5,0.1,1,0.2,1.5h-1.4
		l-0.4-1.4h-0.1c-0.2,0.4-0.6,0.8-1,1.1c-0.5,0.3-1.1,0.5-1.9,0.5c-0.9,0-1.6-0.3-2.1-0.9s-0.8-1.4-0.8-2.5c0-0.7,0.1-1.3,0.3-1.7
		s0.6-0.8,1-1.1c0.4-0.3,0.9-0.5,1.5-0.6s1.2-0.2,1.9-0.2c0.2,0,0.3,0,0.5,0c0.2,0,0.3,0,0.5,0c0-0.5,0.1-0.9,0.1-1.3
		c0-0.9-0.1-1.6-0.4-1.9c-0.3-0.4-0.8-0.6-1.5-0.6c-0.4,0-0.9,0.1-1.5,0.2c-0.5,0.1-1,0.3-1.3,0.5L835,46.6z M840.1,52.4
		c-0.2,0-0.3,0-0.5,0s-0.3,0-0.5,0c-0.4,0-0.8,0-1.1,0.1c-0.4,0.1-0.7,0.2-1,0.3c-0.3,0.2-0.5,0.4-0.7,0.6s-0.2,0.6-0.2,1
		c0,0.6,0.2,1.1,0.5,1.5c0.3,0.4,0.7,0.5,1.2,0.5c0.7,0,1.2-0.2,1.5-0.5c0.4-0.3,0.6-0.7,0.8-1.1V52.4z"/>
	<path d="M850.8,57.8v-7.3c0-1.2-0.1-2.1-0.4-2.6c-0.3-0.5-0.8-0.8-1.5-0.8c-0.6,0-1.2,0.2-1.6,0.6c-0.4,0.4-0.7,0.9-0.9,1.4v8.7
		h-1.7v-12h1.2l0.3,1.3h0.1c0.3-0.4,0.7-0.8,1.2-1.1c0.5-0.3,1.1-0.5,1.9-0.5c0.5,0,1,0.1,1.4,0.2c0.4,0.1,0.7,0.4,1,0.7
		c0.3,0.3,0.5,0.8,0.6,1.4s0.2,1.3,0.2,2.2v7.8H850.8z"/>
	<path d="M856.8,45.8v7.3c0,1.2,0.1,2.1,0.4,2.6s0.7,0.8,1.4,0.8c0.3,0,0.6-0.1,0.9-0.2c0.3-0.1,0.5-0.3,0.7-0.5
		c0.2-0.2,0.4-0.5,0.6-0.8c0.2-0.3,0.3-0.6,0.4-0.9v-8.3h1.7v8.6c0,0.6,0,1.2,0.1,1.8c0,0.6,0.1,1.2,0.2,1.6h-1.2l-0.4-1.7h-0.1
		c-0.3,0.5-0.7,1-1.2,1.4c-0.5,0.4-1.2,0.6-1.9,0.6c-0.5,0-1-0.1-1.3-0.2c-0.4-0.1-0.7-0.4-1-0.7c-0.3-0.3-0.5-0.8-0.6-1.4
		c-0.1-0.6-0.2-1.3-0.2-2.2v-7.8H856.8z"/>
	<path d="M865.5,46.6c0.5-0.3,1-0.5,1.7-0.7c0.7-0.2,1.4-0.2,2.1-0.2c0.7,0,1.2,0.1,1.6,0.3c0.4,0.2,0.7,0.5,1,0.8
		c0.2,0.3,0.4,0.7,0.5,1.2s0.1,0.9,0.1,1.4c0,1,0,1.9-0.1,2.8s-0.1,1.8-0.1,2.6c0,0.6,0,1.2,0.1,1.7c0,0.5,0.1,1,0.2,1.5h-1.4
		l-0.4-1.4h-0.1c-0.2,0.4-0.6,0.8-1,1.1c-0.5,0.3-1.1,0.5-1.9,0.5c-0.9,0-1.6-0.3-2.1-0.9s-0.8-1.4-0.8-2.5c0-0.7,0.1-1.3,0.3-1.7
		s0.6-0.8,1-1.1c0.4-0.3,0.9-0.5,1.5-0.6s1.2-0.2,1.9-0.2c0.2,0,0.3,0,0.5,0c0.2,0,0.3,0,0.5,0c0-0.5,0.1-0.9,0.1-1.3
		c0-0.9-0.1-1.6-0.4-1.9c-0.3-0.4-0.8-0.6-1.5-0.6c-0.4,0-0.9,0.1-1.5,0.2c-0.5,0.1-1,0.3-1.3,0.5L865.5,46.6z M870.7,52.4
		c-0.2,0-0.3,0-0.5,0s-0.3,0-0.5,0c-0.4,0-0.8,0-1.1,0.1c-0.4,0.1-0.7,0.2-1,0.3c-0.3,0.2-0.5,0.4-0.7,0.6s-0.2,0.6-0.2,1
		c0,0.6,0.2,1.1,0.5,1.5c0.3,0.4,0.7,0.5,1.2,0.5c0.7,0,1.2-0.2,1.5-0.5c0.4-0.3,0.6-0.7,0.8-1.1V52.4z"/>
	<path d="M875.2,45.8h1.2l0.3,1.3h0.1c0.2-0.5,0.5-0.8,0.9-1.1c0.4-0.3,0.8-0.4,1.3-0.4c0.4,0,0.8,0.1,1.2,0.2l-0.3,1.8
		c-0.4-0.1-0.8-0.2-1.1-0.2c-0.5,0-0.9,0.1-1.2,0.4c-0.3,0.3-0.5,0.7-0.6,1.2v8.8h-1.7V45.8z"/>
	<path d="M884.8,53.6l0.5,2.3h0.1l0.4-2.3l1.8-7.8h1.8l-2.9,10.8c-0.2,0.9-0.4,1.7-0.7,2.4c-0.2,0.8-0.5,1.4-0.7,2
		c-0.3,0.6-0.6,1-0.9,1.3s-0.7,0.5-1.2,0.5s-0.8-0.1-1.2-0.2l0.3-1.6c0.2,0.1,0.4,0.1,0.7,0c0.2,0,0.4-0.2,0.6-0.4s0.4-0.6,0.6-1
		s0.3-1,0.4-1.7l-3.9-12h2L884.8,53.6z"/>
	<path d="M902.9,57.8h-7.8v-0.8c0.3-0.4,0.7-0.8,1-1.4c0.4-0.6,0.8-1.2,1.2-1.8c0.4-0.7,0.8-1.4,1.2-2.1s0.8-1.5,1.1-2.3
		s0.6-1.5,0.8-2.3s0.3-1.5,0.3-2.2c0-0.8-0.2-1.5-0.6-2c-0.4-0.5-0.9-0.7-1.7-0.7c-0.5,0-0.9,0.1-1.4,0.3c-0.4,0.2-0.8,0.4-1.1,0.6
		l-0.7-1.2c0.4-0.4,1-0.7,1.6-0.9c0.6-0.2,1.3-0.3,2-0.3c1.2,0,2.1,0.4,2.7,1.1c0.6,0.7,0.9,1.7,0.9,2.9c0,0.9-0.1,1.8-0.4,2.8
		c-0.3,1-0.6,1.9-1,2.9c-0.4,0.9-0.9,1.8-1.4,2.7s-1,1.6-1.5,2.3l-1,1.1v0.1l1.3-0.2h4.2V57.8z"/>
	<path d="M905.5,49.4c0-1.5,0.1-2.9,0.3-4c0.2-1.1,0.5-2,0.9-2.7c0.4-0.7,0.9-1.2,1.4-1.5c0.6-0.3,1.2-0.5,1.9-0.5
		c0.8,0,1.4,0.2,2,0.5c0.6,0.3,1,0.8,1.4,1.5c0.4,0.7,0.6,1.6,0.8,2.7c0.2,1.1,0.3,2.4,0.3,4c0,1.6-0.1,2.9-0.3,4
		c-0.2,1.1-0.5,2-0.9,2.7c-0.4,0.7-0.9,1.2-1.4,1.5s-1.2,0.5-1.9,0.5c-0.8,0-1.5-0.2-2-0.5c-0.6-0.3-1-0.9-1.4-1.6s-0.6-1.6-0.8-2.7
		C905.6,52.3,905.5,51,905.5,49.4z M907.3,49.4c0,2.3,0.2,4,0.6,5.3c0.4,1.2,1.1,1.8,2.1,1.8c0.9,0,1.6-0.6,2-1.7
		c0.4-1.1,0.6-2.9,0.6-5.4c0-2.3-0.2-4-0.6-5.3c-0.4-1.2-1.1-1.9-2.1-1.9c-0.9,0-1.6,0.6-2,1.7C907.5,45.1,907.3,46.9,907.3,49.4z"
		/>
	<path d="M917.7,56.3h2.7V44.5l0.2-1.4l-0.8,1.2l-2,1.6l-0.9-1.1l4.4-4.1h0.9v15.5h2.6v1.6h-7.1V56.3z"/>
	<path d="M934.8,41v1.7h-4.6v4.9l0.8-0.1c1.3,0,2.3,0.5,3,1.3c0.7,0.9,1.1,2.1,1.1,3.7c0,0.9-0.1,1.7-0.4,2.4s-0.6,1.3-1,1.7
		c-0.4,0.5-0.9,0.8-1.5,1.1c-0.6,0.2-1.2,0.4-1.8,0.4c-1.1,0-2-0.1-2.7-0.4l0.4-1.5c0.3,0.1,0.6,0.2,1,0.3s0.8,0.1,1.2,0.1
		c0.9,0,1.7-0.3,2.2-1c0.6-0.7,0.9-1.6,0.9-2.8c0-1.2-0.3-2.2-0.9-2.8c-0.6-0.6-1.4-0.9-2.4-0.9l-1.6,0.1V41H934.8z"/>
</g>
<g>
	<path d="M843,69.2c0.2,0,0.3,0,0.3,0.1c0,0.1-0.2,0.1-0.3,0.1c-0.4,0.1-0.4,0.2-0.3,0.5c0.3,0.8,1,2.9,1.5,3.9c0,0.1,0.1,0.1,0.1,0
		c0.3-0.6,1.1-2.4,1.3-2.8c0-0.1,0.1-0.2,0-0.3c-0.1-0.2-0.2-0.5-0.3-0.7c-0.1-0.3-0.3-0.5-0.7-0.6c-0.2,0-0.3-0.1-0.3-0.1
		c0-0.1,0.1-0.1,0.3-0.1c0.4,0,0.8,0.1,1.2,0.1c0.5,0,0.7,0,1.1,0c0.2,0,0.3,0,0.3,0.1c0,0.1-0.1,0.1-0.3,0.2
		c-0.4,0.1-0.5,0.2-0.3,0.7c0.2,0.6,1.2,3.2,1.4,3.7c0.1,0.1,0.1,0,0.1,0c0.2-0.5,1.1-2.5,1.3-3.1c0.2-0.4,0.3-0.7,0.3-0.9
		c0-0.2-0.1-0.3-0.5-0.5c-0.2-0.1-0.3-0.1-0.3-0.2c0-0.1,0.1-0.1,0.2-0.1c0.3,0,0.6,0.1,0.9,0.1c0.2,0,0.6-0.1,0.9-0.1
		c0.2,0,0.3,0,0.3,0.1c0,0.1-0.1,0.1-0.3,0.2c-0.3,0.1-0.5,0.3-0.8,0.8c-0.3,0.6-0.9,1.9-1.4,3.2c-0.3,0.7-0.6,1.5-0.8,2.1
		c-0.1,0.3-0.2,0.3-0.2,0.3c-0.1,0-0.1-0.1-0.2-0.3c-0.1-0.3-0.2-0.6-0.4-1.2c-0.3-1-0.7-2-1.1-3c0-0.1-0.1-0.1-0.1,0
		c-0.2,0.3-0.9,2-1.2,2.6c-0.3,0.6-0.4,1-0.6,1.5c-0.1,0.3-0.2,0.3-0.3,0.3c-0.1,0-0.1-0.1-0.2-0.3c-0.1-0.3-0.2-0.7-0.5-1.5
		c-0.3-0.9-1.4-3.5-1.5-3.9c-0.1-0.3-0.3-0.6-0.8-0.7c-0.1,0-0.3-0.1-0.3-0.1c0-0.1,0.1-0.1,0.3-0.1c0.2,0,0.8,0.1,1.3,0.1
		C842.3,69.3,842.7,69.2,843,69.2z"/>
	<path d="M858.1,72.5c0,1.4-0.8,2.3-1.4,2.8c-0.6,0.4-1.4,0.7-2,0.7c-1.9,0-3.5-1.5-3.5-3.3c0-1.4,0.6-2.3,1.3-2.8
		c0.5-0.4,1.3-0.8,2.2-0.8C856.6,69.1,858.1,70.6,858.1,72.5z M852.5,72.2c0,0.8,0.2,1.7,0.8,2.5c0.5,0.7,1.1,1,1.7,1
		c0.4,0,0.8-0.2,1.1-0.5c0.3-0.3,0.8-1.1,0.8-2.4c0-1.7-0.9-3.4-2.4-3.4C853.5,69.4,852.5,70.3,852.5,72.2z"/>
	<path d="M861.5,70.4c-0.2,0.2-0.3,0.4-0.3,0.6c0,0.2,0,0.7,0,1.1c0,1.3,0,2.3,0.1,2.6c0.1,0.6,0.3,0.7,1,0.8c0.3,0,0.3,0.1,0.3,0.2
		c0,0.1-0.2,0.1-0.4,0.1c-0.3,0-0.9-0.1-1.7-0.1c-0.6,0-0.8,0.1-1.1,0.1c-0.2,0-0.3,0-0.3-0.1c0-0.1,0.1-0.1,0.3-0.2
		c0.4-0.1,0.6-0.3,0.6-0.7c0-0.3,0.1-1.3,0.1-2.5c0-1.1,0-1.7,0-2c0-0.1-0.1-0.2-0.5-0.5c-0.1-0.1-0.1-0.1-0.1-0.2
		c0,0,0.1-0.1,0.3-0.2c0.4-0.1,0.9-0.3,1.2-0.4c0.1-0.1,0.2-0.1,0.3-0.1c0,0,0.1,0.1,0.1,0.3c0,0.2,0,0.9,0,1.2c0,0.1,0,0.1,0.1,0
		c0.5-0.6,1.2-1.3,1.9-1.3c0.2,0,0.5,0.1,0.6,0.2c0.1,0.1,0.1,0.2,0.1,0.3c0,0.1-0.2,0.4-0.4,0.6c-0.2,0.1-0.2,0.2-0.3,0.2
		c0,0-0.1,0-0.3-0.1c-0.2-0.1-0.4-0.2-0.6-0.2C862,70,861.7,70.2,861.5,70.4z"/>
	<path d="M869.3,69.3c0.4,0,1.1-0.1,1.6-0.1c0.2,0,0.3,0.1,0.3,0.1c0,0-0.1,0.1-0.3,0.1c-0.6,0.1-0.9,0.2-1.7,0.8
		c-0.5,0.4-1.4,1.1-1.7,1.4c0,0,0,0.1,0,0.1c0.5,0.6,1.8,2,2.7,2.9c0.5,0.5,0.8,0.7,1.3,0.8c0.2,0,0.3,0.1,0.3,0.2
		c0,0.1-0.2,0.1-0.3,0.1c-0.6,0-1.3-0.1-2-0.1c-0.3,0-0.5,0-0.8,0c-0.2,0-0.3,0-0.3-0.1c0-0.1,0.1-0.1,0.4-0.2
		c0.3-0.1,0.3-0.2,0.2-0.5c-0.4-0.4-1.7-1.8-2.2-2.3c-0.1-0.1-0.3-0.3-0.3-0.3c-0.1,0-0.1,0.1-0.1,0.2c0,0.3,0,0.9,0,1.9
		c0,0.9,0.1,0.9,0.7,1c0.2,0.1,0.3,0.1,0.3,0.2c0,0.1-0.1,0.1-0.3,0.1c-0.5,0-0.9-0.1-1.4-0.1c-0.6,0-1,0.1-1.2,0.1
		c-0.2,0-0.3-0.1-0.3-0.1c0-0.1,0.1-0.1,0.2-0.1c0.6-0.1,0.7-0.3,0.7-0.9c0.1-1.3,0.1-2.8,0.1-4.2c0-1.4,0.1-3.7,0.1-5.1
		c0-0.4,0-0.6-0.1-0.8c0-0.1-0.2-0.3-0.4-0.4c-0.1-0.1-0.2-0.1-0.2-0.1c0-0.1,0.1-0.1,0.3-0.2c0.7-0.2,1.2-0.4,1.3-0.4
		c0.1-0.1,0.2-0.1,0.3-0.1c0,0,0.1,0.1,0.1,0.1c0,0.6-0.1,2.2-0.1,3.5c0,0.6-0.1,2.9-0.1,4.9c0,0.2,0,0.3,0.1,0.3
		c0.1,0,0.2-0.1,0.4-0.2c0.7-0.6,1.6-1.4,1.9-1.8c0.1-0.1,0.2-0.3,0.2-0.3c0-0.1-0.1-0.2-0.5-0.3c-0.2,0-0.3-0.1-0.3-0.1
		s0.1-0.1,0.3-0.1C868.7,69.3,869.1,69.3,869.3,69.3z"/>
	<path d="M873.5,70.5c0,0.8,0.7,1.2,1.1,1.5c1.2,0.8,1.6,1.2,1.6,2.1c0,0.8-0.6,1.3-0.9,1.5c-0.4,0.3-1,0.4-1.4,0.4
		c-0.5,0-0.9-0.1-1.4-0.3c-0.1-0.1-0.3-0.2-0.3-0.3c0-0.3,0-0.7-0.1-0.9c0-0.2,0-0.3,0.1-0.3c0.1,0,0.1,0,0.2,0.3
		c0.1,0.4,0.4,0.8,0.8,1c0.3,0.2,0.5,0.2,0.8,0.2c0.5,0,1.2-0.5,1.2-1.2c0-0.7-0.5-1.1-1.2-1.5c-0.8-0.5-1.5-1.2-1.5-2
		c0-0.6,0.3-1.1,0.7-1.4c0.3-0.3,0.8-0.5,1.5-0.5c0.5,0,1,0.1,1.2,0.2c0,0,0.1,0.1,0.1,0.2c0,0.2,0.1,0.6,0.1,0.8
		c0,0.2,0,0.3-0.1,0.3c-0.1,0-0.1-0.1-0.2-0.2c-0.1-0.3-0.2-0.5-0.4-0.7c-0.2-0.1-0.5-0.3-0.8-0.3C874,69.3,873.5,69.7,873.5,70.5z"
		/>
	<path d="M879.2,70.4c-0.1,0.1-0.2,0.3-0.2,0.7c0,2.7,0.1,3.6,0.1,3.9c0.1,0.3,0.2,0.5,0.6,0.6c0.3,0.1,0.4,0.1,0.4,0.2
		c0,0.1-0.1,0.1-0.3,0.1c-0.5,0-1-0.1-1.5-0.1c-0.6,0-0.8,0.1-1.2,0.1c-0.2,0-0.3,0-0.3-0.1c0-0.1,0.1-0.1,0.3-0.2
		c0.5-0.1,0.6-0.2,0.7-0.9c0.1-0.7,0.1-2.4,0.1-5.2c0-2.7,0-3.8,0-4.5c0-0.6-0.1-0.6-0.5-0.8c-0.1-0.1-0.1-0.1-0.1-0.1
		c0-0.1,0.1-0.1,0.3-0.2c0.6-0.2,1-0.3,1.3-0.4c0.1-0.1,0.1-0.1,0.2-0.1c0.1,0,0.1,0.1,0.1,0.4c0,0.5-0.1,6.1-0.1,6.4
		c0,0.1,0.1,0.1,0.1,0.1c0.2-0.2,0.7-0.6,1.1-0.7c0.3-0.2,0.8-0.3,1.3-0.3c0.6,0,1.2,0.2,1.6,0.8c0.2,0.2,0.4,0.8,0.4,1.9
		c0,1.4,0,2.5,0,3.2c0,0.4,0.1,0.5,0.6,0.6c0.2,0.1,0.3,0.1,0.3,0.2c0,0.1-0.1,0.1-0.3,0.1c-0.5,0-0.8-0.1-1.3-0.1
		c-0.6,0-0.8,0.1-1.2,0.1c-0.2,0-0.3-0.1-0.3-0.1c0-0.1,0.1-0.1,0.3-0.1c0.5-0.1,0.5-0.2,0.6-0.8c0-0.4,0.1-1.2,0.1-3.1
		c0-0.5-0.1-1-0.3-1.4c-0.2-0.4-0.6-0.7-1.2-0.7C880.1,69.7,879.5,70.1,879.2,70.4z"/>
	<path d="M892.2,72.5c0,1.4-0.8,2.3-1.4,2.8c-0.6,0.4-1.4,0.7-2,0.7c-1.9,0-3.5-1.5-3.5-3.3c0-1.4,0.6-2.3,1.3-2.8
		c0.5-0.4,1.3-0.8,2.2-0.8C890.7,69.1,892.2,70.6,892.2,72.5z M886.6,72.2c0,0.8,0.2,1.7,0.8,2.5c0.5,0.7,1.1,1,1.7,1
		c0.4,0,0.8-0.2,1.1-0.5c0.3-0.3,0.8-1.1,0.8-2.4c0-1.7-0.9-3.4-2.4-3.4C887.5,69.4,886.6,70.3,886.6,72.2z"/>
	<path d="M899.3,70c0.5,0.6,0.7,1.4,0.7,2.1c0,2-1.2,3.1-2.4,3.6c-0.4,0.2-0.8,0.3-1.3,0.3c-0.3,0-0.9-0.1-1-0.1
		c-0.1,0-0.1,0.1-0.2,0.2c-0.1,0.3-0.1,1.9,0,2.7c0,0.9,0.1,1.2,0.1,1.4c0.1,0.3,0.4,0.4,0.9,0.5c0.2,0.1,0.3,0.1,0.3,0.2
		c0,0.1-0.1,0.1-0.4,0.1c-0.3,0-0.9-0.1-1.5-0.1c-0.6,0-1.2,0.1-1.4,0.1c-0.2,0-0.3-0.1-0.3-0.1c0-0.1,0.1-0.1,0.3-0.2
		c0.6-0.2,0.7-0.4,0.8-0.8c0-0.3,0.1-1.1,0.1-2.5c0-1.8,0-5.7-0.1-6.2c0-0.7,0-0.8-0.5-1.1c-0.1-0.1-0.2-0.1-0.2-0.2
		c0-0.1,0.1-0.1,0.2-0.2c0.2-0.1,0.9-0.4,1.3-0.6c0.1-0.1,0.2-0.1,0.3-0.1c0,0,0.1,0.1,0.1,0.2c0,0.1,0,0.6,0,0.8c0,0,0,0.1,0.1,0.1
		c0.8-0.6,1.4-0.8,2.2-0.8C898.2,69.1,898.9,69.5,899.3,70z M897.9,75.2c0.5-0.4,1-1.3,1-2.6c0-0.9-0.3-1.8-0.9-2.3
		c-0.3-0.3-0.7-0.5-1.4-0.5c-0.5,0-1,0.1-1.3,0.4c-0.1,0.1-0.2,0.1-0.2,0.4c-0.1,0.5,0,3.3,0,3.7c0,0.1,0.1,0.3,0.1,0.5
		c0.3,0.6,1.2,0.9,1.7,0.9C897.3,75.5,897.6,75.4,897.9,75.2z"/>
	<path d="M905.1,70.5c0,0.8,0.7,1.2,1.1,1.5c1.2,0.8,1.6,1.2,1.6,2.1c0,0.8-0.6,1.3-0.9,1.5c-0.4,0.3-1,0.4-1.4,0.4
		c-0.5,0-0.9-0.1-1.4-0.3c-0.1-0.1-0.3-0.2-0.3-0.3c0-0.3,0-0.7-0.1-0.9c0-0.2,0-0.3,0.1-0.3c0.1,0,0.1,0,0.2,0.3
		c0.1,0.4,0.4,0.8,0.8,1c0.3,0.2,0.5,0.2,0.8,0.2c0.5,0,1.2-0.5,1.2-1.2c0-0.7-0.5-1.1-1.2-1.5c-0.8-0.5-1.5-1.2-1.5-2
		c0-0.6,0.3-1.1,0.7-1.4c0.3-0.3,0.8-0.5,1.5-0.5c0.5,0,1,0.1,1.2,0.2c0,0,0.1,0.1,0.1,0.2c0,0.2,0.1,0.6,0.1,0.8
		c0,0.2,0,0.3-0.1,0.3c-0.1,0-0.1-0.1-0.2-0.2c-0.1-0.3-0.2-0.5-0.4-0.7c-0.2-0.1-0.5-0.3-0.8-0.3C905.6,69.3,905.1,69.7,905.1,70.5
		z"/>
	<path d="M909.8,75.1c-0.1-0.2-0.2-0.6-0.2-1v-3.7c0-0.2,0-0.3-0.1-0.4c-0.1,0-0.3-0.1-0.4-0.1c-0.1,0-0.2-0.1-0.2-0.2
		c0,0,0-0.1,0.2-0.2c0.5-0.2,1-0.6,1.5-1.2c0.2-0.2,0.3-0.1,0.3-0.1c0,0.2,0,0.7,0,0.9c0,0.1,0,0.2,0.1,0.2c0.3,0,1.8-0.1,2.2-0.1
		c0,0,0.1,0.1,0.1,0.3c0,0.3-0.1,0.5-0.2,0.5c-0.6,0-1.5,0-2,0c-0.2,0-0.3,0.1-0.3,0.2c0,0.3,0,3.1,0,3.7c0,0.6,0.1,0.8,0.2,1
		c0.3,0.3,0.6,0.5,1.1,0.5c0.5,0,0.8-0.2,1-0.3c0.1-0.1,0.2-0.1,0.2,0c0,0.1-0.2,0.3-0.4,0.5c-0.4,0.3-1,0.5-1.5,0.5
		C910.6,75.9,910.1,75.6,909.8,75.1z"/>
	<path d="M918,70c0.2,0.3,0.3,1.1,0.3,1.6c0,0.7-0.1,2.4-0.1,2.8c0,0.3,0.2,0.7,0.7,0.7c0.1,0,0.3-0.1,0.5-0.2
		c0.1-0.1,0.2,0,0.1,0.2c-0.3,0.5-0.8,0.8-1.4,0.8c-0.5,0-0.9-0.4-1.1-0.8c0,0-0.1,0-0.1,0c-0.5,0.5-1.1,0.8-1.8,0.8
		c-0.7,0-1.4-0.6-1.4-1.5c0-0.6,0.5-0.9,0.6-1c0.4-0.2,2.1-0.7,2.4-0.9c0.1,0,0.2-0.2,0.2-0.3c0-0.2,0-0.6,0-0.8
		c0-0.7-0.1-1.2-0.4-1.5c-0.2-0.2-0.5-0.3-0.8-0.3c-0.3,0-0.5,0.1-0.7,0.2c-0.1,0.1-0.2,0.2-0.3,0.4c0,0.1,0,0.2,0,0.3
		c0,0.1,0,0.1-0.1,0.1c-0.2,0.1-0.7,0.4-0.8,0.4c-0.1,0-0.2-0.1-0.2-0.2c0-0.1,0.1-0.3,0.3-0.5c0.4-0.5,1-0.9,1.4-1
		c0.4-0.2,0.8-0.3,1.1-0.3C917.2,69.1,917.8,69.4,918,70z M916.8,74.9c0.1-0.1,0.2-0.2,0.2-0.4c0.1-0.3,0.1-1,0.1-1.7
		c0,0,0-0.1-0.1-0.1c-0.2,0-1.3,0.4-1.7,0.6c-0.2,0.1-0.5,0.4-0.5,0.9c0,0.6,0.5,1,1.1,1C916.3,75.2,916.6,75.1,916.8,74.9z"/>
	<path d="M922.3,70.4c-0.2,0.2-0.3,0.4-0.3,0.6c0,0.2,0,0.7,0,1.1c0,1.3,0,2.3,0.1,2.6c0.1,0.6,0.3,0.7,1,0.8c0.3,0,0.3,0.1,0.3,0.2
		c0,0.1-0.2,0.1-0.4,0.1c-0.3,0-0.9-0.1-1.7-0.1c-0.6,0-0.8,0.1-1.1,0.1c-0.2,0-0.3,0-0.3-0.1c0-0.1,0.1-0.1,0.3-0.2
		c0.4-0.1,0.6-0.3,0.6-0.7c0-0.3,0.1-1.3,0.1-2.5c0-1.1,0-1.7,0-2c0-0.1-0.1-0.2-0.5-0.5c-0.1-0.1-0.1-0.1-0.1-0.2
		c0,0,0.1-0.1,0.3-0.2c0.4-0.1,0.9-0.3,1.2-0.4c0.1-0.1,0.2-0.1,0.3-0.1c0,0,0.1,0.1,0.1,0.3c0,0.2,0,0.9,0,1.2c0,0.1,0,0.1,0.1,0
		c0.5-0.6,1.2-1.3,1.9-1.3c0.2,0,0.5,0.1,0.6,0.2c0.1,0.1,0.1,0.2,0.1,0.3c0,0.1-0.2,0.4-0.4,0.6c-0.2,0.1-0.2,0.2-0.3,0.2
		c0,0-0.1,0-0.3-0.1c-0.2-0.1-0.4-0.2-0.6-0.2C922.8,70,922.5,70.2,922.3,70.4z"/>
	<path d="M926.2,75.1c-0.1-0.2-0.2-0.6-0.2-1v-3.7c0-0.2,0-0.3-0.1-0.4c-0.1,0-0.3-0.1-0.4-0.1c-0.1,0-0.2-0.1-0.2-0.2
		c0,0,0-0.1,0.2-0.2c0.5-0.2,1-0.6,1.5-1.2c0.2-0.2,0.3-0.1,0.3-0.1c0,0.2,0,0.7,0,0.9c0,0.1,0,0.2,0.1,0.2c0.3,0,1.8-0.1,2.2-0.1
		c0,0,0.1,0.1,0.1,0.3c0,0.3-0.1,0.5-0.2,0.5c-0.6,0-1.5,0-2,0c-0.2,0-0.3,0.1-0.3,0.2c0,0.3,0,3.1,0,3.7c0,0.6,0.1,0.8,0.2,1
		c0.3,0.3,0.6,0.5,1.1,0.5c0.5,0,0.8-0.2,1-0.3c0.1-0.1,0.2-0.1,0.2,0c0,0.1-0.2,0.3-0.4,0.5c-0.4,0.3-1,0.5-1.5,0.5
		C927.1,75.9,926.5,75.6,926.2,75.1z"/>
	<path d="M931.7,70.5c0,0.8,0.7,1.2,1.1,1.5c1.2,0.8,1.6,1.2,1.6,2.1c0,0.8-0.6,1.3-0.9,1.5c-0.4,0.3-1,0.4-1.4,0.4
		c-0.5,0-0.9-0.1-1.4-0.3c-0.1-0.1-0.3-0.2-0.3-0.3c0-0.3,0-0.7-0.1-0.9c0-0.2,0-0.3,0.1-0.3c0.1,0,0.1,0,0.2,0.3
		c0.1,0.4,0.4,0.8,0.8,1c0.3,0.2,0.5,0.2,0.8,0.2c0.5,0,1.2-0.5,1.2-1.2c0-0.7-0.5-1.1-1.2-1.5c-0.8-0.5-1.5-1.2-1.5-2
		c0-0.6,0.3-1.1,0.7-1.4c0.3-0.3,0.8-0.5,1.5-0.5c0.5,0,1,0.1,1.2,0.2c0,0,0.1,0.1,0.1,0.2c0,0.2,0.1,0.6,0.1,0.8
		c0,0.2,0,0.3-0.1,0.3c-0.1,0-0.1-0.1-0.2-0.2c-0.1-0.3-0.2-0.5-0.4-0.7c-0.2-0.1-0.5-0.3-0.8-0.3C932.2,69.3,931.7,69.7,931.7,70.5
		z"/>
</g>
<g>
	<path d="M562.2,56.3h2.7V44.5l0.2-1.4l-0.8,1.2l-2,1.6l-0.9-1.1l4.4-4.1h0.9v15.5h2.6v1.6h-7.1V56.3z"/>
	<path d="M577.4,41c0.3,0,0.5-0.1,0.9-0.1c0.3,0,0.6,0,0.9,0c0.3,0,0.6,0,0.9,0c0.3,0,0.6,0,0.9,0c1.2,0,2.2,0.2,3,0.6
		c0.8,0.4,1.5,1,2,1.7c0.5,0.7,0.9,1.6,1.1,2.7c0.2,1,0.3,2.2,0.3,3.5c0,1.2-0.1,2.3-0.3,3.3s-0.6,2-1.1,2.8c-0.5,0.8-1.2,1.4-2,1.9
		s-1.9,0.7-3.2,0.7c-0.2,0-0.5,0-0.8,0c-0.3,0-0.7,0-1,0c-0.3,0-0.7,0-1-0.1c-0.3,0-0.5,0-0.7-0.1V41z M581.1,42.5
		c-0.2,0-0.3,0-0.5,0c-0.2,0-0.4,0-0.5,0c-0.2,0-0.3,0-0.5,0c-0.2,0-0.3,0-0.4,0v13.7c0.1,0,0.2,0,0.3,0c0.2,0,0.3,0,0.5,0
		c0.2,0,0.4,0,0.5,0c0.2,0,0.3,0,0.4,0c0.9,0,1.6-0.2,2.2-0.6c0.6-0.4,1.1-0.9,1.4-1.5c0.3-0.6,0.6-1.4,0.7-2.3
		c0.1-0.9,0.2-1.8,0.2-2.7c0-0.8-0.1-1.7-0.2-2.5c-0.1-0.8-0.4-1.5-0.7-2.2c-0.3-0.6-0.8-1.1-1.3-1.5
		C582.7,42.7,582,42.5,581.1,42.5z"/>
	<path d="M597,57c-0.4,0.4-0.9,0.6-1.5,0.8s-1.2,0.3-1.9,0.3c-0.8,0-1.4-0.1-2-0.4c-0.6-0.3-1-0.7-1.4-1.3c-0.4-0.6-0.6-1.2-0.8-2
		c-0.2-0.8-0.3-1.6-0.3-2.6c0-2,0.4-3.6,1.1-4.7c0.8-1.1,1.8-1.6,3.2-1.6c0.4,0,0.9,0.1,1.3,0.2c0.4,0.1,0.8,0.3,1.2,0.7
		c0.4,0.3,0.6,0.8,0.9,1.4c0.2,0.6,0.3,1.4,0.3,2.4c0,0.3,0,0.6,0,0.9c0,0.3-0.1,0.6-0.1,1h-6.1c0,0.7,0.1,1.3,0.2,1.9
		c0.1,0.6,0.3,1,0.5,1.4s0.5,0.7,0.9,0.9c0.4,0.2,0.8,0.3,1.4,0.3c0.4,0,0.9-0.1,1.3-0.2c0.4-0.2,0.7-0.4,1-0.6L597,57z M595.7,50.6
		c0-1.2-0.1-2.1-0.5-2.6c-0.4-0.6-0.9-0.8-1.5-0.8c-0.7,0-1.3,0.3-1.8,0.8c-0.4,0.6-0.7,1.4-0.8,2.6H595.7z"/>
	<path d="M606.2,57.2c-0.4,0.3-0.9,0.5-1.4,0.7c-0.5,0.1-1,0.2-1.6,0.2c-0.8,0-1.4-0.1-1.9-0.4c-0.5-0.3-1-0.7-1.3-1.3
		c-0.3-0.6-0.6-1.2-0.7-2c-0.2-0.8-0.2-1.6-0.2-2.6c0-2,0.4-3.6,1.1-4.7c0.7-1.1,1.8-1.6,3.1-1.6c0.6,0,1.2,0.1,1.6,0.2
		c0.4,0.1,0.8,0.3,1.2,0.4l-0.5,1.5c-0.6-0.4-1.3-0.6-2.1-0.6c-0.9,0-1.5,0.4-2,1.1c-0.4,0.8-0.7,2-0.7,3.6c0,0.7,0,1.3,0.1,1.8
		c0.1,0.6,0.3,1.1,0.5,1.5c0.2,0.4,0.5,0.8,0.9,1c0.4,0.2,0.8,0.4,1.3,0.4c0.4,0,0.8-0.1,1.2-0.2c0.4-0.1,0.7-0.3,0.9-0.5
		L606.2,57.2z"/>
	<path d="M614.9,57c-0.4,0.4-0.9,0.6-1.5,0.8s-1.2,0.3-1.9,0.3c-0.8,0-1.4-0.1-2-0.4c-0.6-0.3-1-0.7-1.4-1.3c-0.4-0.6-0.6-1.2-0.8-2
		c-0.2-0.8-0.3-1.6-0.3-2.6c0-2,0.4-3.6,1.1-4.7c0.8-1.1,1.8-1.6,3.2-1.6c0.4,0,0.9,0.1,1.3,0.2c0.4,0.1,0.8,0.3,1.2,0.7
		c0.4,0.3,0.6,0.8,0.9,1.4c0.2,0.6,0.3,1.4,0.3,2.4c0,0.3,0,0.6,0,0.9c0,0.3-0.1,0.6-0.1,1H609c0,0.7,0.1,1.3,0.2,1.9
		c0.1,0.6,0.3,1,0.5,1.4s0.5,0.7,0.9,0.9c0.4,0.2,0.8,0.3,1.4,0.3c0.4,0,0.9-0.1,1.3-0.2c0.4-0.2,0.7-0.4,1-0.6L614.9,57z
		 M613.5,50.6c0-1.2-0.1-2.1-0.5-2.6c-0.4-0.6-0.9-0.8-1.5-0.8c-0.7,0-1.3,0.3-1.8,0.8c-0.4,0.6-0.7,1.4-0.8,2.6H613.5z"/>
	<path d="M623.2,57.8v-7.1c0-0.6,0-1.2-0.1-1.6s-0.1-0.8-0.3-1.1c-0.1-0.3-0.3-0.5-0.5-0.6c-0.2-0.1-0.5-0.2-0.9-0.2
		c-0.5,0-1,0.2-1.4,0.6s-0.6,0.9-0.8,1.5v8.6h-1.7v-12h1.2l0.3,1.3h0.1c0.3-0.5,0.7-0.8,1.2-1.1s1.1-0.4,1.8-0.4
		c0.6,0,1.1,0.1,1.5,0.4c0.4,0.3,0.7,0.7,0.9,1.4c0.3-0.6,0.7-1,1.2-1.3c0.5-0.3,1.1-0.5,1.8-0.5c0.5,0,1,0.1,1.4,0.2
		c0.4,0.1,0.7,0.4,0.9,0.7c0.2,0.3,0.4,0.8,0.5,1.4c0.1,0.6,0.2,1.3,0.2,2.1v7.8h-1.7v-7.6c0-1-0.1-1.8-0.3-2.3
		c-0.2-0.5-0.7-0.8-1.4-0.8c-0.6,0-1.1,0.2-1.5,0.6c-0.4,0.4-0.6,0.9-0.8,1.5v8.6H623.2z"/>
	<path d="M633.2,41h1.7v5.7h0.1c0.7-0.8,1.5-1.2,2.6-1.2c1.2,0,2.2,0.5,2.8,1.5c0.6,1,0.9,2.5,0.9,4.6c0,2.2-0.4,3.8-1.2,4.8
		c-0.8,1.1-2,1.6-3.5,1.6c-0.7,0-1.4-0.1-2-0.3c-0.6-0.2-1.1-0.4-1.4-0.6V41z M635,56.1c0.2,0.1,0.5,0.2,0.8,0.3
		c0.3,0.1,0.7,0.1,1,0.1c0.8,0,1.5-0.4,2-1.2c0.5-0.8,0.7-2,0.7-3.7c0-0.7,0-1.3-0.1-1.9c-0.1-0.6-0.2-1-0.4-1.4
		c-0.2-0.4-0.4-0.7-0.7-0.9c-0.3-0.2-0.7-0.3-1.1-0.3c-0.6,0-1.1,0.2-1.4,0.5c-0.4,0.3-0.7,0.8-0.8,1.4V56.1z"/>
	<path d="M650.8,57c-0.4,0.4-0.9,0.6-1.5,0.8s-1.2,0.3-1.9,0.3c-0.8,0-1.4-0.1-2-0.4c-0.6-0.3-1-0.7-1.4-1.3c-0.4-0.6-0.6-1.2-0.8-2
		c-0.2-0.8-0.3-1.6-0.3-2.6c0-2,0.4-3.6,1.1-4.7c0.8-1.1,1.8-1.6,3.2-1.6c0.4,0,0.9,0.1,1.3,0.2c0.4,0.1,0.8,0.3,1.2,0.7
		c0.4,0.3,0.6,0.8,0.9,1.4c0.2,0.6,0.3,1.4,0.3,2.4c0,0.3,0,0.6,0,0.9c0,0.3-0.1,0.6-0.1,1h-6.1c0,0.7,0.1,1.3,0.2,1.9
		c0.1,0.6,0.3,1,0.5,1.4s0.5,0.7,0.9,0.9c0.4,0.2,0.8,0.3,1.4,0.3c0.4,0,0.9-0.1,1.3-0.2c0.4-0.2,0.7-0.4,1-0.6L650.8,57z
		 M649.5,50.6c0-1.2-0.1-2.1-0.5-2.6c-0.4-0.6-0.9-0.8-1.5-0.8c-0.7,0-1.3,0.3-1.8,0.8c-0.4,0.6-0.7,1.4-0.8,2.6H649.5z"/>
	<path d="M653.6,45.8h1.2l0.3,1.3h0.1c0.2-0.5,0.5-0.8,0.9-1.1c0.4-0.3,0.8-0.4,1.3-0.4c0.4,0,0.8,0.1,1.2,0.2l-0.3,1.8
		c-0.4-0.1-0.8-0.2-1.1-0.2c-0.5,0-0.9,0.1-1.2,0.4c-0.3,0.3-0.5,0.7-0.6,1.2v8.8h-1.7V45.8z"/>
	<path d="M672.9,57.8h-7.8v-0.8c0.3-0.4,0.7-0.8,1-1.4c0.4-0.6,0.8-1.2,1.2-1.8c0.4-0.7,0.8-1.4,1.2-2.1s0.8-1.5,1.1-2.3
		s0.6-1.5,0.8-2.3s0.3-1.5,0.3-2.2c0-0.8-0.2-1.5-0.6-2c-0.4-0.5-0.9-0.7-1.7-0.7c-0.5,0-0.9,0.1-1.4,0.3c-0.4,0.2-0.8,0.4-1.1,0.6
		l-0.7-1.2c0.4-0.4,1-0.7,1.6-0.9c0.6-0.2,1.3-0.3,2-0.3c1.2,0,2.1,0.4,2.7,1.1c0.6,0.7,0.9,1.7,0.9,2.9c0,0.9-0.1,1.8-0.4,2.8
		c-0.3,1-0.6,1.9-1,2.9c-0.4,0.9-0.9,1.8-1.4,2.7s-1,1.6-1.5,2.3l-1,1.1v0.1l1.3-0.2h4.2V57.8z"/>
	<path d="M675.5,49.4c0-1.5,0.1-2.9,0.3-4c0.2-1.1,0.5-2,0.9-2.7c0.4-0.7,0.9-1.2,1.4-1.5c0.6-0.3,1.2-0.5,1.9-0.5
		c0.8,0,1.4,0.2,2,0.5c0.6,0.3,1,0.8,1.4,1.5c0.4,0.7,0.6,1.6,0.8,2.7c0.2,1.1,0.3,2.4,0.3,4c0,1.6-0.1,2.9-0.3,4
		c-0.2,1.1-0.5,2-0.9,2.7c-0.4,0.7-0.9,1.2-1.4,1.5s-1.2,0.5-1.9,0.5c-0.8,0-1.5-0.2-2-0.5c-0.6-0.3-1-0.9-1.4-1.6s-0.6-1.6-0.8-2.7
		C675.6,52.3,675.5,51,675.5,49.4z M677.3,49.4c0,2.3,0.2,4,0.6,5.3c0.4,1.2,1.1,1.8,2.1,1.8c0.9,0,1.6-0.6,2-1.7
		c0.4-1.1,0.6-2.9,0.6-5.4c0-2.3-0.2-4-0.6-5.3c-0.4-1.2-1.1-1.9-2.1-1.9c-0.9,0-1.6,0.6-2,1.7C677.5,45.1,677.3,46.9,677.3,49.4z"
		/>
	<path d="M687.7,56.3h2.7V44.5l0.2-1.4l-0.8,1.2l-2,1.6l-0.9-1.1l4.4-4.1h0.9v15.5h2.6v1.6h-7.1V56.3z"/>
	<path d="M706.6,52.7h-2.2v5.2h-1.7v-5.2h-5.9v-0.8l6.3-11.1h1.3v10.3h2.2V52.7z M702.6,45.7l0.2-2.1h-0.1l-0.7,1.8l-2.6,4.6
		l-0.9,1.2l1.3-0.2h2.8V45.7z"/>
</g>
<g>
	<path d="M601.5,70.4c-0.2,0.2-0.3,0.4-0.3,0.6c0,0.2,0,0.7,0,1.1c0,1.3,0,2.3,0.1,2.6c0.1,0.6,0.3,0.7,1,0.8c0.3,0,0.3,0.1,0.3,0.2
		c0,0.1-0.2,0.1-0.4,0.1c-0.3,0-0.9-0.1-1.7-0.1c-0.6,0-0.8,0.1-1.1,0.1c-0.2,0-0.3,0-0.3-0.1c0-0.1,0.1-0.1,0.3-0.2
		c0.4-0.1,0.6-0.3,0.6-0.7c0-0.3,0.1-1.3,0.1-2.5c0-1.1,0-1.7,0-2c0-0.1-0.1-0.2-0.5-0.5c-0.1-0.1-0.1-0.1-0.1-0.2
		c0,0,0.1-0.1,0.3-0.2c0.4-0.1,0.9-0.3,1.2-0.4C600.9,69,601,69,601,69c0,0,0.1,0.1,0.1,0.3c0,0.2,0,0.9,0,1.2c0,0.1,0,0.1,0.1,0
		c0.5-0.6,1.2-1.3,1.9-1.3c0.2,0,0.5,0.1,0.6,0.2c0.1,0.1,0.1,0.2,0.1,0.3c0,0.1-0.2,0.4-0.4,0.6c-0.2,0.1-0.2,0.2-0.3,0.2
		c0,0-0.1,0-0.3-0.1c-0.2-0.1-0.4-0.2-0.6-0.2C602,70,601.7,70.2,601.5,70.4z"/>
	<path d="M609.7,70.9c0,0.1-0.1,0.2-0.2,0.2c-0.1,0-2.5-0.1-2.9-0.1h-1c0,0-0.1,0.1-0.2,0.1c-0.1,0.2-0.1,0.5-0.1,1
		c0,0.9,0.4,1.7,0.8,2.2c0.5,0.5,1.2,0.7,1.8,0.7c0.7,0,1.3-0.2,1.7-0.6c0.1-0.1,0.2-0.1,0.2,0c0,0.1-0.1,0.2-0.2,0.3
		c-0.7,0.8-1.5,1.1-2.5,1.1c-0.8,0-1.6-0.3-2.1-0.9c-0.5-0.6-0.9-1.4-0.9-2.4c0-0.8,0.3-1.9,1-2.6c0.5-0.5,1.3-0.9,2.2-0.9
		C608.6,69.1,609.7,69.8,609.7,70.9z M606.1,70c-0.2,0.3-0.4,0.6-0.4,0.7c0,0,0,0.1,0.1,0.1l2.3,0c0.4,0,0.4-0.2,0.4-0.4
		c0-0.2-0.1-0.5-0.3-0.8c-0.2-0.2-0.5-0.3-0.9-0.3C606.9,69.3,606.5,69.6,606.1,70z"/>
	<path d="M615.4,69.4c0.1,0.1,0.3,0.1,0.6,0.1s1.1,0,1.3,0c0.1,0,0.2,0.2,0.2,0.4c0,0.2-0.1,0.3-0.2,0.3c-0.3,0-0.9,0-1.1,0
		c0,0-0.1,0.1-0.1,0.1c0,0.1,0,0.4,0,0.7c0,1.1-0.5,2-1.1,2.4c-0.6,0.4-1.1,0.5-1.4,0.5c-0.2,0-0.6-0.1-0.8-0.1
		c-0.1,0-0.2,0-0.2,0.1c-0.2,0.1-0.5,0.4-0.6,0.6c-0.2,0.1-0.2,0.3-0.2,0.4c0,0.6,0.7,0.8,1.7,0.8c0.6,0,1.5-0.1,2.1-0.1
		c0.7,0,1.1,0.2,1.4,0.5c0.4,0.3,0.6,0.9,0.6,1.5c0,1.2-1,2.4-2,2.9c-0.7,0.4-1.4,0.6-2.2,0.6c-1.4,0-2.6-0.7-2.6-2
		c0-0.4,0.2-0.6,0.3-0.8c0.1-0.1,0.8-1,1.2-1.4c0,0,0-0.1,0-0.2c-0.5-0.1-1.5-0.7-1.5-1.5c0-0.1,0.1-0.2,0.1-0.2
		c0.5-0.3,1.2-1,1.5-1.3c0,0,0-0.1,0-0.1c-0.6-0.4-1.4-1.2-1.4-2.3c0-0.8,0.3-1.3,0.8-1.7c0.5-0.5,1.2-0.7,1.9-0.7
		C614.4,69,615.2,69.3,615.4,69.4z M612.4,79.9c0.5,0.3,0.8,0.5,1.7,0.5c0.4,0,1.1,0,1.7-0.4c0.5-0.3,1-1.1,1-1.9s-0.5-1.4-1.6-1.4
		c-0.7,0-1.6,0-2.1,0c-0.4,0-0.5,0.1-0.6,0.2c-0.4,0.3-0.8,1-0.8,1.6C611.7,78.9,611.9,79.5,612.4,79.9z M612.5,69.6
		c-0.3,0.3-0.5,1-0.5,1.6c0,0.8,0.3,1.6,0.6,1.9c0.3,0.3,0.6,0.5,1.1,0.5c0.8,0,1.4-1,1.4-1.8c0-0.8-0.2-1.5-0.6-2
		c-0.3-0.4-0.6-0.6-1.1-0.6C613.1,69.2,612.8,69.4,612.5,69.6z"/>
	<path d="M618.5,69.6c0.5-0.1,0.9-0.3,1.3-0.5C619.9,69,620,69,620,69c0.1,0,0.1,0.1,0.1,0.3c0,0.4,0,1.5,0,2.6c0,1.5,0,2.8,0,3.2
		c0,0.4,0.2,0.5,0.5,0.5c0.2,0,0.3,0.1,0.3,0.1c0,0.1-0.1,0.1-0.3,0.1c-0.2,0-0.8-0.1-1.3-0.1c-0.6,0-0.9,0-1.1,0
		c-0.1,0-0.3,0-0.3-0.1c0-0.1,0.1-0.1,0.3-0.2c0.4-0.1,0.6-0.3,0.6-1c0-0.5,0.1-3.8,0.1-4c0-0.3,0-0.4-0.5-0.6
		c-0.1-0.1-0.1-0.1-0.1-0.1C618.2,69.7,618.3,69.6,618.5,69.6z M620.3,66.7c0,0.5-0.4,0.7-0.7,0.7c-0.3,0-0.6-0.3-0.6-0.7
		c0-0.5,0.3-0.7,0.6-0.7C620,66,620.3,66.3,620.3,66.7z"/>
	<path d="M623,70.5c0,0.8,0.7,1.2,1.1,1.5c1.2,0.8,1.6,1.2,1.6,2.1c0,0.8-0.6,1.3-0.9,1.5c-0.4,0.3-1,0.4-1.4,0.4
		c-0.5,0-0.9-0.1-1.4-0.3c-0.1-0.1-0.3-0.2-0.3-0.3c0-0.3,0-0.7-0.1-0.9c0-0.2,0-0.3,0.1-0.3c0.1,0,0.1,0,0.2,0.3
		c0.1,0.4,0.4,0.8,0.8,1c0.3,0.2,0.5,0.2,0.8,0.2c0.5,0,1.2-0.5,1.2-1.2c0-0.7-0.5-1.1-1.2-1.5c-0.8-0.5-1.5-1.2-1.5-2
		c0-0.6,0.3-1.1,0.7-1.4c0.3-0.3,0.8-0.5,1.5-0.5c0.5,0,1,0.1,1.2,0.2c0,0,0.1,0.1,0.1,0.2c0,0.2,0.1,0.6,0.1,0.8
		c0,0.2,0,0.3-0.1,0.3c-0.1,0-0.1-0.1-0.2-0.2c-0.1-0.3-0.2-0.5-0.4-0.7c-0.2-0.1-0.5-0.3-0.8-0.3C623.5,69.3,623,69.7,623,70.5z"/>
	<path d="M627.7,75.1c-0.1-0.2-0.2-0.6-0.2-1v-3.7c0-0.2,0-0.3-0.1-0.4c-0.1,0-0.3-0.1-0.4-0.1c-0.1,0-0.2-0.1-0.2-0.2
		c0,0,0-0.1,0.2-0.2c0.5-0.2,1-0.6,1.5-1.2c0.2-0.2,0.3-0.1,0.3-0.1c0,0.2,0,0.7,0,0.9c0,0.1,0,0.2,0.1,0.2c0.3,0,1.8-0.1,2.2-0.1
		c0,0,0.1,0.1,0.1,0.3c0,0.3-0.1,0.5-0.2,0.5c-0.6,0-1.5,0-2,0c-0.2,0-0.3,0.1-0.3,0.2c0,0.3,0,3.1,0,3.7c0,0.6,0.1,0.8,0.2,1
		c0.3,0.3,0.6,0.5,1.1,0.5c0.5,0,0.8-0.2,1-0.3c0.1-0.1,0.2-0.1,0.2,0c0,0.1-0.2,0.3-0.4,0.5c-0.4,0.3-1,0.5-1.5,0.5
		C628.5,75.9,628,75.6,627.7,75.1z"/>
	<path d="M634,70.4c-0.2,0.2-0.3,0.4-0.3,0.6c0,0.2,0,0.7,0,1.1c0,1.3,0,2.3,0.1,2.6c0.1,0.6,0.3,0.7,1,0.8c0.3,0,0.3,0.1,0.3,0.2
		c0,0.1-0.2,0.1-0.4,0.1c-0.3,0-0.9-0.1-1.7-0.1c-0.6,0-0.8,0.1-1.1,0.1c-0.2,0-0.3,0-0.3-0.1c0-0.1,0.1-0.1,0.3-0.2
		c0.4-0.1,0.6-0.3,0.6-0.7c0-0.3,0.1-1.3,0.1-2.5c0-1.1,0-1.7,0-2c0-0.1-0.1-0.2-0.5-0.5c-0.1-0.1-0.1-0.1-0.1-0.2
		c0,0,0.1-0.1,0.3-0.2c0.4-0.1,0.9-0.3,1.2-0.4c0.1-0.1,0.2-0.1,0.3-0.1c0,0,0.1,0.1,0.1,0.3c0,0.2,0,0.9,0,1.2c0,0.1,0,0.1,0.1,0
		c0.5-0.6,1.2-1.3,1.9-1.3c0.2,0,0.5,0.1,0.6,0.2c0.1,0.1,0.1,0.2,0.1,0.3c0,0.1-0.2,0.4-0.4,0.6c-0.2,0.1-0.2,0.2-0.3,0.2
		c0,0-0.1,0-0.3-0.1c-0.2-0.1-0.4-0.2-0.6-0.2C634.6,70,634.3,70.2,634,70.4z"/>
	<path d="M641.1,70c0.2,0.3,0.3,1.1,0.3,1.6c0,0.7-0.1,2.4-0.1,2.8c0,0.3,0.2,0.7,0.7,0.7c0.1,0,0.3-0.1,0.5-0.2
		c0.1-0.1,0.2,0,0.1,0.2c-0.3,0.5-0.8,0.8-1.4,0.8c-0.5,0-0.9-0.4-1.1-0.8c0,0-0.1,0-0.1,0c-0.5,0.5-1.1,0.8-1.8,0.8
		c-0.7,0-1.4-0.6-1.4-1.5c0-0.6,0.5-0.9,0.6-1c0.4-0.2,2.1-0.7,2.4-0.9c0.1,0,0.2-0.2,0.2-0.3c0-0.2,0-0.6,0-0.8
		c0-0.7-0.1-1.2-0.4-1.5c-0.2-0.2-0.5-0.3-0.8-0.3c-0.3,0-0.5,0.1-0.7,0.2c-0.1,0.1-0.2,0.2-0.3,0.4c0,0.1,0,0.2,0,0.3
		c0,0.1,0,0.1-0.1,0.1c-0.2,0.1-0.7,0.4-0.8,0.4c-0.1,0-0.2-0.1-0.2-0.2c0-0.1,0.1-0.3,0.3-0.5c0.4-0.5,1-0.9,1.4-1
		c0.4-0.2,0.8-0.3,1.1-0.3C640.4,69.1,640.9,69.4,641.1,70z M639.9,74.9c0.1-0.1,0.2-0.2,0.2-0.4c0.1-0.3,0.1-1,0.1-1.7
		c0,0,0-0.1-0.1-0.1c-0.2,0-1.3,0.4-1.7,0.6c-0.2,0.1-0.5,0.4-0.5,0.9c0,0.6,0.5,1,1.1,1C639.4,75.2,639.7,75.1,639.9,74.9z"/>
	<path d="M643.9,75.1c-0.1-0.2-0.2-0.6-0.2-1v-3.7c0-0.2,0-0.3-0.1-0.4c-0.1,0-0.3-0.1-0.4-0.1c-0.1,0-0.2-0.1-0.2-0.2
		c0,0,0-0.1,0.2-0.2c0.5-0.2,1-0.6,1.5-1.2c0.2-0.2,0.3-0.1,0.3-0.1c0,0.2,0,0.7,0,0.9c0,0.1,0,0.2,0.1,0.2c0.3,0,1.8-0.1,2.2-0.1
		c0,0,0.1,0.1,0.1,0.3c0,0.3-0.1,0.5-0.2,0.5c-0.6,0-1.5,0-2,0c-0.2,0-0.3,0.1-0.3,0.2c0,0.3,0,3.1,0,3.7c0,0.6,0.1,0.8,0.2,1
		c0.3,0.3,0.6,0.5,1.1,0.5c0.5,0,0.8-0.2,1-0.3c0.1-0.1,0.2-0.1,0.2,0c0,0.1-0.2,0.3-0.4,0.5c-0.4,0.3-1,0.5-1.5,0.5
		C644.7,75.9,644.2,75.6,643.9,75.1z"/>
	<path d="M648.2,69.6c0.5-0.1,0.9-0.3,1.3-0.5c0.1-0.1,0.2-0.1,0.3-0.1c0.1,0,0.1,0.1,0.1,0.3c0,0.4,0,1.5,0,2.6c0,1.5,0,2.8,0,3.2
		c0,0.4,0.2,0.5,0.5,0.5c0.2,0,0.3,0.1,0.3,0.1c0,0.1-0.1,0.1-0.3,0.1c-0.2,0-0.8-0.1-1.3-0.1c-0.6,0-0.9,0-1.1,0
		c-0.1,0-0.3,0-0.3-0.1c0-0.1,0.1-0.1,0.3-0.2c0.4-0.1,0.6-0.3,0.6-1c0-0.5,0.1-3.8,0.1-4c0-0.3,0-0.4-0.5-0.6
		c-0.1-0.1-0.1-0.1-0.1-0.1C648,69.7,648.1,69.6,648.2,69.6z M650,66.7c0,0.5-0.4,0.7-0.7,0.7c-0.3,0-0.6-0.3-0.6-0.7
		c0-0.5,0.3-0.7,0.6-0.7C649.8,66,650,66.3,650,66.7z"/>
	<path d="M658.6,72.5c0,1.4-0.8,2.3-1.4,2.8c-0.6,0.4-1.4,0.7-2,0.7c-1.9,0-3.5-1.5-3.5-3.3c0-1.4,0.6-2.3,1.3-2.8
		c0.5-0.4,1.3-0.8,2.2-0.8C657.1,69.1,658.6,70.6,658.6,72.5z M653,72.2c0,0.8,0.2,1.7,0.8,2.5c0.5,0.7,1.1,1,1.7,1
		c0.4,0,0.8-0.2,1.1-0.5c0.3-0.3,0.8-1.1,0.8-2.4c0-1.7-0.9-3.4-2.4-3.4C654,69.4,653,70.3,653,72.2z"/>
	<path d="M665.4,69.7c0.4,0.4,0.6,1.3,0.6,2.4c0,1,0,1.1,0,2c0,1.2,0.1,1.3,0.6,1.5c0.2,0.1,0.3,0.1,0.3,0.2c0,0.1-0.1,0.1-0.3,0.1
		c-0.2,0-0.8-0.1-1.2-0.1c-0.6,0-0.8,0.1-1.1,0.1c-0.2,0-0.3,0-0.3-0.1c0-0.1,0.1-0.1,0.3-0.2c0.4-0.1,0.5-0.2,0.5-0.8v-2.4
		c0-1.5-0.1-1.9-0.6-2.2c-0.3-0.2-0.6-0.3-1-0.3c-0.5,0-0.9,0.2-1.4,0.6c-0.1,0.1-0.2,0.4-0.2,0.5c0,0.2,0,1.1,0,2.2
		c0,1.2,0.1,1.6,0.1,1.9c0.1,0.4,0.3,0.5,0.6,0.6c0.2,0.1,0.3,0.1,0.3,0.2c0,0.1-0.2,0.1-0.4,0.1c-0.1,0-1-0.1-1.4-0.1
		c-0.2,0-0.6,0-1,0c-0.2,0-0.3,0-0.3-0.1c0-0.1,0.2-0.1,0.4-0.2c0.5-0.1,0.5-0.2,0.5-0.6c0-1.3,0-3,0-4.4c0-0.2,0-0.4-0.5-0.6
		c-0.1-0.1-0.1-0.1-0.1-0.2c0,0,0.1-0.1,0.3-0.1c0.4-0.1,1.1-0.4,1.4-0.6c0.1,0,0.1,0.1,0.1,0.1c0,0.2-0.1,0.7,0,1
		c0,0,0.1,0.1,0.1,0.1c0.5-0.3,0.9-0.6,1.3-0.8c0.4-0.2,0.8-0.2,1.1-0.2C664.8,69.1,665.2,69.4,665.4,69.7z"/>
	<path d="M671.6,72.2c0,1.2,0.5,2,0.9,2.3c0.5,0.4,1.1,0.6,1.7,0.6c0.8,0,1.2-0.1,1.9-0.7c0,0,0.1-0.1,0.1,0c0,0.1,0,0.2-0.1,0.3
		c-0.3,0.4-1.2,1.2-2.5,1.2c-0.8,0-1.7-0.3-2.3-0.9c-0.6-0.6-0.9-1.4-0.9-2.4c0-1.1,0.6-2,1.1-2.5c0.6-0.5,1.5-1,2.7-1
		c0.8,0,1.3,0.2,1.6,0.5c0.2,0.1,0.3,0.3,0.3,0.3c0,0.3-0.3,0.6-0.5,0.6c-0.1,0-0.2-0.1-0.3-0.2c-0.3-0.3-0.7-0.6-1-0.7
		c-0.2-0.1-0.5-0.1-0.7-0.1C672.9,69.4,671.6,70.1,671.6,72.2z"/>
	<path d="M678.8,71.4c0,2.3,0,3.1,0,3.5c0,0.5,0.1,0.6,0.6,0.7c0.1,0,0.2,0.1,0.2,0.1c0,0.1-0.1,0.1-0.4,0.1c-0.3,0-0.9,0-1.2,0
		c-0.5,0-0.9,0-1.2,0c-0.2,0-0.3,0-0.3-0.1c0-0.1,0.1-0.1,0.3-0.2c0.5-0.1,0.6-0.3,0.6-1c0-0.7,0.1-3.7,0.1-5.9c0-1.5,0-2.9,0-3.7
		c0-0.4,0-0.5-0.5-0.8c-0.1-0.1-0.2-0.1-0.2-0.2s0.1-0.1,0.3-0.1c0.5-0.1,1-0.3,1.4-0.4c0.1,0,0.1-0.1,0.2-0.1c0,0,0.1,0.1,0.1,0.2
		c0,0.1-0.1,3.2-0.1,5.9V71.4z"/>
	<path d="M687.5,72.5c0,1.4-0.8,2.3-1.4,2.8c-0.6,0.4-1.4,0.7-2,0.7c-1.9,0-3.5-1.5-3.5-3.3c0-1.4,0.6-2.3,1.3-2.8
		c0.5-0.4,1.3-0.8,2.2-0.8C686,69.1,687.5,70.6,687.5,72.5z M681.9,72.2c0,0.8,0.2,1.7,0.8,2.5c0.5,0.7,1.1,1,1.7,1
		c0.4,0,0.8-0.2,1.1-0.5c0.3-0.3,0.8-1.1,0.8-2.4c0-1.7-0.9-3.4-2.4-3.4C682.9,69.4,681.9,70.3,681.9,72.2z"/>
	<path d="M689.9,70.5c0,0.8,0.7,1.2,1.1,1.5c1.2,0.8,1.6,1.2,1.6,2.1c0,0.8-0.6,1.3-0.9,1.5c-0.4,0.3-1,0.4-1.4,0.4
		c-0.5,0-0.9-0.1-1.4-0.3c-0.1-0.1-0.3-0.2-0.3-0.3c0-0.3,0-0.7-0.1-0.9c0-0.2,0-0.3,0.1-0.3c0.1,0,0.1,0,0.2,0.3
		c0.1,0.4,0.4,0.8,0.8,1c0.3,0.2,0.5,0.2,0.8,0.2c0.5,0,1.2-0.5,1.2-1.2c0-0.7-0.5-1.1-1.2-1.5c-0.8-0.5-1.5-1.2-1.5-2
		c0-0.6,0.3-1.1,0.7-1.4c0.3-0.3,0.8-0.5,1.5-0.5c0.5,0,1,0.1,1.2,0.2c0,0,0.1,0.1,0.1,0.2c0,0.2,0.1,0.6,0.1,0.8
		c0,0.2,0,0.3-0.1,0.3c-0.1,0-0.1-0.1-0.2-0.2c-0.1-0.3-0.2-0.5-0.4-0.7c-0.2-0.1-0.5-0.3-0.8-0.3C690.4,69.3,689.9,69.7,689.9,70.5
		z"/>
	<path d="M699.4,70.9c0,0.1-0.1,0.2-0.2,0.2c-0.1,0-2.5-0.1-2.9-0.1h-1c0,0-0.1,0.1-0.2,0.1c-0.1,0.2-0.1,0.5-0.1,1
		c0,0.9,0.4,1.7,0.8,2.2c0.5,0.5,1.2,0.7,1.8,0.7c0.7,0,1.3-0.2,1.7-0.6c0.1-0.1,0.2-0.1,0.2,0c0,0.1-0.1,0.2-0.2,0.3
		c-0.7,0.8-1.5,1.1-2.5,1.1c-0.8,0-1.6-0.3-2.1-0.9c-0.5-0.6-0.9-1.4-0.9-2.4c0-0.8,0.3-1.9,1-2.6c0.5-0.5,1.3-0.9,2.3-0.9
		C698.2,69.1,699.4,69.8,699.4,70.9z M695.7,70c-0.2,0.3-0.4,0.6-0.4,0.7c0,0,0,0.1,0.1,0.1l2.3,0c0.4,0,0.4-0.2,0.4-0.4
		c0-0.2-0.1-0.5-0.3-0.8c-0.2-0.2-0.5-0.3-0.9-0.3C696.5,69.3,696.1,69.6,695.7,70z"/>
	<path d="M701.7,70.5c0,0.8,0.7,1.2,1.1,1.5c1.2,0.8,1.6,1.2,1.6,2.1c0,0.8-0.6,1.3-0.9,1.5c-0.4,0.3-1,0.4-1.4,0.4
		c-0.5,0-0.9-0.1-1.4-0.3c-0.1-0.1-0.3-0.2-0.3-0.3c0-0.3,0-0.7-0.1-0.9c0-0.2,0-0.3,0.1-0.3c0.1,0,0.1,0,0.2,0.3
		c0.1,0.4,0.4,0.8,0.8,1c0.3,0.2,0.5,0.2,0.8,0.2c0.5,0,1.2-0.5,1.2-1.2c0-0.7-0.5-1.1-1.2-1.5c-0.8-0.5-1.5-1.2-1.5-2
		c0-0.6,0.3-1.1,0.7-1.4c0.3-0.3,0.8-0.5,1.5-0.5c0.5,0,1,0.1,1.2,0.2c0,0,0.1,0.1,0.1,0.2c0,0.2,0.1,0.6,0.1,0.8
		c0,0.2,0,0.3-0.1,0.3c-0.1,0-0.1-0.1-0.2-0.2c-0.1-0.3-0.2-0.5-0.4-0.7c-0.2-0.1-0.5-0.3-0.8-0.3C702.2,69.3,701.7,69.7,701.7,70.5
		z"/>
</g>
<g>
	<path d="M400.3,56.3h2.7V44.5l0.2-1.4l-0.8,1.2l-2,1.6l-0.9-1.1l4.4-4.1h0.9v15.5h2.6v1.6h-7.1V56.3z"/>
	<path d="M418,47.2l-1-2.6h-0.1l0.3,2.6v10.7h-1.7V40.8h1.1l6.2,10.9l1,2.5h0.1l-0.3-2.5V41h1.7v17.1h-1.1L418,47.2z"/>
	<path d="M427.7,51.8c0-2.2,0.4-3.7,1.1-4.8c0.7-1,1.8-1.5,3.2-1.5c1.5,0,2.6,0.5,3.3,1.6c0.7,1,1,2.6,1,4.7c0,2.2-0.4,3.8-1.1,4.8
		c-0.8,1-1.8,1.5-3.2,1.5c-1.5,0-2.6-0.5-3.3-1.6C428.1,55.5,427.7,53.9,427.7,51.8z M429.5,51.8c0,0.7,0,1.3,0.1,1.9
		c0.1,0.6,0.2,1.1,0.4,1.5s0.5,0.7,0.8,1c0.3,0.2,0.7,0.3,1.2,0.3c0.8,0,1.5-0.4,1.9-1.1c0.4-0.7,0.6-1.9,0.6-3.6
		c0-0.7,0-1.3-0.1-1.9c-0.1-0.6-0.2-1.1-0.4-1.5c-0.2-0.4-0.5-0.7-0.8-1s-0.7-0.3-1.2-0.3c-0.8,0-1.4,0.4-1.9,1.1
		C429.7,49,429.5,50.2,429.5,51.8z"/>
	<path d="M441.3,52.9l0.5,2.4h0l0.4-2.4l2.1-7h1.8l-4.1,12.3h-0.8l-4.2-12.3h2L441.3,52.9z"/>
	<path d="M454.9,57c-0.4,0.4-0.9,0.6-1.5,0.8s-1.2,0.3-1.9,0.3c-0.8,0-1.4-0.1-2-0.4c-0.6-0.3-1-0.7-1.4-1.3c-0.4-0.6-0.6-1.2-0.8-2
		c-0.2-0.8-0.3-1.6-0.3-2.6c0-2,0.4-3.6,1.1-4.7c0.8-1.1,1.8-1.6,3.2-1.6c0.4,0,0.9,0.1,1.3,0.2c0.4,0.1,0.8,0.3,1.2,0.7
		c0.4,0.3,0.6,0.8,0.9,1.4c0.2,0.6,0.3,1.4,0.3,2.4c0,0.3,0,0.6,0,0.9c0,0.3-0.1,0.6-0.1,1H449c0,0.7,0.1,1.3,0.2,1.9
		c0.1,0.6,0.3,1,0.5,1.4s0.5,0.7,0.9,0.9c0.4,0.2,0.8,0.3,1.4,0.3c0.4,0,0.9-0.1,1.3-0.2c0.4-0.2,0.7-0.4,1-0.6L454.9,57z
		 M453.5,50.6c0-1.2-0.1-2.1-0.5-2.6c-0.4-0.6-0.9-0.8-1.5-0.8c-0.7,0-1.3,0.3-1.8,0.8c-0.4,0.6-0.7,1.4-0.8,2.6H453.5z"/>
	<path d="M463.2,57.8v-7.1c0-0.6,0-1.2-0.1-1.6s-0.1-0.8-0.3-1.1c-0.1-0.3-0.3-0.5-0.5-0.6c-0.2-0.1-0.5-0.2-0.9-0.2
		c-0.5,0-1,0.2-1.4,0.6s-0.6,0.9-0.8,1.5v8.6h-1.7v-12h1.2l0.3,1.3h0.1c0.3-0.5,0.7-0.8,1.2-1.1s1.1-0.4,1.8-0.4
		c0.6,0,1.1,0.1,1.5,0.4c0.4,0.3,0.7,0.7,0.9,1.4c0.3-0.6,0.7-1,1.2-1.3c0.5-0.3,1.1-0.5,1.8-0.5c0.5,0,1,0.1,1.4,0.2
		c0.4,0.1,0.7,0.4,0.9,0.7c0.2,0.3,0.4,0.8,0.5,1.4c0.1,0.6,0.2,1.3,0.2,2.1v7.8h-1.7v-7.6c0-1-0.1-1.8-0.3-2.3
		c-0.2-0.5-0.7-0.8-1.4-0.8c-0.6,0-1.1,0.2-1.5,0.6c-0.4,0.4-0.6,0.9-0.8,1.5v8.6H463.2z"/>
	<path d="M473.2,41h1.7v5.7h0.1c0.7-0.8,1.5-1.2,2.6-1.2c1.2,0,2.2,0.5,2.8,1.5c0.6,1,0.9,2.5,0.9,4.6c0,2.2-0.4,3.8-1.2,4.8
		c-0.8,1.1-2,1.6-3.5,1.6c-0.7,0-1.4-0.1-2-0.3c-0.6-0.2-1.1-0.4-1.4-0.6V41z M475,56.1c0.2,0.1,0.5,0.2,0.8,0.3
		c0.3,0.1,0.7,0.1,1,0.1c0.8,0,1.5-0.4,2-1.2c0.5-0.8,0.7-2,0.7-3.7c0-0.7,0-1.3-0.1-1.9c-0.1-0.6-0.2-1-0.4-1.4
		c-0.2-0.4-0.4-0.7-0.7-0.9c-0.3-0.2-0.7-0.3-1.1-0.3c-0.6,0-1.1,0.2-1.4,0.5c-0.4,0.3-0.7,0.8-0.8,1.4V56.1z"/>
	<path d="M490.8,57c-0.4,0.4-0.9,0.6-1.5,0.8s-1.2,0.3-1.9,0.3c-0.8,0-1.4-0.1-2-0.4c-0.6-0.3-1-0.7-1.4-1.3c-0.4-0.6-0.6-1.2-0.8-2
		c-0.2-0.8-0.3-1.6-0.3-2.6c0-2,0.4-3.6,1.1-4.7c0.8-1.1,1.8-1.6,3.2-1.6c0.4,0,0.9,0.1,1.3,0.2c0.4,0.1,0.8,0.3,1.2,0.7
		c0.4,0.3,0.6,0.8,0.9,1.4c0.2,0.6,0.3,1.4,0.3,2.4c0,0.3,0,0.6,0,0.9c0,0.3-0.1,0.6-0.1,1h-6.1c0,0.7,0.1,1.3,0.2,1.9
		c0.1,0.6,0.3,1,0.5,1.4s0.5,0.7,0.9,0.9c0.4,0.2,0.8,0.3,1.4,0.3c0.4,0,0.9-0.1,1.3-0.2c0.4-0.2,0.7-0.4,1-0.6L490.8,57z
		 M489.5,50.6c0-1.2-0.1-2.1-0.5-2.6c-0.4-0.6-0.9-0.8-1.5-0.8c-0.7,0-1.3,0.3-1.8,0.8c-0.4,0.6-0.7,1.4-0.8,2.6H489.5z"/>
	<path d="M493.6,45.8h1.2l0.3,1.3h0.1c0.2-0.5,0.5-0.8,0.9-1.1c0.4-0.3,0.8-0.4,1.3-0.4c0.4,0,0.8,0.1,1.2,0.2l-0.3,1.8
		c-0.4-0.1-0.8-0.2-1.1-0.2c-0.5,0-0.9,0.1-1.2,0.4c-0.3,0.3-0.5,0.7-0.6,1.2v8.8h-1.7V45.8z"/>
	<path d="M512.9,57.8h-7.8v-0.8c0.3-0.4,0.7-0.8,1-1.4c0.4-0.6,0.8-1.2,1.2-1.8c0.4-0.7,0.8-1.4,1.2-2.1s0.8-1.5,1.1-2.3
		s0.6-1.5,0.8-2.3s0.3-1.5,0.3-2.2c0-0.8-0.2-1.5-0.6-2c-0.4-0.5-0.9-0.7-1.7-0.7c-0.5,0-0.9,0.1-1.4,0.3c-0.4,0.2-0.8,0.4-1.1,0.6
		l-0.7-1.2c0.4-0.4,1-0.7,1.6-0.9c0.6-0.2,1.3-0.3,2-0.3c1.2,0,2.1,0.4,2.7,1.1c0.6,0.7,0.9,1.7,0.9,2.9c0,0.9-0.1,1.8-0.4,2.8
		c-0.3,1-0.6,1.9-1,2.9c-0.4,0.9-0.9,1.8-1.4,2.7s-1,1.6-1.5,2.3l-1,1.1v0.1l1.3-0.2h4.2V57.8z"/>
	<path d="M515.5,49.4c0-1.5,0.1-2.9,0.3-4c0.2-1.1,0.5-2,0.9-2.7c0.4-0.7,0.9-1.2,1.4-1.5c0.6-0.3,1.2-0.5,1.9-0.5
		c0.8,0,1.4,0.2,2,0.5c0.6,0.3,1,0.8,1.4,1.5c0.4,0.7,0.6,1.6,0.8,2.7c0.2,1.1,0.3,2.4,0.3,4c0,1.6-0.1,2.9-0.3,4
		c-0.2,1.1-0.5,2-0.9,2.7c-0.4,0.7-0.9,1.2-1.4,1.5s-1.2,0.5-1.9,0.5c-0.8,0-1.5-0.2-2-0.5c-0.6-0.3-1-0.9-1.4-1.6s-0.6-1.6-0.8-2.7
		C515.6,52.3,515.5,51,515.5,49.4z M517.3,49.4c0,2.3,0.2,4,0.6,5.3c0.4,1.2,1.1,1.8,2.1,1.8c0.9,0,1.6-0.6,2-1.7
		c0.4-1.1,0.6-2.9,0.6-5.4c0-2.3-0.2-4-0.6-5.3c-0.4-1.2-1.1-1.9-2.1-1.9c-0.9,0-1.6,0.6-2,1.7C517.5,45.1,517.3,46.9,517.3,49.4z"
		/>
	<path d="M527.7,56.3h2.7V44.5l0.2-1.4l-0.8,1.2l-2,1.6l-0.9-1.1l4.4-4.1h0.9v15.5h2.6v1.6h-7.1V56.3z"/>
	<path d="M546.6,52.7h-2.2v5.2h-1.7v-5.2h-5.9v-0.8l6.3-11.1h1.3v10.3h2.2V52.7z M542.6,45.7l0.2-2.1h-0.1l-0.7,1.8l-2.6,4.6
		l-0.9,1.2l1.3-0.2h2.8V45.7z"/>
</g>
<g>
	<path d="M421.2,71c0,0.1-0.1,0.2-0.2,0.2c-0.1,0-2.5-0.1-2.9-0.1h-1c0,0-0.1,0.1-0.2,0.1c-0.1,0.2-0.1,0.5-0.1,1
		c0,0.9,0.4,1.7,0.8,2.2c0.5,0.5,1.2,0.7,1.8,0.7c0.7,0,1.3-0.2,1.7-0.6c0.1-0.1,0.2-0.1,0.2,0c0,0.1-0.1,0.2-0.2,0.3
		c-0.7,0.8-1.5,1.1-2.5,1.1c-0.8,0-1.6-0.3-2.1-0.9c-0.5-0.6-0.9-1.4-0.9-2.4c0-0.8,0.3-1.9,1-2.6c0.5-0.5,1.3-0.9,2.2-0.9
		C420,69.2,421.2,69.9,421.2,71z M417.5,70.1c-0.2,0.3-0.4,0.6-0.4,0.7c0,0,0,0.1,0.1,0.1l2.3,0c0.4,0,0.4-0.2,0.4-0.4
		c0-0.2-0.1-0.5-0.3-0.8c-0.2-0.2-0.5-0.3-0.9-0.3C418.3,69.4,417.9,69.7,417.5,70.1z"/>
	<path d="M426.5,70.1c0.2,0.3,0.3,1.1,0.3,1.6c0,0.7-0.1,2.4-0.1,2.8c0,0.3,0.2,0.7,0.7,0.7c0.1,0,0.3-0.1,0.5-0.2
		c0.1-0.1,0.2,0,0.1,0.2c-0.3,0.5-0.8,0.8-1.4,0.8c-0.5,0-0.9-0.4-1.1-0.8c0,0-0.1,0-0.1,0c-0.5,0.5-1.1,0.8-1.8,0.8
		c-0.7,0-1.4-0.6-1.4-1.5c0-0.6,0.5-0.9,0.6-1c0.4-0.2,2.1-0.7,2.4-0.9c0.1,0,0.2-0.2,0.2-0.3c0-0.2,0-0.6,0-0.8
		c0-0.7-0.1-1.2-0.4-1.5c-0.2-0.2-0.5-0.3-0.8-0.3c-0.3,0-0.5,0.1-0.7,0.2c-0.1,0.1-0.2,0.2-0.3,0.4c0,0.1,0,0.2,0,0.3
		c0,0.1,0,0.1-0.1,0.1c-0.2,0.1-0.7,0.4-0.8,0.4c-0.1,0-0.2-0.1-0.2-0.2c0-0.1,0.1-0.3,0.3-0.5c0.4-0.5,1-0.9,1.4-1
		c0.4-0.2,0.8-0.3,1.1-0.3C425.7,69.2,426.2,69.5,426.5,70.1z M425.3,75c0.1-0.1,0.2-0.2,0.2-0.4c0.1-0.3,0.1-1,0.1-1.7
		c0,0,0-0.1-0.1-0.1c-0.2,0-1.3,0.4-1.7,0.6c-0.2,0.1-0.5,0.4-0.5,0.9c0,0.6,0.5,1,1.1,1C424.8,75.3,425.1,75.2,425.3,75z"/>
	<path d="M430.7,70.5c-0.2,0.2-0.3,0.4-0.3,0.6c0,0.2,0,0.7,0,1.1c0,1.3,0,2.3,0.1,2.6c0.1,0.6,0.3,0.7,1,0.8c0.3,0,0.3,0.1,0.3,0.2
		c0,0.1-0.2,0.1-0.4,0.1c-0.3,0-0.9-0.1-1.7-0.1c-0.6,0-0.8,0.1-1.1,0.1c-0.2,0-0.3,0-0.3-0.1c0-0.1,0.1-0.1,0.3-0.2
		c0.4-0.1,0.6-0.3,0.6-0.7c0-0.3,0.1-1.3,0.1-2.5c0-1.1,0-1.7,0-2c0-0.1-0.1-0.2-0.5-0.5c-0.1-0.1-0.1-0.1-0.1-0.2
		c0,0,0.1-0.1,0.3-0.2c0.4-0.1,0.9-0.3,1.2-0.4c0.1-0.1,0.2-0.1,0.3-0.1c0,0,0.1,0.1,0.1,0.3c0,0.2,0,0.9,0,1.2c0,0.1,0,0.1,0.1,0
		c0.5-0.6,1.2-1.3,1.9-1.3c0.2,0,0.5,0.1,0.6,0.2c0.1,0.1,0.1,0.2,0.1,0.3c0,0.1-0.2,0.4-0.4,0.6c-0.2,0.1-0.2,0.2-0.3,0.2
		c0,0-0.1,0-0.3-0.1c-0.2-0.1-0.4-0.2-0.6-0.2C431.3,70.1,431,70.3,430.7,70.5z"/>
	<path d="M435.6,71.5c0,2.3,0,3.1,0,3.5c0,0.5,0.1,0.6,0.6,0.7c0.1,0,0.2,0.1,0.2,0.1c0,0.1-0.1,0.1-0.4,0.1c-0.3,0-0.9,0-1.2,0
		c-0.5,0-0.9,0-1.2,0c-0.2,0-0.3,0-0.3-0.1c0-0.1,0.1-0.1,0.3-0.2c0.5-0.1,0.6-0.3,0.6-1c0-0.7,0.1-3.7,0.1-5.9c0-1.5,0-2.9,0-3.7
		c0-0.4,0-0.5-0.5-0.8c-0.1-0.1-0.2-0.1-0.2-0.2s0.1-0.1,0.3-0.1c0.5-0.1,1-0.3,1.4-0.4c0.1,0,0.1-0.1,0.2-0.1c0,0,0.1,0.1,0.1,0.2
		c0,0.1-0.1,3.2-0.1,5.9V71.5z"/>
	<path d="M439.3,69.3c0.2,0,0.3,0.1,0.3,0.1c0,0.1-0.1,0.1-0.2,0.1c-0.4,0.1-0.4,0.2-0.3,0.7c0.2,0.6,1.2,3.1,1.6,3.8
		c0,0.1,0.1,0.1,0.1,0c0.2-0.6,1.2-3.2,1.4-3.6c0.1-0.2,0.1-0.4,0.1-0.5c0-0.1-0.1-0.3-0.4-0.4c-0.3-0.1-0.3-0.1-0.3-0.2
		c0-0.1,0.1-0.1,0.3-0.1c0.2,0,0.6,0.1,0.9,0.1c0.3,0,0.6-0.1,0.8-0.1c0.1,0,0.2,0,0.2,0.1c0,0.1-0.1,0.1-0.3,0.2
		c-0.4,0.1-0.5,0.2-0.8,0.9c-0.2,0.5-1.3,3.2-1.6,3.9c-0.2,0.6-0.4,1-0.8,2c-0.4,1-1.1,2.9-1.4,3.5c-0.1,0.3-0.2,0.5-0.3,0.7
		c-0.2,0.3-0.4,0.3-0.6,0.3c-0.3,0-0.6-0.2-0.6-0.6c0-0.3,0.2-0.5,0.5-0.5c0.1,0,0.2,0,0.4,0c0.2,0,0.4-0.1,0.5-0.3
		c0.2-0.4,0.7-1.9,1.3-3.4c0.1-0.2,0.1-0.4,0-0.6c-0.1-0.3-1.4-3.6-2.2-5.4c-0.1-0.2-0.3-0.4-0.6-0.5c-0.2-0.1-0.3-0.1-0.3-0.2
		c0-0.1,0.2-0.1,0.3-0.1c0.3,0,0.8,0.1,1.3,0.1C438.6,69.4,439.1,69.3,439.3,69.3z"/>
	<path d="M448.9,70.5c-0.2,0.2-0.3,0.4-0.3,0.6c0,0.2,0,0.7,0,1.1c0,1.3,0,2.3,0.1,2.6c0.1,0.6,0.3,0.7,1,0.8c0.3,0,0.3,0.1,0.3,0.2
		c0,0.1-0.2,0.1-0.4,0.1c-0.3,0-0.9-0.1-1.7-0.1c-0.6,0-0.8,0.1-1.1,0.1c-0.2,0-0.3,0-0.3-0.1c0-0.1,0.1-0.1,0.3-0.2
		c0.4-0.1,0.6-0.3,0.6-0.7c0-0.3,0.1-1.3,0.1-2.5c0-1.1,0-1.7,0-2c0-0.1-0.1-0.2-0.5-0.5c-0.1-0.1-0.1-0.1-0.1-0.2
		c0,0,0.1-0.1,0.3-0.2c0.4-0.1,0.9-0.3,1.2-0.4c0.1-0.1,0.2-0.1,0.3-0.1c0,0,0.1,0.1,0.1,0.3c0,0.2,0,0.9,0,1.2c0,0.1,0,0.1,0.1,0
		c0.5-0.6,1.2-1.3,1.9-1.3c0.2,0,0.5,0.1,0.6,0.2c0.1,0.1,0.1,0.2,0.1,0.3c0,0.1-0.2,0.4-0.4,0.6c-0.2,0.1-0.2,0.2-0.3,0.2
		c0,0-0.1,0-0.3-0.1c-0.2-0.1-0.4-0.2-0.6-0.2C449.4,70.1,449.1,70.3,448.9,70.5z"/>
	<path d="M457.2,71c0,0.1-0.1,0.2-0.2,0.2c-0.1,0-2.5-0.1-2.9-0.1h-1c0,0-0.1,0.1-0.2,0.1c-0.1,0.2-0.1,0.5-0.1,1
		c0,0.9,0.4,1.7,0.8,2.2c0.5,0.5,1.2,0.7,1.8,0.7c0.7,0,1.3-0.2,1.7-0.6c0.1-0.1,0.2-0.1,0.2,0c0,0.1-0.1,0.2-0.2,0.3
		c-0.7,0.8-1.5,1.1-2.5,1.1c-0.8,0-1.6-0.3-2.1-0.9c-0.5-0.6-0.9-1.4-0.9-2.4c0-0.8,0.3-1.9,1-2.6c0.5-0.5,1.3-0.9,2.2-0.9
		C456.1,69.2,457.2,69.9,457.2,71z M453.5,70.1c-0.2,0.3-0.4,0.6-0.4,0.7c0,0,0,0.1,0.1,0.1l2.3,0c0.4,0,0.4-0.2,0.4-0.4
		c0-0.2-0.1-0.5-0.3-0.8c-0.2-0.2-0.5-0.3-0.9-0.3C454.4,69.4,453.9,69.7,453.5,70.1z"/>
	<path d="M462.8,69.5c0.1,0.1,0.3,0.1,0.6,0.1s1.1,0,1.3,0c0.1,0,0.2,0.2,0.2,0.4c0,0.2-0.1,0.3-0.2,0.3c-0.3,0-0.9,0-1.1,0
		c0,0-0.1,0.1-0.1,0.1c0,0.1,0,0.4,0,0.7c0,1.1-0.5,2-1.1,2.4c-0.6,0.4-1.1,0.5-1.4,0.5c-0.2,0-0.6-0.1-0.8-0.1
		c-0.1,0-0.2,0-0.2,0.1c-0.2,0.1-0.5,0.4-0.6,0.6c-0.2,0.1-0.2,0.3-0.2,0.4c0,0.6,0.7,0.8,1.7,0.8c0.6,0,1.5-0.1,2.1-0.1
		c0.7,0,1.1,0.2,1.4,0.5c0.4,0.3,0.6,0.9,0.6,1.5c0,1.2-1,2.4-2,2.9c-0.7,0.4-1.4,0.6-2.2,0.6c-1.4,0-2.6-0.7-2.6-2
		c0-0.4,0.2-0.6,0.3-0.8c0.1-0.1,0.8-1,1.2-1.4c0,0,0-0.1,0-0.2c-0.5-0.1-1.5-0.7-1.5-1.5c0-0.1,0.1-0.2,0.1-0.2
		c0.5-0.3,1.2-1,1.5-1.3c0,0,0-0.1,0-0.1c-0.6-0.4-1.4-1.2-1.4-2.3c0-0.8,0.3-1.3,0.8-1.7c0.5-0.5,1.2-0.7,1.9-0.7
		C461.9,69.1,462.7,69.4,462.8,69.5z M459.8,80c0.5,0.3,0.8,0.5,1.7,0.5c0.4,0,1.1,0,1.7-0.4c0.5-0.3,1-1.1,1-1.9s-0.5-1.4-1.6-1.4
		c-0.7,0-1.6,0-2.1,0c-0.4,0-0.5,0.1-0.6,0.2c-0.4,0.3-0.8,1-0.8,1.6C459.1,79,459.3,79.7,459.8,80z M460,69.7
		c-0.3,0.3-0.5,1-0.5,1.6c0,0.8,0.3,1.6,0.6,1.9c0.3,0.3,0.6,0.5,1.1,0.5c0.8,0,1.4-1,1.4-1.8c0-0.8-0.2-1.5-0.6-2
		c-0.3-0.4-0.6-0.6-1.1-0.6C460.6,69.3,460.3,69.5,460,69.7z"/>
	<path d="M465.9,69.7c0.5-0.1,0.9-0.3,1.3-0.5c0.1-0.1,0.2-0.1,0.3-0.1c0.1,0,0.1,0.1,0.1,0.3c0,0.4,0,1.5,0,2.6c0,1.5,0,2.8,0,3.2
		c0,0.4,0.2,0.5,0.5,0.5c0.2,0,0.3,0.1,0.3,0.1c0,0.1-0.1,0.1-0.3,0.1c-0.2,0-0.8-0.1-1.3-0.1c-0.6,0-0.9,0-1.1,0
		c-0.1,0-0.3,0-0.3-0.1c0-0.1,0.1-0.1,0.3-0.2c0.4-0.1,0.6-0.3,0.6-1c0-0.5,0.1-3.8,0.1-4c0-0.3,0-0.4-0.5-0.6
		c-0.1-0.1-0.1-0.1-0.1-0.1C465.7,69.8,465.8,69.7,465.9,69.7z M467.7,66.8c0,0.5-0.4,0.7-0.7,0.7c-0.3,0-0.6-0.3-0.6-0.7
		c0-0.5,0.3-0.7,0.6-0.7C467.5,66.1,467.7,66.5,467.7,66.8z"/>
	<path d="M470.5,70.6c0,0.8,0.7,1.2,1.1,1.5c1.2,0.8,1.6,1.2,1.6,2.1c0,0.8-0.6,1.3-0.9,1.5c-0.4,0.3-1,0.4-1.4,0.4
		c-0.5,0-0.9-0.1-1.4-0.3c-0.1-0.1-0.3-0.2-0.3-0.3c0-0.3,0-0.7-0.1-0.9c0-0.2,0-0.3,0.1-0.3c0.1,0,0.1,0,0.2,0.3
		c0.1,0.4,0.4,0.8,0.8,1c0.3,0.2,0.5,0.2,0.8,0.2c0.5,0,1.2-0.5,1.2-1.2c0-0.7-0.5-1.1-1.2-1.5c-0.8-0.5-1.5-1.2-1.5-2
		c0-0.6,0.3-1.1,0.7-1.4c0.3-0.3,0.8-0.5,1.5-0.5c0.5,0,1,0.1,1.2,0.2c0,0,0.1,0.1,0.1,0.2c0,0.2,0.1,0.6,0.1,0.8
		c0,0.2,0,0.3-0.1,0.3c-0.1,0-0.1-0.1-0.2-0.2c-0.1-0.3-0.2-0.5-0.4-0.7c-0.2-0.1-0.5-0.3-0.8-0.3C471,69.4,470.5,69.8,470.5,70.6z"
		/>
	<path d="M475.1,75.2c-0.1-0.2-0.2-0.6-0.2-1v-3.7c0-0.2,0-0.3-0.1-0.4c-0.1,0-0.3-0.1-0.4-0.1c-0.1,0-0.2-0.1-0.2-0.2
		c0,0,0-0.1,0.2-0.2c0.5-0.2,1-0.6,1.5-1.2c0.2-0.2,0.3-0.1,0.3-0.1c0,0.2,0,0.7,0,0.9c0,0.1,0,0.2,0.1,0.2c0.3,0,1.8-0.1,2.2-0.1
		c0,0,0.1,0.1,0.1,0.3c0,0.3-0.1,0.5-0.2,0.5c-0.6,0-1.5,0-2,0c-0.2,0-0.3,0.1-0.3,0.2c0,0.3,0,3.1,0,3.7c0,0.6,0.1,0.8,0.2,1
		c0.3,0.3,0.6,0.5,1.1,0.5c0.5,0,0.8-0.2,1-0.3c0.1-0.1,0.2-0.1,0.2,0c0,0.1-0.2,0.3-0.4,0.5c-0.4,0.3-1,0.5-1.5,0.5
		C476,76,475.4,75.7,475.1,75.2z"/>
	<path d="M481.5,70.5c-0.2,0.2-0.3,0.4-0.3,0.6c0,0.2,0,0.7,0,1.1c0,1.3,0,2.3,0.1,2.6c0.1,0.6,0.3,0.7,1,0.8c0.3,0,0.3,0.1,0.3,0.2
		c0,0.1-0.2,0.1-0.4,0.1c-0.3,0-0.9-0.1-1.7-0.1c-0.6,0-0.8,0.1-1.1,0.1c-0.2,0-0.3,0-0.3-0.1c0-0.1,0.1-0.1,0.3-0.2
		c0.4-0.1,0.6-0.3,0.6-0.7c0-0.3,0.1-1.3,0.1-2.5c0-1.1,0-1.7,0-2c0-0.1-0.1-0.2-0.5-0.5c-0.1-0.1-0.1-0.1-0.1-0.2
		c0,0,0.1-0.1,0.3-0.2c0.4-0.1,0.9-0.3,1.2-0.4c0.1-0.1,0.2-0.1,0.3-0.1c0,0,0.1,0.1,0.1,0.3c0,0.2,0,0.9,0,1.2c0,0.1,0,0.1,0.1,0
		c0.5-0.6,1.2-1.3,1.9-1.3c0.2,0,0.5,0.1,0.6,0.2c0.1,0.1,0.1,0.2,0.1,0.3c0,0.1-0.2,0.4-0.4,0.6c-0.2,0.1-0.2,0.2-0.3,0.2
		c0,0-0.1,0-0.3-0.1c-0.2-0.1-0.4-0.2-0.6-0.2C482,70.1,481.7,70.3,481.5,70.5z"/>
	<path d="M488.6,70.1c0.2,0.3,0.3,1.1,0.3,1.6c0,0.7-0.1,2.4-0.1,2.8c0,0.3,0.2,0.7,0.7,0.7c0.1,0,0.3-0.1,0.5-0.2
		c0.1-0.1,0.2,0,0.1,0.2c-0.3,0.5-0.8,0.8-1.4,0.8c-0.5,0-0.9-0.4-1.1-0.8c0,0-0.1,0-0.1,0c-0.5,0.5-1.1,0.8-1.8,0.8
		c-0.7,0-1.4-0.6-1.4-1.5c0-0.6,0.5-0.9,0.6-1c0.4-0.2,2.1-0.7,2.4-0.9c0.1,0,0.2-0.2,0.2-0.3c0-0.2,0-0.6,0-0.8
		c0-0.7-0.1-1.2-0.4-1.5c-0.2-0.2-0.5-0.3-0.8-0.3c-0.3,0-0.5,0.1-0.7,0.2c-0.1,0.1-0.2,0.2-0.3,0.4c0,0.1,0,0.2,0,0.3
		c0,0.1,0,0.1-0.1,0.1c-0.2,0.1-0.7,0.4-0.8,0.4c-0.1,0-0.2-0.1-0.2-0.2c0-0.1,0.1-0.3,0.3-0.5c0.4-0.5,1-0.9,1.4-1
		c0.4-0.2,0.8-0.3,1.1-0.3C487.8,69.2,488.4,69.5,488.6,70.1z M487.4,75c0.1-0.1,0.2-0.2,0.2-0.4c0.1-0.3,0.1-1,0.1-1.7
		c0,0,0-0.1-0.1-0.1c-0.2,0-1.3,0.4-1.7,0.6c-0.2,0.1-0.5,0.4-0.5,0.9c0,0.6,0.5,1,1.1,1C486.9,75.3,487.2,75.2,487.4,75z"/>
	<path d="M491.3,75.2c-0.1-0.2-0.2-0.6-0.2-1v-3.7c0-0.2,0-0.3-0.1-0.4c-0.1,0-0.3-0.1-0.4-0.1c-0.1,0-0.2-0.1-0.2-0.2
		c0,0,0-0.1,0.2-0.2c0.5-0.2,1-0.6,1.5-1.2c0.2-0.2,0.3-0.1,0.3-0.1c0,0.2,0,0.7,0,0.9c0,0.1,0,0.2,0.1,0.2c0.3,0,1.8-0.1,2.2-0.1
		c0,0,0.1,0.1,0.1,0.3c0,0.3-0.1,0.5-0.2,0.5c-0.6,0-1.5,0-2,0c-0.2,0-0.3,0.1-0.3,0.2c0,0.3,0,3.1,0,3.7c0,0.6,0.1,0.8,0.2,1
		c0.3,0.3,0.6,0.5,1.1,0.5c0.5,0,0.8-0.2,1-0.3c0.1-0.1,0.2-0.1,0.2,0c0,0.1-0.2,0.3-0.4,0.5c-0.4,0.3-1,0.5-1.5,0.5
		C492.2,76,491.6,75.7,491.3,75.2z"/>
	<path d="M495.7,69.7c0.5-0.1,0.9-0.3,1.3-0.5c0.1-0.1,0.2-0.1,0.3-0.1c0.1,0,0.1,0.1,0.1,0.3c0,0.4,0,1.5,0,2.6c0,1.5,0,2.8,0,3.2
		c0,0.4,0.2,0.5,0.5,0.5c0.2,0,0.3,0.1,0.3,0.1c0,0.1-0.1,0.1-0.3,0.1c-0.2,0-0.8-0.1-1.3-0.1c-0.6,0-0.9,0-1.1,0
		c-0.1,0-0.3,0-0.3-0.1c0-0.1,0.1-0.1,0.3-0.2c0.4-0.1,0.6-0.3,0.6-1c0-0.5,0.1-3.8,0.1-4c0-0.3,0-0.4-0.5-0.6
		c-0.1-0.1-0.1-0.1-0.1-0.1C495.5,69.8,495.5,69.7,495.7,69.7z M497.5,66.8c0,0.5-0.4,0.7-0.7,0.7c-0.3,0-0.6-0.3-0.6-0.7
		c0-0.5,0.3-0.7,0.6-0.7C497.3,66.1,497.5,66.5,497.5,66.8z"/>
	<path d="M506.1,72.6c0,1.4-0.8,2.3-1.4,2.8c-0.6,0.4-1.4,0.7-2,0.7c-1.9,0-3.5-1.5-3.5-3.3c0-1.4,0.6-2.3,1.3-2.8
		c0.5-0.4,1.3-0.8,2.2-0.8C504.6,69.2,506.1,70.7,506.1,72.6z M500.4,72.3c0,0.8,0.2,1.7,0.8,2.5c0.5,0.7,1.1,1,1.7,1
		c0.4,0,0.8-0.2,1.1-0.5c0.3-0.3,0.8-1.1,0.8-2.4c0-1.7-0.9-3.4-2.4-3.4C501.4,69.5,500.4,70.4,500.4,72.3z"/>
	<path d="M512.9,69.8c0.4,0.4,0.6,1.3,0.6,2.4c0,1,0,1.1,0,2c0,1.2,0.1,1.3,0.6,1.5c0.2,0.1,0.3,0.1,0.3,0.2c0,0.1-0.1,0.1-0.3,0.1
		c-0.2,0-0.8-0.1-1.2-0.1c-0.6,0-0.8,0.1-1.1,0.1c-0.2,0-0.3,0-0.3-0.1c0-0.1,0.1-0.1,0.3-0.2c0.4-0.1,0.5-0.2,0.5-0.8v-2.4
		c0-1.5-0.1-1.9-0.6-2.2c-0.3-0.2-0.6-0.3-1-0.3c-0.5,0-0.9,0.2-1.4,0.6c-0.1,0.1-0.2,0.4-0.2,0.5c0,0.2,0,1.1,0,2.2
		c0,1.2,0.1,1.6,0.1,1.9c0.1,0.4,0.3,0.5,0.6,0.6c0.2,0.1,0.3,0.1,0.3,0.2c0,0.1-0.2,0.1-0.4,0.1c-0.1,0-1-0.1-1.4-0.1
		c-0.2,0-0.6,0-1,0c-0.2,0-0.3,0-0.3-0.1c0-0.1,0.2-0.1,0.4-0.2c0.5-0.1,0.5-0.2,0.5-0.6c0-1.3,0-3,0-4.4c0-0.2,0-0.4-0.5-0.6
		c-0.1-0.1-0.1-0.1-0.1-0.2c0,0,0.1-0.1,0.3-0.1c0.4-0.1,1.1-0.4,1.4-0.6c0.1,0,0.1,0.1,0.1,0.1c0,0.2-0.1,0.7,0,1
		c0,0,0.1,0.1,0.1,0.1c0.5-0.3,0.9-0.6,1.3-0.8c0.4-0.2,0.8-0.2,1.1-0.2C512.2,69.2,512.7,69.5,512.9,69.8z"/>
	<path d="M523.4,71c0,0.1-0.1,0.2-0.2,0.2c-0.1,0-2.5-0.1-2.9-0.1h-1c0,0-0.1,0.1-0.2,0.1c-0.1,0.2-0.1,0.5-0.1,1
		c0,0.9,0.4,1.7,0.8,2.2c0.5,0.5,1.2,0.7,1.8,0.7c0.7,0,1.3-0.2,1.7-0.6c0.1-0.1,0.2-0.1,0.2,0c0,0.1-0.1,0.2-0.2,0.3
		c-0.7,0.8-1.5,1.1-2.5,1.1c-0.8,0-1.6-0.3-2.1-0.9c-0.5-0.6-0.9-1.4-0.9-2.4c0-0.8,0.3-1.9,1-2.6c0.5-0.5,1.3-0.9,2.2-0.9
		C522.2,69.2,523.4,69.9,523.4,71z M519.7,70.1c-0.2,0.3-0.4,0.6-0.4,0.7c0,0,0,0.1,0.1,0.1l2.3,0c0.4,0,0.4-0.2,0.4-0.4
		c0-0.2-0.1-0.5-0.3-0.8c-0.2-0.2-0.5-0.3-0.9-0.3C520.5,69.4,520.1,69.7,519.7,70.1z"/>
	<path d="M530,69.8c0.4,0.4,0.6,1.3,0.6,2.4c0,1,0,1.1,0,2c0,1.2,0.1,1.3,0.6,1.5c0.2,0.1,0.3,0.1,0.3,0.2c0,0.1-0.1,0.1-0.3,0.1
		c-0.2,0-0.8-0.1-1.2-0.1c-0.6,0-0.8,0.1-1.1,0.1c-0.2,0-0.3,0-0.3-0.1c0-0.1,0.1-0.1,0.3-0.2c0.4-0.1,0.5-0.2,0.5-0.8v-2.4
		c0-1.5-0.1-1.9-0.6-2.2c-0.3-0.2-0.6-0.3-1-0.3c-0.5,0-0.9,0.2-1.4,0.6c-0.1,0.1-0.2,0.4-0.2,0.5c0,0.2,0,1.1,0,2.2
		c0,1.2,0.1,1.6,0.1,1.9c0.1,0.4,0.3,0.5,0.6,0.6c0.2,0.1,0.3,0.1,0.3,0.2c0,0.1-0.2,0.1-0.4,0.1c-0.1,0-1-0.1-1.4-0.1
		c-0.2,0-0.6,0-1,0c-0.2,0-0.3,0-0.3-0.1c0-0.1,0.2-0.1,0.4-0.2c0.5-0.1,0.5-0.2,0.5-0.6c0-1.3,0-3,0-4.4c0-0.2,0-0.4-0.5-0.6
		c-0.1-0.1-0.1-0.1-0.1-0.2c0,0,0.1-0.1,0.3-0.1c0.4-0.1,1.1-0.4,1.4-0.6c0.1,0,0.1,0.1,0.1,0.1c0,0.2-0.1,0.7,0,1
		c0,0,0.1,0.1,0.1,0.1c0.5-0.3,0.9-0.6,1.3-0.8c0.4-0.2,0.8-0.2,1.1-0.2C529.4,69.2,529.8,69.5,530,69.8z"/>
	<path d="M537.3,69.4C537.4,69.4,537.4,69.3,537.3,69.4c0.1-0.4,0.1-3.6,0.1-4.6c0-0.1,0-0.2-0.1-0.3c-0.1-0.1-0.3-0.2-0.5-0.3
		c-0.1,0-0.2-0.1-0.2-0.1c0-0.1,0.1-0.1,0.2-0.1c0.6-0.1,1.4-0.3,1.5-0.4c0.1-0.1,0.2-0.1,0.3-0.1c0.1,0,0.1,0.1,0.1,0.3
		c0,0.5-0.1,6.4-0.1,8.2c0,1.6,0,2.8,0,3.3c0,0.1,0.1,0.2,0.1,0.2c0.1,0,0.4-0.1,0.8-0.2c0.1,0,0.2,0,0.2,0.1c0,0.1-0.1,0.3-0.5,0.3
		c-0.7,0.1-1.4,0.3-1.9,0.5c-0.1,0-0.1-0.1-0.1-0.1c0-0.3,0.1-0.5,0-0.7c0,0,0-0.1-0.1,0c-0.8,0.6-1.5,0.8-2.1,0.8
		c-0.6,0-1.3-0.2-1.9-0.8c-0.5-0.4-0.9-1.3-0.9-2.4c0-1.5,0.8-2.5,1.6-3c0.6-0.4,1.4-0.7,2.2-0.7C536.5,69.2,537.1,69.3,537.3,69.4z
		 M534.6,69.8c-0.5,0.4-1,1.3-1,2.6c0,1.9,1.1,3,2.2,3c0.4,0,0.9-0.1,1.3-0.5c0.1-0.1,0.2-0.4,0.2-0.7c0.1-0.6,0.1-2.9,0-3.5
		c0-0.2-0.1-0.4-0.2-0.4c-0.4-0.6-1.1-0.8-1.6-0.8C535.1,69.5,534.9,69.6,534.6,69.8z"/>
	<path d="M541.7,70.6c0,0.8,0.7,1.2,1.1,1.5c1.2,0.8,1.6,1.2,1.6,2.1c0,0.8-0.6,1.3-0.9,1.5c-0.4,0.3-1,0.4-1.4,0.4
		c-0.5,0-0.9-0.1-1.4-0.3c-0.1-0.1-0.3-0.2-0.3-0.3c0-0.3,0-0.7-0.1-0.9c0-0.2,0-0.3,0.1-0.3c0.1,0,0.1,0,0.2,0.3
		c0.1,0.4,0.4,0.8,0.8,1c0.3,0.2,0.5,0.2,0.8,0.2c0.5,0,1.2-0.5,1.2-1.2c0-0.7-0.5-1.1-1.2-1.5c-0.8-0.5-1.5-1.2-1.5-2
		c0-0.6,0.3-1.1,0.7-1.4c0.3-0.3,0.8-0.5,1.5-0.5c0.5,0,1,0.1,1.2,0.2c0,0,0.1,0.1,0.1,0.2c0,0.2,0.1,0.6,0.1,0.8
		c0,0.2,0,0.3-0.1,0.3c-0.1,0-0.1-0.1-0.2-0.2c-0.1-0.3-0.2-0.5-0.4-0.7c-0.2-0.1-0.5-0.3-0.8-0.3C542.2,69.4,541.7,69.8,541.7,70.6
		z"/>
</g>
</svg>
