<?xml version="1.0" encoding="utf-8"?>
<!-- Generator: Adobe Illustrator 18.0.0, SVG Export Plug-In . SVG Version: 6.00 Build 0)  -->
<!DOCTYPE svg PUBLIC "-//W3C//DTD SVG 1.1//EN" "http://www.w3.org/Graphics/SVG/1.1/DTD/svg11.dtd">
<svg version="1.1" id="Layer_1" xmlns="http://www.w3.org/2000/svg" xmlns:xlink="http://www.w3.org/1999/xlink" x="0px" y="0px"
	 viewBox="0 0 940 90" enable-background="new 0 0 940 90" xml:space="preserve">
<rect y="9.5" opacity="0.5" fill="#BDCCD4" width="40" height="24"/>
<rect x="1" y="9.5" fill="none" stroke="#000000" stroke-width="2" stroke-miterlimit="10" width="938" height="24"/>
<line fill="none" x1="1" y1="32.5" x2="1" y2="80.5"/>
<line fill="none" stroke="#000000" stroke-width="2" stroke-miterlimit="10" x1="547" y1="32.5" x2="547" y2="80.5"/>
<line fill="none" stroke="#000000" stroke-width="2" stroke-miterlimit="10" x1="713" y1="32.5" x2="713" y2="80.5"/>
<line fill="none" stroke="#000000" stroke-width="2" stroke-miterlimit="10" x1="939" y1="32.5" x2="939" y2="80.5"/>
<g>
	<path d="M803.4,56.3h2.7V44.5l0.2-1.4l-0.8,1.2l-2,1.6l-0.9-1.1l4.4-4.1h0.9v15.5h2.6v1.6h-7.1V56.3z"/>
	<path d="M820.6,41v1.7H816v4.9l0.8-0.1c1.3,0,2.3,0.5,3,1.3c0.7,0.9,1.1,2.1,1.1,3.7c0,0.9-0.1,1.7-0.4,2.4s-0.6,1.3-1,1.7
		c-0.4,0.5-0.9,0.8-1.5,1.1c-0.6,0.2-1.2,0.4-1.8,0.4c-1.1,0-2-0.1-2.7-0.4l0.4-1.5c0.3,0.1,0.6,0.2,1,0.3s0.8,0.1,1.2,0.1
		c0.9,0,1.7-0.3,2.2-1c0.6-0.7,0.9-1.6,0.9-2.8c0-1.2-0.3-2.2-0.9-2.8c-0.6-0.6-1.4-0.9-2.4-0.9l-1.6,0.1V41H820.6z"/>
	<path d="M830.1,41h1.8v13c0,1.3-0.2,2.3-0.6,3c-0.4,0.7-1.2,1-2.2,1c-0.3,0-0.6,0-0.9-0.1c-0.4-0.1-0.7-0.2-0.9-0.3l0.4-1.6
		c0.2,0.1,0.3,0.2,0.5,0.2c0.2,0,0.4,0.1,0.6,0.1c0.3,0,0.5-0.1,0.7-0.2c0.2-0.1,0.3-0.3,0.4-0.5c0.1-0.2,0.2-0.5,0.2-0.8
		c0-0.3,0-0.7,0-1.1V41z"/>
	<path d="M835,46.6c0.5-0.3,1-0.5,1.7-0.7c0.7-0.2,1.4-0.2,2.1-0.2c0.7,0,1.2,0.1,1.6,0.3c0.4,0.2,0.7,0.5,1,0.8
		c0.2,0.3,0.4,0.7,0.5,1.2s0.1,0.9,0.1,1.4c0,1,0,1.9-0.1,2.8s-0.1,1.8-0.1,2.6c0,0.6,0,1.2,0.1,1.7c0,0.5,0.1,1,0.2,1.5h-1.4
		l-0.4-1.4h-0.1c-0.2,0.4-0.6,0.8-1,1.1c-0.5,0.3-1.1,0.5-1.9,0.5c-0.9,0-1.6-0.3-2.1-0.9s-0.8-1.4-0.8-2.5c0-0.7,0.1-1.3,0.3-1.7
		s0.6-0.8,1-1.1c0.4-0.3,0.9-0.5,1.5-0.6s1.2-0.2,1.9-0.2c0.2,0,0.3,0,0.5,0c0.2,0,0.3,0,0.5,0c0-0.5,0.1-0.9,0.1-1.3
		c0-0.9-0.1-1.6-0.4-1.9c-0.3-0.4-0.8-0.6-1.5-0.6c-0.4,0-0.9,0.1-1.5,0.2c-0.5,0.1-1,0.3-1.3,0.5L835,46.6z M840.1,52.4
		c-0.2,0-0.3,0-0.5,0s-0.3,0-0.5,0c-0.4,0-0.8,0-1.1,0.1c-0.4,0.1-0.7,0.2-1,0.3c-0.3,0.2-0.5,0.4-0.7,0.6s-0.2,0.6-0.2,1
		c0,0.6,0.2,1.1,0.5,1.5c0.3,0.4,0.7,0.5,1.2,0.5c0.7,0,1.2-0.2,1.5-0.5c0.4-0.3,0.6-0.7,0.8-1.1V52.4z"/>
	<path d="M850.8,57.8v-7.3c0-1.2-0.1-2.1-0.4-2.6c-0.3-0.5-0.8-0.8-1.5-0.8c-0.6,0-1.2,0.2-1.6,0.6c-0.4,0.4-0.7,0.9-0.9,1.4v8.7
		h-1.7v-12h1.2l0.3,1.3h0.1c0.3-0.4,0.7-0.8,1.2-1.1c0.5-0.3,1.1-0.5,1.9-0.5c0.5,0,1,0.1,1.4,0.2c0.4,0.1,0.7,0.4,1,0.7
		c0.3,0.3,0.5,0.8,0.6,1.4s0.2,1.3,0.2,2.2v7.8H850.8z"/>
	<path d="M856.8,45.8v7.3c0,1.2,0.1,2.1,0.4,2.6s0.7,0.8,1.4,0.8c0.3,0,0.6-0.1,0.9-0.2c0.3-0.1,0.5-0.3,0.7-0.5
		c0.2-0.2,0.4-0.5,0.6-0.8c0.2-0.3,0.3-0.6,0.4-0.9v-8.3h1.7v8.6c0,0.6,0,1.2,0.1,1.8c0,0.6,0.1,1.2,0.2,1.6h-1.2l-0.4-1.7h-0.1
		c-0.3,0.5-0.7,1-1.2,1.4c-0.5,0.4-1.2,0.6-1.9,0.6c-0.5,0-1-0.1-1.3-0.2c-0.4-0.1-0.7-0.4-1-0.7c-0.3-0.3-0.5-0.8-0.6-1.4
		c-0.1-0.6-0.2-1.3-0.2-2.2v-7.8H856.8z"/>
	<path d="M865.5,46.6c0.5-0.3,1-0.5,1.7-0.7c0.7-0.2,1.4-0.2,2.1-0.2c0.7,0,1.2,0.1,1.6,0.3c0.4,0.2,0.7,0.5,1,0.8
		c0.2,0.3,0.4,0.7,0.5,1.2s0.1,0.9,0.1,1.4c0,1,0,1.9-0.1,2.8s-0.1,1.8-0.1,2.6c0,0.6,0,1.2,0.1,1.7c0,0.5,0.1,1,0.2,1.5h-1.4
		l-0.4-1.4h-0.1c-0.2,0.4-0.6,0.8-1,1.1c-0.5,0.3-1.1,0.5-1.9,0.5c-0.9,0-1.6-0.3-2.1-0.9s-0.8-1.4-0.8-2.5c0-0.7,0.1-1.3,0.3-1.7
		s0.6-0.8,1-1.1c0.4-0.3,0.9-0.5,1.5-0.6s1.2-0.2,1.9-0.2c0.2,0,0.3,0,0.5,0c0.2,0,0.3,0,0.5,0c0-0.5,0.1-0.9,0.1-1.3
		c0-0.9-0.1-1.6-0.4-1.9c-0.3-0.4-0.8-0.6-1.5-0.6c-0.4,0-0.9,0.1-1.5,0.2c-0.5,0.1-1,0.3-1.3,0.5L865.5,46.6z M870.7,52.4
		c-0.2,0-0.3,0-0.5,0s-0.3,0-0.5,0c-0.4,0-0.8,0-1.1,0.1c-0.4,0.1-0.7,0.2-1,0.3c-0.3,0.2-0.5,0.4-0.7,0.6s-0.2,0.6-0.2,1
		c0,0.6,0.2,1.1,0.5,1.5c0.3,0.4,0.7,0.5,1.2,0.5c0.7,0,1.2-0.2,1.5-0.5c0.4-0.3,0.6-0.7,0.8-1.1V52.4z"/>
	<path d="M875.2,45.8h1.2l0.3,1.3h0.1c0.2-0.5,0.5-0.8,0.9-1.1c0.4-0.3,0.8-0.4,1.3-0.4c0.4,0,0.8,0.1,1.2,0.2l-0.3,1.8
		c-0.4-0.1-0.8-0.2-1.1-0.2c-0.5,0-0.9,0.1-1.2,0.4c-0.3,0.3-0.5,0.7-0.6,1.2v8.8h-1.7V45.8z"/>
	<path d="M884.8,53.6l0.5,2.3h0.1l0.4-2.3l1.8-7.8h1.8l-2.9,10.8c-0.2,0.9-0.4,1.7-0.7,2.4c-0.2,0.8-0.5,1.4-0.7,2
		c-0.3,0.6-0.6,1-0.9,1.3s-0.7,0.5-1.2,0.5s-0.8-0.1-1.2-0.2l0.3-1.6c0.2,0.1,0.4,0.1,0.7,0c0.2,0,0.4-0.2,0.6-0.4s0.4-0.6,0.6-1
		s0.3-1,0.4-1.7l-3.9-12h2L884.8,53.6z"/>
	<path d="M902.9,57.8h-7.8v-0.8c0.3-0.4,0.7-0.8,1-1.4c0.4-0.6,0.8-1.2,1.2-1.8c0.4-0.7,0.8-1.4,1.2-2.1s0.8-1.5,1.1-2.3
		s0.6-1.5,0.8-2.3s0.3-1.5,0.3-2.2c0-0.8-0.2-1.5-0.6-2c-0.4-0.5-0.9-0.7-1.7-0.7c-0.5,0-0.9,0.1-1.4,0.3c-0.4,0.2-0.8,0.4-1.1,0.6
		l-0.7-1.2c0.4-0.4,1-0.7,1.6-0.9c0.6-0.2,1.3-0.3,2-0.3c1.2,0,2.1,0.4,2.7,1.1c0.6,0.7,0.9,1.7,0.9,2.9c0,0.9-0.1,1.8-0.4,2.8
		c-0.3,1-0.6,1.9-1,2.9c-0.4,0.9-0.9,1.8-1.4,2.7s-1,1.6-1.5,2.3l-1,1.1v0.1l1.3-0.2h4.2V57.8z"/>
	<path d="M905.5,49.4c0-1.5,0.1-2.9,0.3-4c0.2-1.1,0.5-2,0.9-2.7c0.4-0.7,0.9-1.2,1.4-1.5c0.6-0.3,1.2-0.5,1.9-0.5
		c0.8,0,1.4,0.2,2,0.5c0.6,0.3,1,0.8,1.4,1.5c0.4,0.7,0.6,1.6,0.8,2.7c0.2,1.1,0.3,2.4,0.3,4c0,1.6-0.1,2.9-0.3,4
		c-0.2,1.1-0.5,2-0.9,2.7c-0.4,0.7-0.9,1.2-1.4,1.5s-1.2,0.5-1.9,0.5c-0.8,0-1.5-0.2-2-0.5c-0.6-0.3-1-0.9-1.4-1.6s-0.6-1.6-0.8-2.7
		C905.6,52.3,905.5,51,905.5,49.4z M907.3,49.4c0,2.3,0.2,4,0.6,5.3c0.4,1.2,1.1,1.8,2.1,1.8c0.9,0,1.6-0.6,2-1.7
		c0.4-1.1,0.6-2.9,0.6-5.4c0-2.3-0.2-4-0.6-5.3c-0.4-1.2-1.1-1.9-2.1-1.9c-0.9,0-1.6,0.6-2,1.7C907.5,45.1,907.3,46.9,907.3,49.4z"
		/>
	<path d="M917.7,56.3h2.7V44.5l0.2-1.4l-0.8,1.2l-2,1.6l-0.9-1.1l4.4-4.1h0.9v15.5h2.6v1.6h-7.1V56.3z"/>
	<path d="M934.8,41v1.7h-4.6v4.9l0.8-0.1c1.3,0,2.3,0.5,3,1.3c0.7,0.9,1.1,2.1,1.1,3.7c0,0.9-0.1,1.7-0.4,2.4s-0.6,1.3-1,1.7
		c-0.4,0.5-0.9,0.8-1.5,1.1c-0.6,0.2-1.2,0.4-1.8,0.4c-1.1,0-2-0.1-2.7-0.4l0.4-1.5c0.3,0.1,0.6,0.2,1,0.3s0.8,0.1,1.2,0.1
		c0.9,0,1.7-0.3,2.2-1c0.6-0.7,0.9-1.6,0.9-2.8c0-1.2-0.3-2.2-0.9-2.8c-0.6-0.6-1.4-0.9-2.4-0.9l-1.6,0.1V41H934.8z"/>
</g>
<g>
	<path d="M843,69.2c0.2,0,0.3,0,0.3,0.1c0,0.1-0.2,0.1-0.3,0.1c-0.4,0.1-0.4,0.2-0.3,0.5c0.3,0.8,1,2.9,1.5,3.9c0,0.1,0.1,0.1,0.1,0
		c0.3-0.6,1.1-2.4,1.3-2.8c0-0.1,0.1-0.2,0-0.3c-0.1-0.2-0.2-0.5-0.3-0.7c-0.1-0.3-0.3-0.5-0.7-0.6c-0.2,0-0.3-0.1-0.3-0.1
		c0-0.1,0.1-0.1,0.3-0.1c0.4,0,0.8,0.1,1.2,0.1c0.5,0,0.7,0,1.1,0c0.2,0,0.3,0,0.3,0.1c0,0.1-0.1,0.1-0.3,0.2
		c-0.4,0.1-0.5,0.2-0.3,0.7c0.2,0.6,1.2,3.2,1.4,3.7c0.1,0.1,0.1,0,0.1,0c0.2-0.5,1.1-2.5,1.3-3.1c0.2-0.4,0.3-0.7,0.3-0.9
		c0-0.2-0.1-0.3-0.5-0.5c-0.2-0.1-0.3-0.1-0.3-0.2c0-0.1,0.1-0.1,0.2-0.1c0.3,0,0.6,0.1,0.9,0.1c0.2,0,0.6-0.1,0.9-0.1
		c0.2,0,0.3,0,0.3,0.1c0,0.1-0.1,0.1-0.3,0.2c-0.3,0.1-0.5,0.3-0.8,0.8c-0.3,0.6-0.9,1.9-1.4,3.2c-0.3,0.7-0.6,1.5-0.8,2.1
		c-0.1,0.3-0.2,0.3-0.2,0.3c-0.1,0-0.1-0.1-0.2-0.3c-0.1-0.3-0.2-0.6-0.4-1.2c-0.3-1-0.7-2-1.1-3c0-0.1-0.1-0.1-0.1,0
		c-0.2,0.3-0.9,2-1.2,2.6c-0.3,0.6-0.4,1-0.6,1.5c-0.1,0.3-0.2,0.3-0.3,0.3c-0.1,0-0.1-0.1-0.2-0.3c-0.1-0.3-0.2-0.7-0.5-1.5
		c-0.3-0.9-1.4-3.5-1.5-3.9c-0.1-0.3-0.3-0.6-0.8-0.7c-0.1,0-0.3-0.1-0.3-0.1c0-0.1,0.1-0.1,0.3-0.1c0.2,0,0.8,0.1,1.3,0.1
		C842.3,69.3,842.7,69.2,843,69.2z"/>
	<path d="M858.1,72.5c0,1.4-0.8,2.3-1.4,2.8c-0.6,0.4-1.4,0.7-2,0.7c-1.9,0-3.5-1.5-3.5-3.3c0-1.4,0.6-2.3,1.3-2.8
		c0.5-0.4,1.3-0.8,2.2-0.8C856.6,69.1,858.1,70.6,858.1,72.5z M852.5,72.2c0,0.8,0.2,1.7,0.8,2.5c0.5,0.7,1.1,1,1.7,1
		c0.4,0,0.8-0.2,1.1-0.5c0.3-0.3,0.8-1.1,0.8-2.4c0-1.7-0.9-3.4-2.4-3.4C853.5,69.4,852.5,70.3,852.5,72.2z"/>
	<path d="M861.5,70.4c-0.2,0.2-0.3,0.4-0.3,0.6c0,0.2,0,0.7,0,1.1c0,1.3,0,2.3,0.1,2.6c0.1,0.6,0.3,0.7,1,0.8c0.3,0,0.3,0.1,0.3,0.2
		c0,0.1-0.2,0.1-0.4,0.1c-0.3,0-0.9-0.1-1.7-0.1c-0.6,0-0.8,0.1-1.1,0.1c-0.2,0-0.3,0-0.3-0.1c0-0.1,0.1-0.1,0.3-0.2
		c0.4-0.1,0.6-0.3,0.6-0.7c0-0.3,0.1-1.3,0.1-2.5c0-1.1,0-1.7,0-2c0-0.1-0.1-0.2-0.5-0.5c-0.1-0.1-0.1-0.1-0.1-0.2
		c0,0,0.1-0.1,0.3-0.2c0.4-0.1,0.9-0.3,1.2-0.4c0.1-0.1,0.2-0.1,0.3-0.1c0,0,0.1,0.1,0.1,0.3c0,0.2,0,0.9,0,1.2c0,0.1,0,0.1,0.1,0
		c0.5-0.6,1.2-1.3,1.9-1.3c0.2,0,0.5,0.1,0.6,0.2c0.1,0.1,0.1,0.2,0.1,0.3c0,0.1-0.2,0.4-0.4,0.6c-0.2,0.1-0.2,0.2-0.3,0.2
		c0,0-0.1,0-0.3-0.1c-0.2-0.1-0.4-0.2-0.6-0.2C862,70,861.7,70.2,861.5,70.4z"/>
	<path d="M869.3,69.3c0.4,0,1.1-0.1,1.6-0.1c0.2,0,0.3,0.1,0.3,0.1c0,0-0.1,0.1-0.3,0.1c-0.6,0.1-0.9,0.2-1.7,0.8
		c-0.5,0.4-1.4,1.1-1.7,1.4c0,0,0,0.1,0,0.1c0.5,0.6,1.8,2,2.7,2.9c0.5,0.5,0.8,0.7,1.3,0.8c0.2,0,0.3,0.1,0.3,0.2
		c0,0.1-0.2,0.1-0.3,0.1c-0.6,0-1.3-0.1-2-0.1c-0.3,0-0.5,0-0.8,0c-0.2,0-0.3,0-0.3-0.1c0-0.1,0.1-0.1,0.4-0.2
		c0.3-0.1,0.3-0.2,0.2-0.5c-0.4-0.4-1.7-1.8-2.2-2.3c-0.1-0.1-0.3-0.3-0.3-0.3c-0.1,0-0.1,0.1-0.1,0.2c0,0.3,0,0.9,0,1.9
		c0,0.9,0.1,0.9,0.7,1c0.2,0.1,0.3,0.1,0.3,0.2c0,0.1-0.1,0.1-0.3,0.1c-0.5,0-0.9-0.1-1.4-0.1c-0.6,0-1,0.1-1.2,0.1
		c-0.2,0-0.3-0.1-0.3-0.1c0-0.1,0.1-0.1,0.2-0.1c0.6-0.1,0.7-0.3,0.7-0.9c0.1-1.3,0.1-2.8,0.1-4.2c0-1.4,0.1-3.7,0.1-5.1
		c0-0.4,0-0.6-0.1-0.8c0-0.1-0.2-0.3-0.4-0.4c-0.1-0.1-0.2-0.1-0.2-0.1c0-0.1,0.1-0.1,0.3-0.2c0.7-0.2,1.2-0.4,1.3-0.4
		c0.1-0.1,0.2-0.1,0.3-0.1c0,0,0.1,0.1,0.1,0.1c0,0.6-0.1,2.2-0.1,3.5c0,0.6-0.1,2.9-0.1,4.9c0,0.2,0,0.3,0.1,0.3
		c0.1,0,0.2-0.1,0.4-0.2c0.7-0.6,1.6-1.4,1.9-1.8c0.1-0.1,0.2-0.3,0.2-0.3c0-0.1-0.1-0.2-0.5-0.3c-0.2,0-0.3-0.1-0.3-0.1
		s0.1-0.1,0.3-0.1C868.7,69.3,869.1,69.3,869.3,69.3z"/>
	<path d="M873.5,70.5c0,0.8,0.7,1.2,1.1,1.5c1.2,0.8,1.6,1.2,1.6,2.1c0,0.8-0.6,1.3-0.9,1.5c-0.4,0.3-1,0.4-1.4,0.4
		c-0.5,0-0.9-0.1-1.4-0.3c-0.1-0.1-0.3-0.2-0.3-0.3c0-0.3,0-0.7-0.1-0.9c0-0.2,0-0.3,0.1-0.3c0.1,0,0.1,0,0.2,0.3
		c0.1,0.4,0.4,0.8,0.8,1c0.3,0.2,0.5,0.2,0.8,0.2c0.5,0,1.2-0.5,1.2-1.2c0-0.7-0.5-1.1-1.2-1.5c-0.8-0.5-1.5-1.2-1.5-2
		c0-0.6,0.3-1.1,0.7-1.4c0.3-0.3,0.8-0.5,1.5-0.5c0.5,0,1,0.1,1.2,0.2c0,0,0.1,0.1,0.1,0.2c0,0.2,0.1,0.6,0.1,0.8
		c0,0.2,0,0.3-0.1,0.3c-0.1,0-0.1-0.1-0.2-0.2c-0.1-0.3-0.2-0.5-0.4-0.7c-0.2-0.1-0.5-0.3-0.8-0.3C874,69.3,873.5,69.7,873.5,70.5z"
		/>
	<path d="M879.2,70.4c-0.1,0.1-0.2,0.3-0.2,0.7c0,2.7,0.1,3.6,0.1,3.9c0.1,0.3,0.2,0.5,0.6,0.6c0.3,0.1,0.4,0.1,0.4,0.2
		c0,0.1-0.1,0.1-0.3,0.1c-0.5,0-1-0.1-1.5-0.1c-0.6,0-0.8,0.1-1.2,0.1c-0.2,0-0.3,0-0.3-0.1c0-0.1,0.1-0.1,0.3-0.2
		c0.5-0.1,0.6-0.2,0.7-0.9c0.1-0.7,0.1-2.4,0.1-5.2c0-2.7,0-3.8,0-4.5c0-0.6-0.1-0.6-0.5-0.8c-0.1-0.1-0.1-0.1-0.1-0.1
		c0-0.1,0.1-0.1,0.3-0.2c0.6-0.2,1-0.3,1.3-0.4c0.1-0.1,0.1-0.1,0.2-0.1c0.1,0,0.1,0.1,0.1,0.4c0,0.5-0.1,6.1-0.1,6.4
		c0,0.1,0.1,0.1,0.1,0.1c0.2-0.2,0.7-0.6,1.1-0.7c0.3-0.2,0.8-0.3,1.3-0.3c0.6,0,1.2,0.2,1.6,0.8c0.2,0.2,0.4,0.8,0.4,1.9
		c0,1.4,0,2.5,0,3.2c0,0.4,0.1,0.5,0.6,0.6c0.2,0.1,0.3,0.1,0.3,0.2c0,0.1-0.1,0.1-0.3,0.1c-0.5,0-0.8-0.1-1.3-0.1
		c-0.6,0-0.8,0.1-1.2,0.1c-0.2,0-0.3-0.1-0.3-0.1c0-0.1,0.1-0.1,0.3-0.1c0.5-0.1,0.5-0.2,0.6-0.8c0-0.4,0.1-1.2,0.1-3.1
		c0-0.5-0.1-1-0.3-1.4c-0.2-0.4-0.6-0.7-1.2-0.7C880.1,69.7,879.5,70.1,879.2,70.4z"/>
	<path d="M892.2,72.5c0,1.4-0.8,2.3-1.4,2.8c-0.6,0.4-1.4,0.7-2,0.7c-1.9,0-3.5-1.5-3.5-3.3c0-1.4,0.6-2.3,1.3-2.8
		c0.5-0.4,1.3-0.8,2.2-0.8C890.7,69.1,892.2,70.6,892.2,72.5z M886.6,72.2c0,0.8,0.2,1.7,0.8,2.5c0.5,0.7,1.1,1,1.7,1
		c0.4,0,0.8-0.2,1.1-0.5c0.3-0.3,0.8-1.1,0.8-2.4c0-1.7-0.9-3.4-2.4-3.4C887.5,69.4,886.6,70.3,886.6,72.2z"/>
	<path d="M899.3,70c0.5,0.6,0.7,1.4,0.7,2.1c0,2-1.2,3.1-2.4,3.6c-0.4,0.2-0.8,0.3-1.3,0.3c-0.3,0-0.9-0.1-1-0.1
		c-0.1,0-0.1,0.1-0.2,0.2c-0.1,0.3-0.1,1.9,0,2.7c0,0.9,0.1,1.2,0.1,1.4c0.1,0.3,0.4,0.4,0.9,0.5c0.2,0.1,0.3,0.1,0.3,0.2
		c0,0.1-0.1,0.1-0.4,0.1c-0.3,0-0.9-0.1-1.5-0.1c-0.6,0-1.2,0.1-1.4,0.1c-0.2,0-0.3-0.1-0.3-0.1c0-0.1,0.1-0.1,0.3-0.2
		c0.6-0.2,0.7-0.4,0.8-0.8c0-0.3,0.1-1.1,0.1-2.5c0-1.8,0-5.7-0.1-6.2c0-0.7,0-0.8-0.5-1.1c-0.1-0.1-0.2-0.1-0.2-0.2
		c0-0.1,0.1-0.1,0.2-0.2c0.2-0.1,0.9-0.4,1.3-0.6c0.1-0.1,0.2-0.1,0.3-0.1c0,0,0.1,0.1,0.1,0.2c0,0.1,0,0.6,0,0.8c0,0,0,0.1,0.1,0.1
		c0.8-0.6,1.4-0.8,2.2-0.8C898.2,69.1,898.9,69.5,899.3,70z M897.9,75.2c0.5-0.4,1-1.3,1-2.6c0-0.9-0.3-1.8-0.9-2.3
		c-0.3-0.3-0.7-0.5-1.4-0.5c-0.5,0-1,0.1-1.3,0.4c-0.1,0.1-0.2,0.1-0.2,0.4c-0.1,0.5,0,3.3,0,3.7c0,0.1,0.1,0.3,0.1,0.5
		c0.3,0.6,1.2,0.9,1.7,0.9C897.3,75.5,897.6,75.4,897.9,75.2z"/>
	<path d="M905.1,70.5c0,0.8,0.7,1.2,1.1,1.5c1.2,0.8,1.6,1.2,1.6,2.1c0,0.8-0.6,1.3-0.9,1.5c-0.4,0.3-1,0.4-1.4,0.4
		c-0.5,0-0.9-0.1-1.4-0.3c-0.1-0.1-0.3-0.2-0.3-0.3c0-0.3,0-0.7-0.1-0.9c0-0.2,0-0.3,0.1-0.3c0.1,0,0.1,0,0.2,0.3
		c0.1,0.4,0.4,0.8,0.8,1c0.3,0.2,0.5,0.2,0.8,0.2c0.5,0,1.2-0.5,1.2-1.2c0-0.7-0.5-1.1-1.2-1.5c-0.8-0.5-1.5-1.2-1.5-2
		c0-0.6,0.3-1.1,0.7-1.4c0.3-0.3,0.8-0.5,1.5-0.5c0.5,0,1,0.1,1.2,0.2c0,0,0.1,0.1,0.1,0.2c0,0.2,0.1,0.6,0.1,0.8
		c0,0.2,0,0.3-0.1,0.3c-0.1,0-0.1-0.1-0.2-0.2c-0.1-0.3-0.2-0.5-0.4-0.7c-0.2-0.1-0.5-0.3-0.8-0.3C905.6,69.3,905.1,69.7,905.1,70.5
		z"/>
	<path d="M909.8,75.1c-0.1-0.2-0.2-0.6-0.2-1v-3.7c0-0.2,0-0.3-0.1-0.4c-0.1,0-0.3-0.1-0.4-0.1c-0.1,0-0.2-0.1-0.2-0.2
		c0,0,0-0.1,0.2-0.2c0.5-0.2,1-0.6,1.5-1.2c0.2-0.2,0.3-0.1,0.3-0.1c0,0.2,0,0.7,0,0.9c0,0.1,0,0.2,0.1,0.2c0.3,0,1.8-0.1,2.2-0.1
		c0,0,0.1,0.1,0.1,0.3c0,0.3-0.1,0.5-0.2,0.5c-0.6,0-1.5,0-2,0c-0.2,0-0.3,0.1-0.3,0.2c0,0.3,0,3.1,0,3.7c0,0.6,0.1,0.8,0.2,1
		c0.3,0.3,0.6,0.5,1.1,0.5c0.5,0,0.8-0.2,1-0.3c0.1-0.1,0.2-0.1,0.2,0c0,0.1-0.2,0.3-0.4,0.5c-0.4,0.3-1,0.5-1.5,0.5
		C910.6,75.9,910.1,75.6,909.8,75.1z"/>
	<path d="M918,70c0.2,0.3,0.3,1.1,0.3,1.6c0,0.7-0.1,2.4-0.1,2.8c0,0.3,0.2,0.7,0.7,0.7c0.1,0,0.3-0.1,0.5-0.2
		c0.1-0.1,0.2,0,0.1,0.2c-0.3,0.5-0.8,0.8-1.4,0.8c-0.5,0-0.9-0.4-1.1-0.8c0,0-0.1,0-0.1,0c-0.5,0.5-1.1,0.8-1.8,0.8
		c-0.7,0-1.4-0.6-1.4-1.5c0-0.6,0.5-0.9,0.6-1c0.4-0.2,2.1-0.7,2.4-0.9c0.1,0,0.2-0.2,0.2-0.3c0-0.2,0-0.6,0-0.8
		c0-0.7-0.1-1.2-0.4-1.5c-0.2-0.2-0.5-0.3-0.8-0.3c-0.3,0-0.5,0.1-0.7,0.2c-0.1,0.1-0.2,0.2-0.3,0.4c0,0.1,0,0.2,0,0.3
		c0,0.1,0,0.1-0.1,0.1c-0.2,0.1-0.7,0.4-0.8,0.4c-0.1,0-0.2-0.1-0.2-0.2c0-0.1,0.1-0.3,0.3-0.5c0.4-0.5,1-0.9,1.4-1
		c0.4-0.2,0.8-0.3,1.1-0.3C917.2,69.1,917.8,69.4,918,70z M916.8,74.9c0.1-0.1,0.2-0.2,0.2-0.4c0.1-0.3,0.1-1,0.1-1.7
		c0,0,0-0.1-0.1-0.1c-0.2,0-1.3,0.4-1.7,0.6c-0.2,0.1-0.5,0.4-0.5,0.9c0,0.6,0.5,1,1.1,1C916.3,75.2,916.6,75.1,916.8,74.9z"/>
	<path d="M922.3,70.4c-0.2,0.2-0.3,0.4-0.3,0.6c0,0.2,0,0.7,0,1.1c0,1.3,0,2.3,0.1,2.6c0.1,0.6,0.3,0.7,1,0.8c0.3,0,0.3,0.1,0.3,0.2
		c0,0.1-0.2,0.1-0.4,0.1c-0.3,0-0.9-0.1-1.7-0.1c-0.6,0-0.8,0.1-1.1,0.1c-0.2,0-0.3,0-0.3-0.1c0-0.1,0.1-0.1,0.3-0.2
		c0.4-0.1,0.6-0.3,0.6-0.7c0-0.3,0.1-1.3,0.1-2.5c0-1.1,0-1.7,0-2c0-0.1-0.1-0.2-0.5-0.5c-0.1-0.1-0.1-0.1-0.1-0.2
		c0,0,0.1-0.1,0.3-0.2c0.4-0.1,0.9-0.3,1.2-0.4c0.1-0.1,0.2-0.1,0.3-0.1c0,0,0.1,0.1,0.1,0.3c0,0.2,0,0.9,0,1.2c0,0.1,0,0.1,0.1,0
		c0.5-0.6,1.2-1.3,1.9-1.3c0.2,0,0.5,0.1,0.6,0.2c0.1,0.1,0.1,0.2,0.1,0.3c0,0.1-0.2,0.4-0.4,0.6c-0.2,0.1-0.2,0.2-0.3,0.2
		c0,0-0.1,0-0.3-0.1c-0.2-0.1-0.4-0.2-0.6-0.2C922.8,70,922.5,70.2,922.3,70.4z"/>
	<path d="M926.2,75.1c-0.1-0.2-0.2-0.6-0.2-1v-3.7c0-0.2,0-0.3-0.1-0.4c-0.1,0-0.3-0.1-0.4-0.1c-0.1,0-0.2-0.1-0.2-0.2
		c0,0,0-0.1,0.2-0.2c0.5-0.2,1-0.6,1.5-1.2c0.2-0.2,0.3-0.1,0.3-0.1c0,0.2,0,0.7,0,0.9c0,0.1,0,0.2,0.1,0.2c0.3,0,1.8-0.1,2.2-0.1
		c0,0,0.1,0.1,0.1,0.3c0,0.3-0.1,0.5-0.2,0.5c-0.6,0-1.5,0-2,0c-0.2,0-0.3,0.1-0.3,0.2c0,0.3,0,3.1,0,3.7c0,0.6,0.1,0.8,0.2,1
		c0.3,0.3,0.6,0.5,1.1,0.5c0.5,0,0.8-0.2,1-0.3c0.1-0.1,0.2-0.1,0.2,0c0,0.1-0.2,0.3-0.4,0.5c-0.4,0.3-1,0.5-1.5,0.5
		C927.1,75.9,926.5,75.6,926.2,75.1z"/>
	<path d="M931.7,70.5c0,0.8,0.7,1.2,1.1,1.5c1.2,0.8,1.6,1.2,1.6,2.1c0,0.8-0.6,1.3-0.9,1.5c-0.4,0.3-1,0.4-1.4,0.4
		c-0.5,0-0.9-0.1-1.4-0.3c-0.1-0.1-0.3-0.2-0.3-0.3c0-0.3,0-0.7-0.1-0.9c0-0.2,0-0.3,0.1-0.3c0.1,0,0.1,0,0.2,0.3
		c0.1,0.4,0.4,0.8,0.8,1c0.3,0.2,0.5,0.2,0.8,0.2c0.5,0,1.2-0.5,1.2-1.2c0-0.7-0.5-1.1-1.2-1.5c-0.8-0.5-1.5-1.2-1.5-2
		c0-0.6,0.3-1.1,0.7-1.4c0.3-0.3,0.8-0.5,1.5-0.5c0.5,0,1,0.1,1.2,0.2c0,0,0.1,0.1,0.1,0.2c0,0.2,0.1,0.6,0.1,0.8
		c0,0.2,0,0.3-0.1,0.3c-0.1,0-0.1-0.1-0.2-0.2c-0.1-0.3-0.2-0.5-0.4-0.7c-0.2-0.1-0.5-0.3-0.8-0.3C932.2,69.3,931.7,69.7,931.7,70.5
		z"/>
</g>
<g>
	<path d="M565.2,56.3h2.7V44.5l0.2-1.4l-0.8,1.2l-2,1.6l-0.9-1.1l4.4-4.1h0.9v15.5h2.6v1.6h-7.1V56.3z"/>
	<path d="M580.4,41c0.3,0,0.5-0.1,0.9-0.1c0.3,0,0.6,0,0.9,0c0.3,0,0.6,0,0.9,0c0.3,0,0.6,0,0.9,0c1.2,0,2.2,0.2,3,0.6
		c0.8,0.4,1.5,1,2,1.7c0.5,0.7,0.9,1.6,1.1,2.7c0.2,1,0.3,2.2,0.3,3.5c0,1.2-0.1,2.3-0.3,3.3s-0.6,2-1.1,2.8c-0.5,0.8-1.2,1.4-2,1.9
		s-1.9,0.7-3.2,0.7c-0.2,0-0.5,0-0.8,0c-0.3,0-0.7,0-1,0c-0.3,0-0.7,0-1-0.1c-0.3,0-0.5,0-0.7-0.1V41z M584.1,42.5
		c-0.2,0-0.3,0-0.5,0c-0.2,0-0.4,0-0.5,0c-0.2,0-0.3,0-0.5,0c-0.2,0-0.3,0-0.4,0v13.7c0.1,0,0.2,0,0.3,0c0.2,0,0.3,0,0.5,0
		c0.2,0,0.4,0,0.5,0c0.2,0,0.3,0,0.4,0c0.9,0,1.6-0.2,2.2-0.6c0.6-0.4,1.1-0.9,1.4-1.5c0.3-0.6,0.6-1.4,0.7-2.3
		c0.1-0.9,0.2-1.8,0.2-2.7c0-0.8-0.1-1.7-0.2-2.5c-0.1-0.8-0.4-1.5-0.7-2.2c-0.3-0.6-0.8-1.1-1.3-1.5
		C585.7,42.7,585,42.5,584.1,42.5z"/>
	<path d="M600,57c-0.4,0.4-0.9,0.6-1.5,0.8s-1.2,0.3-1.9,0.3c-0.8,0-1.4-0.1-2-0.4c-0.6-0.3-1-0.7-1.4-1.3c-0.4-0.6-0.6-1.2-0.8-2
		c-0.2-0.8-0.3-1.6-0.3-2.6c0-2,0.4-3.6,1.1-4.7c0.8-1.1,1.8-1.6,3.2-1.6c0.4,0,0.9,0.1,1.3,0.2c0.4,0.1,0.8,0.3,1.2,0.7
		c0.4,0.3,0.6,0.8,0.9,1.4c0.2,0.6,0.3,1.4,0.3,2.4c0,0.3,0,0.6,0,0.9c0,0.3-0.1,0.6-0.1,1h-6.1c0,0.7,0.1,1.3,0.2,1.9
		c0.1,0.6,0.3,1,0.5,1.4s0.5,0.7,0.9,0.9c0.4,0.2,0.8,0.3,1.4,0.3c0.4,0,0.9-0.1,1.3-0.2c0.4-0.2,0.7-0.4,1-0.6L600,57z M598.7,50.6
		c0-1.2-0.1-2.1-0.5-2.6c-0.4-0.6-0.9-0.8-1.5-0.8c-0.7,0-1.3,0.3-1.8,0.8c-0.4,0.6-0.7,1.4-0.8,2.6H598.7z"/>
	<path d="M609.2,57.2c-0.4,0.3-0.9,0.5-1.4,0.7c-0.5,0.1-1,0.2-1.6,0.2c-0.8,0-1.4-0.1-1.9-0.4c-0.5-0.3-1-0.7-1.3-1.3
		c-0.3-0.6-0.6-1.2-0.7-2c-0.2-0.8-0.2-1.6-0.2-2.6c0-2,0.4-3.6,1.1-4.7c0.7-1.1,1.8-1.6,3.1-1.6c0.6,0,1.2,0.1,1.6,0.2
		c0.4,0.1,0.8,0.3,1.2,0.4l-0.5,1.5c-0.6-0.4-1.3-0.6-2.1-0.6c-0.9,0-1.5,0.4-2,1.1c-0.4,0.8-0.7,2-0.7,3.6c0,0.7,0,1.3,0.1,1.8
		c0.1,0.6,0.3,1.1,0.5,1.5c0.2,0.4,0.5,0.8,0.9,1c0.4,0.2,0.8,0.4,1.3,0.4c0.4,0,0.8-0.1,1.2-0.2c0.4-0.1,0.7-0.3,0.9-0.5
		L609.2,57.2z"/>
	<path d="M617.9,57c-0.4,0.4-0.9,0.6-1.5,0.8s-1.2,0.3-1.9,0.3c-0.8,0-1.4-0.1-2-0.4c-0.6-0.3-1-0.7-1.4-1.3c-0.4-0.6-0.6-1.2-0.8-2
		c-0.2-0.8-0.3-1.6-0.3-2.6c0-2,0.4-3.6,1.1-4.7c0.8-1.1,1.8-1.6,3.2-1.6c0.4,0,0.9,0.1,1.3,0.2c0.4,0.1,0.8,0.3,1.2,0.7
		c0.4,0.3,0.6,0.8,0.9,1.4c0.2,0.6,0.3,1.4,0.3,2.4c0,0.3,0,0.6,0,0.9c0,0.3-0.1,0.6-0.1,1H612c0,0.7,0.1,1.3,0.2,1.9
		c0.1,0.6,0.3,1,0.5,1.4s0.5,0.7,0.9,0.9c0.4,0.2,0.8,0.3,1.4,0.3c0.4,0,0.9-0.1,1.3-0.2c0.4-0.2,0.7-0.4,1-0.6L617.9,57z
		 M616.5,50.6c0-1.2-0.1-2.1-0.5-2.6c-0.4-0.6-0.9-0.8-1.5-0.8c-0.7,0-1.3,0.3-1.8,0.8c-0.4,0.6-0.7,1.4-0.8,2.6H616.5z"/>
	<path d="M626.2,57.8v-7.1c0-0.6,0-1.2-0.1-1.6s-0.1-0.8-0.3-1.1c-0.1-0.3-0.3-0.5-0.5-0.6c-0.2-0.1-0.5-0.2-0.9-0.2
		c-0.5,0-1,0.2-1.4,0.6s-0.6,0.9-0.8,1.5v8.6h-1.7v-12h1.2l0.3,1.3h0.1c0.3-0.5,0.7-0.8,1.2-1.1s1.1-0.4,1.8-0.4
		c0.6,0,1.1,0.1,1.5,0.4c0.4,0.3,0.7,0.7,0.9,1.4c0.3-0.6,0.7-1,1.2-1.3c0.5-0.3,1.1-0.5,1.8-0.5c0.5,0,1,0.1,1.4,0.2
		c0.4,0.1,0.7,0.4,0.9,0.7c0.2,0.3,0.4,0.8,0.5,1.4c0.1,0.6,0.2,1.3,0.2,2.1v7.8h-1.7v-7.6c0-1-0.1-1.8-0.3-2.3
		c-0.2-0.5-0.7-0.8-1.4-0.8c-0.6,0-1.1,0.2-1.5,0.6c-0.4,0.4-0.6,0.9-0.8,1.5v8.6H626.2z"/>
	<path d="M636.2,41h1.7v5.7h0.1c0.7-0.8,1.5-1.2,2.6-1.2c1.2,0,2.2,0.5,2.8,1.5c0.6,1,0.9,2.5,0.9,4.6c0,2.2-0.4,3.8-1.2,4.8
		c-0.8,1.1-2,1.6-3.5,1.6c-0.7,0-1.4-0.1-2-0.3c-0.6-0.2-1.1-0.4-1.4-0.6V41z M638,56.1c0.2,0.1,0.5,0.2,0.8,0.3
		c0.3,0.1,0.7,0.1,1,0.1c0.8,0,1.5-0.4,2-1.2c0.5-0.8,0.7-2,0.7-3.7c0-0.7,0-1.3-0.1-1.9c-0.1-0.6-0.2-1-0.4-1.4
		c-0.2-0.4-0.4-0.7-0.7-0.9c-0.3-0.2-0.7-0.3-1.1-0.3c-0.6,0-1.1,0.2-1.4,0.5c-0.4,0.3-0.7,0.8-0.8,1.4V56.1z"/>
	<path d="M653.8,57c-0.4,0.4-0.9,0.6-1.5,0.8s-1.2,0.3-1.9,0.3c-0.8,0-1.4-0.1-2-0.4c-0.6-0.3-1-0.7-1.4-1.3c-0.4-0.6-0.6-1.2-0.8-2
		c-0.2-0.8-0.3-1.6-0.3-2.6c0-2,0.4-3.6,1.1-4.7c0.8-1.1,1.8-1.6,3.2-1.6c0.4,0,0.9,0.1,1.3,0.2c0.4,0.1,0.8,0.3,1.2,0.7
		c0.4,0.3,0.6,0.8,0.9,1.4c0.2,0.6,0.3,1.4,0.3,2.4c0,0.3,0,0.6,0,0.9c0,0.3-0.1,0.6-0.1,1h-6.1c0,0.7,0.1,1.3,0.2,1.9
		c0.1,0.6,0.3,1,0.5,1.4s0.5,0.7,0.9,0.9c0.4,0.2,0.8,0.3,1.4,0.3c0.4,0,0.9-0.1,1.3-0.2c0.4-0.2,0.7-0.4,1-0.6L653.8,57z
		 M652.5,50.6c0-1.2-0.1-2.1-0.5-2.6c-0.4-0.6-0.9-0.8-1.5-0.8c-0.7,0-1.3,0.3-1.8,0.8c-0.4,0.6-0.7,1.4-0.8,2.6H652.5z"/>
	<path d="M656.6,45.8h1.2l0.3,1.3h0.1c0.2-0.5,0.5-0.8,0.9-1.1c0.4-0.3,0.8-0.4,1.3-0.4c0.4,0,0.8,0.1,1.2,0.2l-0.3,1.8
		c-0.4-0.1-0.8-0.2-1.1-0.2c-0.5,0-0.9,0.1-1.2,0.4c-0.3,0.3-0.5,0.7-0.6,1.2v8.8h-1.7V45.8z"/>
	<path d="M675.9,57.8h-7.8v-0.8c0.3-0.4,0.7-0.8,1-1.4c0.4-0.6,0.8-1.2,1.2-1.8c0.4-0.7,0.8-1.4,1.2-2.1s0.8-1.5,1.1-2.3
		s0.6-1.5,0.8-2.3s0.3-1.5,0.3-2.2c0-0.8-0.2-1.5-0.6-2c-0.4-0.5-0.9-0.7-1.7-0.7c-0.5,0-0.9,0.1-1.4,0.3c-0.4,0.2-0.8,0.4-1.1,0.6
		l-0.7-1.2c0.4-0.4,1-0.7,1.6-0.9c0.6-0.2,1.3-0.3,2-0.3c1.2,0,2.1,0.4,2.7,1.1c0.6,0.7,0.9,1.7,0.9,2.9c0,0.9-0.1,1.8-0.4,2.8
		c-0.3,1-0.6,1.9-1,2.9c-0.4,0.9-0.9,1.8-1.4,2.7s-1,1.6-1.5,2.3l-1,1.1v0.1l1.3-0.2h4.2V57.8z"/>
	<path d="M678.5,49.4c0-1.5,0.1-2.9,0.3-4c0.2-1.1,0.5-2,0.9-2.7c0.4-0.7,0.9-1.2,1.4-1.5c0.6-0.3,1.2-0.5,1.9-0.5
		c0.8,0,1.4,0.2,2,0.5c0.6,0.3,1,0.8,1.4,1.5c0.4,0.7,0.6,1.6,0.8,2.7c0.2,1.1,0.3,2.4,0.3,4c0,1.6-0.1,2.9-0.3,4
		c-0.2,1.1-0.5,2-0.9,2.7c-0.4,0.7-0.9,1.2-1.4,1.5s-1.2,0.5-1.9,0.5c-0.8,0-1.5-0.2-2-0.5c-0.6-0.3-1-0.9-1.4-1.6s-0.6-1.6-0.8-2.7
		C678.6,52.3,678.5,51,678.5,49.4z M680.3,49.4c0,2.3,0.2,4,0.6,5.3c0.4,1.2,1.1,1.8,2.1,1.8c0.9,0,1.6-0.6,2-1.7
		c0.4-1.1,0.6-2.9,0.6-5.4c0-2.3-0.2-4-0.6-5.3c-0.4-1.2-1.1-1.9-2.1-1.9c-0.9,0-1.6,0.6-2,1.7C680.5,45.1,680.3,46.9,680.3,49.4z"
		/>
	<path d="M690.7,56.3h2.7V44.5l0.2-1.4l-0.8,1.2l-2,1.6l-0.9-1.1l4.4-4.1h0.9v15.5h2.6v1.6h-7.1V56.3z"/>
	<path d="M709.6,52.7h-2.2v5.2h-1.7v-5.2h-5.9v-0.8l6.3-11.1h1.3v10.3h2.2V52.7z M705.6,45.7l0.2-2.1h-0.1l-0.7,1.8l-2.6,4.6
		l-0.9,1.2l1.3-0.2h2.8V45.7z"/>
</g>
<g>
	<path d="M604.5,70.4c-0.2,0.2-0.3,0.4-0.3,0.6c0,0.2,0,0.7,0,1.1c0,1.3,0,2.3,0.1,2.6c0.1,0.6,0.3,0.7,1,0.8c0.3,0,0.3,0.1,0.3,0.2
		c0,0.1-0.2,0.1-0.4,0.1c-0.3,0-0.9-0.1-1.7-0.1c-0.6,0-0.8,0.1-1.1,0.1c-0.2,0-0.3,0-0.3-0.1c0-0.1,0.1-0.1,0.3-0.2
		c0.4-0.1,0.6-0.3,0.6-0.7c0-0.3,0.1-1.3,0.1-2.5c0-1.1,0-1.7,0-2c0-0.1-0.1-0.2-0.5-0.5c-0.1-0.1-0.1-0.1-0.1-0.2
		c0,0,0.1-0.1,0.3-0.2c0.4-0.1,0.9-0.3,1.2-0.4C603.9,69,604,69,604,69c0,0,0.1,0.1,0.1,0.3c0,0.2,0,0.9,0,1.2c0,0.1,0,0.1,0.1,0
		c0.5-0.6,1.2-1.3,1.9-1.3c0.2,0,0.5,0.1,0.6,0.2c0.1,0.1,0.1,0.2,0.1,0.3c0,0.1-0.2,0.4-0.4,0.6c-0.2,0.1-0.2,0.2-0.3,0.2
		c0,0-0.1,0-0.3-0.1c-0.2-0.1-0.4-0.2-0.6-0.2C605,70,604.7,70.2,604.5,70.4z"/>
	<path d="M612.7,70.9c0,0.1-0.1,0.2-0.2,0.2c-0.1,0-2.5-0.1-2.9-0.1h-1c0,0-0.1,0.1-0.2,0.1c-0.1,0.2-0.1,0.5-0.1,1
		c0,0.9,0.4,1.7,0.8,2.2c0.5,0.5,1.2,0.7,1.8,0.7c0.7,0,1.3-0.2,1.7-0.6c0.1-0.1,0.2-0.1,0.2,0c0,0.1-0.1,0.2-0.2,0.3
		c-0.7,0.8-1.5,1.1-2.5,1.1c-0.8,0-1.6-0.3-2.1-0.9c-0.5-0.6-0.9-1.4-0.9-2.4c0-0.8,0.3-1.9,1-2.6c0.5-0.5,1.3-0.9,2.2-0.9
		C611.6,69.1,612.7,69.8,612.7,70.9z M609.1,70c-0.2,0.3-0.4,0.6-0.4,0.7c0,0,0,0.1,0.1,0.1l2.3,0c0.4,0,0.4-0.2,0.4-0.4
		c0-0.2-0.1-0.5-0.3-0.8c-0.2-0.2-0.5-0.3-0.9-0.3C609.9,69.3,609.5,69.6,609.1,70z"/>
	<path d="M618.4,69.4c0.1,0.1,0.3,0.1,0.6,0.1s1.1,0,1.3,0c0.1,0,0.2,0.2,0.2,0.4c0,0.2-0.1,0.3-0.2,0.3c-0.3,0-0.9,0-1.1,0
		c0,0-0.1,0.1-0.1,0.1c0,0.1,0,0.4,0,0.7c0,1.1-0.5,2-1.1,2.4c-0.6,0.4-1.1,0.5-1.4,0.5c-0.2,0-0.6-0.1-0.8-0.1
		c-0.1,0-0.2,0-0.2,0.1c-0.2,0.1-0.5,0.4-0.6,0.6c-0.2,0.1-0.2,0.3-0.2,0.4c0,0.6,0.7,0.8,1.7,0.8c0.6,0,1.5-0.1,2.1-0.1
		c0.7,0,1.1,0.2,1.4,0.5c0.4,0.3,0.6,0.9,0.6,1.5c0,1.2-1,2.4-2,2.9c-0.7,0.4-1.4,0.6-2.2,0.6c-1.4,0-2.6-0.7-2.6-2
		c0-0.4,0.2-0.6,0.3-0.8c0.1-0.1,0.8-1,1.2-1.4c0,0,0-0.1,0-0.2c-0.5-0.1-1.5-0.7-1.5-1.5c0-0.1,0.1-0.2,0.1-0.2
		c0.5-0.3,1.2-1,1.5-1.3c0,0,0-0.1,0-0.1c-0.6-0.4-1.4-1.2-1.4-2.3c0-0.8,0.3-1.3,0.8-1.7c0.5-0.5,1.2-0.7,1.9-0.7
		C617.4,69,618.2,69.3,618.4,69.4z M615.4,79.9c0.5,0.3,0.8,0.5,1.7,0.5c0.4,0,1.1,0,1.7-0.4c0.5-0.3,1-1.1,1-1.9s-0.5-1.4-1.6-1.4
		c-0.7,0-1.6,0-2.1,0c-0.4,0-0.5,0.1-0.6,0.2c-0.4,0.3-0.8,1-0.8,1.6C614.7,78.9,614.9,79.5,615.4,79.9z M615.5,69.6
		c-0.3,0.3-0.5,1-0.5,1.6c0,0.8,0.3,1.6,0.6,1.9c0.3,0.3,0.6,0.5,1.1,0.5c0.8,0,1.4-1,1.4-1.8c0-0.8-0.2-1.5-0.6-2
		c-0.3-0.4-0.6-0.6-1.1-0.6C616.1,69.2,615.8,69.4,615.5,69.6z"/>
	<path d="M621.5,69.6c0.5-0.1,0.9-0.3,1.3-0.5C622.9,69,623,69,623,69c0.1,0,0.1,0.1,0.1,0.3c0,0.4,0,1.5,0,2.6c0,1.5,0,2.8,0,3.2
		c0,0.4,0.2,0.5,0.5,0.5c0.2,0,0.3,0.1,0.3,0.1c0,0.1-0.1,0.1-0.3,0.1c-0.2,0-0.8-0.1-1.3-0.1c-0.6,0-0.9,0-1.1,0
		c-0.1,0-0.3,0-0.3-0.1c0-0.1,0.1-0.1,0.3-0.2c0.4-0.1,0.6-0.3,0.6-1c0-0.5,0.1-3.8,0.1-4c0-0.3,0-0.4-0.5-0.6
		c-0.1-0.1-0.1-0.1-0.1-0.1C621.2,69.7,621.3,69.6,621.5,69.6z M623.3,66.7c0,0.5-0.4,0.7-0.7,0.7c-0.3,0-0.6-0.3-0.6-0.7
		c0-0.5,0.3-0.7,0.6-0.7C623,66,623.3,66.3,623.3,66.7z"/>
	<path d="M626,70.5c0,0.8,0.7,1.2,1.1,1.5c1.2,0.8,1.6,1.2,1.6,2.1c0,0.8-0.6,1.3-0.9,1.5c-0.4,0.3-1,0.4-1.4,0.4
		c-0.5,0-0.9-0.1-1.4-0.3c-0.1-0.1-0.3-0.2-0.3-0.3c0-0.3,0-0.7-0.1-0.9c0-0.2,0-0.3,0.1-0.3c0.1,0,0.1,0,0.2,0.3
		c0.1,0.4,0.4,0.8,0.8,1c0.3,0.2,0.5,0.2,0.8,0.2c0.5,0,1.2-0.5,1.2-1.2c0-0.7-0.5-1.1-1.2-1.5c-0.8-0.5-1.5-1.2-1.5-2
		c0-0.6,0.3-1.1,0.7-1.4c0.3-0.3,0.8-0.5,1.5-0.5c0.5,0,1,0.1,1.2,0.2c0,0,0.1,0.1,0.1,0.2c0,0.2,0.1,0.6,0.1,0.8
		c0,0.2,0,0.3-0.1,0.3c-0.1,0-0.1-0.1-0.2-0.2c-0.1-0.3-0.2-0.5-0.4-0.7c-0.2-0.1-0.5-0.3-0.8-0.3C626.5,69.3,626,69.7,626,70.5z"/>
	<path d="M630.7,75.1c-0.1-0.2-0.2-0.6-0.2-1v-3.7c0-0.2,0-0.3-0.1-0.4c-0.1,0-0.3-0.1-0.4-0.1c-0.1,0-0.2-0.1-0.2-0.2
		c0,0,0-0.1,0.2-0.2c0.5-0.2,1-0.6,1.5-1.2c0.2-0.2,0.3-0.1,0.3-0.1c0,0.2,0,0.7,0,0.9c0,0.1,0,0.2,0.1,0.2c0.3,0,1.8-0.1,2.2-0.1
		c0,0,0.1,0.1,0.1,0.3c0,0.3-0.1,0.5-0.2,0.5c-0.6,0-1.5,0-2,0c-0.2,0-0.3,0.1-0.3,0.2c0,0.3,0,3.1,0,3.7c0,0.6,0.1,0.8,0.2,1
		c0.3,0.3,0.6,0.5,1.1,0.5c0.5,0,0.8-0.2,1-0.3c0.1-0.1,0.2-0.1,0.2,0c0,0.1-0.2,0.3-0.4,0.5c-0.4,0.3-1,0.5-1.5,0.5
		C631.5,75.9,631,75.6,630.7,75.1z"/>
	<path d="M637,70.4c-0.2,0.2-0.3,0.4-0.3,0.6c0,0.2,0,0.7,0,1.1c0,1.3,0,2.3,0.1,2.6c0.1,0.6,0.3,0.7,1,0.8c0.3,0,0.3,0.1,0.3,0.2
		c0,0.1-0.2,0.1-0.4,0.1c-0.3,0-0.9-0.1-1.7-0.1c-0.6,0-0.8,0.1-1.1,0.1c-0.2,0-0.3,0-0.3-0.1c0-0.1,0.1-0.1,0.3-0.2
		c0.4-0.1,0.6-0.3,0.6-0.7c0-0.3,0.1-1.3,0.1-2.5c0-1.1,0-1.7,0-2c0-0.1-0.1-0.2-0.5-0.5c-0.1-0.1-0.1-0.1-0.1-0.2
		c0,0,0.1-0.1,0.3-0.2c0.4-0.1,0.9-0.3,1.2-0.4c0.1-0.1,0.2-0.1,0.3-0.1c0,0,0.1,0.1,0.1,0.3c0,0.2,0,0.9,0,1.2c0,0.1,0,0.1,0.1,0
		c0.5-0.6,1.2-1.3,1.9-1.3c0.2,0,0.5,0.1,0.6,0.2c0.1,0.1,0.1,0.2,0.1,0.3c0,0.1-0.2,0.4-0.4,0.6c-0.2,0.1-0.2,0.2-0.3,0.2
		c0,0-0.1,0-0.3-0.1c-0.2-0.1-0.4-0.2-0.6-0.2C637.6,70,637.3,70.2,637,70.4z"/>
	<path d="M644.1,70c0.2,0.3,0.3,1.1,0.3,1.6c0,0.7-0.1,2.4-0.1,2.8c0,0.3,0.2,0.7,0.7,0.7c0.1,0,0.3-0.1,0.5-0.2
		c0.1-0.1,0.2,0,0.1,0.2c-0.3,0.5-0.8,0.8-1.4,0.8c-0.5,0-0.9-0.4-1.1-0.8c0,0-0.1,0-0.1,0c-0.5,0.5-1.1,0.8-1.8,0.8
		c-0.7,0-1.4-0.6-1.4-1.5c0-0.6,0.5-0.9,0.6-1c0.4-0.2,2.1-0.7,2.4-0.9c0.1,0,0.2-0.2,0.2-0.3c0-0.2,0-0.6,0-0.8
		c0-0.7-0.1-1.2-0.4-1.5c-0.2-0.2-0.5-0.3-0.8-0.3c-0.3,0-0.5,0.1-0.7,0.2c-0.1,0.1-0.2,0.2-0.3,0.4c0,0.1,0,0.2,0,0.3
		c0,0.1,0,0.1-0.1,0.1c-0.2,0.1-0.7,0.4-0.8,0.4c-0.1,0-0.2-0.1-0.2-0.2c0-0.1,0.1-0.3,0.3-0.5c0.4-0.5,1-0.9,1.4-1
		c0.4-0.2,0.8-0.3,1.1-0.3C643.4,69.1,643.9,69.4,644.1,70z M642.9,74.9c0.1-0.1,0.2-0.2,0.2-0.4c0.1-0.3,0.1-1,0.1-1.7
		c0,0,0-0.1-0.1-0.1c-0.2,0-1.3,0.4-1.7,0.6c-0.2,0.1-0.5,0.4-0.5,0.9c0,0.6,0.5,1,1.1,1C642.4,75.2,642.7,75.1,642.9,74.9z"/>
	<path d="M646.9,75.1c-0.1-0.2-0.2-0.6-0.2-1v-3.7c0-0.2,0-0.3-0.1-0.4c-0.1,0-0.3-0.1-0.4-0.1c-0.1,0-0.2-0.1-0.2-0.2
		c0,0,0-0.1,0.2-0.2c0.5-0.2,1-0.6,1.5-1.2c0.2-0.2,0.3-0.1,0.3-0.1c0,0.2,0,0.7,0,0.9c0,0.1,0,0.2,0.1,0.2c0.3,0,1.8-0.1,2.2-0.1
		c0,0,0.1,0.1,0.1,0.3c0,0.3-0.1,0.5-0.2,0.5c-0.6,0-1.5,0-2,0c-0.2,0-0.3,0.1-0.3,0.2c0,0.3,0,3.1,0,3.7c0,0.6,0.1,0.8,0.2,1
		c0.3,0.3,0.6,0.5,1.1,0.5c0.5,0,0.8-0.2,1-0.3c0.1-0.1,0.2-0.1,0.2,0c0,0.1-0.2,0.3-0.4,0.5c-0.4,0.3-1,0.5-1.5,0.5
		C647.7,75.9,647.2,75.6,646.9,75.1z"/>
	<path d="M651.2,69.6c0.5-0.1,0.9-0.3,1.3-0.5c0.1-0.1,0.2-0.1,0.3-0.1c0.1,0,0.1,0.1,0.1,0.3c0,0.4,0,1.5,0,2.6c0,1.5,0,2.8,0,3.2
		c0,0.4,0.2,0.5,0.5,0.5c0.2,0,0.3,0.1,0.3,0.1c0,0.1-0.1,0.1-0.3,0.1c-0.2,0-0.8-0.1-1.3-0.1c-0.6,0-0.9,0-1.1,0
		c-0.1,0-0.3,0-0.3-0.1c0-0.1,0.1-0.1,0.3-0.2c0.4-0.1,0.6-0.3,0.6-1c0-0.5,0.1-3.8,0.1-4c0-0.3,0-0.4-0.5-0.6
		c-0.1-0.1-0.1-0.1-0.1-0.1C651,69.7,651.1,69.6,651.2,69.6z M653,66.7c0,0.5-0.4,0.7-0.7,0.7c-0.3,0-0.6-0.3-0.6-0.7
		c0-0.5,0.3-0.7,0.6-0.7C652.8,66,653,66.3,653,66.7z"/>
	<path d="M661.6,72.5c0,1.4-0.8,2.3-1.4,2.8c-0.6,0.4-1.4,0.7-2,0.7c-1.9,0-3.5-1.5-3.5-3.3c0-1.4,0.6-2.3,1.3-2.8
		c0.5-0.4,1.3-0.8,2.2-0.8C660.1,69.1,661.6,70.6,661.6,72.5z M656,72.2c0,0.8,0.2,1.7,0.8,2.5c0.5,0.7,1.1,1,1.7,1
		c0.4,0,0.8-0.2,1.1-0.5c0.3-0.3,0.8-1.1,0.8-2.4c0-1.7-0.9-3.4-2.4-3.4C657,69.4,656,70.3,656,72.2z"/>
	<path d="M668.4,69.7c0.4,0.4,0.6,1.3,0.6,2.4c0,1,0,1.1,0,2c0,1.2,0.1,1.3,0.6,1.5c0.2,0.1,0.3,0.1,0.3,0.2c0,0.1-0.1,0.1-0.3,0.1
		c-0.2,0-0.8-0.1-1.2-0.1c-0.6,0-0.8,0.1-1.1,0.1c-0.2,0-0.3,0-0.3-0.1c0-0.1,0.1-0.1,0.3-0.2c0.4-0.1,0.5-0.2,0.5-0.8v-2.4
		c0-1.5-0.1-1.9-0.6-2.2c-0.3-0.2-0.6-0.3-1-0.3c-0.5,0-0.9,0.2-1.4,0.6c-0.1,0.1-0.2,0.4-0.2,0.5c0,0.2,0,1.1,0,2.2
		c0,1.2,0.1,1.6,0.1,1.9c0.1,0.4,0.3,0.5,0.6,0.6c0.2,0.1,0.3,0.1,0.3,0.2c0,0.1-0.2,0.1-0.4,0.1c-0.1,0-1-0.1-1.4-0.1
		c-0.2,0-0.6,0-1,0c-0.2,0-0.3,0-0.3-0.1c0-0.1,0.2-0.1,0.4-0.2c0.5-0.1,0.5-0.2,0.5-0.6c0-1.3,0-3,0-4.4c0-0.2,0-0.4-0.5-0.6
		c-0.1-0.1-0.1-0.1-0.1-0.2c0,0,0.1-0.1,0.3-0.1c0.4-0.1,1.1-0.4,1.4-0.6c0.1,0,0.1,0.1,0.1,0.1c0,0.2-0.1,0.7,0,1
		c0,0,0.1,0.1,0.1,0.1c0.5-0.3,0.9-0.6,1.3-0.8c0.4-0.2,0.8-0.2,1.1-0.2C667.8,69.1,668.2,69.4,668.4,69.7z"/>
	<path d="M674.6,72.2c0,1.2,0.5,2,0.9,2.3c0.5,0.4,1.1,0.6,1.7,0.6c0.8,0,1.2-0.1,1.9-0.7c0,0,0.1-0.1,0.1,0c0,0.1,0,0.2-0.1,0.3
		c-0.3,0.4-1.2,1.2-2.5,1.2c-0.8,0-1.7-0.3-2.3-0.9c-0.6-0.6-0.9-1.4-0.9-2.4c0-1.1,0.6-2,1.1-2.5c0.6-0.5,1.5-1,2.7-1
		c0.8,0,1.3,0.2,1.6,0.5c0.2,0.1,0.3,0.3,0.3,0.3c0,0.3-0.3,0.6-0.5,0.6c-0.1,0-0.2-0.1-0.3-0.2c-0.3-0.3-0.7-0.6-1-0.7
		c-0.2-0.1-0.5-0.1-0.7-0.1C675.9,69.4,674.6,70.1,674.6,72.2z"/>
	<path d="M681.8,71.4c0,2.3,0,3.1,0,3.5c0,0.5,0.1,0.6,0.6,0.7c0.1,0,0.2,0.1,0.2,0.1c0,0.1-0.1,0.1-0.4,0.1c-0.3,0-0.9,0-1.2,0
		c-0.5,0-0.9,0-1.2,0c-0.2,0-0.3,0-0.3-0.1c0-0.1,0.1-0.1,0.3-0.2c0.5-0.1,0.6-0.3,0.6-1c0-0.7,0.1-3.7,0.1-5.9c0-1.5,0-2.9,0-3.7
		c0-0.4,0-0.5-0.5-0.8c-0.1-0.1-0.2-0.1-0.2-0.2s0.1-0.1,0.3-0.1c0.5-0.1,1-0.3,1.4-0.4c0.1,0,0.1-0.1,0.2-0.1c0,0,0.1,0.1,0.1,0.2
		c0,0.1-0.1,3.2-0.1,5.9V71.4z"/>
	<path d="M690.5,72.5c0,1.4-0.8,2.3-1.4,2.8c-0.6,0.4-1.4,0.7-2,0.7c-1.9,0-3.5-1.5-3.5-3.3c0-1.4,0.6-2.3,1.3-2.8
		c0.5-0.4,1.3-0.8,2.2-0.8C689,69.1,690.5,70.6,690.5,72.5z M684.9,72.2c0,0.8,0.2,1.7,0.8,2.5c0.5,0.7,1.1,1,1.7,1
		c0.4,0,0.8-0.2,1.1-0.5c0.3-0.3,0.8-1.1,0.8-2.4c0-1.7-0.9-3.4-2.4-3.4C685.9,69.4,684.9,70.3,684.9,72.2z"/>
	<path d="M692.9,70.5c0,0.8,0.7,1.2,1.1,1.5c1.2,0.8,1.6,1.2,1.6,2.1c0,0.8-0.6,1.3-0.9,1.5c-0.4,0.3-1,0.4-1.4,0.4
		c-0.5,0-0.9-0.1-1.4-0.3c-0.1-0.1-0.3-0.2-0.3-0.3c0-0.3,0-0.7-0.1-0.9c0-0.2,0-0.3,0.1-0.3c0.1,0,0.1,0,0.2,0.3
		c0.1,0.4,0.4,0.8,0.8,1c0.3,0.2,0.5,0.2,0.8,0.2c0.5,0,1.2-0.5,1.2-1.2c0-0.7-0.5-1.1-1.2-1.5c-0.8-0.5-1.5-1.2-1.5-2
		c0-0.6,0.3-1.1,0.7-1.4c0.3-0.3,0.8-0.5,1.5-0.5c0.5,0,1,0.1,1.2,0.2c0,0,0.1,0.1,0.1,0.2c0,0.2,0.1,0.6,0.1,0.8
		c0,0.2,0,0.3-0.1,0.3c-0.1,0-0.1-0.1-0.2-0.2c-0.1-0.3-0.2-0.5-0.4-0.7c-0.2-0.1-0.5-0.3-0.8-0.3C693.4,69.3,692.9,69.7,692.9,70.5
		z"/>
	<path d="M702.4,70.9c0,0.1-0.1,0.2-0.2,0.2c-0.1,0-2.5-0.1-2.9-0.1h-1c0,0-0.1,0.1-0.2,0.1c-0.1,0.2-0.1,0.5-0.1,1
		c0,0.9,0.4,1.7,0.8,2.2c0.5,0.5,1.2,0.7,1.8,0.7c0.7,0,1.3-0.2,1.7-0.6c0.1-0.1,0.2-0.1,0.2,0c0,0.1-0.1,0.2-0.2,0.3
		c-0.7,0.8-1.5,1.1-2.5,1.1c-0.8,0-1.6-0.3-2.1-0.9c-0.5-0.6-0.9-1.4-0.9-2.4c0-0.8,0.3-1.9,1-2.6c0.5-0.5,1.3-0.9,2.2-0.9
		C701.2,69.1,702.4,69.8,702.4,70.9z M698.7,70c-0.2,0.3-0.4,0.6-0.4,0.7c0,0,0,0.1,0.1,0.1l2.3,0c0.4,0,0.4-0.2,0.4-0.4
		c0-0.2-0.1-0.5-0.3-0.8c-0.2-0.2-0.5-0.3-0.9-0.3C699.5,69.3,699.1,69.6,698.7,70z"/>
	<path d="M704.7,70.5c0,0.8,0.7,1.2,1.1,1.5c1.2,0.8,1.6,1.2,1.6,2.1c0,0.8-0.6,1.3-0.9,1.5c-0.4,0.3-1,0.4-1.4,0.4
		c-0.5,0-0.9-0.1-1.4-0.3c-0.1-0.1-0.3-0.2-0.3-0.3c0-0.3,0-0.7-0.1-0.9c0-0.2,0-0.3,0.1-0.3c0.1,0,0.1,0,0.2,0.3
		c0.1,0.4,0.4,0.8,0.8,1c0.3,0.2,0.5,0.2,0.8,0.2c0.5,0,1.2-0.5,1.2-1.2c0-0.7-0.5-1.1-1.2-1.5c-0.8-0.5-1.5-1.2-1.5-2
		c0-0.6,0.3-1.1,0.7-1.4c0.3-0.3,0.8-0.5,1.5-0.5c0.5,0,1,0.1,1.2,0.2c0,0,0.1,0.1,0.1,0.2c0,0.2,0.1,0.6,0.1,0.8
		c0,0.2,0,0.3-0.1,0.3c-0.1,0-0.1-0.1-0.2-0.2c-0.1-0.3-0.2-0.5-0.4-0.7c-0.2-0.1-0.5-0.3-0.8-0.3C705.2,69.3,704.7,69.7,704.7,70.5
		z"/>
</g>
<g>
	<path d="M397.3,56.3h2.7V44.5l0.2-1.4l-0.8,1.2l-2,1.6l-0.9-1.1l4.4-4.1h0.9v15.5h2.6v1.6h-7.1V56.3z"/>
	<path d="M415,47.2l-1-2.6h-0.1l0.3,2.6v10.7h-1.7V40.8h1.1l6.2,10.9l1,2.5h0.1l-0.3-2.5V41h1.7v17.1h-1.1L415,47.2z"/>
	<path d="M424.7,51.8c0-2.2,0.4-3.7,1.1-4.8c0.7-1,1.8-1.5,3.2-1.5c1.5,0,2.6,0.5,3.3,1.6c0.7,1,1,2.6,1,4.7c0,2.2-0.4,3.8-1.1,4.8
		c-0.8,1-1.8,1.5-3.2,1.5c-1.5,0-2.6-0.5-3.3-1.6C425.1,55.5,424.7,53.9,424.7,51.8z M426.5,51.8c0,0.7,0,1.3,0.1,1.9
		c0.1,0.6,0.2,1.1,0.4,1.5s0.5,0.7,0.8,1c0.3,0.2,0.7,0.3,1.2,0.3c0.8,0,1.5-0.4,1.9-1.1c0.4-0.7,0.6-1.9,0.6-3.6
		c0-0.7,0-1.3-0.1-1.9c-0.1-0.6-0.2-1.1-0.4-1.5c-0.2-0.4-0.5-0.7-0.8-1s-0.7-0.3-1.2-0.3c-0.8,0-1.4,0.4-1.9,1.1
		C426.7,49,426.5,50.2,426.5,51.8z"/>
	<path d="M438.3,52.9l0.5,2.4h0l0.4-2.4l2.1-7h1.8l-4.1,12.3h-0.8l-4.2-12.3h2L438.3,52.9z"/>
	<path d="M451.9,57c-0.4,0.4-0.9,0.6-1.5,0.8s-1.2,0.3-1.9,0.3c-0.8,0-1.4-0.1-2-0.4c-0.6-0.3-1-0.7-1.4-1.3c-0.4-0.6-0.6-1.2-0.8-2
		c-0.2-0.8-0.3-1.6-0.3-2.6c0-2,0.4-3.6,1.1-4.7c0.8-1.1,1.8-1.6,3.2-1.6c0.4,0,0.9,0.1,1.3,0.2c0.4,0.1,0.8,0.3,1.2,0.7
		c0.4,0.3,0.6,0.8,0.9,1.4c0.2,0.6,0.3,1.4,0.3,2.4c0,0.3,0,0.6,0,0.9c0,0.3-0.1,0.6-0.1,1H446c0,0.7,0.1,1.3,0.2,1.9
		c0.1,0.6,0.3,1,0.5,1.4s0.5,0.7,0.9,0.9c0.4,0.2,0.8,0.3,1.4,0.3c0.4,0,0.9-0.1,1.3-0.2c0.4-0.2,0.7-0.4,1-0.6L451.9,57z
		 M450.5,50.6c0-1.2-0.1-2.1-0.5-2.6c-0.4-0.6-0.9-0.8-1.5-0.8c-0.7,0-1.3,0.3-1.8,0.8c-0.4,0.6-0.7,1.4-0.8,2.6H450.5z"/>
	<path d="M460.2,57.8v-7.1c0-0.6,0-1.2-0.1-1.6s-0.1-0.8-0.3-1.1c-0.1-0.3-0.3-0.5-0.5-0.6c-0.2-0.1-0.5-0.2-0.9-0.2
		c-0.5,0-1,0.2-1.4,0.6s-0.6,0.9-0.8,1.5v8.6h-1.7v-12h1.2l0.3,1.3h0.1c0.3-0.5,0.7-0.8,1.2-1.1s1.1-0.4,1.8-0.4
		c0.6,0,1.1,0.1,1.5,0.4c0.4,0.3,0.7,0.7,0.9,1.4c0.3-0.6,0.7-1,1.2-1.3c0.5-0.3,1.1-0.5,1.8-0.5c0.5,0,1,0.1,1.4,0.2
		c0.4,0.1,0.7,0.4,0.9,0.7c0.2,0.3,0.4,0.8,0.5,1.4c0.1,0.6,0.2,1.3,0.2,2.1v7.8h-1.7v-7.6c0-1-0.1-1.8-0.3-2.3
		c-0.2-0.5-0.7-0.8-1.4-0.8c-0.6,0-1.1,0.2-1.5,0.6c-0.4,0.4-0.6,0.9-0.8,1.5v8.6H460.2z"/>
	<path d="M470.2,41h1.7v5.7h0.1c0.7-0.8,1.5-1.2,2.6-1.2c1.2,0,2.2,0.5,2.8,1.5c0.6,1,0.9,2.5,0.9,4.6c0,2.2-0.4,3.8-1.2,4.8
		c-0.8,1.1-2,1.6-3.5,1.6c-0.7,0-1.4-0.1-2-0.3c-0.6-0.2-1.1-0.4-1.4-0.6V41z M472,56.1c0.2,0.1,0.5,0.2,0.8,0.3
		c0.3,0.1,0.7,0.1,1,0.1c0.8,0,1.5-0.4,2-1.2c0.5-0.8,0.7-2,0.7-3.7c0-0.7,0-1.3-0.1-1.9c-0.1-0.6-0.2-1-0.4-1.4
		c-0.2-0.4-0.4-0.7-0.7-0.9c-0.3-0.2-0.7-0.3-1.1-0.3c-0.6,0-1.1,0.2-1.4,0.5c-0.4,0.3-0.7,0.8-0.8,1.4V56.1z"/>
	<path d="M487.8,57c-0.4,0.4-0.9,0.6-1.5,0.8s-1.2,0.3-1.9,0.3c-0.8,0-1.4-0.1-2-0.4c-0.6-0.3-1-0.7-1.4-1.3c-0.4-0.6-0.6-1.2-0.8-2
		c-0.2-0.8-0.3-1.6-0.3-2.6c0-2,0.4-3.6,1.1-4.7c0.8-1.1,1.8-1.6,3.2-1.6c0.4,0,0.9,0.1,1.3,0.2c0.4,0.1,0.8,0.3,1.2,0.7
		c0.4,0.3,0.6,0.8,0.9,1.4c0.2,0.6,0.3,1.4,0.3,2.4c0,0.3,0,0.6,0,0.9c0,0.3-0.1,0.6-0.1,1h-6.1c0,0.7,0.1,1.3,0.2,1.9
		c0.1,0.6,0.3,1,0.5,1.4s0.5,0.7,0.9,0.9c0.4,0.2,0.8,0.3,1.4,0.3c0.4,0,0.9-0.1,1.3-0.2c0.4-0.2,0.7-0.4,1-0.6L487.8,57z
		 M486.5,50.6c0-1.2-0.1-2.1-0.5-2.6c-0.4-0.6-0.9-0.8-1.5-0.8c-0.7,0-1.3,0.3-1.8,0.8c-0.4,0.6-0.7,1.4-0.8,2.6H486.5z"/>
	<path d="M490.6,45.8h1.2l0.3,1.3h0.1c0.2-0.5,0.5-0.8,0.9-1.1c0.4-0.3,0.8-0.4,1.3-0.4c0.4,0,0.8,0.1,1.2,0.2l-0.3,1.8
		c-0.4-0.1-0.8-0.2-1.1-0.2c-0.5,0-0.9,0.1-1.2,0.4c-0.3,0.3-0.5,0.7-0.6,1.2v8.8h-1.7V45.8z"/>
	<path d="M509.9,57.8h-7.8v-0.8c0.3-0.4,0.7-0.8,1-1.4c0.4-0.6,0.8-1.2,1.2-1.8c0.4-0.7,0.8-1.4,1.2-2.1s0.8-1.5,1.1-2.3
		s0.6-1.5,0.8-2.3s0.3-1.5,0.3-2.2c0-0.8-0.2-1.5-0.6-2c-0.4-0.5-0.9-0.7-1.7-0.7c-0.5,0-0.9,0.1-1.4,0.3c-0.4,0.2-0.8,0.4-1.1,0.6
		l-0.7-1.2c0.4-0.4,1-0.7,1.6-0.9c0.6-0.2,1.3-0.3,2-0.3c1.2,0,2.1,0.4,2.7,1.1c0.6,0.7,0.9,1.7,0.9,2.9c0,0.9-0.1,1.8-0.4,2.8
		c-0.3,1-0.6,1.9-1,2.9c-0.4,0.9-0.9,1.8-1.4,2.7s-1,1.6-1.5,2.3l-1,1.1v0.1l1.3-0.2h4.2V57.8z"/>
	<path d="M512.5,49.4c0-1.5,0.1-2.9,0.3-4c0.2-1.1,0.5-2,0.9-2.7c0.4-0.7,0.9-1.2,1.4-1.5c0.6-0.3,1.2-0.5,1.9-0.5
		c0.8,0,1.4,0.2,2,0.5c0.6,0.3,1,0.8,1.4,1.5c0.4,0.7,0.6,1.6,0.8,2.7c0.2,1.1,0.3,2.4,0.3,4c0,1.6-0.1,2.9-0.3,4
		c-0.2,1.1-0.5,2-0.9,2.7c-0.4,0.7-0.9,1.2-1.4,1.5s-1.2,0.5-1.9,0.5c-0.8,0-1.5-0.2-2-0.5c-0.6-0.3-1-0.9-1.4-1.6s-0.6-1.6-0.8-2.7
		C512.6,52.3,512.5,51,512.5,49.4z M514.3,49.4c0,2.3,0.2,4,0.6,5.3c0.4,1.2,1.1,1.8,2.1,1.8c0.9,0,1.6-0.6,2-1.7
		c0.4-1.1,0.6-2.9,0.6-5.4c0-2.3-0.2-4-0.6-5.3c-0.4-1.2-1.1-1.9-2.1-1.9c-0.9,0-1.6,0.6-2,1.7C514.5,45.1,514.3,46.9,514.3,49.4z"
		/>
	<path d="M524.7,56.3h2.7V44.5l0.2-1.4l-0.8,1.2l-2,1.6l-0.9-1.1l4.4-4.1h0.9v15.5h2.6v1.6h-7.1V56.3z"/>
	<path d="M543.6,52.7h-2.2v5.2h-1.7v-5.2h-5.9v-0.8l6.3-11.1h1.3v10.3h2.2V52.7z M539.6,45.7l0.2-2.1h-0.1l-0.7,1.8l-2.6,4.6
		l-0.9,1.2l1.3-0.2h2.8V45.7z"/>
</g>
<g>
	<path d="M418.2,71c0,0.1-0.1,0.2-0.2,0.2c-0.1,0-2.5-0.1-2.9-0.1h-1c0,0-0.1,0.1-0.2,0.1c-0.1,0.2-0.1,0.5-0.1,1
		c0,0.9,0.4,1.7,0.8,2.2c0.5,0.5,1.2,0.7,1.8,0.7c0.7,0,1.3-0.2,1.7-0.6c0.1-0.1,0.2-0.1,0.2,0c0,0.1-0.1,0.2-0.2,0.3
		c-0.7,0.8-1.5,1.1-2.5,1.1c-0.8,0-1.6-0.3-2.1-0.9c-0.5-0.6-0.9-1.4-0.9-2.4c0-0.8,0.3-1.9,1-2.6c0.5-0.5,1.3-0.9,2.2-0.9
		C417,69.2,418.2,69.9,418.2,71z M414.5,70.1c-0.2,0.3-0.4,0.6-0.4,0.7c0,0,0,0.1,0.1,0.1l2.3,0c0.4,0,0.4-0.2,0.4-0.4
		c0-0.2-0.1-0.5-0.3-0.8c-0.2-0.2-0.5-0.3-0.9-0.3C415.3,69.4,414.9,69.7,414.5,70.1z"/>
	<path d="M423.5,70.1c0.2,0.3,0.3,1.1,0.3,1.6c0,0.7-0.1,2.4-0.1,2.8c0,0.3,0.2,0.7,0.7,0.7c0.1,0,0.3-0.1,0.5-0.2
		c0.1-0.1,0.2,0,0.1,0.2c-0.3,0.5-0.8,0.8-1.4,0.8c-0.5,0-0.9-0.4-1.1-0.8c0,0-0.1,0-0.1,0c-0.5,0.5-1.1,0.8-1.8,0.8
		c-0.7,0-1.4-0.6-1.4-1.5c0-0.6,0.5-0.9,0.6-1c0.4-0.2,2.1-0.7,2.4-0.9c0.1,0,0.2-0.2,0.2-0.3c0-0.2,0-0.6,0-0.8
		c0-0.7-0.1-1.2-0.4-1.5c-0.2-0.2-0.5-0.3-0.8-0.3c-0.3,0-0.5,0.1-0.7,0.2c-0.1,0.1-0.2,0.2-0.3,0.4c0,0.1,0,0.2,0,0.3
		c0,0.1,0,0.1-0.1,0.1c-0.2,0.1-0.7,0.4-0.8,0.4c-0.1,0-0.2-0.1-0.2-0.2c0-0.1,0.1-0.3,0.3-0.5c0.4-0.5,1-0.9,1.4-1
		c0.4-0.2,0.8-0.3,1.1-0.3C422.7,69.2,423.2,69.5,423.5,70.1z M422.3,75c0.1-0.1,0.2-0.2,0.2-0.4c0.1-0.3,0.1-1,0.1-1.7
		c0,0,0-0.1-0.1-0.1c-0.2,0-1.3,0.4-1.7,0.6c-0.2,0.1-0.5,0.4-0.5,0.9c0,0.6,0.5,1,1.1,1C421.8,75.3,422.1,75.2,422.3,75z"/>
	<path d="M427.7,70.5c-0.2,0.2-0.3,0.4-0.3,0.6c0,0.2,0,0.7,0,1.1c0,1.3,0,2.3,0.1,2.6c0.1,0.6,0.3,0.7,1,0.8c0.3,0,0.3,0.1,0.3,0.2
		c0,0.1-0.2,0.1-0.4,0.1c-0.3,0-0.9-0.1-1.7-0.1c-0.6,0-0.8,0.1-1.1,0.1c-0.2,0-0.3,0-0.3-0.1c0-0.1,0.1-0.1,0.3-0.2
		c0.4-0.1,0.6-0.3,0.6-0.7c0-0.3,0.1-1.3,0.1-2.5c0-1.1,0-1.7,0-2c0-0.1-0.1-0.2-0.5-0.5c-0.1-0.1-0.1-0.1-0.1-0.2
		c0,0,0.1-0.1,0.3-0.2c0.4-0.1,0.9-0.3,1.2-0.4c0.1-0.1,0.2-0.1,0.3-0.1c0,0,0.1,0.1,0.1,0.3c0,0.2,0,0.9,0,1.2c0,0.1,0,0.1,0.1,0
		c0.5-0.6,1.2-1.3,1.9-1.3c0.2,0,0.5,0.1,0.6,0.2c0.1,0.1,0.1,0.2,0.1,0.3c0,0.1-0.2,0.4-0.4,0.6c-0.2,0.1-0.2,0.2-0.3,0.2
		c0,0-0.1,0-0.3-0.1c-0.2-0.1-0.4-0.2-0.6-0.2C428.3,70.1,428,70.3,427.7,70.5z"/>
	<path d="M432.6,71.5c0,2.3,0,3.1,0,3.5c0,0.5,0.1,0.6,0.6,0.7c0.1,0,0.2,0.1,0.2,0.1c0,0.1-0.1,0.1-0.4,0.1c-0.3,0-0.9,0-1.2,0
		c-0.5,0-0.9,0-1.2,0c-0.2,0-0.3,0-0.3-0.1c0-0.1,0.1-0.1,0.3-0.2c0.5-0.1,0.6-0.3,0.6-1c0-0.7,0.1-3.7,0.1-5.9c0-1.5,0-2.9,0-3.7
		c0-0.4,0-0.5-0.5-0.8c-0.1-0.1-0.2-0.1-0.2-0.2s0.1-0.1,0.3-0.1c0.5-0.1,1-0.3,1.4-0.4c0.1,0,0.1-0.1,0.2-0.1c0,0,0.1,0.1,0.1,0.2
		c0,0.1-0.1,3.2-0.1,5.9V71.5z"/>
	<path d="M436.4,69.3c0.2,0,0.3,0.1,0.3,0.1c0,0.1-0.1,0.1-0.2,0.1c-0.4,0.1-0.4,0.2-0.3,0.7c0.2,0.6,1.2,3.1,1.6,3.8
		c0,0.1,0.1,0.1,0.1,0c0.2-0.6,1.2-3.2,1.4-3.6c0.1-0.2,0.1-0.4,0.1-0.5c0-0.1-0.1-0.3-0.4-0.4c-0.3-0.1-0.3-0.1-0.3-0.2
		c0-0.1,0.1-0.1,0.3-0.1c0.2,0,0.6,0.1,0.9,0.1c0.3,0,0.6-0.1,0.8-0.1c0.1,0,0.2,0,0.2,0.1c0,0.1-0.1,0.1-0.3,0.2
		c-0.4,0.1-0.5,0.2-0.8,0.9c-0.2,0.5-1.3,3.2-1.6,3.9c-0.2,0.6-0.4,1-0.8,2c-0.4,1-1.1,2.9-1.4,3.5c-0.1,0.3-0.2,0.5-0.3,0.7
		c-0.2,0.3-0.4,0.3-0.6,0.3c-0.3,0-0.6-0.2-0.6-0.6c0-0.3,0.2-0.5,0.5-0.5c0.1,0,0.2,0,0.4,0c0.2,0,0.4-0.1,0.5-0.3
		c0.2-0.4,0.7-1.9,1.3-3.4c0.1-0.2,0.1-0.4,0-0.6c-0.1-0.3-1.4-3.6-2.2-5.4c-0.1-0.2-0.3-0.4-0.6-0.5c-0.2-0.1-0.3-0.1-0.3-0.2
		c0-0.1,0.2-0.1,0.3-0.1c0.3,0,0.8,0.1,1.3,0.1C435.6,69.4,436.1,69.3,436.4,69.3z"/>
	<path d="M445.9,70.5c-0.2,0.2-0.3,0.4-0.3,0.6c0,0.2,0,0.7,0,1.1c0,1.3,0,2.3,0.1,2.6c0.1,0.6,0.3,0.7,1,0.8c0.3,0,0.3,0.1,0.3,0.2
		c0,0.1-0.2,0.1-0.4,0.1c-0.3,0-0.9-0.1-1.7-0.1c-0.6,0-0.8,0.1-1.1,0.1c-0.2,0-0.3,0-0.3-0.1c0-0.1,0.1-0.1,0.3-0.2
		c0.4-0.1,0.6-0.3,0.6-0.7c0-0.3,0.1-1.3,0.1-2.5c0-1.1,0-1.7,0-2c0-0.1-0.1-0.2-0.5-0.5c-0.1-0.1-0.1-0.1-0.1-0.2
		c0,0,0.1-0.1,0.3-0.2c0.4-0.1,0.9-0.3,1.2-0.4c0.1-0.1,0.2-0.1,0.3-0.1c0,0,0.1,0.1,0.1,0.3c0,0.2,0,0.9,0,1.2c0,0.1,0,0.1,0.1,0
		c0.5-0.6,1.2-1.3,1.9-1.3c0.2,0,0.5,0.1,0.6,0.2c0.1,0.1,0.1,0.2,0.1,0.3c0,0.1-0.2,0.4-0.4,0.6c-0.2,0.1-0.2,0.2-0.3,0.2
		c0,0-0.1,0-0.3-0.1c-0.2-0.1-0.4-0.2-0.6-0.2C446.4,70.1,446.1,70.3,445.9,70.5z"/>
	<path d="M454.2,71c0,0.1-0.1,0.2-0.2,0.2c-0.1,0-2.5-0.1-2.9-0.1h-1c0,0-0.1,0.1-0.2,0.1c-0.1,0.2-0.1,0.5-0.1,1
		c0,0.9,0.4,1.7,0.8,2.2c0.5,0.5,1.2,0.7,1.8,0.7c0.7,0,1.3-0.2,1.7-0.6c0.1-0.1,0.2-0.1,0.2,0c0,0.1-0.1,0.2-0.2,0.3
		c-0.7,0.8-1.5,1.1-2.5,1.1c-0.8,0-1.6-0.3-2.1-0.9c-0.5-0.6-0.9-1.4-0.9-2.4c0-0.8,0.3-1.9,1-2.6c0.5-0.5,1.3-0.9,2.2-0.9
		C453.1,69.2,454.2,69.9,454.2,71z M450.5,70.1c-0.2,0.3-0.4,0.6-0.4,0.7c0,0,0,0.1,0.1,0.1l2.3,0c0.4,0,0.4-0.2,0.4-0.4
		c0-0.2-0.1-0.5-0.3-0.8c-0.2-0.2-0.5-0.3-0.9-0.3C451.4,69.4,450.9,69.7,450.5,70.1z"/>
	<path d="M459.8,69.5c0.1,0.1,0.3,0.1,0.6,0.1s1.1,0,1.3,0c0.1,0,0.2,0.2,0.2,0.4c0,0.2-0.1,0.3-0.2,0.3c-0.3,0-0.9,0-1.1,0
		c0,0-0.1,0.1-0.1,0.1c0,0.1,0,0.4,0,0.7c0,1.1-0.5,2-1.1,2.4c-0.6,0.4-1.1,0.5-1.4,0.5c-0.2,0-0.6-0.1-0.8-0.1
		c-0.1,0-0.2,0-0.2,0.1c-0.2,0.1-0.5,0.4-0.6,0.6c-0.2,0.1-0.2,0.3-0.2,0.4c0,0.6,0.7,0.8,1.7,0.8c0.6,0,1.5-0.1,2.1-0.1
		c0.7,0,1.1,0.2,1.4,0.5c0.4,0.3,0.6,0.9,0.6,1.5c0,1.2-1,2.4-2,2.9c-0.7,0.4-1.4,0.6-2.2,0.6c-1.4,0-2.6-0.7-2.6-2
		c0-0.4,0.2-0.6,0.3-0.8c0.1-0.1,0.8-1,1.2-1.4c0,0,0-0.1,0-0.2c-0.5-0.1-1.5-0.7-1.5-1.5c0-0.1,0.1-0.2,0.1-0.2
		c0.5-0.3,1.2-1,1.5-1.3c0,0,0-0.1,0-0.1c-0.6-0.4-1.4-1.2-1.4-2.3c0-0.8,0.3-1.3,0.8-1.7c0.5-0.5,1.2-0.7,1.9-0.7
		C458.9,69.1,459.7,69.4,459.8,69.5z M456.8,80c0.5,0.3,0.8,0.5,1.7,0.5c0.4,0,1.1,0,1.7-0.4c0.5-0.3,1-1.1,1-1.9s-0.5-1.4-1.6-1.4
		c-0.7,0-1.6,0-2.1,0c-0.4,0-0.5,0.1-0.6,0.2c-0.4,0.3-0.8,1-0.8,1.6C456.1,79,456.3,79.7,456.8,80z M457,69.7
		c-0.3,0.3-0.5,1-0.5,1.6c0,0.8,0.3,1.6,0.6,1.9c0.3,0.3,0.6,0.5,1.1,0.5c0.8,0,1.4-1,1.4-1.8c0-0.8-0.2-1.5-0.6-2
		c-0.3-0.4-0.6-0.6-1.1-0.6C457.6,69.3,457.3,69.5,457,69.7z"/>
	<path d="M462.9,69.7c0.5-0.1,0.9-0.3,1.3-0.5c0.1-0.1,0.2-0.1,0.3-0.1c0.1,0,0.1,0.1,0.1,0.3c0,0.4,0,1.5,0,2.6c0,1.5,0,2.8,0,3.2
		c0,0.4,0.2,0.5,0.5,0.5c0.2,0,0.3,0.1,0.3,0.1c0,0.1-0.1,0.1-0.3,0.1c-0.2,0-0.8-0.1-1.3-0.1c-0.6,0-0.9,0-1.1,0
		c-0.1,0-0.3,0-0.3-0.1c0-0.1,0.1-0.1,0.3-0.2c0.4-0.1,0.6-0.3,0.6-1c0-0.5,0.1-3.8,0.1-4c0-0.3,0-0.4-0.5-0.6
		c-0.1-0.1-0.1-0.1-0.1-0.1C462.7,69.8,462.8,69.7,462.9,69.7z M464.7,66.8c0,0.5-0.4,0.7-0.7,0.7c-0.3,0-0.6-0.3-0.6-0.7
		c0-0.5,0.3-0.7,0.6-0.7C464.5,66.1,464.7,66.5,464.7,66.8z"/>
	<path d="M467.5,70.6c0,0.8,0.7,1.2,1.1,1.5c1.2,0.8,1.6,1.2,1.6,2.1c0,0.8-0.6,1.3-0.9,1.5c-0.4,0.3-1,0.4-1.4,0.4
		c-0.5,0-0.9-0.1-1.4-0.3c-0.1-0.1-0.3-0.2-0.3-0.3c0-0.3,0-0.7-0.1-0.9c0-0.2,0-0.3,0.1-0.3c0.1,0,0.1,0,0.2,0.3
		c0.1,0.4,0.4,0.8,0.8,1c0.3,0.2,0.5,0.2,0.8,0.2c0.5,0,1.2-0.5,1.2-1.2c0-0.7-0.5-1.1-1.2-1.5c-0.8-0.5-1.5-1.2-1.5-2
		c0-0.6,0.3-1.1,0.7-1.4c0.3-0.3,0.8-0.5,1.5-0.5c0.5,0,1,0.1,1.2,0.2c0,0,0.1,0.1,0.1,0.2c0,0.2,0.1,0.6,0.1,0.8
		c0,0.2,0,0.3-0.1,0.3c-0.1,0-0.1-0.1-0.2-0.2c-0.1-0.3-0.2-0.5-0.4-0.7c-0.2-0.1-0.5-0.3-0.8-0.3C468,69.4,467.5,69.8,467.5,70.6z"
		/>
	<path d="M472.1,75.2c-0.1-0.2-0.2-0.6-0.2-1v-3.7c0-0.2,0-0.3-0.1-0.4c-0.1,0-0.3-0.1-0.4-0.1c-0.1,0-0.2-0.1-0.2-0.2
		c0,0,0-0.1,0.2-0.2c0.5-0.2,1-0.6,1.5-1.2c0.2-0.2,0.3-0.1,0.3-0.1c0,0.2,0,0.7,0,0.9c0,0.1,0,0.2,0.1,0.2c0.3,0,1.8-0.1,2.2-0.1
		c0,0,0.1,0.1,0.1,0.3c0,0.3-0.1,0.5-0.2,0.5c-0.6,0-1.5,0-2,0c-0.2,0-0.3,0.1-0.3,0.2c0,0.3,0,3.1,0,3.7c0,0.6,0.1,0.8,0.2,1
		c0.3,0.3,0.6,0.5,1.1,0.5c0.5,0,0.8-0.2,1-0.3c0.1-0.1,0.2-0.1,0.2,0c0,0.1-0.2,0.3-0.4,0.5c-0.4,0.3-1,0.5-1.5,0.5
		C473,76,472.4,75.7,472.1,75.2z"/>
	<path d="M478.5,70.5c-0.2,0.2-0.3,0.4-0.3,0.6c0,0.2,0,0.7,0,1.1c0,1.3,0,2.3,0.1,2.6c0.1,0.6,0.3,0.7,1,0.8c0.3,0,0.3,0.1,0.3,0.2
		c0,0.1-0.2,0.1-0.4,0.1c-0.3,0-0.9-0.1-1.7-0.1c-0.6,0-0.8,0.1-1.1,0.1c-0.2,0-0.3,0-0.3-0.1c0-0.1,0.1-0.1,0.3-0.2
		c0.4-0.1,0.6-0.3,0.6-0.7c0-0.3,0.1-1.3,0.1-2.5c0-1.1,0-1.7,0-2c0-0.1-0.1-0.2-0.5-0.5c-0.1-0.1-0.1-0.1-0.1-0.2
		c0,0,0.1-0.1,0.3-0.2c0.4-0.1,0.9-0.3,1.2-0.4c0.1-0.1,0.2-0.1,0.3-0.1c0,0,0.1,0.1,0.1,0.3c0,0.2,0,0.9,0,1.2c0,0.1,0,0.1,0.1,0
		c0.5-0.6,1.2-1.3,1.9-1.3c0.2,0,0.5,0.1,0.6,0.2c0.1,0.1,0.1,0.2,0.1,0.3c0,0.1-0.2,0.4-0.4,0.6c-0.2,0.1-0.2,0.2-0.3,0.2
		c0,0-0.1,0-0.3-0.1c-0.2-0.1-0.4-0.2-0.6-0.2C479,70.1,478.7,70.3,478.5,70.5z"/>
	<path d="M485.6,70.1c0.2,0.3,0.3,1.1,0.3,1.6c0,0.7-0.1,2.4-0.1,2.8c0,0.3,0.2,0.7,0.7,0.7c0.1,0,0.3-0.1,0.5-0.2
		c0.1-0.1,0.2,0,0.1,0.2c-0.3,0.5-0.8,0.8-1.4,0.8c-0.5,0-0.9-0.4-1.1-0.8c0,0-0.1,0-0.1,0c-0.5,0.5-1.1,0.8-1.8,0.8
		c-0.7,0-1.4-0.6-1.4-1.5c0-0.6,0.5-0.9,0.6-1c0.4-0.2,2.1-0.7,2.4-0.9c0.1,0,0.2-0.2,0.2-0.3c0-0.2,0-0.6,0-0.8
		c0-0.7-0.1-1.2-0.4-1.5c-0.2-0.2-0.5-0.3-0.8-0.3c-0.3,0-0.5,0.1-0.7,0.2c-0.1,0.1-0.2,0.2-0.3,0.4c0,0.1,0,0.2,0,0.3
		c0,0.1,0,0.1-0.1,0.1c-0.2,0.1-0.7,0.4-0.8,0.4c-0.1,0-0.2-0.1-0.2-0.2c0-0.1,0.1-0.3,0.3-0.5c0.4-0.5,1-0.9,1.4-1
		c0.4-0.2,0.8-0.3,1.1-0.3C484.8,69.2,485.4,69.5,485.6,70.1z M484.4,75c0.1-0.1,0.2-0.2,0.2-0.4c0.1-0.3,0.1-1,0.1-1.7
		c0,0,0-0.1-0.1-0.1c-0.2,0-1.3,0.4-1.7,0.6c-0.2,0.1-0.5,0.4-0.5,0.9c0,0.6,0.5,1,1.1,1C483.9,75.3,484.2,75.2,484.4,75z"/>
	<path d="M488.3,75.2c-0.1-0.2-0.2-0.6-0.2-1v-3.7c0-0.2,0-0.3-0.1-0.4c-0.1,0-0.3-0.1-0.4-0.1c-0.1,0-0.2-0.1-0.2-0.2
		c0,0,0-0.1,0.2-0.2c0.5-0.2,1-0.6,1.5-1.2c0.2-0.2,0.3-0.1,0.3-0.1c0,0.2,0,0.7,0,0.9c0,0.1,0,0.2,0.1,0.2c0.3,0,1.8-0.1,2.2-0.1
		c0,0,0.1,0.1,0.1,0.3c0,0.3-0.1,0.5-0.2,0.5c-0.6,0-1.5,0-2,0c-0.2,0-0.3,0.1-0.3,0.2c0,0.3,0,3.1,0,3.7c0,0.6,0.1,0.8,0.2,1
		c0.3,0.3,0.6,0.5,1.1,0.5c0.5,0,0.8-0.2,1-0.3c0.1-0.1,0.2-0.1,0.2,0c0,0.1-0.2,0.3-0.4,0.5c-0.4,0.3-1,0.5-1.5,0.5
		C489.2,76,488.6,75.7,488.3,75.2z"/>
	<path d="M492.7,69.7c0.5-0.1,0.9-0.3,1.3-0.5c0.1-0.1,0.2-0.1,0.3-0.1c0.1,0,0.1,0.1,0.1,0.3c0,0.4,0,1.5,0,2.6c0,1.5,0,2.8,0,3.2
		c0,0.4,0.2,0.5,0.5,0.5c0.2,0,0.3,0.1,0.3,0.1c0,0.1-0.1,0.1-0.3,0.1c-0.2,0-0.8-0.1-1.3-0.1c-0.6,0-0.9,0-1.1,0
		c-0.1,0-0.3,0-0.3-0.1c0-0.1,0.1-0.1,0.3-0.2c0.4-0.1,0.6-0.3,0.6-1c0-0.5,0.1-3.8,0.1-4c0-0.3,0-0.4-0.5-0.6
		c-0.1-0.1-0.1-0.1-0.1-0.1C492.5,69.8,492.5,69.7,492.7,69.7z M494.5,66.8c0,0.5-0.4,0.7-0.7,0.7c-0.3,0-0.6-0.3-0.6-0.7
		c0-0.5,0.3-0.7,0.6-0.7C494.3,66.1,494.5,66.5,494.5,66.8z"/>
	<path d="M503.1,72.6c0,1.4-0.8,2.3-1.4,2.8c-0.6,0.4-1.4,0.7-2,0.7c-1.9,0-3.5-1.5-3.5-3.3c0-1.4,0.6-2.3,1.3-2.8
		c0.5-0.4,1.3-0.8,2.2-0.8C501.6,69.2,503.1,70.7,503.1,72.6z M497.4,72.3c0,0.8,0.2,1.7,0.8,2.5c0.5,0.7,1.1,1,1.7,1
		c0.4,0,0.8-0.2,1.1-0.5c0.3-0.3,0.8-1.1,0.8-2.4c0-1.7-0.9-3.4-2.4-3.4C498.4,69.5,497.4,70.4,497.4,72.3z"/>
	<path d="M509.9,69.8c0.4,0.4,0.6,1.3,0.6,2.4c0,1,0,1.1,0,2c0,1.2,0.1,1.3,0.6,1.5c0.2,0.1,0.3,0.1,0.3,0.2c0,0.1-0.1,0.1-0.3,0.1
		c-0.2,0-0.8-0.1-1.2-0.1c-0.6,0-0.8,0.1-1.1,0.1c-0.2,0-0.3,0-0.3-0.1c0-0.1,0.1-0.1,0.3-0.2c0.4-0.1,0.5-0.2,0.5-0.8v-2.4
		c0-1.5-0.1-1.9-0.6-2.2c-0.3-0.2-0.6-0.3-1-0.3c-0.5,0-0.9,0.2-1.4,0.6c-0.1,0.1-0.2,0.4-0.2,0.5c0,0.2,0,1.1,0,2.2
		c0,1.2,0.1,1.6,0.1,1.9c0.1,0.4,0.3,0.5,0.6,0.6c0.2,0.1,0.3,0.1,0.3,0.2c0,0.1-0.2,0.1-0.4,0.1c-0.1,0-1-0.1-1.4-0.1
		c-0.2,0-0.6,0-1,0c-0.2,0-0.3,0-0.3-0.1c0-0.1,0.2-0.1,0.4-0.2c0.5-0.1,0.5-0.2,0.5-0.6c0-1.3,0-3,0-4.4c0-0.2,0-0.4-0.5-0.6
		c-0.1-0.1-0.1-0.1-0.1-0.2c0,0,0.1-0.1,0.3-0.1c0.4-0.1,1.1-0.4,1.4-0.6c0.1,0,0.1,0.1,0.1,0.1c0,0.2-0.1,0.7,0,1
		c0,0,0.1,0.1,0.1,0.1c0.5-0.3,0.9-0.6,1.3-0.8c0.4-0.2,0.8-0.2,1.1-0.2C509.2,69.2,509.7,69.5,509.9,69.8z"/>
	<path d="M520.4,71c0,0.1-0.1,0.2-0.2,0.2c-0.1,0-2.5-0.1-2.9-0.1h-1c0,0-0.1,0.1-0.2,0.1c-0.1,0.2-0.1,0.5-0.1,1
		c0,0.9,0.4,1.7,0.8,2.2c0.5,0.5,1.2,0.7,1.8,0.7c0.7,0,1.3-0.2,1.7-0.6c0.1-0.1,0.2-0.1,0.2,0c0,0.1-0.1,0.2-0.2,0.3
		c-0.7,0.8-1.5,1.1-2.5,1.1c-0.8,0-1.6-0.3-2.1-0.9c-0.5-0.6-0.9-1.4-0.9-2.4c0-0.8,0.3-1.9,1-2.6c0.5-0.5,1.3-0.9,2.3-0.9
		C519.2,69.2,520.4,69.9,520.4,71z M516.7,70.1c-0.2,0.3-0.4,0.6-0.4,0.7c0,0,0,0.1,0.1,0.1l2.3,0c0.4,0,0.4-0.2,0.4-0.4
		c0-0.2-0.1-0.5-0.3-0.8c-0.2-0.2-0.5-0.3-0.9-0.3C517.5,69.4,517.1,69.7,516.7,70.1z"/>
	<path d="M527,69.8c0.4,0.4,0.6,1.3,0.6,2.4c0,1,0,1.1,0,2c0,1.2,0.1,1.3,0.6,1.5c0.2,0.1,0.3,0.1,0.3,0.2c0,0.1-0.1,0.1-0.3,0.1
		c-0.2,0-0.8-0.1-1.2-0.1c-0.6,0-0.8,0.1-1.1,0.1c-0.2,0-0.3,0-0.3-0.1c0-0.1,0.1-0.1,0.3-0.2c0.4-0.1,0.5-0.2,0.5-0.8v-2.4
		c0-1.5-0.1-1.9-0.6-2.2c-0.3-0.2-0.6-0.3-1-0.3c-0.5,0-0.9,0.2-1.4,0.6c-0.1,0.1-0.2,0.4-0.2,0.5c0,0.2,0,1.1,0,2.2
		c0,1.2,0.1,1.6,0.1,1.9c0.1,0.4,0.3,0.5,0.6,0.6c0.2,0.1,0.3,0.1,0.3,0.2c0,0.1-0.2,0.1-0.4,0.1c-0.1,0-1-0.1-1.4-0.1
		c-0.2,0-0.6,0-1,0c-0.2,0-0.3,0-0.3-0.1c0-0.1,0.2-0.1,0.4-0.2c0.5-0.1,0.5-0.2,0.5-0.6c0-1.3,0-3,0-4.4c0-0.2,0-0.4-0.5-0.6
		c-0.1-0.1-0.1-0.1-0.1-0.2c0,0,0.1-0.1,0.3-0.1c0.4-0.1,1.1-0.4,1.4-0.6c0.1,0,0.1,0.1,0.1,0.1c0,0.2-0.1,0.7,0,1
		c0,0,0.1,0.1,0.1,0.1c0.5-0.3,0.9-0.6,1.3-0.8c0.4-0.2,0.8-0.2,1.1-0.2C526.4,69.2,526.8,69.5,527,69.8z"/>
	<path d="M534.3,69.4C534.4,69.4,534.4,69.3,534.3,69.4c0.1-0.4,0.1-3.6,0.1-4.6c0-0.1,0-0.2-0.1-0.3c-0.1-0.1-0.3-0.2-0.5-0.3
		c-0.1,0-0.2-0.1-0.2-0.1c0-0.1,0.1-0.1,0.2-0.1c0.6-0.1,1.4-0.3,1.5-0.4c0.1-0.1,0.2-0.1,0.3-0.1c0.1,0,0.1,0.1,0.1,0.3
		c0,0.5-0.1,6.4-0.1,8.2c0,1.6,0,2.8,0,3.3c0,0.1,0.1,0.2,0.1,0.2c0.1,0,0.4-0.1,0.8-0.2c0.1,0,0.2,0,0.2,0.1c0,0.1-0.1,0.3-0.5,0.3
		c-0.7,0.1-1.4,0.3-1.9,0.5c-0.1,0-0.1-0.1-0.1-0.1c0-0.3,0.1-0.5,0-0.7c0,0,0-0.1-0.1,0c-0.8,0.6-1.5,0.8-2.1,0.8
		c-0.6,0-1.3-0.2-1.9-0.8c-0.5-0.4-0.9-1.3-0.9-2.4c0-1.5,0.8-2.5,1.6-3c0.6-0.4,1.4-0.7,2.2-0.7C533.5,69.2,534.1,69.3,534.3,69.4z
		 M531.6,69.8c-0.5,0.4-1,1.3-1,2.6c0,1.9,1.1,3,2.2,3c0.4,0,0.9-0.1,1.3-0.5c0.1-0.1,0.2-0.4,0.2-0.7c0.1-0.6,0.1-2.9,0-3.5
		c0-0.2-0.1-0.4-0.2-0.4c-0.4-0.6-1.1-0.8-1.6-0.8C532.1,69.5,531.9,69.6,531.6,69.8z"/>
	<path d="M538.7,70.6c0,0.8,0.7,1.2,1.1,1.5c1.2,0.8,1.6,1.2,1.6,2.1c0,0.8-0.6,1.3-0.9,1.5c-0.4,0.3-1,0.4-1.4,0.4
		c-0.5,0-0.9-0.1-1.4-0.3c-0.1-0.1-0.3-0.2-0.3-0.3c0-0.3,0-0.7-0.1-0.9c0-0.2,0-0.3,0.1-0.3c0.1,0,0.1,0,0.2,0.3
		c0.1,0.4,0.4,0.8,0.8,1c0.3,0.2,0.5,0.2,0.8,0.2c0.5,0,1.2-0.5,1.2-1.2c0-0.7-0.5-1.1-1.2-1.5c-0.8-0.5-1.5-1.2-1.5-2
		c0-0.6,0.3-1.1,0.7-1.4c0.3-0.3,0.8-0.5,1.5-0.5c0.5,0,1,0.1,1.2,0.2c0,0,0.1,0.1,0.1,0.2c0,0.2,0.1,0.6,0.1,0.8
		c0,0.2,0,0.3-0.1,0.3c-0.1,0-0.1-0.1-0.2-0.2c-0.1-0.3-0.2-0.5-0.4-0.7c-0.2-0.1-0.5-0.3-0.8-0.3C539.2,69.4,538.7,69.8,538.7,70.6
		z"/>
</g>
</svg>
